<svg width="64" height="64" viewBox="0 0 64 64" fill="none" xmlns="http://www.w3.org/2000/svg">
<g clip-path="url(#clip0_93_12462)">
<path d="M48.8417 35.5897C52.4758 35.5897 55.4217 32.6437 55.4217 29.0097C55.4217 25.3757 52.4758 22.4297 48.8417 22.4297C45.2077 22.4297 42.2617 25.3757 42.2617 29.0097C42.2617 32.6437 45.2077 35.5897 48.8417 35.5897Z" fill="#878787" stroke="black" stroke-linecap="round" stroke-linejoin="round"/>
<path d="M32.2188 30.7195C32.2188 30.7195 33.3487 41.6995 33.4587 45.5295C33.6787 52.8095 44.7887 53.3695 49.7987 45.9195C50.7487 44.4995 50.9987 42.6895 50.3587 41.1095C46.8787 32.5695 47.0788 26.2595 48.1488 22.2995C37.1888 20.3095 32.2287 30.7295 32.2287 30.7295L32.2188 30.7195Z" fill="white" stroke="black" stroke-linecap="round" stroke-linejoin="round"/>
<path d="M22.2391 8.60913C26.9591 2.68913 39.6291 -2.65087 47.9491 7.52913C58.0191 19.8491 47.0091 32.9991 47.0091 32.9991C45.9891 37.3491 45.3891 38.6691 32.5791 44.5391C30.2291 45.6191 27.7691 44.5991 26.3991 42.2191C22.1191 34.7791 19.9091 23.5391 19.0391 14.8791C21.0791 11.6691 19.8891 11.5491 22.2291 8.60913H22.2391Z" fill="white" stroke="black" stroke-linecap="round" stroke-linejoin="round"/>
<path d="M47.0212 33.0008C47.0212 33.0008 48.0312 28.2608 42.6912 21.1808C40.5112 18.2808 37.2812 22.1908 29.2612 20.9408C25.9212 20.4208 20.1512 18.6008 19.4112 16.4808C18.3712 13.5108 19.1612 8.61079 21.6512 6.32079C25.9312 2.40079 34.4012 -2.12921 43.6412 2.58079C55.7612 8.76079 56.3412 26.3808 47.0112 33.0008H47.0212Z" fill="#878787" stroke="black" stroke-linecap="round" stroke-linejoin="round"/>
<path d="M46.7919 31.6409C46.7919 31.6409 50.6019 25.3109 48.4019 22.2109C46.2019 19.1109 42.9219 22.6109 42.9219 22.6109L46.7819 31.6409H46.7919Z" fill="white" stroke="black" stroke-linecap="round" stroke-linejoin="round"/>
<path d="M18.6086 43.8102L13.5586 40.8902L13.5786 34.9902L15.3586 36.0202L15.3486 39.8802L18.6186 41.7702L18.6086 43.8102Z" fill="#878787" stroke="black" stroke-linecap="round" stroke-linejoin="round"/>
<path d="M32.8314 50.57L27.6914 47.6V45.56L31.0614 47.5L31.0714 43.75L32.8514 44.77L32.8314 50.57Z" fill="#878787" stroke="black" stroke-linecap="round" stroke-linejoin="round"/>
<path d="M33.8408 29.83L32.0608 28.81L32.0808 24.94L28.8008 23.05L28.8108 21L33.8608 23.92L33.8408 29.83Z" fill="#878787" stroke="black" stroke-linecap="round" stroke-linejoin="round"/>
<path d="M15.3503 19.0802L13.5703 18.0502L13.5803 12.2402L18.7303 15.2102V17.2602L15.3603 15.3102L15.3503 19.0802Z" fill="#878787" stroke="black" stroke-linecap="round" stroke-linejoin="round"/>
</g>
<defs>
<clipPath id="clip0_93_12462">
<rect width="64" height="64" fill="white"/>
</clipPath>
</defs>
</svg>
