<svg width="64" height="64" viewBox="0 0 64 64" fill="none" xmlns="http://www.w3.org/2000/svg">
<g clip-path="url(#clip0_93_12238)">
<path d="M33.9501 54.4098C31.7701 54.2798 29.7801 55.1799 30.1301 55.8099C30.6301 56.7299 32.1501 56.8598 34.2001 56.4598C36.2801 56.0598 37.5601 55.9498 37.5201 55.0498C37.4301 53.7498 36.0701 54.5199 33.9501 54.3999V54.4098Z" fill="#878787" stroke="black" stroke-linecap="round" stroke-linejoin="round"/>
<path d="M35.6088 55.4305C35.9988 55.5005 36.3688 55.5405 36.7788 55.3705C37.0588 55.2605 37.2788 54.9705 37.2988 54.6705C37.5188 52.1205 40.2888 48.1205 38.3588 43.6105C38.2088 43.2505 40.5488 38.6905 40.4088 38.4205C32.3688 22.5405 34.1988 42.0105 34.0488 43.6805C33.8888 45.5105 34.8088 52.5005 34.9288 54.7005C34.9488 55.0805 35.2388 55.3705 35.6088 55.4305Z" fill="white" stroke="black" stroke-linecap="round" stroke-linejoin="round"/>
<path d="M40.6691 39.9505C41.0991 40.1405 41.5591 28.8505 41.5591 28.8505L36.1691 26.5605C36.1691 26.5605 33.7191 31.6605 33.6291 38.0405C33.5891 40.5105 39.9191 39.6205 40.6791 39.9505H40.6691Z" fill="#878787" stroke="black" stroke-linecap="round" stroke-linejoin="round"/>
<path d="M42.3889 55.3401C41.3689 56.9801 40.2389 57.5801 41.4389 58.3301C42.6389 59.0801 43.7989 58.5801 44.8189 56.9501C45.8389 55.3101 46.4689 53.8401 45.1889 53.0401C43.9089 52.2401 43.4089 53.7001 42.3889 55.3401Z" fill="#878787" stroke="black" stroke-linecap="round" stroke-linejoin="round"/>
<path d="M44.3591 54.73C44.7591 54.69 45.1191 54.64 45.4691 54.37C45.7091 54.19 45.7691 53.88 45.7491 53.58C45.5191 50.22 47.1891 45.98 45.3291 42.71C45.1791 42.45 46.5891 38.12 46.3491 37.94C35.5991 29.98 41.0991 42.32 41.0591 43.33C40.9591 45.94 42.9191 52.21 43.4291 54.16C43.5291 54.52 43.9891 54.77 44.3591 54.73Z" fill="white" stroke="black" stroke-linecap="round" stroke-linejoin="round"/>
<path d="M46.5793 39.431C46.2293 36.751 48.5193 28.771 45.2493 26.291L38.6393 27.161C38.5693 28.111 38.4193 31.521 38.4393 32.941C38.4393 33.061 39.1893 33.251 39.2593 33.251C39.4693 35.551 39.4093 38.581 39.7493 40.341C40.4593 40.341 46.7993 41.061 46.5893 39.421L46.5793 39.431Z" fill="#878787" stroke="black" stroke-linecap="round" stroke-linejoin="round"/>
<path d="M22.3074 18.9707C22.5974 19.0307 23.0574 18.9307 23.1474 19.0007C23.1474 19.0307 22.7974 19.2907 22.2774 19.4407C21.6574 19.6207 21.4374 19.6507 21.3574 19.7407C20.8174 20.0907 21.6974 21.3007 21.8174 21.4107C22.2874 21.8407 23.2974 21.7707 23.7674 21.6507C24.2974 21.5207 24.7774 20.9407 24.9874 20.6507C25.1274 20.4507 25.7174 20.4507 25.8874 20.3707C26.5674 20.0607 26.0574 18.0507 25.6374 18.1607C25.2574 18.2607 25.0174 18.2507 24.7274 18.1007C24.1874 17.8207 23.3074 18.0907 23.1674 18.1707C22.8574 18.3507 22.2374 18.4007 21.9874 18.3707C21.9174 18.3707 21.8574 18.4107 21.8574 18.4807C21.8374 18.6807 21.9274 18.9107 22.2874 18.9807L22.3074 18.9707Z" fill="white" stroke="black" stroke-linecap="round" stroke-linejoin="round"/>
<path d="M28.7057 23.4885C28.5803 24.0687 29.5595 25.7529 30.16 25.7321C30.2864 25.7277 37.933 24.5985 39.1714 22.078C39.316 21.7787 39.5612 21.5487 39.5433 21.214C39.4716 20.3336 39.3308 18.4653 39.2637 16.6229C39.2162 15.4349 39.3473 13.9242 38.5171 13.0702C37.6508 12.1763 35.8032 12.4587 35.6119 13.693C35.1593 16.5185 36.3157 20.0255 36.3157 20.0255C35.4079 20.8543 32.1798 21.384 29.5727 23.123C29.3746 23.2501 28.78 23.2581 28.728 23.4909L28.7057 23.4885Z" fill="#878787" stroke="black" stroke-linecap="round" stroke-linejoin="round"/>
<path d="M36.0577 26.5006C35.7277 29.5406 43.7077 26.5306 45.3677 26.3806C45.0777 25.1606 44.8377 25.1106 44.7777 24.1406C44.6477 21.9006 45.2677 16.9506 45.8477 14.6806C46.2177 13.2106 44.5177 12.7306 43.0477 12.4206L37.4077 10.4106C35.0577 10.3806 35.7277 12.0306 35.8277 12.9006C35.8277 12.9006 35.5877 13.6706 34.9477 15.0606C34.7277 15.5406 34.1977 16.5206 34.2777 17.1106C34.5477 18.9806 35.7077 20.1806 35.7077 20.5606C35.6977 21.6406 36.0477 25.8106 36.0677 26.5006H36.0577Z" fill="#878787" stroke="black" stroke-linecap="round" stroke-linejoin="round"/>
<path d="M37.8689 11.9004H41.8789V7.14039L37.8689 7.14039V11.9004Z" fill="white" stroke="black" stroke-linecap="round" stroke-linejoin="round"/>
<path d="M36.4868 5.49974C35.4568 7.60974 35.9568 8.98974 36.6368 9.98974C37.1768 10.7897 40.0068 10.6097 41.2668 9.81974C41.7568 9.50974 43.1268 8.07974 43.3068 7.78974C43.6068 7.28974 43.6568 7.00974 43.8968 6.37974C45.0468 3.33974 44.3768 1.68974 42.0568 1.04974C40.3468 0.579742 38.7368 0.399742 37.2468 2.86974C37.0668 3.16974 36.6768 5.09974 36.4868 5.50974V5.49974Z" fill="white" stroke="black" stroke-linecap="round" stroke-linejoin="round"/>
<g style="mix-blend-mode:multiply">
<path d="M22.2901 19.1098C22.5801 19.1698 23.0201 18.9098 23.1101 18.9798C23.1101 19.0098 24.9201 18.4398 24.6301 18.2898C24.0901 18.0098 23.3101 18.2498 23.1701 18.3398C22.8601 18.5198 22.2401 18.5698 21.9901 18.5398C21.9201 18.5398 21.8901 18.5398 21.8901 18.6198C21.8701 18.8198 21.9301 19.0498 22.2901 19.1198V19.1098Z" fill="white"/>
<path d="M22.2901 19.1098C22.5801 19.1698 23.0201 18.9098 23.1101 18.9798C23.1101 19.0098 24.9201 18.4398 24.6301 18.2898C24.0901 18.0098 23.3101 18.2498 23.1701 18.3398C22.8601 18.5198 22.2401 18.5698 21.9901 18.5398C21.9201 18.5398 21.8901 18.5398 21.8901 18.6198C21.8701 18.8198 21.9301 19.0498 22.2901 19.1198V19.1098Z" stroke="black" stroke-linecap="round" stroke-linejoin="round"/>
</g>
<path d="M22.3076 18.9704C22.5976 19.0304 23.0576 18.9304 23.1476 19.0004C23.1476 19.0304 25.0076 18.4004 24.7176 18.2504C24.1776 17.9704 23.3276 18.0804 23.1876 18.1604C22.8776 18.3404 22.2576 18.3904 22.0076 18.3604C21.9376 18.3604 21.8776 18.4004 21.8776 18.4704C21.8576 18.6704 21.9476 18.9004 22.3076 18.9704Z" fill="white" stroke="black" stroke-linecap="round" stroke-linejoin="round"/>
<g style="mix-blend-mode:multiply">
<path d="M22.5084 19.3809C23.3684 19.8409 23.2484 21.0109 23.2184 21.7409C23.2184 21.7409 22.6484 19.7809 22.1484 19.4709L22.5084 19.3809Z" fill="white"/>
<path d="M22.5084 19.3809C23.3684 19.8409 23.2484 21.0109 23.2184 21.7409C23.2184 21.7409 22.6484 19.7809 22.1484 19.4709L22.5084 19.3809Z" stroke="black" stroke-linecap="round" stroke-linejoin="round"/>
</g>
<path d="M44.0395 29.4102C44.2595 29.2202 44.4695 28.7902 44.5695 28.7602C44.5995 28.7602 44.5795 29.2102 44.3795 29.7202C44.1395 30.3202 44.0395 30.5102 44.0495 30.6302C43.9995 31.2702 45.4895 31.3102 45.6595 31.2802C46.2895 31.1702 46.8395 30.3302 47.0395 29.8802C47.2595 29.3802 47.0995 28.6502 46.9895 28.3002C46.9195 28.0702 47.2495 27.6102 47.2895 27.4302C47.4595 26.7002 45.6495 25.8702 45.4895 26.2702C45.3395 26.6302 45.2195 26.9302 44.9295 27.0702C44.3795 27.3302 43.9495 28.0702 43.9295 28.2302C43.8795 28.5802 43.5395 29.1002 43.3695 29.2902C43.3195 29.3402 43.3195 29.4102 43.3695 29.4602C43.5195 29.6002 43.7495 29.6702 44.0295 29.4202L44.0395 29.4102Z" fill="white" stroke="black" stroke-linecap="round" stroke-linejoin="round"/>
<path d="M45.1199 26.5807C45.3399 27.0807 46.92 27.7407 47.43 27.5507C47.63 27.4807 47.6199 27.0707 47.7099 26.8807C48.2399 25.7507 51.0099 23.0207 50.2099 19.4007C49.9499 18.2107 48.6299 14.1007 46.3499 12.6107C45.5299 12.0807 44.8399 11.3907 43.9399 11.8407C43.3599 12.1307 42.57 14.1807 42.77 14.9607C43.5 17.7407 46.81 20.0107 46.81 20.0107C46.81 20.0107 45.92 25.8207 45.2 26.2807C45.1 26.3407 45.0699 26.4707 45.1199 26.5707V26.5807Z" fill="#878787" stroke="black" stroke-linecap="round" stroke-linejoin="round"/>
<path d="M21.9474 19.5199C21.5274 19.6299 21.4274 19.6599 21.3574 19.7299C20.8174 20.0799 21.6974 21.2899 21.8174 21.3999C22.2874 21.8299 22.0174 19.4899 21.9374 19.5099L21.9474 19.5199Z" fill="white" stroke="black" stroke-linecap="round" stroke-linejoin="round"/>
<path d="M40.4985 19.2606C40.7085 20.0006 45.1585 19.8506 46.3285 18.4506C46.3285 18.4506 47.8385 14.6506 45.7985 10.5706C44.2685 7.51063 45.2785 3.43063 43.8685 1.79063C42.5085 0.210634 39.4585 0.140635 38.0585 1.65063C36.0385 3.84063 39.2285 8.57063 40.6185 12.1406C41.7685 15.1006 39.9985 17.5406 40.4985 19.2506V19.2606Z" fill="white" stroke="black" stroke-linecap="round" stroke-linejoin="round"/>
<g style="mix-blend-mode:multiply">
<path d="M44.0395 29.55C44.2595 29.36 44.3995 28.92 44.5095 28.9C44.5395 28.9 45.0795 27.11 44.7795 27.25C44.2295 27.51 43.9495 28.2 43.9295 28.37C43.8795 28.72 43.5395 29.24 43.3695 29.43C43.3195 29.48 43.3195 29.55 43.3695 29.6C43.5195 29.74 43.7495 29.81 44.0295 29.56L44.0395 29.55Z" fill="white"/>
<path d="M44.0395 29.55C44.2595 29.36 44.3995 28.92 44.5095 28.9C44.5395 28.9 45.0795 27.11 44.7795 27.25C44.2295 27.51 43.9495 28.2 43.9295 28.37C43.8795 28.72 43.5395 29.24 43.3695 29.43C43.3195 29.48 43.3195 29.55 43.3695 29.6C43.5195 29.74 43.7495 29.81 44.0295 29.56L44.0395 29.55Z" stroke="black" stroke-linecap="round" stroke-linejoin="round"/>
</g>
<path d="M44.0373 29.4103C44.2573 29.2203 44.4673 28.7903 44.5673 28.7603C44.5973 28.7603 45.2273 26.9203 44.9373 27.0603C44.3873 27.3203 43.9573 28.0603 43.9373 28.2203C43.8873 28.5703 43.5473 29.0903 43.3773 29.2803C43.3273 29.3303 43.3273 29.4003 43.3773 29.4503C43.5273 29.5903 43.7573 29.6603 44.0373 29.4103Z" fill="white" stroke="black" stroke-linecap="round" stroke-linejoin="round"/>
<path d="M20.4009 11.409C21.6309 10.769 23.3209 10.859 25.2009 11.829C28.9209 13.749 31.9309 18.399 31.9209 22.219C31.9209 24.119 31.1609 25.449 29.9509 26.079L27.5109 27.339C28.7209 26.709 29.4709 25.379 29.4809 23.479C29.4909 19.659 26.4809 15.009 22.7609 13.089C20.8909 12.119 19.1909 12.029 17.9609 12.669L20.4009 11.409Z" fill="white" stroke="black" stroke-linecap="round" stroke-linejoin="round"/>
<path d="M22.76 13.0899C19.04 11.1699 16.01 12.7099 16 16.5299C15.99 20.3499 19 24.9999 22.72 26.9199C26.44 28.8399 29.47 27.2999 29.49 23.4799C29.5 19.6599 26.49 15.0099 22.77 13.0899H22.76Z" fill="white" stroke="black" stroke-linecap="round" stroke-linejoin="round"/>
<path d="M20.3519 15.19C19.5619 14.78 18.9219 15.11 18.9219 15.92C18.9219 16.73 19.5619 17.72 20.3419 18.12C21.1319 18.53 21.7719 18.2 21.7719 17.39C21.7719 16.58 21.1319 15.59 20.3519 15.19Z" fill="#878787" stroke="black" stroke-linecap="round" stroke-linejoin="round"/>
<path d="M25.1527 17.6685C24.3627 17.2585 23.7227 17.5885 23.7227 18.3985C23.7227 19.2085 24.3627 20.1985 25.1427 20.5985C25.9327 21.0085 26.5727 20.6785 26.5727 19.8685C26.5727 19.0585 25.9327 18.0685 25.1527 17.6685Z" fill="#878787" stroke="black" stroke-linecap="round" stroke-linejoin="round"/>
<path d="M25.6988 27.9516C25.8526 27.5316 25.3341 26.9555 24.5406 26.665C23.7471 26.3744 22.9792 26.4795 22.8254 26.8995C22.6716 27.3196 23.1901 27.8957 23.9836 28.1862C24.7771 28.4767 25.545 28.3717 25.6988 27.9516Z" fill="white" stroke="black" stroke-linecap="round" stroke-linejoin="round"/>
</g>
<defs>
<clipPath id="clip0_93_12238">
<rect width="64" height="64" fill="white"/>
</clipPath>
</defs>
</svg>
