<svg width="64" height="64" viewBox="0 0 64 64" fill="none" xmlns="http://www.w3.org/2000/svg">
<g clip-path="url(#clip0_93_10832)">
<path d="M10.3809 55.4203L15.8009 58.5703L18.1309 57.2203L12.7109 54.0703L10.3809 55.4203Z" fill="#B69751" stroke="black" stroke-linecap="round" stroke-linejoin="round"/>
<path d="M45.8711 34.7895L51.2911 37.9395L53.6211 36.5895L48.2011 33.4395L45.8711 34.7895Z" fill="#B69751" stroke="black" stroke-linecap="round" stroke-linejoin="round"/>
<path d="M14.2715 41.7003L49.7615 21.1903V0.570312L14.2715 21.0803V41.7003Z" fill="white" stroke="black" stroke-linecap="round" stroke-linejoin="round"/>
<path d="M24.4001 21.8305L22.5801 22.8805V20.4305C22.5801 20.3705 22.6101 20.3105 22.6601 20.2805L24.4801 19.2305V21.6805C24.4801 21.7405 24.4501 21.8005 24.4001 21.8205V21.8305Z" fill="#B69751" stroke="black" stroke-linecap="round" stroke-linejoin="round"/>
<path d="M24.0212 27.4103L22.2012 28.4603V26.0103C22.2012 25.9503 22.2312 25.8903 22.2812 25.8703L24.1012 24.8203V27.2703C24.1012 27.3303 24.0712 27.3903 24.0212 27.4103Z" fill="white" stroke="black" stroke-linecap="round" stroke-linejoin="round"/>
<path d="M27.7302 25.4005L25.9102 26.4505V24.0005C25.9102 23.9405 25.9402 23.8805 25.9902 23.8605L27.8102 22.8105V25.2605C27.8102 25.3205 27.7802 25.3805 27.7302 25.4005Z" fill="white" stroke="black" stroke-linecap="round" stroke-linejoin="round"/>
<path d="M20.4118 33.7502L18.5918 34.8002V32.3502C18.5918 32.2902 18.6218 32.2302 18.6718 32.2102L20.4918 31.1602V33.6102C20.4918 33.6702 20.4618 33.7302 20.4118 33.7502Z" fill="white" stroke="black" stroke-linecap="round" stroke-linejoin="round"/>
<path d="M23.7204 31.5802L21.9004 32.6302V30.1802C21.9004 30.1202 21.9304 30.0602 21.9804 30.0402L23.8004 28.9902V31.4402C23.8004 31.5002 23.7704 31.5602 23.7204 31.5802Z" fill="#B69751" stroke="black" stroke-linecap="round" stroke-linejoin="round"/>
<path d="M28.1813 29.5412L26.3613 30.5912V28.1412C26.3613 28.0812 26.3913 28.0212 26.4413 28.0012L28.2613 26.9512V29.4012C28.2613 29.4612 28.2313 29.5212 28.1813 29.5412Z" fill="white" stroke="black" stroke-linecap="round" stroke-linejoin="round"/>
<path d="M34.7712 17.0607L32.9512 18.1107V15.6607C32.9512 15.6007 32.9812 15.5407 33.0312 15.5207L34.8512 14.4707V16.9207C34.8512 16.9807 34.8212 17.0407 34.7712 17.0607Z" fill="white" stroke="black" stroke-linecap="round" stroke-linejoin="round"/>
<path d="M32.5016 23.7211L30.6816 24.7711V22.3211C30.6816 22.2611 30.7116 22.2011 30.7616 22.1711L32.5816 21.1211V23.5711C32.5816 23.6311 32.5516 23.6811 32.5016 23.7111V23.7211Z" fill="white" stroke="black" stroke-linecap="round" stroke-linejoin="round"/>
<path d="M36.3317 20.9806L34.5117 22.0306V19.5806C34.5117 19.5206 34.5417 19.4606 34.5917 19.4406L36.4117 18.3906V20.8406C36.4117 20.9006 36.3817 20.9606 36.3317 20.9906V20.9806Z" fill="#B69751" stroke="black" stroke-linecap="round" stroke-linejoin="round"/>
<path d="M40.0407 17.8107L38.2207 18.8607V16.4107C38.2207 16.3507 38.2507 16.2907 38.3007 16.2707L40.1207 15.2207V17.6707C40.1207 17.7307 40.0907 17.7907 40.0407 17.8107Z" fill="white" stroke="black" stroke-linecap="round" stroke-linejoin="round"/>
<path d="M32.5016 28.0295L30.6816 29.0795V26.6295C30.6816 26.5695 30.7116 26.5095 30.7616 26.4895L32.5816 25.4395V27.8895C32.5816 27.9495 32.5516 28.0095 32.5016 28.0295Z" fill="#B69751" stroke="black" stroke-linecap="round" stroke-linejoin="round"/>
<path d="M36.1208 25.5295L34.3008 26.5795V24.1295C34.3008 24.0695 34.3308 24.0095 34.3808 23.9895L36.2008 22.9395V25.3895C36.2008 25.4495 36.1708 25.5095 36.1208 25.5395V25.5295Z" fill="white" stroke="black" stroke-linecap="round" stroke-linejoin="round"/>
<path d="M40.4118 22.5197L38.5918 23.5697V21.1197C38.5918 21.0597 38.6218 20.9997 38.6718 20.9797L40.4918 19.9297V22.3797C40.4918 22.4397 40.4618 22.4997 40.4118 22.5197Z" fill="white" stroke="black" stroke-linecap="round" stroke-linejoin="round"/>
<path d="M45.861 8.09L44.041 9.14V6.69C44.041 6.63 44.071 6.57 44.121 6.55L45.941 5.5V7.95C45.941 8.01 45.911 8.07 45.861 8.09Z" fill="#B69751" stroke="black" stroke-linecap="round" stroke-linejoin="round"/>
<path d="M47.2106 12.5002L45.3906 13.5502V11.1002C45.3906 11.0402 45.4206 10.9802 45.4706 10.9602L47.2906 9.91016V12.3602C47.2906 12.4202 47.2606 12.4802 47.2106 12.5102V12.5002Z" fill="white" stroke="black" stroke-linecap="round" stroke-linejoin="round"/>
<path d="M43.6305 17.2404L41.8105 18.2904V15.8404C41.8105 15.7804 41.8405 15.7204 41.8905 15.7004L43.7105 14.6504V17.1004C43.7105 17.1604 43.6805 17.2204 43.6305 17.2404Z" fill="#B69751" stroke="black" stroke-linecap="round" stroke-linejoin="round"/>
<path d="M47.2106 16.5705L45.3906 17.6205V15.1705C45.3906 15.1105 45.4206 15.0505 45.4706 15.0305L47.2906 13.9805V16.4305C47.2906 16.4905 47.2606 16.5505 47.2106 16.5805V16.5705Z" fill="#B69751" stroke="black" stroke-linecap="round" stroke-linejoin="round"/>
<path d="M44.0505 22.4298L42.2305 23.4798V21.0298C42.2305 20.9698 42.2605 20.9098 42.3105 20.8898L44.1305 19.8398V22.2898C44.1305 22.3498 44.1005 22.4098 44.0505 22.4298Z" fill="white" stroke="black" stroke-linecap="round" stroke-linejoin="round"/>
<path d="M20.2809 27.9904L18.4609 29.0404V26.5904C18.4609 26.5304 18.4909 26.4704 18.5409 26.4504L20.3609 25.4004V27.8504C20.3609 27.9104 20.3309 27.9704 20.2809 28.0004V27.9904Z" fill="white" stroke="black" stroke-linecap="round" stroke-linejoin="round"/>
<path d="M49.7715 0.570312V35.4203" stroke="black" stroke-linecap="round" stroke-linejoin="round"/>
<path d="M14.2715 21.0605V55.9205" stroke="black" stroke-linecap="round" stroke-linejoin="round"/>
</g>
<defs>
<clipPath id="clip0_93_10832">
<rect width="64" height="64" fill="white"/>
</clipPath>
</defs>
</svg>
