<svg width="64" height="64" viewBox="0 0 64 64" fill="none" xmlns="http://www.w3.org/2000/svg">
<g clip-path="url(#clip0_93_11826)">
<path d="M15.62 33.5689C15.94 35.6389 16.9 37.6889 18.44 38.4589C19.98 39.2289 22.14 40.5289 22.85 37.5989C23.56 34.6689 36.46 23.3889 36.77 23.3389C37.08 23.2889 47.03 15.9189 47.03 15.9189C47.03 15.9189 46.5 13.9289 42.9 12.3889C39.35 10.8689 34.14 10.8089 30.2 12.1889C25.86 13.7089 23.26 16.0889 19.94 19.9689C16.54 23.9489 14.78 28.0489 15.63 33.5689H15.62Z" fill="#878787" stroke="black" stroke-linecap="round" stroke-linejoin="round"/>
<path d="M19.2493 38.0393C18.3593 38.0393 17.5893 37.5193 17.0093 36.8693C16.3993 36.1893 16.2993 35.2693 17.1293 34.8793H17.1493C17.7093 34.6093 18.3793 34.7393 18.7793 35.2093C18.9793 35.4393 19.1593 35.5993 19.2693 35.6093C19.2893 35.5993 19.2993 35.5893 19.3193 35.5293C19.4793 35.0893 19.2893 33.9693 18.5993 32.7493C17.8993 31.4993 17.7893 30.0093 18.3093 28.7693C18.7993 27.5993 19.7993 26.7493 21.1393 26.3793C21.7593 26.2093 22.3093 26.1493 22.7893 26.1593C24.2193 26.1993 24.6593 28.1093 23.3893 28.7493C23.3893 28.7493 23.3893 28.7793 23.4293 28.8193C23.4193 28.7993 23.0793 28.3693 21.7893 28.7193C21.1693 28.8893 20.7593 29.2193 20.5593 29.7093C20.3293 30.2593 20.3893 30.9793 20.7293 31.5693C21.1093 32.2393 22.2893 34.5693 21.6093 36.3893C21.3393 37.1093 20.7993 37.6493 20.0793 37.9093C19.7993 38.0093 19.5293 38.0593 19.2693 38.0593L19.2493 38.0393Z" fill="#878787" stroke="black" stroke-linecap="round" stroke-linejoin="round"/>
<path d="M17.0098 33.5489C16.3598 34.0589 15.3798 33.7889 15.1198 32.9989C14.9098 32.3789 14.7298 31.5689 14.7198 30.5789C14.6998 29.4289 14.9798 28.4889 15.3098 27.7889C15.6598 27.0389 16.6398 26.8689 17.2398 27.4289C17.6098 27.7889 17.7298 28.3389 17.5098 28.8089C17.3198 29.2189 17.1398 29.8089 17.1498 30.5389C17.1598 31.2389 17.2798 31.7889 17.4098 32.1889C17.5698 32.6789 17.4198 33.2189 17.0198 33.5489H17.0098Z" fill="white" stroke="black" stroke-linecap="round" stroke-linejoin="round"/>
<path d="M17.639 26.1494C17.009 25.6094 17.099 24.6094 17.809 24.1894C18.879 23.5394 20.629 22.8994 23.029 23.3194C23.799 23.4594 24.219 23.2794 24.329 23.0894C24.419 22.9394 24.389 22.7294 24.269 22.5494C24.069 22.2794 23.469 21.6794 22.219 21.8394C21.689 21.9094 21.229 22.0594 20.859 22.2094C20.349 22.4194 19.759 22.2494 19.429 21.7994C18.969 21.1594 19.209 20.2594 19.939 19.9594C20.469 19.7394 21.139 19.5294 21.909 19.4294C24.509 19.0894 25.869 20.6294 26.219 21.1094C26.939 22.0894 27.009 23.3694 26.399 24.3694C25.699 25.4994 24.289 25.9994 22.609 25.7094C20.929 25.4194 19.749 25.8494 19.069 26.2594C18.619 26.5294 18.039 26.4994 17.639 26.1494Z" fill="white" stroke="black" stroke-linecap="round" stroke-linejoin="round"/>
<path d="M31.729 19.2791C31.319 19.8591 30.509 19.9691 29.959 19.5191C28.659 18.4491 27.059 16.7991 27.209 15.2491C27.319 14.1091 27.899 13.2491 28.799 12.8691C29.759 12.4691 30.879 12.6891 31.869 13.4891L32.089 13.6691C32.519 14.0191 33.399 14.7391 33.719 14.6791C33.759 14.6791 33.899 14.5791 34.099 14.2491C34.119 14.2091 34.129 14.1891 34.129 14.1891C34.099 14.0291 33.769 13.7291 33.339 13.4491C32.849 13.1291 32.649 12.5191 32.859 11.9791C33.139 11.2791 33.989 10.9891 34.629 11.3991C35.339 11.8491 36.109 12.5191 36.419 13.4091C36.659 14.1091 36.579 14.8291 36.189 15.4891C35.659 16.3991 34.969 16.9291 34.149 17.0791C32.729 17.3291 31.529 16.3491 30.559 15.5691L30.349 15.3991C29.999 15.1191 29.779 15.1091 29.739 15.1191C29.729 15.1291 29.649 15.2391 29.629 15.4991C29.669 15.8691 30.499 16.8091 31.529 17.6691C32.009 18.0691 32.089 18.7791 31.729 19.2991V19.2791Z" fill="#878787" stroke="black" stroke-linecap="round" stroke-linejoin="round"/>
<path d="M28.1398 20.9887C27.6398 21.2387 27.0398 21.0987 26.6798 20.6687C26.3998 20.3287 26.0198 19.9187 25.5198 19.5387C25.0298 19.1587 24.2998 18.8787 23.6898 18.6987C23.1198 18.5287 22.7698 17.9687 22.8598 17.3887V17.3187C22.9798 16.6087 23.6898 16.1687 24.3798 16.3687C25.1798 16.5987 26.2098 16.9987 27.0098 17.6187C27.6898 18.1487 28.2098 18.6987 28.5898 19.1587C29.0698 19.7487 28.8798 20.6187 28.2098 20.9587L28.1498 20.9887H28.1398Z" fill="white" stroke="black" stroke-linecap="round" stroke-linejoin="round"/>
<path d="M22.8996 40.7488C23.6796 42.1788 26.1096 44.6489 30.7396 45.2189C35.0196 45.7389 39.7896 44.5688 45.5596 41.3788C51.3396 38.1888 56.3696 35.8289 55.6696 27.8189C54.9696 19.8089 50.0596 16.8389 47.8796 15.9489C45.6996 15.0589 41.1496 15.0589 37.5196 16.9089C34.3396 18.5389 28.3996 22.7889 25.4096 28.2489C22.5896 33.3889 21.5696 38.3188 22.8896 40.7388L22.8996 40.7488Z" fill="#878787" stroke="black" stroke-linecap="round" stroke-linejoin="round"/>
<path d="M31.179 44.5384C30.849 44.5384 30.519 44.5184 30.179 44.4884C27.679 44.2284 25.769 43.2584 24.929 41.8384C24.439 41.0084 24.359 40.0784 24.699 39.2584C25.479 37.4084 28.489 37.7084 31.279 38.4584C31.949 38.6384 32.329 39.3384 32.119 39.9984C31.919 40.6184 31.279 40.9684 30.659 40.8084C29.069 40.3984 27.519 40.1984 26.929 40.3484C26.939 40.4484 26.989 40.5384 27.029 40.5984C27.369 41.1684 28.439 41.8584 30.439 42.0684C32.029 42.2384 33.349 41.8784 33.959 41.0984C34.339 40.6284 34.409 40.0384 34.169 39.3384C33.799 38.2484 30.229 37.4584 27.259 37.4284L25.069 37.4084C24.289 37.4084 24.059 36.3284 24.779 36.0084L26.779 35.1084C26.779 35.1084 28.799 34.1384 28.399 32.9584C28.149 32.2184 27.459 31.9684 27.069 31.8884C26.299 31.7284 25.469 31.9384 25.049 32.3984C24.709 32.7684 24.659 33.2184 24.689 33.5784C24.729 34.0484 24.489 34.4984 24.069 34.7184H24.039C23.259 35.1384 22.329 34.6084 22.259 33.7384C22.189 32.8084 22.389 31.7184 23.239 30.7784C24.239 29.6684 25.929 29.1784 27.559 29.5184C29.089 29.8384 30.229 30.8184 30.699 32.1984C31.089 33.3784 30.819 34.4084 30.279 35.2384C32.709 35.5884 35.739 36.4384 36.459 38.5584C36.969 40.0484 36.749 41.4884 35.849 42.6184C34.859 43.8584 33.189 44.5384 31.179 44.5384Z" fill="white" stroke="black" stroke-linecap="round" stroke-linejoin="round"/>
<path d="M23.919 41.5102C23.379 42.0702 22.449 41.9802 22.059 41.3102C21.729 40.7602 21.439 40.0502 21.409 39.2602C21.389 38.7602 21.479 38.2702 21.599 37.8402C21.809 37.0902 22.669 36.7302 23.339 37.1302L23.389 37.1602C23.849 37.4302 24.079 37.9702 23.929 38.4802C23.869 38.7102 23.819 38.9502 23.829 39.1802C23.829 39.4602 23.959 39.7602 24.119 40.0202C24.389 40.4802 24.329 41.0602 23.959 41.4502L23.909 41.5002L23.919 41.5102Z" fill="white" stroke="black" stroke-linecap="round" stroke-linejoin="round"/>
<path d="M38.0501 44.239C37.2901 44.459 36.5301 43.899 36.5001 43.109C36.4801 42.389 36.6001 41.579 37.1201 40.979C37.4001 40.649 38.0401 40.129 39.1801 40.269C40.2601 40.409 40.9301 40.199 41.1901 39.949C41.2501 39.889 41.4301 39.729 41.4001 39.249C41.3701 38.709 41.0101 38.349 40.6401 38.119C40.2101 37.849 39.9801 37.349 40.0901 36.849V36.789C40.2901 36.009 41.1801 35.609 41.8701 36.029C42.8301 36.609 43.7501 37.609 43.8201 39.129C43.8901 40.459 43.3201 41.279 42.8301 41.729C41.9601 42.539 40.5801 42.869 38.9401 42.679C38.9301 42.769 38.9301 42.889 38.9401 43.019C38.9601 43.579 38.5901 44.079 38.0601 44.229L38.0501 44.239Z" fill="white" stroke="black" stroke-linecap="round" stroke-linejoin="round"/>
<path d="M45.5089 38.149C45.3189 38.149 45.1389 38.119 44.9589 38.069C43.6989 37.689 42.5489 35.909 43.4489 32.119C43.8889 30.299 42.8289 29.449 41.0489 28.259C39.8489 27.469 38.3689 26.479 38.8189 24.799C39.0689 23.849 39.6889 23.179 40.5689 22.909C42.3989 22.329 44.6989 23.689 45.7689 24.589C46.2189 24.959 46.5689 25.269 46.8489 25.529C47.4089 26.039 47.3789 26.929 46.7789 27.389L45.9489 28.039C45.9489 28.039 45.5789 27.609 44.2089 26.449C43.1489 25.559 41.7989 25.069 41.2989 25.219C41.2689 25.219 41.2389 25.239 41.1989 25.329C41.3889 25.559 41.9889 25.959 42.3989 26.229C43.9989 27.289 46.6789 29.069 45.8189 32.669C45.4989 33.999 45.5289 34.859 45.6289 35.339C45.6589 35.269 45.6889 35.199 45.7189 35.109C46.3589 33.359 47.4189 30.419 50.2689 30.829C51.1589 30.959 51.9189 31.549 52.2989 32.409C52.5389 32.949 52.6089 33.539 52.5189 34.139C52.3889 35.009 51.3689 35.439 50.6389 34.949C50.2489 34.679 50.0689 34.219 50.1189 33.739C50.1289 33.609 50.1189 33.489 50.0789 33.399C50.0289 33.299 49.9689 33.239 49.9189 33.239C49.4289 33.169 48.9489 33.329 47.9989 35.939C47.4289 37.499 46.4189 38.139 45.5089 38.139V38.149Z" fill="white" stroke="black" stroke-linecap="round" stroke-linejoin="round"/>
<path d="M45.5702 41.3796H45.5602C45.0102 41.3796 44.5902 40.8896 44.6802 40.3496L44.7102 40.1396V40.0796C44.8102 39.4696 45.2902 39.0096 45.8902 38.8896C46.3402 38.8096 46.8602 38.6196 47.3002 38.2296C47.7502 37.8196 48.0102 37.4096 48.1602 37.0696C48.3502 36.6396 48.7702 36.3496 49.2402 36.3496H49.3302C50.1702 36.3496 50.7402 37.1996 50.4102 37.9796C50.1502 38.6096 49.7002 39.3396 48.9302 40.0296C47.6402 41.1896 46.4502 41.3796 45.5802 41.3796H45.5702Z" fill="white" stroke="black" stroke-linecap="round" stroke-linejoin="round"/>
<path d="M53.6904 31.2491C52.8904 31.2491 52.1604 30.8591 51.5704 30.5391C51.2104 30.3491 50.8504 30.1491 50.4304 29.9891C49.6204 29.6691 49.0204 29.9091 48.6404 30.1891C48.2804 30.4591 47.8004 30.4991 47.4204 30.2591L47.3504 30.2191C46.5904 29.7591 46.5604 28.6891 47.2804 28.1891C48.2404 27.5091 49.6304 27.0691 51.3204 27.7291C51.8704 27.9491 52.3204 28.1891 52.7204 28.4091C53.6204 28.8991 53.6604 28.8691 53.8304 28.7291C53.8604 28.7091 53.8704 28.6891 53.8704 28.6891C53.8704 28.6191 53.7004 28.0991 52.7404 27.4291C52.0904 26.9691 51.1304 26.8391 50.3804 26.8191C49.7904 26.8091 49.2904 26.3791 49.2004 25.7891C49.0804 25.0491 49.6604 24.3691 50.4104 24.3891C51.4704 24.4091 52.9404 24.6091 54.1204 25.4391C55.4704 26.3791 56.2304 27.4991 56.2804 28.5991C56.3104 29.3791 55.9904 30.0891 55.3604 30.5991C54.7804 31.0791 54.2104 31.2491 53.6804 31.2491H53.6904Z" fill="#878787" stroke="black" stroke-linecap="round" stroke-linejoin="round"/>
<path d="M25.9794 28.1801C25.3294 27.8901 25.0694 27.1101 25.4094 26.4901C26.1294 25.1701 27.4894 23.0001 29.3194 21.4101C31.3594 19.6401 33.4694 19.7701 34.6594 20.6801C35.7494 21.5101 36.0494 22.9601 35.3994 24.2601C35.6394 24.3501 36.0794 24.4101 36.5594 24.4301C37.1594 24.4501 37.6494 24.9101 37.7194 25.5101C37.7994 26.2401 37.2194 26.8901 36.4894 26.8601C35.3794 26.8201 33.9794 26.5701 33.3094 25.6201C33.0294 25.2301 32.6494 24.3801 33.2394 23.1701C33.4294 22.7801 33.2594 22.6501 33.1994 22.6001C32.8794 22.3601 31.9794 22.3201 30.9194 23.2301C29.3694 24.5701 28.1794 26.4901 27.5494 27.6401C27.2494 28.2001 26.5694 28.4201 25.9894 28.1601L25.9794 28.1801Z" fill="#878787" stroke="black" stroke-linecap="round" stroke-linejoin="round"/>
<path d="M43.0706 31.2595C42.6906 29.8995 41.2506 28.7895 38.6706 27.8595C35.3506 26.6595 32.7706 27.5495 32.6606 27.5895C32.0306 27.7995 31.3006 27.9195 30.9306 27.8795C31.0106 27.4695 31.4606 27.0195 31.9306 26.6695C32.3306 26.3695 32.4706 25.8295 32.2506 25.3795L32.1006 25.0695C31.8106 24.4795 31.0606 24.2995 30.5306 24.6895C29.5806 25.3895 28.3606 26.6195 28.5106 28.2595C28.5706 28.9595 28.9206 29.5395 29.4806 29.8995C29.9606 30.2095 30.5506 30.3095 31.1406 30.3095C32.1706 30.3095 33.2106 29.9895 33.6606 29.8195C34.2106 29.6795 35.8206 29.3995 37.8506 30.1395C40.4306 31.0695 40.7106 31.8295 40.7406 31.9095C40.7606 31.9995 40.7106 32.1195 40.5806 32.2895C40.5306 32.3495 40.5006 32.3795 40.4806 32.3895C40.2506 32.3595 39.6506 32.0095 39.2506 31.7795C38.9306 31.5895 38.5706 31.3795 38.1706 31.1795C36.6406 30.3895 33.5306 29.9995 31.9306 31.1395C31.1606 31.6895 30.8006 32.5395 30.9406 33.4795C31.2606 35.6695 32.9306 35.6795 33.8306 35.6895C34.4906 35.6895 35.1706 35.6995 35.9506 36.1295C36.8006 36.5995 36.9506 37.3695 36.9106 37.9495C36.8806 38.4195 37.1606 38.8495 37.6006 39.0095L37.9006 39.1195C38.5606 39.3595 39.2606 38.9095 39.3206 38.2095C39.4206 36.8295 39.0206 35.0595 37.1306 34.0095C35.8106 33.2795 34.6406 33.2695 33.8606 33.2595C33.7006 33.2595 33.5006 33.2595 33.3706 33.2495C33.3706 33.2195 33.3606 33.1795 33.3506 33.1295C33.3506 33.1295 33.3506 33.1195 33.3506 33.1095C33.7606 32.7395 35.8806 32.7195 37.0706 33.3295C37.4106 33.4995 37.7206 33.6895 38.0306 33.8695C39.2206 34.5695 41.0206 35.6195 42.4806 33.7995C43.2906 32.7895 43.2606 31.8495 43.0806 31.2495L43.0706 31.2595Z" fill="white" stroke="black" stroke-linecap="round" stroke-linejoin="round"/>
<path d="M50.7995 18.7491C50.3995 19.1791 49.7495 19.2591 49.2495 18.9391C48.3395 18.3491 46.6995 17.5491 44.6195 17.5491H44.5995C42.2295 17.5491 40.7195 18.0091 39.8995 18.3691C39.4095 18.5791 38.8395 18.4491 38.4895 18.0391C37.9595 17.4091 38.1895 16.4591 38.9395 16.1291C40.0495 15.6391 41.8795 15.1191 44.5995 15.1191H44.6295C47.2995 15.1191 49.3695 16.1191 50.5695 16.8991C51.2095 17.3091 51.3195 18.1991 50.7995 18.7591L50.8995 18.6591L50.8095 18.7591L50.7995 18.7491Z" fill="white" stroke="black" stroke-linecap="round" stroke-linejoin="round"/>
<path d="M54.4195 23.3998C54.1795 23.9498 53.5695 24.2498 52.9895 24.0898C52.0295 23.8298 50.4795 23.5498 48.8895 23.8498C46.6195 24.2798 45.0895 24.0298 44.2295 23.0998C43.7795 22.6098 43.3195 21.7098 43.7295 20.2198C43.8895 19.6198 44.2695 19.1498 44.8195 18.8498C45.4495 18.5098 46.2295 18.4598 46.9095 18.5198C47.6895 18.5898 48.2095 19.3498 47.9695 20.0998C47.7995 20.6398 47.2695 20.9898 46.7095 20.9398C46.4295 20.9098 46.1895 20.9198 46.0495 20.9498C45.9595 21.3198 46.0195 21.4498 46.0195 21.4498C46.0195 21.4498 46.4495 21.8398 48.4395 21.4598C50.4695 21.0698 52.3995 21.4098 53.6195 21.7398C54.3395 21.9298 54.7095 22.7198 54.4195 23.3998Z" fill="white" stroke="black" stroke-linecap="round" stroke-linejoin="round"/>
<path d="M38.0798 22.5496C37.8998 22.5496 37.7098 22.5196 37.5198 22.4596C36.6198 22.1696 36.1798 21.2796 35.9098 20.5396C35.8098 20.2596 35.4098 20.0796 34.9798 19.9696C34.4498 19.8396 34.0898 19.3496 34.0898 18.8096C34.0898 18.0096 34.8398 17.4296 35.6098 17.6296C36.5698 17.8796 37.7098 18.4296 38.1798 19.6796C38.2198 19.7896 38.2598 19.8696 38.2898 19.9496C38.3298 19.9196 38.3798 19.8896 38.4198 19.8696C38.9998 19.4896 39.8798 18.9196 41.0398 18.9896C41.2598 18.9996 41.4598 19.0296 41.6498 19.0596C42.5698 19.2296 42.9598 20.3196 42.3598 21.0396L41.8398 21.6596C41.8398 21.6596 41.8498 21.6696 41.8698 21.6896C41.8598 21.6896 41.5398 21.4596 40.8798 21.4096C40.5198 21.3896 40.1498 21.6296 39.7498 21.8996C39.3198 22.1796 38.7498 22.5496 38.0898 22.5496H38.0798Z" fill="white" stroke="black" stroke-linecap="round" stroke-linejoin="round"/>
<path d="M37.3901 12.8994C36.9301 12.2094 37.2901 11.2594 38.1001 11.0594C38.7301 10.8994 39.5501 10.7894 40.5401 10.8594C41.6901 10.9394 42.6001 11.2994 43.2701 11.6794C43.9901 12.0894 44.0801 13.0894 43.4601 13.6294C43.0701 13.9694 42.5101 14.0394 42.0601 13.7794C41.6601 13.5494 41.1001 13.3294 40.3701 13.2794C39.6701 13.2294 39.1101 13.3094 38.7101 13.4094C38.2101 13.5294 37.6801 13.3394 37.3901 12.8994Z" fill="white" stroke="black" stroke-linecap="round" stroke-linejoin="round"/>
<path d="M55.7793 33.0898C55.7793 33.7798 55.2193 34.3398 54.5293 34.3398C53.8393 34.3398 53.2793 33.7798 53.2793 33.0898C53.2793 32.3998 53.8393 31.8398 54.5293 31.8398C55.2193 31.8398 55.7793 32.3998 55.7793 33.0898Z" fill="white" stroke="black" stroke-linecap="round" stroke-linejoin="round"/>
</g>
<defs>
<clipPath id="clip0_93_11826">
<rect width="64" height="64" fill="white"/>
</clipPath>
</defs>
</svg>
