<svg width="64" height="64" viewBox="0 0 64 64" fill="none" xmlns="http://www.w3.org/2000/svg">
<g clip-path="url(#clip0_93_11071)">
<path d="M36.9231 51.1302L29.7031 46.6602C30.9831 47.4502 31.3931 48.9202 31.0831 51.3002L38.3031 55.7702C38.6131 53.3902 38.2031 51.9202 36.9231 51.1302Z" fill="#B69751" stroke="black" stroke-linecap="round" stroke-linejoin="round"/>
<path d="M51.2433 30.2205C51.3633 30.1405 51.4933 30.0505 51.6233 29.9505C51.6233 29.9505 51.6233 29.9505 51.6333 29.9405C51.6533 29.9305 51.6633 29.9105 51.6833 29.9005C51.7933 29.8205 51.9033 29.7305 52.0133 29.6405C52.0533 29.6105 52.0833 29.5805 52.1233 29.5505C52.2533 29.4405 52.3933 29.3205 52.5233 29.2005L45.3033 24.7305C45.1633 24.8505 45.0333 24.9705 44.9033 25.0805C44.8633 25.1105 44.8333 25.1405 44.7933 25.1705C44.6833 25.2605 44.5733 25.3505 44.4633 25.4305C44.4433 25.4505 44.4233 25.4605 44.4033 25.4805C44.2733 25.5805 44.1533 25.6605 44.0233 25.7505C43.9933 25.7705 43.9633 25.7905 43.9333 25.8105C43.8333 25.8805 43.7233 25.9405 43.6233 26.0005C43.5933 26.0205 43.5733 26.0305 43.5433 26.0505C43.4733 26.0905 43.4033 26.1205 43.3333 26.1605C43.3033 26.1705 43.2733 26.1905 43.2433 26.2105C43.1433 26.2605 43.0533 26.3005 42.9533 26.3405C42.8533 26.3805 42.7533 26.4105 42.6533 26.4405C42.5833 26.4605 42.5233 26.4805 42.4533 26.5005C42.3933 26.5205 42.3333 26.5305 42.2733 26.5405C42.2033 26.5505 42.1433 26.5605 42.0733 26.5705C42.0133 26.5705 41.9533 26.5905 41.9033 26.5905C41.8333 26.5905 41.7733 26.5905 41.7133 26.5905C41.6533 26.5905 41.6033 26.5905 41.5433 26.5905C41.4833 26.5905 41.4133 26.5805 41.3533 26.5705C41.2933 26.5705 41.2433 26.5605 41.1833 26.5505C41.1333 26.5505 41.0833 26.5305 41.0433 26.5205C40.9833 26.5005 40.9133 26.4905 40.8533 26.4705C40.8033 26.4505 40.7633 26.4405 40.7133 26.4205C40.6433 26.3905 40.5733 26.3705 40.5033 26.3305C40.4733 26.3205 40.4433 26.3005 40.4133 26.2905C40.3133 26.2405 40.2133 26.1905 40.1133 26.1205L47.3333 30.5905C47.4333 30.6505 47.5333 30.7105 47.6433 30.7605C47.6733 30.7805 47.7033 30.7905 47.7333 30.8005C47.7733 30.8205 47.8133 30.8405 47.8533 30.8505C47.8833 30.8605 47.9133 30.8705 47.9433 30.8805C47.9933 30.9005 48.0333 30.9105 48.0833 30.9305C48.1433 30.9505 48.2133 30.9705 48.2733 30.9805C48.3233 30.9905 48.3633 31.0005 48.4133 31.0105C48.4333 31.0105 48.4533 31.0205 48.4733 31.0205C48.5133 31.0205 48.5533 31.0205 48.5933 31.0305C48.6533 31.0305 48.7133 31.0405 48.7833 31.0505C48.8433 31.0505 48.8933 31.0505 48.9533 31.0505C49.0133 31.0505 49.0833 31.0505 49.1433 31.0505C49.2033 31.0505 49.2633 31.0405 49.3233 31.0305C49.3833 31.0305 49.4533 31.0105 49.5233 31.0005C49.5833 30.9905 49.6433 30.9705 49.7033 30.9605C49.7733 30.9405 49.8333 30.9305 49.9033 30.9005C49.9333 30.9005 49.9533 30.8905 49.9833 30.8805C50.0533 30.8605 50.1333 30.8305 50.2033 30.8005C50.3033 30.7605 50.3933 30.7205 50.4933 30.6705C50.5233 30.6505 50.5633 30.6405 50.5933 30.6205C50.6533 30.5905 50.7233 30.5505 50.7933 30.5205C50.8033 30.5205 50.8133 30.5105 50.8233 30.5005C50.8433 30.4905 50.8633 30.4805 50.8833 30.4605C50.9833 30.4005 51.0833 30.3405 51.1833 30.2805C51.2133 30.2605 51.2433 30.2405 51.2733 30.2205H51.2433Z" fill="#B69751" stroke="black" stroke-linecap="round" stroke-linejoin="round"/>
<path d="M27.9519 35.7198C27.9519 35.7198 27.9719 35.7698 27.9919 35.7998C28.0619 35.9298 28.1219 36.0598 28.1719 36.1898C28.1719 36.2098 28.1919 36.2298 28.1919 36.2398C28.2519 36.3798 28.2919 36.5098 28.3419 36.6498C28.3419 36.6798 28.3619 36.7098 28.3719 36.7398C28.4119 36.8798 28.4419 37.0098 28.4719 37.1398C28.4719 37.1598 28.4719 37.1698 28.4719 37.1898C28.4919 37.3198 28.5119 37.4398 28.5219 37.5598C28.5219 37.5798 28.5219 37.6098 28.5219 37.6298C28.5219 37.7598 28.5319 37.8898 28.5219 38.0198C28.5219 38.0498 28.5219 38.0698 28.5219 38.0998C28.5219 38.2298 28.5019 38.3598 28.4819 38.4898C28.4619 38.6198 28.4319 38.7498 28.3919 38.8898C28.3919 38.9198 28.3819 38.9398 28.3719 38.9698C28.3319 39.0998 28.2919 39.2198 28.2419 39.3498C28.2319 39.3798 28.2119 39.4098 28.2019 39.4398C28.1619 39.5498 28.1119 39.6498 28.0519 39.7598C28.0319 39.7898 28.0219 39.8298 28.0019 39.8598C27.9319 39.9898 27.8619 40.1198 27.7719 40.2498C27.7619 40.2698 27.7419 40.2998 27.7219 40.3198C27.6519 40.4298 27.5719 40.5398 27.4919 40.6498C27.4619 40.6998 27.4219 40.7398 27.3919 40.7898C27.3119 40.8998 27.2219 40.9998 27.1319 41.1098C27.1019 41.1398 27.0819 41.1698 27.0519 41.2098C26.9619 41.3098 26.8719 41.4098 26.7819 41.5098C26.7319 41.5598 26.6919 41.6098 26.6419 41.6598C26.4919 41.8098 26.3419 41.9698 26.1719 42.1198L33.3919 46.5898C33.5519 46.4298 33.7119 46.2798 33.8619 46.1298C33.9119 46.0798 33.9519 46.0298 34.0019 45.9798C34.0819 45.8898 34.1719 45.7998 34.2519 45.7098C34.2519 45.7098 34.2619 45.6898 34.2719 45.6798C34.3019 45.6498 34.3219 45.6198 34.3519 45.5898C34.4419 45.4798 34.5319 45.3698 34.6119 45.2698C34.6419 45.2298 34.6819 45.1798 34.7119 45.1398C34.7419 45.0998 34.7719 45.0598 34.8019 45.0198C34.8519 44.9498 34.9019 44.8798 34.9419 44.8098C34.9519 44.7898 34.9719 44.7698 34.9819 44.7498C35.0519 44.6398 35.1119 44.5298 35.1719 44.4198C35.1819 44.3998 35.1919 44.3798 35.2019 44.3498C35.2219 44.3198 35.2319 44.2798 35.2519 44.2498C35.3019 44.1398 35.3519 44.0298 35.4019 43.9198C35.4119 43.8898 35.4219 43.8598 35.4419 43.8398C35.4419 43.8298 35.4519 43.8098 35.4619 43.7998C35.5019 43.6898 35.5419 43.5698 35.5719 43.4598C35.5719 43.4298 35.5819 43.4098 35.5919 43.3798C35.6319 43.2498 35.6619 43.1098 35.6819 42.9798C35.7019 42.8498 35.7119 42.7098 35.7219 42.5798C35.7219 42.5498 35.7219 42.5298 35.7219 42.4998C35.7219 42.3698 35.7219 42.2398 35.7219 42.1098C35.7219 42.0898 35.7219 42.0598 35.7219 42.0398C35.7119 41.9198 35.6919 41.7898 35.6719 41.6698C35.6719 41.6498 35.6719 41.6398 35.6719 41.6198C35.6419 41.4898 35.6119 41.3498 35.5719 41.2198C35.5719 41.1898 35.5519 41.1598 35.5419 41.1298C35.5019 40.9898 35.4519 40.8598 35.3919 40.7198C35.3919 40.6998 35.3719 40.6798 35.3719 40.6698C35.3219 40.5398 35.2619 40.4098 35.1919 40.2798C35.1819 40.2498 35.1719 40.2298 35.1519 40.1998C35.0819 40.0598 35.0019 39.9198 34.9119 39.7698C34.8919 39.7398 34.8719 39.7098 34.8519 39.6798C34.7619 39.5298 34.6719 39.3798 34.5619 39.2298L27.3419 34.7598C27.4419 34.9098 27.5419 35.0598 27.6319 35.2098C27.6519 35.2398 27.6719 35.2698 27.6819 35.2998C27.7719 35.4398 27.8419 35.5898 27.9219 35.7298L27.9519 35.7198Z" fill="#B69751" stroke="black" stroke-linecap="round" stroke-linejoin="round"/>
<path d="M41.7208 32.0101C41.7508 31.9201 41.7808 31.8201 41.8108 31.7201C41.8308 31.6601 41.8408 31.6101 41.8608 31.5501C41.8908 31.4401 41.9108 31.3301 41.9408 31.2201C41.9508 31.1701 41.9608 31.1201 41.9808 31.0601C42.0208 30.8901 42.0508 30.7201 42.0808 30.5501L34.8608 26.0801C34.8308 26.2601 34.7908 26.4301 34.7608 26.5901C34.7508 26.6401 34.7408 26.7001 34.7208 26.7501C34.6908 26.8601 34.6708 26.9701 34.6408 27.0801C34.6208 27.1401 34.6108 27.2001 34.5908 27.2601C34.5608 27.3601 34.5408 27.4501 34.5108 27.5401C34.4908 27.6001 34.4708 27.6501 34.4608 27.7101C34.4308 27.8001 34.4008 27.8901 34.3708 27.9801C34.3508 28.0301 34.3308 28.0801 34.3108 28.1301C34.2708 28.2301 34.2308 28.3301 34.1908 28.4201C34.1808 28.4501 34.1608 28.4901 34.1508 28.5201C34.0908 28.6401 34.0308 28.7601 33.9708 28.8801C33.9708 28.8901 33.9508 28.9101 33.9508 28.9201C33.8708 29.0601 33.7908 29.2001 33.7008 29.3301C33.6808 29.3601 33.6708 29.3801 33.6508 29.4101C33.5708 29.5201 33.4908 29.6301 33.4008 29.7301C33.3808 29.7501 33.3708 29.7701 33.3508 29.7901C33.2808 29.8701 33.2108 29.9401 33.1408 30.0101C33.1108 30.0401 33.0808 30.0601 33.0508 30.0901C32.9808 30.1501 32.9008 30.2201 32.8308 30.2801C32.8008 30.3001 32.7808 30.3201 32.7508 30.3401C32.6308 30.4301 32.5108 30.5001 32.3908 30.5801C32.3608 30.5901 32.3408 30.6101 32.3108 30.6201C32.1708 30.7001 32.0308 30.7701 31.8708 30.8301C31.7408 30.8801 31.5908 30.9301 31.4508 30.9701C31.3808 30.9901 31.3008 31.0101 31.2208 31.0301C31.1008 31.0601 30.9808 31.0801 30.8608 31.1001C30.7808 31.1101 30.7108 31.1301 30.6308 31.1401C30.4908 31.1601 30.3508 31.1701 30.2008 31.1901C30.1308 31.1901 30.0608 31.2001 29.9908 31.2101C29.7708 31.2201 29.5408 31.2301 29.3008 31.2301L36.5208 35.7001C36.7608 35.7001 36.9908 35.7001 37.2108 35.6801C37.2808 35.6801 37.3508 35.6701 37.4208 35.6601C37.5708 35.6501 37.7108 35.6301 37.8508 35.6101C37.9308 35.6001 38.0108 35.5801 38.0808 35.5701C38.2008 35.5501 38.3208 35.5201 38.4408 35.5001C38.5208 35.4801 38.5908 35.4601 38.6708 35.4401C38.7308 35.4201 38.8008 35.4101 38.8608 35.3901C38.9408 35.3601 39.0208 35.3301 39.0908 35.3001C39.2408 35.2401 39.3908 35.1701 39.5208 35.0901C39.5408 35.0901 39.5508 35.0801 39.5708 35.0701C39.5808 35.0701 39.5908 35.0601 39.6008 35.0501C39.7308 34.9801 39.8508 34.9001 39.9608 34.8101C39.9608 34.8101 39.9808 34.8001 39.9808 34.7901C40.0008 34.7801 40.0208 34.7601 40.0408 34.7401C40.1208 34.6801 40.1908 34.6201 40.2608 34.5601C40.2808 34.5501 40.2908 34.5301 40.3108 34.5201C40.3208 34.5101 40.3308 34.4901 40.3508 34.4801C40.4208 34.4101 40.4908 34.3401 40.5608 34.2601C40.5708 34.2401 40.5908 34.2301 40.6008 34.2201C40.6008 34.2201 40.6008 34.2201 40.6008 34.2101C40.6908 34.1101 40.7708 34.0001 40.8508 33.8901C40.8508 33.8801 40.8608 33.8701 40.8708 33.8601C40.8808 33.8401 40.8908 33.8301 40.9008 33.8101C40.9908 33.6801 41.0708 33.5501 41.1508 33.4101C41.1508 33.4001 41.1608 33.3901 41.1708 33.3801C41.1708 33.3801 41.1708 33.3801 41.1708 33.3701C41.2308 33.2501 41.2908 33.1401 41.3508 33.0101C41.3608 32.9801 41.3808 32.9501 41.3908 32.9201C41.4308 32.8201 41.4808 32.7201 41.5208 32.6201C41.5208 32.6101 41.5308 32.5901 41.5408 32.5801C41.5508 32.5501 41.5608 32.5101 41.5808 32.4801C41.6108 32.3901 41.6508 32.3001 41.6808 32.2001C41.7008 32.1501 41.7208 32.0901 41.7308 32.0401L41.7208 32.0101Z" fill="#B69751" stroke="black" stroke-linecap="round" stroke-linejoin="round"/>
<path d="M46.6809 56.0813L39.4609 51.6113C39.9809 51.9413 40.5009 52.4113 41.0309 53.0513L48.2509 57.5213C47.7209 56.8913 47.2009 56.4013 46.6809 56.0813Z" fill="#B69751" stroke="black" stroke-linecap="round" stroke-linejoin="round"/>
<path d="M57.9619 35.8104C58.1219 35.8504 58.2919 35.8904 58.4619 35.9204C58.4619 35.9204 58.4619 35.9204 58.4719 35.9204C58.4819 35.9204 58.5019 35.9204 58.5219 35.9204C58.6719 35.9404 58.8219 35.9604 58.9719 35.9804C59.0219 35.9804 59.0619 35.9804 59.1119 35.9904C59.2919 36.0004 59.4719 36.0204 59.6619 36.0204L52.4419 31.5504C52.2519 31.5504 52.0619 31.5304 51.8819 31.5204C51.8319 31.5204 51.7919 31.5204 51.7419 31.5104C51.5819 31.4904 51.4319 31.4804 51.2919 31.4504C51.2719 31.4504 51.2519 31.4504 51.2319 31.4504C51.0519 31.4204 50.8919 31.3804 50.7319 31.3404C50.7019 31.3404 50.6619 31.3204 50.6319 31.3104C50.4819 31.2704 50.3319 31.2204 50.1919 31.1604C50.1319 31.1404 50.0719 31.1104 50.0119 31.0804C49.9819 31.0704 49.9519 31.0504 49.9219 31.0404C49.8319 31.0004 49.7519 30.9504 49.6719 30.9004L56.8919 35.3704C56.9719 35.4204 57.0519 35.4604 57.1319 35.5104C57.1619 35.5204 57.1919 35.5404 57.2219 35.5504C57.2719 35.5704 57.3319 35.6004 57.3819 35.6204C57.3819 35.6204 57.3919 35.6204 57.4019 35.6204C57.5419 35.6804 57.6919 35.7204 57.8419 35.7704C57.8719 35.7804 57.9119 35.7904 57.9419 35.8004L57.9619 35.8104Z" fill="#B69751" stroke="black" stroke-linecap="round" stroke-linejoin="round"/>
<path d="M53.9117 44.7004C53.9617 44.5304 54.0117 44.3504 54.0517 44.1804C54.0517 44.1504 54.0617 44.1104 54.0717 44.0804C54.1117 43.9104 54.1417 43.7504 54.1717 43.5804C54.1717 43.5604 54.1717 43.5404 54.1817 43.5204C54.2117 43.3404 54.2317 43.1604 54.2517 42.9804C54.2517 42.9404 54.2517 42.9004 54.2617 42.8604C54.2717 42.6804 54.2817 42.5004 54.2917 42.3104C54.2917 42.2904 54.2917 42.2604 54.2917 42.2404C54.2917 42.0704 54.2917 41.9004 54.2817 41.7304C54.2817 41.7004 54.2817 41.6604 54.2817 41.6304C54.2717 41.4504 54.2517 41.2704 54.2217 41.0904C54.2217 41.0504 54.2117 41.0104 54.2017 40.9804C54.1717 40.8004 54.1417 40.6104 54.1017 40.4304C53.6817 38.6204 52.6517 37.2204 51.2917 36.3704C48.8817 34.8804 46.4817 33.3904 44.0717 31.9004C45.4317 32.7404 46.4617 34.1404 46.8817 35.9604C46.9217 36.1404 46.9517 36.3304 46.9817 36.5104C46.9817 36.5504 46.9917 36.5904 47.0017 36.6204C47.0217 36.8004 47.0417 36.9804 47.0617 37.1604C47.0617 37.1904 47.0617 37.2304 47.0617 37.2604C47.0617 37.4304 47.0717 37.6004 47.0717 37.7704C47.0717 37.7904 47.0717 37.8204 47.0717 37.8404C47.0717 38.0204 47.0617 38.2004 47.0417 38.3804C47.0417 38.4204 47.0417 38.4604 47.0317 38.5004C47.0117 38.6804 46.9917 38.8604 46.9617 39.0404C46.9617 39.0604 46.9617 39.0804 46.9517 39.1004C46.9217 39.2704 46.8917 39.4404 46.8517 39.6004C46.8517 39.6304 46.8417 39.6704 46.8317 39.7004C46.7917 39.8804 46.7417 40.0504 46.6917 40.2204C46.6817 40.2604 46.6717 40.2904 46.6617 40.3304C46.6117 40.5004 46.5517 40.6704 46.4817 40.8404C46.4817 40.8404 46.4817 40.8604 46.4817 40.8704C46.4117 41.0504 46.3417 41.2204 46.2617 41.3904C46.2417 41.4304 46.2317 41.4604 46.2117 41.5004C46.1317 41.6704 46.0517 41.8304 45.9617 42.0004C45.9417 42.0404 45.9217 42.0704 45.9017 42.1104C45.8417 42.2204 45.7817 42.3204 45.7217 42.4204C45.7017 42.4604 45.6717 42.5004 45.6417 42.5404C45.5617 42.6704 45.4817 42.8004 45.3917 42.9204C45.3917 42.9204 45.3817 42.9404 45.3717 42.9504C45.2917 43.0704 45.2017 43.1804 45.1117 43.3004C45.0817 43.3404 45.0517 43.3804 45.0217 43.4204C44.9617 43.5004 44.8917 43.5804 44.8217 43.6604C44.7917 43.7004 44.7517 43.7404 44.7117 43.7804C44.6517 43.8504 44.5817 43.9304 44.5117 44.0004C44.4817 44.0404 44.4417 44.0704 44.4117 44.1104C44.3217 44.2004 44.2417 44.2904 44.1517 44.3704C44.1317 44.3904 44.1217 44.4004 44.1017 44.4204C43.9917 44.5204 43.8817 44.6204 43.7617 44.7204C43.7317 44.7504 43.6917 44.7804 43.6617 44.8004C43.5817 44.8704 43.4917 44.9404 43.4117 45.0004C43.3717 45.0304 43.3317 45.0604 43.2917 45.0904C43.1817 45.1704 43.0617 45.2504 42.9517 45.3304C42.9317 45.3404 42.9117 45.3604 42.8817 45.3804C42.7417 45.4704 42.6017 45.5504 42.4617 45.6304C42.4217 45.6504 42.3817 45.6704 42.3417 45.7004C42.2417 45.7604 42.1317 45.8104 42.0317 45.8604C41.9917 45.8804 41.9517 45.9004 41.9017 45.9204C41.7617 45.9904 41.6117 46.0504 41.4617 46.1104C41.3217 46.1704 41.1817 46.2204 41.0517 46.2604C41.0017 46.2804 40.9517 46.2904 40.9017 46.3104C40.8117 46.3404 40.7217 46.3704 40.6417 46.3904C40.5817 46.4104 40.5217 46.4204 40.4717 46.4304C40.3917 46.4504 40.3117 46.4704 40.2317 46.4904C40.1717 46.5004 40.1117 46.5104 40.0517 46.5204C39.9717 46.5304 39.9017 46.5504 39.8217 46.5604C39.7617 46.5604 39.7017 46.5804 39.6317 46.5804C39.5617 46.5804 39.4817 46.6004 39.4117 46.6104C39.3517 46.6104 39.2917 46.6204 39.2217 46.6204C39.1517 46.6204 39.0717 46.6204 39.0017 46.6304C38.9417 46.6304 38.8817 46.6304 38.8117 46.6304C38.7417 46.6304 38.6717 46.6304 38.5917 46.6304C38.5317 46.6304 38.4717 46.6304 38.4117 46.6304C38.3417 46.6304 38.2717 46.6304 38.2017 46.6204C38.1417 46.6204 38.0817 46.6104 38.0217 46.6004C37.9517 46.6004 37.8817 46.5804 37.8117 46.5704C37.7517 46.5704 37.6917 46.5504 37.6317 46.5404C37.5817 46.5404 37.5217 46.5204 37.4717 46.5104C37.4017 46.5004 37.3417 46.4804 37.2817 46.4704C37.2317 46.4604 37.1717 46.4404 37.1217 46.4304C37.0617 46.4104 36.9917 46.3904 36.9317 46.3804C36.8817 46.3604 36.8317 46.3504 36.7817 46.3304C36.7217 46.3104 36.6517 46.2904 36.5917 46.2604C36.5417 46.2404 36.4917 46.2204 36.4417 46.2004C36.4017 46.1804 36.3617 46.1704 36.3217 46.1504C36.2217 46.1104 36.1117 46.0604 36.0117 46.0104C35.9717 45.9904 35.9317 45.9704 35.9017 45.9504C35.7717 45.8804 35.6417 45.8104 35.5117 45.7304L42.7317 50.2004C42.8617 50.2804 42.9917 50.3504 43.1217 50.4204C43.1617 50.4404 43.2017 50.4604 43.2317 50.4804C43.3317 50.5304 43.4317 50.5804 43.5417 50.6204C43.5617 50.6304 43.5917 50.6404 43.6117 50.6504C43.6317 50.6504 43.6517 50.6604 43.6617 50.6704C43.7117 50.6904 43.7617 50.7104 43.8017 50.7204C43.8617 50.7404 43.9317 50.7704 43.9917 50.7904C44.0417 50.8104 44.0917 50.8204 44.1417 50.8404C44.2017 50.8604 44.2717 50.8804 44.3317 50.9004C44.3817 50.9104 44.4317 50.9304 44.4817 50.9404C44.5517 50.9604 44.6117 50.9704 44.6817 50.9804C44.7317 50.9904 44.7817 51.0004 44.8417 51.0104C44.8717 51.0104 44.9017 51.0204 44.9317 51.0304C44.9617 51.0304 45.0017 51.0304 45.0317 51.0404C45.1017 51.0504 45.1717 51.0604 45.2417 51.0704C45.3017 51.0704 45.3617 51.0804 45.4217 51.0904C45.4917 51.0904 45.5617 51.1004 45.6417 51.1004C45.7017 51.1004 45.7617 51.1004 45.8217 51.1004C45.8917 51.1004 45.9717 51.1004 46.0417 51.1004C46.1017 51.1004 46.1617 51.1004 46.2217 51.1004C46.3017 51.1004 46.3717 51.1004 46.4517 51.0904C46.5117 51.0904 46.5717 51.0904 46.6317 51.0804C46.7117 51.0804 46.7917 51.0604 46.8617 51.0504C46.9217 51.0504 46.9817 51.0404 47.0417 51.0304C47.1217 51.0204 47.2017 51.0004 47.2817 50.9904C47.3417 50.9804 47.3917 50.9704 47.4517 50.9604C47.5417 50.9404 47.6217 50.9204 47.7117 50.9004C47.7617 50.8904 47.8117 50.8804 47.8617 50.8604C47.9617 50.8304 48.0617 50.8004 48.1617 50.7704C48.1917 50.7604 48.2317 50.7504 48.2617 50.7404C48.4017 50.6904 48.5417 50.6404 48.6817 50.5904C48.8317 50.5304 48.9717 50.4604 49.1217 50.4004C49.1617 50.3804 49.2017 50.3604 49.2417 50.3404C49.3517 50.2904 49.4517 50.2304 49.5617 50.1704C49.5917 50.1604 49.6117 50.1404 49.6417 50.1304C49.6417 50.1304 49.6717 50.1104 49.6817 50.1104C49.8217 50.0304 49.9617 49.9404 50.1017 49.8504C50.1217 49.8404 50.1417 49.8204 50.1617 49.8104C50.2817 49.7304 50.4017 49.6504 50.5117 49.5604C50.5317 49.5504 50.5517 49.5304 50.5717 49.5204C50.5917 49.5104 50.6117 49.4904 50.6317 49.4804C50.7217 49.4104 50.8117 49.3404 50.8917 49.2704C50.9217 49.2404 50.9517 49.2204 50.9917 49.1904C51.1117 49.0904 51.2217 48.9904 51.3317 48.8904C51.3417 48.8804 51.3617 48.8604 51.3717 48.8504C51.4617 48.7604 51.5517 48.6804 51.6317 48.5904C51.6617 48.5504 51.7017 48.5204 51.7317 48.4804C51.8017 48.4104 51.8617 48.3404 51.9317 48.2604C51.9517 48.2404 51.9717 48.2204 51.9917 48.2004C52.0117 48.1804 52.0217 48.1604 52.0417 48.1404C52.1117 48.0604 52.1717 47.9804 52.2417 47.9004C52.2717 47.8604 52.3017 47.8304 52.3317 47.7904C52.4217 47.6704 52.5117 47.5504 52.6017 47.4304C52.6917 47.3004 52.7717 47.1704 52.8617 47.0404C52.8817 47.0004 52.9117 46.9604 52.9317 46.9204C52.9917 46.8204 53.0617 46.7104 53.1217 46.6004C53.1317 46.5804 53.1517 46.5504 53.1617 46.5304C53.1617 46.5204 53.1717 46.5104 53.1817 46.5004C53.2717 46.3404 53.3517 46.1704 53.4317 46.0004C53.4517 45.9704 53.4617 45.9304 53.4817 45.9004C53.5617 45.7304 53.6317 45.5504 53.7017 45.3704C53.7017 45.3704 53.7017 45.3604 53.7017 45.3504C53.7617 45.1804 53.8217 45.0104 53.8817 44.8404C53.8917 44.8004 53.9017 44.7704 53.9117 44.7304V44.7004Z" fill="#B69751" stroke="black" stroke-linecap="round" stroke-linejoin="round"/>
<path d="M59.6702 36.0301C59.9102 36.6301 60.1102 37.2701 60.2602 37.9401C60.4002 38.5501 60.4902 39.1601 60.5502 39.7701C57.8002 42.5001 57.4702 44.6301 59.4502 47.2601C58.9602 48.5001 58.3302 49.6901 57.5802 50.7901C56.5802 50.8201 55.7302 50.9601 55.0202 51.2501C53.3102 51.9401 52.3802 53.4501 51.9402 56.0401C51.3602 56.3701 50.7602 56.6601 50.1302 56.9201C49.5002 57.1701 48.8802 57.3801 48.2502 57.5301C46.7602 55.7401 45.3402 55.1801 43.6502 55.8601C42.9502 56.1401 42.2002 56.6401 41.3702 57.3501C40.2602 56.9801 39.2302 56.4601 38.2902 55.7801C38.7602 52.1901 37.6002 50.6801 34.2602 50.4201C34.0402 49.8601 33.8602 49.2701 33.7202 48.6601C33.5602 47.9801 33.4602 47.3001 33.4102 46.6101C36.1102 44.0601 36.4402 41.9601 34.5802 39.2301C35.0802 37.9901 35.7202 36.8001 36.4802 35.6901C37.4902 35.7001 38.3402 35.5801 39.0502 35.2901C40.6802 34.6301 41.5802 33.1401 42.0502 30.5601C42.6302 30.2301 43.2302 29.9401 43.8502 29.6901C44.4702 29.4401 45.0902 29.2401 45.7002 29.0801C47.1402 30.8901 48.5102 31.4701 50.1502 30.8101C50.8702 30.5201 51.6402 29.9901 52.5002 29.2201C53.5902 29.5701 54.6102 30.0801 55.5402 30.7301C55.0702 34.4401 56.2402 35.9401 59.6402 36.0301H59.6702ZM48.6702 50.5801C52.5902 49.0001 55.0202 44.4501 54.0902 40.4301C53.1702 36.4101 49.2402 34.4301 45.3202 36.0101C41.4002 37.5901 38.9702 42.1401 39.9002 46.1601C40.8202 50.1801 44.7502 52.1601 48.6702 50.5801Z" fill="white" stroke="black" stroke-linecap="round" stroke-linejoin="round"/>
<path d="M53.503 29.5805C53.693 29.6605 53.893 29.7505 54.083 29.8405C54.153 29.8805 54.233 29.9105 54.303 29.9505C54.543 30.0805 54.793 30.2105 55.023 30.3605L52.943 29.0705C51.233 28.0105 49.513 26.9505 47.803 25.8905C47.563 25.7405 47.323 25.6105 47.073 25.4805C47.003 25.4405 46.933 25.4105 46.853 25.3705C46.663 25.2805 46.473 25.1905 46.273 25.1005C46.223 25.0805 46.183 25.0605 46.133 25.0405C46.113 25.0305 46.083 25.0205 46.053 25.0105C45.803 24.9105 45.553 24.8205 45.293 24.7305L52.513 29.2005C52.773 29.2805 53.023 29.3805 53.273 29.4705C53.343 29.5005 53.413 29.5305 53.483 29.5605L53.503 29.5805Z" fill="#B69751" stroke="black" stroke-linecap="round" stroke-linejoin="round"/>
<path d="M33.4231 46.6009L26.2031 42.1309C26.2531 42.8209 26.3631 43.5009 26.5131 44.1809C26.6531 44.8009 26.8331 45.3809 27.0531 45.9409L34.2731 50.4109C34.0531 49.8509 33.8731 49.2609 33.7331 48.6509C33.5731 47.9709 33.4731 47.2909 33.4231 46.6009Z" fill="#B69751" stroke="black" stroke-linecap="round" stroke-linejoin="round"/>
<path d="M45.0416 29.2713C45.0916 29.2513 45.1516 29.2413 45.2116 29.2213C45.3816 29.1713 45.5516 29.1213 45.7316 29.0813L38.5116 24.6113C38.3416 24.6513 38.1716 24.7013 37.9916 24.7513C37.9416 24.7713 37.8816 24.7813 37.8316 24.8013C37.7116 24.8413 37.5916 24.8713 37.4716 24.9113C37.4416 24.9113 37.4116 24.9313 37.3816 24.9413C37.3516 24.9413 37.3316 24.9613 37.3016 24.9713C37.0816 25.0513 36.8716 25.1213 36.6516 25.2113C36.0316 25.4613 35.4316 25.7513 34.8516 26.0813L42.0716 30.5513C42.6516 30.2213 43.2516 29.9313 43.8716 29.6813C44.0916 29.5913 44.3016 29.5113 44.5216 29.4413C44.5816 29.4213 44.6316 29.4013 44.6916 29.3813C44.8116 29.3413 44.9316 29.3013 45.0516 29.2713H45.0416Z" fill="#B69751" stroke="black" stroke-linecap="round" stroke-linejoin="round"/>
<path d="M35.4811 37.3309C35.5811 37.1409 35.6911 36.9609 35.8011 36.7709C35.8511 36.6809 35.9111 36.5809 35.9611 36.4909C36.1311 36.2109 36.3111 35.9409 36.4911 35.6809L29.2711 31.2109C29.0911 31.4809 28.9111 31.7509 28.7411 32.0209C28.6811 32.1109 28.6311 32.2109 28.5811 32.3009C28.4811 32.4609 28.3811 32.6309 28.2911 32.7909C28.2811 32.8109 28.2711 32.8309 28.2611 32.8509C28.1511 33.0609 28.0511 33.2609 27.9411 33.4709C27.8911 33.5709 27.8311 33.6709 27.7911 33.7809C27.6411 34.0909 27.5011 34.4109 27.3711 34.7409L34.5911 39.2109C34.7211 38.8909 34.8611 38.5709 35.0111 38.2509C35.0611 38.1509 35.1111 38.0409 35.1611 37.9409C35.2611 37.7309 35.3711 37.5209 35.4811 37.3209V37.3309Z" fill="#B69751" stroke="black" stroke-linecap="round" stroke-linejoin="round"/>
<path d="M28.4728 36.4106L22.3828 32.6406C22.8728 32.9406 23.3628 33.4206 23.8828 34.0906L29.9728 37.8606C29.4528 37.1906 28.9528 36.7106 28.4728 36.4106Z" fill="#B69751" stroke="black" stroke-linecap="round" stroke-linejoin="round"/>
<path d="M40.9719 13.621C40.9719 13.621 41.0319 13.641 41.0719 13.651C41.1319 13.671 41.1919 13.681 41.2619 13.701C41.2919 13.701 41.3219 13.721 41.3519 13.721C41.4419 13.741 41.5419 13.761 41.6419 13.781C41.6419 13.781 41.6419 13.781 41.6519 13.781C41.8019 13.801 41.9619 13.821 42.1219 13.841C42.1619 13.841 42.2019 13.841 42.2519 13.851C42.4219 13.861 42.5919 13.881 42.7819 13.881L36.6919 10.111C36.5119 10.111 36.3319 10.091 36.1619 10.081C36.1219 10.081 36.0819 10.081 36.0319 10.071C35.8719 10.051 35.7119 10.041 35.5619 10.011C35.4519 9.99102 35.3519 9.97102 35.2519 9.95102C35.2219 9.95102 35.1919 9.94102 35.1619 9.93102C35.1019 9.91102 35.0319 9.90102 34.9719 9.88102C34.9419 9.88102 34.9019 9.86102 34.8719 9.85102C34.8119 9.83102 34.7619 9.81102 34.7019 9.79102C34.6719 9.78102 34.6419 9.77102 34.6219 9.76102C34.5619 9.74102 34.5119 9.71102 34.4519 9.69102C34.4319 9.68102 34.4019 9.67102 34.3819 9.66102C34.3019 9.62102 34.2319 9.58102 34.1719 9.54102C36.2019 10.801 38.2319 12.051 40.2619 13.311C40.3319 13.351 40.3919 13.391 40.4719 13.421C40.4919 13.431 40.5219 13.441 40.5419 13.451C40.5819 13.471 40.6219 13.491 40.6719 13.511C40.6819 13.511 40.7019 13.511 40.7119 13.521C40.7419 13.531 40.7719 13.541 40.8019 13.551C40.8519 13.571 40.9119 13.591 40.9719 13.611V13.621Z" fill="#B69751" stroke="black" stroke-linecap="round" stroke-linejoin="round"/>
<path d="M14.4141 31.2207L20.5041 34.9907C21.2041 35.4307 21.5941 36.4607 21.7441 38.1407L15.6541 34.3707C15.5041 32.6907 15.1141 31.6507 14.4141 31.2207Z" fill="#B69751"/>
<mask id="mask0_93_11071" style="mask-type:luminance" maskUnits="userSpaceOnUse" x="14" y="31" width="8" height="8">
<path d="M14.4141 31.2207L20.5041 34.9907C21.2041 35.4307 21.5941 36.4607 21.7441 38.1407L15.6541 34.3707C15.5041 32.6907 15.1141 31.6507 14.4141 31.2207Z" fill="white"/>
</mask>
<g mask="url(#mask0_93_11071)">
<path d="M21.7441 38.1407L15.6541 34.3707C15.5041 32.6907 15.1141 31.6507 14.4141 31.2207L20.5041 34.9907C21.2041 35.4307 21.5941 36.4607 21.7441 38.1407Z" fill="#B69751" stroke="black" stroke-linecap="round" stroke-linejoin="round"/>
</g>
<path d="M14.4141 31.2207L20.5041 34.9907C21.2041 35.4307 21.5941 36.4607 21.7441 38.1407L15.6541 34.3707C15.5041 32.6907 15.1141 31.6507 14.4141 31.2207Z" stroke="black" stroke-linecap="round" stroke-linejoin="round"/>
<path d="M35.8838 23.1901C35.9438 23.0001 35.9938 22.8101 36.0438 22.6201C36.0538 22.5701 36.0637 22.5301 36.0737 22.4801C36.1237 22.2801 36.1638 22.0801 36.2038 21.8701C36.2038 21.8301 36.2138 21.8001 36.2238 21.7601C36.2538 21.5801 36.2737 21.4001 36.3037 21.2101C36.3037 21.1701 36.3138 21.1301 36.3138 21.0801C36.3338 20.8801 36.3437 20.6701 36.3537 20.4601C36.3537 20.4201 36.3537 20.3701 36.3537 20.3301C36.3537 20.1401 36.3537 19.9501 36.3537 19.7701C36.3537 19.7401 36.3537 19.7101 36.3537 19.6801C36.3537 19.4701 36.3237 19.2701 36.3037 19.0601C36.3037 19.0101 36.2937 18.9601 36.2837 18.9201C36.2537 18.7101 36.2238 18.5001 36.1838 18.2901C35.7338 15.9701 34.4638 14.1701 32.7438 13.1001C30.7138 11.8401 28.6837 10.5901 26.6537 9.33008C28.3737 10.3901 29.6438 12.1901 30.0938 14.5201C30.1337 14.7301 30.1638 14.9401 30.1938 15.1501C30.1938 15.2001 30.2037 15.2501 30.2137 15.2901C30.2337 15.5001 30.2538 15.7001 30.2638 15.9101C30.2638 15.9401 30.2638 15.9701 30.2638 16.0001C30.2638 16.1901 30.2638 16.3801 30.2638 16.5701C30.2638 16.6101 30.2638 16.6601 30.2638 16.7001C30.2638 16.9101 30.2437 17.1101 30.2237 17.3201C30.2237 17.3601 30.2237 17.4001 30.2137 17.4401C30.1937 17.6201 30.1637 17.8101 30.1337 17.9901C30.1337 18.0201 30.1238 18.0601 30.1138 18.0901C30.0738 18.2901 30.0337 18.5001 29.9837 18.7001C29.9737 18.7501 29.9638 18.7901 29.9538 18.8401C29.9038 19.0301 29.8538 19.2301 29.7938 19.4201C29.7938 19.4301 29.7938 19.4501 29.7838 19.4601C29.7238 19.6601 29.6537 19.8601 29.5737 20.0601C29.5537 20.1001 29.5438 20.1501 29.5238 20.1901C29.4438 20.4001 29.3538 20.6101 29.2638 20.8101C29.2538 20.8401 29.2337 20.8701 29.2237 20.9001C29.1337 21.1001 29.0337 21.2901 28.9237 21.4901C28.9137 21.5101 28.9037 21.5301 28.8937 21.5501C28.8037 21.7201 28.7038 21.8801 28.6038 22.0401C28.5738 22.0801 28.5538 22.1201 28.5238 22.1601C28.4438 22.2901 28.3638 22.4101 28.2738 22.5301C28.2438 22.5701 28.2138 22.6201 28.1838 22.6601C28.0938 22.7901 27.9937 22.9201 27.9037 23.0401C27.8937 23.0601 27.8738 23.0701 27.8638 23.0901C27.7538 23.2301 27.6438 23.3701 27.5238 23.5001C27.4938 23.5401 27.4537 23.5801 27.4137 23.6201C27.3337 23.7101 27.2537 23.8001 27.1637 23.8901C27.1237 23.9301 27.0738 23.9801 27.0338 24.0201C26.9438 24.1101 26.8638 24.1901 26.7738 24.2801C26.7338 24.3201 26.6937 24.3601 26.6537 24.4001C26.5237 24.5201 26.3837 24.6401 26.2537 24.7601C26.2437 24.7701 26.2237 24.7801 26.2137 24.8001C26.0937 24.9001 25.9637 25.0001 25.8337 25.1001C25.7937 25.1301 25.7537 25.1601 25.7137 25.1901C25.5837 25.2901 25.4537 25.3801 25.3137 25.4701C25.2837 25.4901 25.2437 25.5201 25.2137 25.5401C25.0537 25.6501 24.8837 25.7501 24.7137 25.8401C24.6737 25.8601 24.6337 25.8901 24.5837 25.9101C24.4537 25.9801 24.3238 26.0501 24.1938 26.1101C24.1438 26.1301 24.0938 26.1601 24.0438 26.1801C23.8738 26.2601 23.7038 26.3401 23.5238 26.4101C23.4238 26.4501 23.3237 26.4901 23.2137 26.5301C23.1037 26.5701 22.9937 26.6001 22.8837 26.6401C22.7837 26.6701 22.6938 26.7001 22.5938 26.7301C22.5237 26.7501 22.4537 26.7701 22.3837 26.7901C22.2837 26.8201 22.1938 26.8401 22.0938 26.8601C22.0237 26.8801 21.9537 26.8901 21.8937 26.9101C21.7937 26.9301 21.6938 26.9501 21.5938 26.9601C21.5338 26.9701 21.4637 26.9801 21.4037 26.9901C21.2937 27.0101 21.1837 27.0201 21.0737 27.0301C21.0237 27.0301 20.9637 27.0401 20.9137 27.0501C20.7537 27.0601 20.5938 27.0701 20.4338 27.0801C20.2738 27.0801 20.1237 27.0801 19.9637 27.0801C19.9137 27.0801 19.8637 27.0801 19.8137 27.0801C19.7137 27.0801 19.6037 27.0701 19.5037 27.0601C19.4437 27.0601 19.3837 27.0501 19.3237 27.0401C19.2337 27.0301 19.1338 27.0201 19.0438 27.0001C18.9738 26.9901 18.9037 26.9801 18.8337 26.9601C18.7637 26.9501 18.7037 26.9401 18.6437 26.9201C18.5737 26.9001 18.4937 26.8901 18.4237 26.8701C18.3637 26.8501 18.2937 26.8401 18.2337 26.8201C18.1637 26.8001 18.0938 26.7801 18.0138 26.7601C17.9538 26.7401 17.8937 26.7201 17.8337 26.7001C17.7637 26.6801 17.6938 26.6501 17.6238 26.6201C17.5638 26.6001 17.5038 26.5801 17.4438 26.5501C17.4138 26.5401 17.3837 26.5201 17.3438 26.5101C17.2037 26.4501 17.0738 26.3901 16.9438 26.3301C16.9038 26.3101 16.8537 26.2901 16.8137 26.2701C16.6637 26.1901 16.5038 26.1101 16.3538 26.0101C16.3538 26.0101 16.3537 26.0101 16.3438 26.0101L22.4338 29.7801C22.4338 29.7801 22.4338 29.7801 22.4438 29.7801C22.5938 29.8701 22.7437 29.9501 22.8937 30.0301C22.9337 30.0501 22.9838 30.0701 23.0238 30.1001C23.1538 30.1601 23.2837 30.2201 23.4237 30.2801C23.4437 30.2901 23.4737 30.3001 23.4937 30.3101C23.5037 30.3101 23.5138 30.3101 23.5238 30.3201C23.5738 30.3401 23.6338 30.3601 23.6938 30.3801C23.7638 30.4101 23.8437 30.4401 23.9137 30.4601C23.9737 30.4801 24.0338 30.5001 24.0938 30.5201C24.1638 30.5401 24.2437 30.5701 24.3137 30.5901C24.3737 30.6101 24.4337 30.6201 24.4937 30.6401C24.5637 30.6601 24.6437 30.6801 24.7137 30.6901C24.7737 30.7001 24.8437 30.7201 24.9037 30.7301C24.9537 30.7301 25.0037 30.7501 25.0537 30.7601C25.0737 30.7601 25.0938 30.7601 25.1238 30.7601C25.2138 30.7701 25.3137 30.7901 25.4037 30.8001C25.4637 30.8001 25.5237 30.8101 25.5837 30.8201C25.6837 30.8301 25.7937 30.8401 25.9037 30.8401C25.9537 30.8401 26.0037 30.8401 26.0537 30.8401C26.2137 30.8401 26.3638 30.8401 26.5238 30.8401C26.6838 30.8401 26.8437 30.8301 27.0037 30.8101C27.0537 30.8101 27.1037 30.8001 27.1637 30.7901C27.2737 30.7801 27.3837 30.7701 27.4937 30.7501C27.5537 30.7501 27.6238 30.7301 27.6838 30.7201C27.7838 30.7001 27.8837 30.6901 27.9837 30.6701C28.0537 30.6601 28.1238 30.6401 28.1838 30.6301C28.2838 30.6101 28.3737 30.5901 28.4737 30.5601C28.5437 30.5401 28.6138 30.5201 28.6838 30.5001C28.7838 30.4701 28.8737 30.4401 28.9737 30.4101C29.0137 30.4001 29.0538 30.3901 29.0938 30.3701C29.1638 30.3501 29.2337 30.3201 29.3037 30.3001C29.4037 30.2601 29.5038 30.2201 29.6038 30.1801C29.7838 30.1101 29.9538 30.0301 30.1238 29.9501C30.1738 29.9301 30.2238 29.9001 30.2638 29.8801C30.3938 29.8101 30.5237 29.7501 30.6537 29.6701C30.6837 29.6501 30.7137 29.6401 30.7337 29.6301C30.7437 29.6301 30.7538 29.6101 30.7738 29.6101C30.9438 29.5101 31.1138 29.4101 31.2738 29.3001C31.3038 29.2801 31.3438 29.2501 31.3738 29.2301C31.5138 29.1401 31.6438 29.0401 31.7738 28.9501C31.7938 28.9301 31.8238 28.9201 31.8438 28.9001C31.8637 28.8901 31.8737 28.8701 31.8937 28.8601C32.0237 28.7601 32.1537 28.6601 32.2837 28.5601C32.2937 28.5501 32.3137 28.5401 32.3237 28.5301C32.4637 28.4101 32.5937 28.2901 32.7337 28.1701C32.7437 28.1601 32.7538 28.1501 32.7738 28.1401C32.8038 28.1201 32.8237 28.0901 32.8537 28.0601C32.9437 27.9701 33.0337 27.8901 33.1237 27.8001C33.1637 27.7601 33.2038 27.7201 33.2438 27.6701C33.3338 27.5801 33.4138 27.4901 33.4938 27.3901C33.5238 27.3601 33.5437 27.3401 33.5737 27.3101C33.5837 27.3001 33.5937 27.2901 33.6037 27.2701C33.7237 27.1401 33.8337 27.0001 33.9437 26.8601C33.9637 26.8401 33.9737 26.8201 33.9837 26.8001C34.0737 26.6801 34.1737 26.5501 34.2637 26.4301C34.2737 26.4101 34.2937 26.4001 34.3037 26.3801C34.3237 26.3501 34.3437 26.3201 34.3537 26.3001C34.4337 26.1801 34.5138 26.0601 34.5938 25.9301C34.6237 25.8901 34.6437 25.8501 34.6737 25.8001C34.7737 25.6401 34.8737 25.4801 34.9637 25.3101C34.9637 25.3101 34.9638 25.3001 34.9738 25.2901C34.9738 25.2701 34.9938 25.2601 34.9938 25.2401C35.0938 25.0501 35.1937 24.8501 35.2837 24.6601C35.2937 24.6301 35.3137 24.6001 35.3237 24.5701C35.4137 24.3701 35.5038 24.1601 35.5838 23.9501C35.5838 23.9301 35.6038 23.9101 35.6138 23.8901C35.6138 23.8701 35.6338 23.8401 35.6338 23.8201C35.7038 23.6201 35.7737 23.4201 35.8438 23.2201C35.8438 23.2101 35.8437 23.1901 35.8537 23.1801L35.8838 23.1901Z" fill="#B69751" stroke="black" stroke-linecap="round" stroke-linejoin="round"/>
<path d="M37.6342 7.52969C37.6942 7.49969 37.7642 7.45969 37.8242 7.42969C37.8642 7.40969 37.9042 7.38969 37.9442 7.36969C38.0042 7.33969 38.0642 7.29969 38.1342 7.26969C38.1842 7.23969 38.2242 7.21969 38.2742 7.19969L32.1842 3.42969C32.0842 3.48969 31.9842 3.53969 31.8842 3.58969C31.8842 3.58969 31.8642 3.59969 31.8542 3.60969C31.7642 3.65969 31.6742 3.70969 31.5842 3.74969C31.5742 3.74969 31.5542 3.75969 31.5442 3.76969C31.4542 3.80969 31.3642 3.84969 31.2842 3.88969C31.2742 3.88969 31.2542 3.89969 31.2442 3.90969C31.1442 3.94969 31.0442 3.99969 30.9542 4.02969C30.8342 4.07969 30.7142 4.11969 30.6042 4.15969C30.4742 4.19969 30.3442 4.23969 30.2242 4.26969C30.2042 4.26969 30.1842 4.26969 30.1642 4.27969C30.0642 4.29969 29.9642 4.31969 29.8742 4.33969C29.8342 4.33969 29.7942 4.33969 29.7542 4.34969C29.6842 4.34969 29.6042 4.35969 29.5342 4.35969C29.4942 4.35969 29.4542 4.35969 29.4142 4.35969C29.3542 4.35969 29.2842 4.35969 29.2242 4.34969C29.1742 4.34969 29.1242 4.33969 29.0842 4.32969C29.0642 4.32969 29.0442 4.32969 29.0242 4.31969C28.9542 4.29969 28.8742 4.27969 28.8042 4.24969C28.7442 4.22969 28.6842 4.18969 28.6242 4.15969C28.6042 4.15969 28.5942 4.13969 28.5742 4.13969L34.6642 7.90969C34.6642 7.90969 34.7042 7.92969 34.7342 7.93969C34.7842 7.96969 34.8342 7.99969 34.8942 8.01969C34.9642 8.04969 35.0342 8.06969 35.1042 8.08969C35.1242 8.08969 35.1442 8.08969 35.1642 8.09969C35.1942 8.09969 35.2142 8.10969 35.2442 8.11969C35.2642 8.11969 35.2842 8.11969 35.3042 8.11969C35.3642 8.11969 35.4242 8.12969 35.4942 8.12969C35.5342 8.12969 35.5742 8.12969 35.6142 8.12969C35.6842 8.12969 35.7542 8.12969 35.8342 8.10969C35.8742 8.10969 35.9042 8.10969 35.9442 8.09969C36.0442 8.08969 36.1442 8.06969 36.2442 8.03969C36.2642 8.03969 36.2842 8.03969 36.3042 8.02969C36.4242 7.99969 36.5542 7.95969 36.6842 7.91969C36.6842 7.91969 36.6942 7.91969 36.7042 7.91969C36.8142 7.87969 36.9242 7.83969 37.0342 7.79969C37.1242 7.75969 37.2242 7.71969 37.3242 7.67969C37.3942 7.64969 37.4742 7.60969 37.5442 7.57969C37.5742 7.56969 37.5942 7.55969 37.6242 7.53969L37.6342 7.52969Z" fill="#B69751" stroke="black" stroke-linecap="round" stroke-linejoin="round"/>
<path d="M16.8916 35.7008L10.8016 31.9308C10.1916 31.4408 9.62156 30.9008 9.10156 30.3008L15.1916 34.0708C15.7116 34.6708 16.2816 35.2108 16.8916 35.7008Z" fill="#B69751"/>
<mask id="mask1_93_11071" style="mask-type:luminance" maskUnits="userSpaceOnUse" x="9" y="30" width="8" height="6">
<path d="M16.8916 35.7008L10.8016 31.9308C10.1916 31.4408 9.62156 30.9008 9.10156 30.3008L15.1916 34.0708C15.7116 34.6708 16.2816 35.2108 16.8916 35.7008Z" fill="white"/>
</mask>
<g mask="url(#mask1_93_11071)">
<path d="M16.8916 35.7008L10.8016 31.9308C10.1916 31.4408 9.62156 30.9008 9.10156 30.3008L15.1916 34.0708C15.7116 34.6708 16.2816 35.2108 16.8916 35.7008Z" fill="#B69751" stroke="black" stroke-linecap="round" stroke-linejoin="round"/>
</g>
<path d="M16.8916 35.7008L10.8016 31.9308C10.1916 31.4408 9.62156 30.9008 9.10156 30.3008L15.1916 34.0708C15.7116 34.6708 16.2816 35.2108 16.8916 35.7008Z" stroke="black" stroke-linecap="round" stroke-linejoin="round"/>
<path d="M31.0744 4.33055L24.9844 0.560547C25.7844 0.630547 26.5744 0.770547 27.3444 0.970547L33.4344 4.74055C32.6744 4.54055 31.8844 4.40055 31.0744 4.33055Z" fill="#B69751"/>
<path d="M31.0744 4.33055L24.9844 0.560547C25.7844 0.630547 26.5744 0.770547 27.3444 0.970547L33.4344 4.74055C32.6744 4.54055 31.8844 4.40055 31.0744 4.33055Z" stroke="black" stroke-linecap="round" stroke-linejoin="round"/>
<path d="M8.8125 25.8105C10.8425 27.0705 12.8725 28.3205 14.9025 29.5805C16.0525 30.2905 16.1125 31.7105 15.1925 34.0705L9.1025 30.3005C10.0225 27.9405 9.9625 26.5305 8.8125 25.8105Z" fill="#B69751"/>
<mask id="mask2_93_11071" style="mask-type:luminance" maskUnits="userSpaceOnUse" x="8" y="25" width="8" height="10">
<path d="M8.8125 25.8105C10.8425 27.0705 12.8725 28.3205 14.9025 29.5805C16.0525 30.2905 16.1125 31.7105 15.1925 34.0705L9.1025 30.3005C10.0225 27.9405 9.9625 26.5305 8.8125 25.8105Z" fill="white"/>
</mask>
<g mask="url(#mask2_93_11071)">
<path d="M15.1916 34.0607L9.10156 30.2907C9.10156 30.2907 9.12156 30.2407 9.13156 30.2207L15.2216 33.9907C15.2216 33.9907 15.2016 34.0407 15.1916 34.0607Z" fill="#B69751" stroke="black" stroke-linecap="round" stroke-linejoin="round"/>
<path d="M15.2225 33.9908L9.1325 30.2208C10.0225 27.9108 9.9625 26.5108 8.8125 25.8008L14.9025 29.5708C16.0425 30.2808 16.1125 31.6708 15.2225 33.9908Z" fill="#B69751" stroke="black" stroke-linecap="round" stroke-linejoin="round"/>
</g>
<path d="M8.8125 25.8105C10.8425 27.0705 12.8725 28.3205 14.9025 29.5805C16.0525 30.2905 16.1125 31.7105 15.1925 34.0705L9.1025 30.3005C10.0225 27.9405 9.9625 26.5305 8.8125 25.8105Z" stroke="black" stroke-linecap="round" stroke-linejoin="round"/>
<path d="M12.3931 29.0109L6.30313 25.2409C6.17313 24.8209 6.05313 24.4009 5.94313 23.9609C5.83313 23.5209 5.76312 23.0809 5.70312 22.6309L11.7931 26.4009C11.8531 26.8409 11.9331 27.2909 12.0331 27.7309C12.1331 28.1709 12.2531 28.5909 12.3931 29.0109Z" fill="#B69751"/>
<mask id="mask3_93_11071" style="mask-type:luminance" maskUnits="userSpaceOnUse" x="5" y="22" width="8" height="8">
<path d="M12.3931 29.0109L6.30313 25.2409C6.17313 24.8209 6.05313 24.4009 5.94313 23.9609C5.83313 23.5209 5.76312 23.0809 5.70312 22.6309L11.7931 26.4009C11.8531 26.8409 11.9331 27.2909 12.0331 27.7309C12.1331 28.1709 12.2531 28.5909 12.3931 29.0109Z" fill="white"/>
</mask>
<g mask="url(#mask3_93_11071)">
<path d="M12.3931 29.0109L6.30313 25.2409C6.17313 24.8209 6.05313 24.4009 5.94313 23.9609C5.83313 23.5209 5.76312 23.0809 5.70312 22.6309L11.7931 26.4009C11.8531 26.8409 11.9331 27.2909 12.0331 27.7309C12.1331 28.1709 12.2531 28.5909 12.3931 29.0109Z" fill="#B69751" stroke="black" stroke-linecap="round" stroke-linejoin="round"/>
</g>
<path d="M12.3931 29.0109L6.30313 25.2409C6.17313 24.8209 6.05313 24.4009 5.94313 23.9609C5.83313 23.5209 5.76312 23.0809 5.70312 22.6309L11.7931 26.4009C11.8531 26.8409 11.9331 27.2909 12.0331 27.7309C12.1331 28.1709 12.2531 28.5909 12.3931 29.0109Z" stroke="black" stroke-linecap="round" stroke-linejoin="round"/>
<path d="M11.9923 20.1302L5.90234 16.3602C6.08234 15.4702 6.33234 14.6002 6.63234 13.7402L12.7223 17.5102C12.4223 18.3702 12.1723 19.2402 11.9923 20.1302Z" fill="#B69751"/>
<mask id="mask4_93_11071" style="mask-type:luminance" maskUnits="userSpaceOnUse" x="5" y="13" width="8" height="8">
<path d="M11.9923 20.1302L5.90234 16.3602C6.08234 15.4702 6.33234 14.6002 6.63234 13.7402L12.7223 17.5102C12.4223 18.3702 12.1723 19.2402 11.9923 20.1302Z" fill="white"/>
</mask>
<g mask="url(#mask4_93_11071)">
<path d="M11.9923 20.1302L5.90234 16.3602C6.08234 15.4702 6.33234 14.6002 6.63234 13.7402L12.7223 17.5102C12.4223 18.3702 12.1723 19.2402 11.9923 20.1302Z" fill="#B69751" stroke="black" stroke-linecap="round" stroke-linejoin="round"/>
</g>
<path d="M11.9923 20.1302L5.90234 16.3602C6.08234 15.4702 6.33234 14.6002 6.63234 13.7402L12.7223 17.5102C12.4223 18.3702 12.1723 19.2402 11.9923 20.1302Z" stroke="black" stroke-linecap="round" stroke-linejoin="round"/>
<path d="M30.7245 4.82055C30.7245 4.82055 30.7645 4.77055 30.7845 4.75055C30.8745 4.64055 30.9545 4.52055 31.0445 4.39055C31.0545 4.37055 31.0745 4.35055 31.0845 4.33055L24.9945 0.560547C24.8945 0.700547 24.7945 0.840547 24.6945 0.970547C24.6745 1.00055 24.6545 1.02055 24.6345 1.05055C24.5445 1.17055 24.4445 1.30055 24.3545 1.41055C24.3545 1.41055 24.3345 1.43055 24.3345 1.44055C24.2545 1.54055 24.1745 1.63055 24.0945 1.71055C24.0545 1.75055 24.0245 1.79055 23.9845 1.83055C23.9245 1.90055 23.8645 1.96055 23.7945 2.02055C23.7645 2.05055 23.7245 2.09055 23.6945 2.12055C23.6045 2.20055 23.5245 2.28055 23.4345 2.36055C23.4245 2.36055 23.4145 2.38055 23.4045 2.39055C23.3245 2.46055 23.2445 2.52055 23.1645 2.57055C23.1445 2.58055 23.1245 2.60055 23.1045 2.61055C23.0245 2.67055 22.9345 2.72055 22.8545 2.77055C22.7545 2.83055 22.6545 2.88055 22.5545 2.92055C22.4945 2.95055 22.4345 2.96055 22.3645 2.98055C22.3245 2.99055 22.2845 3.00055 22.2545 3.01055C22.2145 3.02055 22.1745 3.03055 22.1345 3.04055C22.0945 3.04055 22.0545 3.05055 22.0245 3.06055C21.9845 3.06055 21.9445 3.06055 21.9045 3.07055C21.8645 3.07055 21.8245 3.07055 21.7945 3.07055C21.7545 3.07055 21.7145 3.07055 21.6745 3.07055C21.6345 3.07055 21.5945 3.07055 21.5645 3.06055C21.5245 3.06055 21.4845 3.05055 21.4445 3.04055C21.4045 3.04055 21.3745 3.02055 21.3345 3.02055C21.2945 3.01055 21.2445 3.00055 21.2045 2.98055C21.1645 2.97055 21.1345 2.96055 21.0945 2.94055C21.0445 2.92055 20.9945 2.90055 20.9445 2.88055C20.9245 2.87055 20.8945 2.86055 20.8745 2.85055C20.8045 2.81055 20.7245 2.77055 20.6445 2.72055C22.6745 3.98055 24.7045 5.23055 26.7345 6.49055C26.8145 6.54055 26.8845 6.58055 26.9545 6.62055C26.9845 6.63055 27.0045 6.64055 27.0245 6.65055C27.0645 6.67055 27.0945 6.69055 27.1345 6.70055C27.1445 6.70055 27.1645 6.70055 27.1745 6.71055C27.2145 6.72055 27.2445 6.74055 27.2845 6.75055C27.3245 6.76055 27.3645 6.78055 27.4145 6.79055C27.4545 6.80055 27.4845 6.81055 27.5245 6.82055C27.5445 6.82055 27.5745 6.83055 27.5945 6.84055C27.6145 6.84055 27.6245 6.84055 27.6445 6.84055C27.6845 6.84055 27.7245 6.84055 27.7645 6.85055C27.8045 6.85055 27.8445 6.85055 27.8845 6.85055C27.9245 6.85055 27.9645 6.85055 28.0045 6.85055C28.0445 6.85055 28.0845 6.85055 28.1245 6.84055C28.1645 6.84055 28.2045 6.83055 28.2345 6.82055C28.2745 6.82055 28.3145 6.80055 28.3545 6.79055C28.3945 6.79055 28.4345 6.77055 28.4645 6.76055C28.4845 6.76055 28.5045 6.75055 28.5245 6.74055C28.5645 6.73055 28.6045 6.71055 28.6445 6.69055C28.7445 6.65055 28.8445 6.60055 28.9445 6.54055C28.9445 6.54055 28.9445 6.54055 28.9545 6.54055C29.0345 6.50055 29.1145 6.44055 29.1945 6.39055C29.2145 6.38055 29.2345 6.36055 29.2545 6.35055C29.2845 6.33055 29.3045 6.31055 29.3345 6.30055C29.3845 6.26055 29.4445 6.22055 29.4945 6.17055C29.5045 6.17055 29.5145 6.15055 29.5245 6.14055C29.5945 6.08055 29.6745 6.02055 29.7445 5.95055C29.7545 5.94055 29.7745 5.92055 29.7845 5.91055C29.8145 5.88055 29.8545 5.84055 29.8845 5.81055C29.9445 5.75055 30.0045 5.69055 30.0745 5.62055C30.1145 5.58055 30.1445 5.54055 30.1845 5.50055C30.2145 5.47055 30.2345 5.44055 30.2645 5.41055C30.3145 5.35055 30.3645 5.29055 30.4245 5.23055C30.4245 5.23055 30.4345 5.21055 30.4445 5.20055C30.5345 5.09055 30.6345 4.97055 30.7245 4.84055V4.82055Z" fill="#B69751" stroke="black" stroke-linecap="round" stroke-linejoin="round"/>
<path d="M13.9031 22.8509C13.9031 22.7909 13.9031 22.7309 13.8931 22.6709C13.8931 22.6609 13.8931 22.6509 13.8931 22.6409C13.8931 22.5709 13.8731 22.5009 13.8531 22.4309C13.8531 22.4109 13.8431 22.3909 13.8331 22.3709C13.8231 22.3209 13.8031 22.2709 13.7831 22.2209C13.7831 22.2009 13.7631 22.1709 13.7531 22.1509C13.7331 22.1009 13.7131 22.0509 13.6931 22.0009C13.6931 21.9809 13.6731 21.9609 13.6631 21.9409C13.6331 21.8709 13.5931 21.8009 13.5531 21.7309C13.5531 21.7309 13.5431 21.7109 13.5331 21.7009C13.4931 21.6409 13.4631 21.5809 13.4131 21.5209C13.3931 21.5009 13.3831 21.4809 13.3631 21.4509C13.3331 21.4009 13.2931 21.3509 13.2531 21.3109C13.2331 21.2909 13.2131 21.2609 13.1931 21.2409C13.1431 21.1909 13.1031 21.1309 13.0531 21.0809C13.0431 21.0709 13.0231 21.0509 13.0131 21.0409C12.9531 20.9709 12.8831 20.9009 12.8131 20.8409C12.7931 20.8209 12.7731 20.8009 12.7531 20.7909C12.7031 20.7409 12.6431 20.6909 12.5831 20.6409C12.5531 20.6209 12.5331 20.5909 12.5031 20.5709C12.4431 20.5209 12.3831 20.4709 12.3231 20.4209C12.2931 20.4009 12.2731 20.3809 12.2431 20.3609C12.1531 20.2909 12.0631 20.2209 11.9731 20.1509L5.88313 16.3809C5.97313 16.4509 6.07313 16.5209 6.15313 16.5909C6.18313 16.6109 6.20313 16.6309 6.23313 16.6509C6.29313 16.7009 6.35313 16.7509 6.41313 16.8009C6.44313 16.8209 6.46312 16.8509 6.49312 16.8709C6.55312 16.9209 6.61313 16.9709 6.66313 17.0309C6.68313 17.0509 6.70312 17.0609 6.72312 17.0809C6.79312 17.1509 6.86313 17.2209 6.92313 17.2909C6.93313 17.3009 6.95313 17.3209 6.96313 17.3309C7.01313 17.3809 7.06313 17.4409 7.10313 17.4909C7.12313 17.5109 7.14313 17.5309 7.15313 17.5609C7.19313 17.6109 7.23313 17.6609 7.26313 17.7109C7.28313 17.7309 7.29313 17.7509 7.31313 17.7709C7.35313 17.8309 7.39313 17.8909 7.43313 17.9509C7.43313 17.9509 7.43313 17.9709 7.44313 17.9709C7.48313 18.0409 7.52313 18.1109 7.55313 18.1809C7.55313 18.2009 7.57313 18.2209 7.58313 18.2409C7.60313 18.2909 7.62313 18.3409 7.64313 18.3909C7.64313 18.4109 7.66313 18.4409 7.66313 18.4609C7.68313 18.5109 7.69313 18.5609 7.71313 18.6209C7.71313 18.6409 7.72313 18.6609 7.73313 18.6809C7.75313 18.7509 7.76313 18.8209 7.77313 18.8909C7.77313 18.9009 7.77313 18.9109 7.77313 18.9209C7.77313 18.9809 7.78313 19.0409 7.78313 19.1109C7.78313 19.1309 7.78313 19.1609 7.78313 19.1809C7.78313 19.2309 7.78313 19.2809 7.78313 19.3309C7.78313 19.3509 7.78313 19.3809 7.78313 19.4009C7.78313 19.4609 7.77313 19.5209 7.76313 19.5809C7.76313 19.6009 7.76313 19.6109 7.76313 19.6209C7.75313 19.6909 7.73313 19.7709 7.71313 19.8409C7.71313 19.8609 7.70313 19.8809 7.69313 19.9009C7.67313 19.9609 7.65313 20.0109 7.63313 20.0709C7.62313 20.1009 7.61313 20.1309 7.60313 20.1509C7.58313 20.1909 7.56313 20.2409 7.54313 20.2909C7.53313 20.3209 7.51313 20.3509 7.50313 20.3809C7.48313 20.4309 7.45313 20.4809 7.43313 20.5309C7.42313 20.5609 7.40313 20.5809 7.39313 20.6109C7.35313 20.6909 7.30313 20.7609 7.25313 20.8409C7.20313 20.9209 7.15313 20.9909 7.10313 21.0709C7.09313 21.0909 7.07313 21.1109 7.06313 21.1309C7.01313 21.2109 6.95313 21.2809 6.89313 21.3609C6.87313 21.3809 6.85313 21.4109 6.83313 21.4309C6.75313 21.5209 6.68313 21.6209 6.59313 21.7109C6.59313 21.7109 6.57313 21.7309 6.57313 21.7409C6.45313 21.8809 6.32313 22.0209 6.18313 22.1709C6.18313 22.1709 6.17313 22.1809 6.16313 22.1909C6.02313 22.3409 5.86312 22.4909 5.70312 22.6409L11.7931 26.4109C11.9531 26.2609 12.1131 26.1009 12.2531 25.9509C12.2531 25.9509 12.2531 25.9509 12.2631 25.9409C12.4031 25.7909 12.5331 25.6509 12.6531 25.5109C12.6531 25.5109 12.6631 25.5009 12.6731 25.4909C12.7531 25.3909 12.8331 25.3009 12.9131 25.2109C12.9331 25.1909 12.9531 25.1609 12.9731 25.1409C13.0331 25.0609 13.0931 24.9909 13.1431 24.9109C13.1531 24.9009 13.1631 24.8809 13.1731 24.8709C13.1731 24.8709 13.1731 24.8609 13.1831 24.8509C13.2331 24.7709 13.2831 24.7009 13.3331 24.6309C13.3331 24.6309 13.3331 24.6309 13.3331 24.6209C13.3831 24.5409 13.4231 24.4709 13.4631 24.3909C13.4631 24.3909 13.4631 24.3809 13.4731 24.3709C13.4831 24.3509 13.4931 24.3309 13.5031 24.3109C13.5331 24.2609 13.5531 24.2109 13.5831 24.1609C13.5931 24.1309 13.6131 24.1109 13.6231 24.0809C13.6431 24.0309 13.6631 23.9809 13.6831 23.9409C13.6831 23.9309 13.6931 23.9109 13.7031 23.9009C13.7031 23.8909 13.7031 23.8809 13.7131 23.8709C13.7331 23.8109 13.7531 23.7509 13.7731 23.6909C13.7731 23.6709 13.7831 23.6509 13.7931 23.6309C13.8131 23.5509 13.8331 23.4809 13.8431 23.4009C13.8431 23.3909 13.8431 23.3709 13.8431 23.3609C13.8531 23.3009 13.8631 23.2409 13.8631 23.1809C13.8631 23.1609 13.8631 23.1309 13.8631 23.1109C13.8631 23.0609 13.8631 23.0109 13.8631 22.9509C13.8631 22.9309 13.8631 22.9009 13.8631 22.8809L13.9031 22.8509Z" fill="#B69751" stroke="black" stroke-linecap="round" stroke-linejoin="round"/>
<path d="M22.3223 7.57148C22.3623 7.43148 22.4023 7.29148 22.4423 7.15148C22.4423 7.12148 22.4523 7.09148 22.4623 7.06148C22.4923 6.94148 22.5223 6.81148 22.5523 6.67148C22.5523 6.63148 22.5723 6.58148 22.5823 6.54148C22.6123 6.38148 22.6423 6.21148 22.6723 6.04148L16.5823 2.27148C16.5523 2.44148 16.5223 2.61148 16.4923 2.77148C16.4923 2.81148 16.4723 2.86148 16.4623 2.90148C16.4323 3.03148 16.4023 3.16148 16.3723 3.28148C16.3723 3.31148 16.3623 3.34148 16.3523 3.37148C16.3123 3.52148 16.2723 3.66148 16.2323 3.79148C16.2223 3.82148 16.2123 3.86148 16.2023 3.89148C16.1723 4.00148 16.1323 4.10148 16.0923 4.20148C16.0823 4.23148 16.0723 4.27148 16.0523 4.30148C16.0223 4.38148 15.9923 4.45148 15.9623 4.52148C15.9523 4.55148 15.9423 4.58148 15.9223 4.60148C15.8823 4.70148 15.8323 4.79148 15.7823 4.88148C15.7823 4.88148 15.7723 4.90148 15.7623 4.91148C15.7023 5.02148 15.6423 5.11148 15.5723 5.21148C15.5523 5.23148 15.5423 5.26148 15.5223 5.28148C15.4723 5.35148 15.4223 5.42148 15.3623 5.48148C15.3623 5.48148 15.3423 5.50148 15.3423 5.51148C15.2823 5.58148 15.2223 5.64148 15.1623 5.70148C15.1423 5.72148 15.1223 5.73148 15.1023 5.75148C15.0523 5.79148 15.0123 5.83148 14.9623 5.87148C14.9423 5.89148 14.9123 5.90148 14.8923 5.92148C14.8323 5.96148 14.7823 6.00148 14.7223 6.03148C14.7023 6.04148 14.6723 6.06148 14.6523 6.07148C14.5723 6.11148 14.4923 6.15148 14.4023 6.19148C14.3423 6.22148 14.2723 6.23148 14.2123 6.25148C14.1323 6.28148 14.0523 6.30148 13.9623 6.31148C13.9223 6.31148 13.8823 6.33148 13.8423 6.33148C13.7323 6.35148 13.6123 6.36148 13.4923 6.37148C13.4823 6.37148 13.4623 6.37148 13.4523 6.37148C13.3223 6.37148 13.1723 6.37148 13.0323 6.37148C12.9923 6.37148 12.9423 6.37148 12.9023 6.36148C12.7923 6.36148 12.6923 6.34148 12.5723 6.32148C12.5223 6.32148 12.4623 6.30148 12.4123 6.29148C12.3023 6.27148 12.1923 6.25148 12.0723 6.22148C12.0223 6.21148 11.9723 6.20148 11.9223 6.18148C11.7523 6.14148 11.5823 6.09148 11.4023 6.03148L17.4923 9.80148C17.6723 9.86148 17.8423 9.90148 18.0123 9.95148C18.0623 9.96148 18.1123 9.97148 18.1623 9.99148C18.2823 10.0215 18.3923 10.0415 18.5023 10.0615C18.5323 10.0615 18.5623 10.0715 18.5923 10.0815C18.6223 10.0815 18.6423 10.0815 18.6723 10.0815C18.7823 10.1015 18.8923 10.1115 19.0023 10.1215C19.0423 10.1215 19.0923 10.1215 19.1323 10.1315C19.2823 10.1315 19.4223 10.1415 19.5523 10.1315C19.5623 10.1315 19.5723 10.1315 19.5923 10.1315C19.7123 10.1315 19.8323 10.1115 19.9423 10.0915C19.9823 10.0915 20.0223 10.0715 20.0623 10.0715C20.1523 10.0515 20.2323 10.0315 20.3123 10.0115C20.3323 10.0115 20.3623 10.0115 20.3823 9.99148C20.4223 9.98148 20.4723 9.96148 20.5123 9.94148C20.6023 9.91148 20.6823 9.87148 20.7623 9.82148C20.7623 9.82148 20.7823 9.82148 20.7923 9.81148C20.8023 9.81148 20.8223 9.79148 20.8323 9.78148C20.8923 9.75148 20.9523 9.71148 21.0023 9.67148C21.0123 9.67148 21.0323 9.65148 21.0423 9.64148C21.0423 9.64148 21.0623 9.63148 21.0623 9.62148C21.1123 9.58148 21.1623 9.54148 21.2023 9.50148C21.2123 9.49148 21.2323 9.48148 21.2423 9.46148C21.2423 9.46148 21.2423 9.46148 21.2423 9.45148C21.3023 9.39148 21.3623 9.33148 21.4223 9.26148C21.4223 9.26148 21.4323 9.24148 21.4423 9.24148C21.4923 9.18148 21.5523 9.11148 21.6023 9.04148C21.6023 9.04148 21.6123 9.02148 21.6223 9.01148C21.6223 9.00148 21.6423 8.98148 21.6423 8.97148C21.7023 8.88148 21.7723 8.78148 21.8223 8.67148C21.8223 8.67148 21.8223 8.66148 21.8323 8.65148C21.8823 8.56148 21.9323 8.47148 21.9723 8.37148C21.9823 8.35148 21.9923 8.32148 22.0023 8.29148C22.0323 8.22148 22.0723 8.14148 22.1023 8.06148C22.1023 8.05148 22.1123 8.04148 22.1123 8.03148C22.1123 8.01148 22.1223 7.99148 22.1323 7.97148C22.1723 7.87148 22.2023 7.76148 22.2423 7.66148C22.2523 7.63148 22.2623 7.60148 22.2723 7.56148L22.3223 7.57148Z" fill="#B69751" stroke="black" stroke-linecap="round" stroke-linejoin="round"/>
<path d="M16.1841 14.9011C16.1941 14.8411 16.2041 14.7711 16.2141 14.7111C16.2141 14.6611 16.2341 14.6011 16.2341 14.5511C16.2341 14.4811 16.2341 14.4111 16.2341 14.3411C16.2341 14.2811 16.2341 14.2311 16.2341 14.1711C16.2341 14.1011 16.2341 14.0211 16.2241 13.9511C16.2241 13.8911 16.2241 13.8311 16.2141 13.7711C16.2141 13.6911 16.1941 13.6111 16.1741 13.5311C16.1641 13.4711 16.1541 13.4111 16.1441 13.3411C16.1241 13.2511 16.1041 13.1611 16.0841 13.0711C16.0741 13.0111 16.0541 12.9511 16.0441 12.8811C16.0141 12.7811 15.9841 12.6711 15.9541 12.5711C15.9341 12.5111 15.9241 12.4611 15.9041 12.4011C15.8541 12.2411 15.7941 12.0711 15.7241 11.8911L9.63406 8.12109C9.70406 8.29109 9.76406 8.46109 9.81406 8.63109C9.83406 8.69109 9.84406 8.74109 9.86406 8.79109C9.89406 8.90109 9.93406 9.00109 9.95406 9.11109C9.97406 9.17109 9.98406 9.23109 9.99406 9.30109C10.0141 9.39109 10.0341 9.48109 10.0541 9.57109C10.0641 9.63109 10.0741 9.69109 10.0841 9.76109C10.0941 9.84109 10.1141 9.92109 10.1241 10.0011C10.1241 10.0611 10.1341 10.1211 10.1341 10.1811C10.1341 10.2511 10.1441 10.3311 10.1441 10.4011C10.1441 10.4611 10.1441 10.5211 10.1441 10.5711C10.1441 10.6411 10.1441 10.7111 10.1441 10.7811C10.1441 10.8411 10.1341 10.8911 10.1241 10.9411C10.1241 11.0011 10.1041 11.0711 10.0941 11.1311C10.0841 11.1811 10.0641 11.2311 10.0541 11.2811C10.0341 11.3411 10.0241 11.4011 10.0041 11.4611C9.98406 11.5111 9.96406 11.5611 9.94406 11.6111C9.92406 11.6611 9.90406 11.7111 9.87406 11.7611C9.84406 11.8211 9.81406 11.8711 9.78406 11.9311C9.76406 11.9611 9.74406 11.9911 9.72406 12.0211C9.67406 12.0911 9.61406 12.1711 9.56406 12.2411C9.56406 12.2411 9.55406 12.2611 9.54406 12.2711C9.47406 12.3511 9.40406 12.4311 9.32406 12.5011C9.28406 12.5411 9.23406 12.5811 9.18406 12.6211C9.13406 12.6611 9.09406 12.7011 9.04406 12.7411C9.02406 12.7511 9.01406 12.7611 8.99406 12.7811C8.91406 12.8311 8.83406 12.8911 8.75406 12.9411C8.72406 12.9611 8.70406 12.9711 8.67406 12.9911C8.59406 13.0311 8.51406 13.0811 8.43406 13.1211C8.39406 13.1411 8.36406 13.1611 8.32406 13.1811C8.20406 13.2411 8.07406 13.3011 7.94406 13.3511C7.82406 13.4011 7.70406 13.4411 7.57406 13.4911C7.53406 13.5011 7.50406 13.5211 7.46406 13.5311C7.37406 13.5611 7.28406 13.5911 7.18406 13.6211C7.14406 13.6311 7.10406 13.6411 7.07406 13.6511C6.94406 13.6911 6.80406 13.7311 6.66406 13.7611L12.7541 17.5311C12.8941 17.4911 13.0241 17.4611 13.1641 17.4211C13.2041 17.4111 13.2441 17.4011 13.2841 17.3811C13.3741 17.3511 13.4641 17.3211 13.5541 17.3011C13.5741 17.3011 13.6041 17.2811 13.6241 17.2811C13.6441 17.2811 13.6541 17.2711 13.6741 17.2611C13.8041 17.2211 13.9241 17.1711 14.0441 17.1211C14.1741 17.0711 14.3041 17.0111 14.4241 16.9511C14.4641 16.9311 14.5041 16.9111 14.5341 16.8911C14.5941 16.8611 14.6641 16.8311 14.7241 16.7911C14.7441 16.7811 14.7641 16.7711 14.7841 16.7611C14.8141 16.7411 14.8341 16.7311 14.8641 16.7111C14.9541 16.6611 15.0341 16.6111 15.1041 16.5511C15.1241 16.5411 15.1341 16.5311 15.1541 16.5111C15.1541 16.5111 15.1741 16.5011 15.1741 16.4911C15.1741 16.4911 15.2541 16.4211 15.2941 16.3911C15.3441 16.3511 15.3941 16.3111 15.4341 16.2711C15.4341 16.2711 15.4441 16.2711 15.4541 16.2611C15.5241 16.1911 15.5941 16.1211 15.6641 16.0511C15.6641 16.0511 15.6741 16.0311 15.6841 16.0211C15.7341 15.9611 15.7841 15.9011 15.8241 15.8411C15.8241 15.8311 15.8341 15.8211 15.8441 15.8011C15.8641 15.7711 15.8841 15.7411 15.9041 15.7111C15.9241 15.6711 15.9541 15.6411 15.9741 15.6011C15.9741 15.5811 15.9941 15.5611 16.0041 15.5411C16.0341 15.4911 16.0541 15.4411 16.0741 15.3911C16.0841 15.3611 16.1041 15.3311 16.1141 15.3011C16.1141 15.2811 16.1241 15.2611 16.1341 15.2411C16.1541 15.1811 16.1741 15.1211 16.1841 15.0611C16.1941 15.0111 16.2141 14.9611 16.2241 14.9111L16.1841 14.9011Z" fill="#B69751" stroke="black" stroke-linecap="round" stroke-linejoin="round"/>
<path d="M15.7228 11.9008L9.63281 8.13078C10.1828 7.40078 10.7728 6.70078 11.4128 6.05078L17.5028 9.82078C16.8628 10.4708 16.2728 11.1708 15.7228 11.9008Z" fill="#B69751"/>
<path d="M15.7228 11.9008L9.63281 8.13078C10.1828 7.40078 10.7728 6.70078 11.4128 6.05078L17.5028 9.82078C16.8628 10.4708 16.2728 11.1708 15.7228 11.9008Z" stroke="black" stroke-linecap="round" stroke-linejoin="round"/>
<path d="M43.3813 16.4898C40.6313 19.0798 40.5613 20.8598 43.1813 22.7598C43.0013 23.6498 42.7513 24.5198 42.4513 25.3798C41.9713 25.4998 41.5512 25.6398 41.1712 25.7898C38.8812 26.7198 38.4013 28.2698 39.4513 30.9898C38.9013 31.7198 38.3113 32.4198 37.6613 33.0698C36.4013 32.6698 35.4213 32.6098 34.6513 32.9198C33.5213 33.3798 32.8613 34.6498 32.5013 36.8398C32.0913 37.0498 31.6712 37.2398 31.2412 37.4098C30.8112 37.5798 30.3813 37.7298 29.9613 37.8698C28.7413 36.3098 27.6613 35.7498 26.5313 36.2098C25.7613 36.5198 24.9713 37.2998 24.0913 38.5598C23.2812 38.4898 22.5012 38.3498 21.7312 38.1498C21.4612 35.1098 20.4113 34.1798 18.1113 35.0998C17.7313 35.2498 17.3212 35.4598 16.8812 35.7098C16.2712 35.2198 15.7013 34.6798 15.1813 34.0798C16.5513 30.5698 15.7513 29.1398 12.3813 29.0198C12.2513 28.5998 12.1313 28.1798 12.0213 27.7398C11.9213 27.2998 11.8412 26.8598 11.7812 26.4098C14.5312 23.8198 14.6012 22.0398 11.9812 20.1398C12.1612 19.2498 12.4113 18.3798 12.7113 17.5198C13.1913 17.3998 13.6113 17.2598 13.9913 17.1098C16.2812 16.1798 16.7613 14.6298 15.7113 11.9098C16.2613 11.1798 16.8513 10.4798 17.4913 9.82984C18.7513 10.2298 19.7313 10.2898 20.5013 9.97984C21.6313 9.51984 22.2913 8.25984 22.6512 6.05984C23.0612 5.85984 23.4812 5.65984 23.9113 5.48984C24.3413 5.31984 24.7713 5.16984 25.1913 5.02984C26.4113 6.58984 27.4913 7.14984 28.6213 6.68984C29.3913 6.37984 30.1812 5.59984 31.0612 4.33984C31.8612 4.40984 32.6512 4.54984 33.4212 4.74984C33.6912 7.78984 34.7412 8.72984 37.0312 7.79984C37.4112 7.64984 37.8213 7.43984 38.2713 7.18984C38.8813 7.67984 39.4513 8.21984 39.9713 8.81984C38.6013 12.3398 39.4013 13.7598 42.7713 13.8798C42.9013 14.2998 43.0213 14.7198 43.1313 15.1598C43.2313 15.5998 43.3113 16.0398 43.3713 16.4898H43.3813ZM36.1813 18.2998C35.2313 13.3998 30.6213 10.8298 25.8713 12.5698C25.7713 12.6098 25.6713 12.6498 25.5712 12.6898C21.0012 14.5398 18.0613 19.7898 18.9913 24.5898C19.9412 29.4898 24.5513 32.0598 29.3013 30.3198C29.4013 30.2798 29.5012 30.2398 29.6012 30.1998C34.1712 28.3498 37.1013 23.0998 36.1813 18.2998Z" fill="white" stroke="black" stroke-linecap="round" stroke-linejoin="round"/>
<path d="M22.6642 6.05L16.5742 2.28C16.9842 2.08 17.4042 1.88 17.8342 1.71C18.2642 1.54 18.6942 1.39 19.1142 1.25L25.2042 5.02C24.7742 5.16 24.3542 5.3 23.9242 5.48C23.4942 5.65 23.0742 5.85 22.6642 6.05Z" fill="#B69751"/>
<path d="M22.6642 6.05L16.5742 2.28C16.9842 2.08 17.4042 1.88 17.8342 1.71C18.2642 1.54 18.6942 1.39 19.1142 1.25L25.2042 5.02C24.7742 5.16 24.3542 5.3 23.9242 5.48C23.4942 5.65 23.0742 5.85 22.6642 6.05Z" stroke="black" stroke-linecap="round" stroke-linejoin="round"/>
<path d="M10.772 54.2004L5.83203 51.1504C6.71203 51.6904 6.99203 52.7004 6.77203 54.3204L11.712 57.3704C11.922 55.7404 11.642 54.7404 10.772 54.2004Z" fill="#B69751" stroke="black" stroke-linecap="round" stroke-linejoin="round"/>
<path d="M20.5614 39.9197C20.6414 39.8597 20.7314 39.7997 20.8214 39.7397C20.8314 39.7397 20.8414 39.7197 20.8514 39.7097C20.9214 39.6497 21.0014 39.5897 21.0814 39.5297C21.1014 39.5097 21.1314 39.4897 21.1514 39.4697C21.2414 39.3897 21.3314 39.3197 21.4214 39.2297L16.4814 36.1797C16.3914 36.2597 16.3014 36.3397 16.2114 36.4197C16.1914 36.4397 16.1614 36.4597 16.1414 36.4797C16.0614 36.5397 15.9914 36.5997 15.9114 36.6597C15.9014 36.6697 15.8814 36.6797 15.8714 36.6897C15.7814 36.7597 15.7014 36.8197 15.6114 36.8697C15.5914 36.8797 15.5714 36.8997 15.5514 36.9097C15.4814 36.9597 15.4114 36.9997 15.3414 37.0397C15.3214 37.0497 15.3014 37.0597 15.2914 37.0697C15.2414 37.0997 15.1914 37.1197 15.1514 37.1397C15.1314 37.1497 15.1114 37.1597 15.0914 37.1697C15.0214 37.1997 14.9614 37.2297 14.8914 37.2597C14.8214 37.2897 14.7514 37.3097 14.6914 37.3297C14.6414 37.3397 14.6014 37.3597 14.5514 37.3697C14.5114 37.3797 14.4714 37.3897 14.4314 37.3997C14.3914 37.3997 14.3414 37.4197 14.3014 37.4197C14.2614 37.4197 14.2214 37.4297 14.1814 37.4297C14.1414 37.4297 14.0914 37.4297 14.0514 37.4297C14.0114 37.4297 13.9714 37.4297 13.9314 37.4297C13.8914 37.4297 13.8414 37.4297 13.8014 37.4197C13.7614 37.4197 13.7214 37.4197 13.6814 37.3997C13.6514 37.3997 13.6114 37.3897 13.5814 37.3797C13.5414 37.3697 13.4914 37.3597 13.4514 37.3397C13.4214 37.3297 13.3914 37.3197 13.3514 37.3097C13.3014 37.2897 13.2514 37.2697 13.2114 37.2497C13.1914 37.2497 13.1714 37.2297 13.1514 37.2197C13.0814 37.1897 13.0114 37.1497 12.9414 37.1097L17.8714 40.1597C17.9414 40.1997 18.0114 40.2397 18.0814 40.2697C18.1014 40.2797 18.1214 40.2897 18.1414 40.2997C18.1714 40.3097 18.1914 40.3297 18.2214 40.3397C18.2414 40.3397 18.2614 40.3497 18.2814 40.3597C18.3114 40.3697 18.3414 40.3797 18.3714 40.3897C18.4114 40.3997 18.4614 40.4197 18.5014 40.4297C18.5314 40.4297 18.5614 40.4397 18.5914 40.4497C18.6014 40.4497 18.6214 40.4497 18.6314 40.4497C18.6614 40.4497 18.6814 40.4497 18.7114 40.4497C18.7514 40.4497 18.8014 40.4597 18.8414 40.4597C18.8814 40.4597 18.9214 40.4597 18.9614 40.4597C19.0014 40.4597 19.0514 40.4597 19.0914 40.4597C19.1314 40.4597 19.1714 40.4597 19.2114 40.4497C19.2514 40.4497 19.3014 40.4397 19.3414 40.4297C19.3814 40.4297 19.4214 40.4097 19.4614 40.3997C19.5014 40.3897 19.5514 40.3797 19.6014 40.3597C19.6214 40.3597 19.6414 40.3597 19.6514 40.3397C19.7014 40.3197 19.7514 40.2997 19.8014 40.2797C19.8714 40.2497 19.9314 40.2197 20.0014 40.1897C20.0214 40.1797 20.0414 40.1697 20.0714 40.1597C20.1114 40.1397 20.1614 40.1097 20.2014 40.0897C20.2014 40.0897 20.2114 40.0897 20.2214 40.0797C20.2314 40.0797 20.2514 40.0597 20.2614 40.0597C20.3314 40.0197 20.4014 39.9797 20.4714 39.9297C20.4914 39.9197 20.5114 39.8997 20.5314 39.8897L20.5614 39.9197Z" fill="#B69751" stroke="black" stroke-linecap="round" stroke-linejoin="round"/>
<path d="M4.64187 43.671C4.64187 43.671 4.66188 43.701 4.67188 43.721C4.71187 43.811 4.76187 43.901 4.79187 43.991C4.79187 44.001 4.80187 44.011 4.81187 44.031C4.85187 44.121 4.88187 44.221 4.91187 44.311C4.91187 44.331 4.92187 44.351 4.93187 44.371C4.96187 44.461 4.98187 44.551 5.00187 44.651C5.00187 44.661 5.00187 44.671 5.00187 44.681C5.02187 44.771 5.03188 44.851 5.03188 44.931C5.03188 44.951 5.03188 44.961 5.03188 44.981C5.03188 45.071 5.03188 45.161 5.03188 45.251C5.03188 45.271 5.03188 45.291 5.03188 45.311C5.03188 45.401 5.02187 45.491 5.00187 45.581C4.99187 45.671 4.96187 45.761 4.94187 45.851C4.94187 45.871 4.93187 45.891 4.92188 45.911C4.89188 46.001 4.87187 46.081 4.83187 46.171C4.83187 46.191 4.81188 46.211 4.80188 46.231C4.77188 46.301 4.74187 46.381 4.70187 46.451C4.69187 46.471 4.68187 46.501 4.66187 46.521C4.61187 46.611 4.56188 46.701 4.51188 46.791C4.51188 46.811 4.49187 46.821 4.48187 46.841C4.43187 46.911 4.38187 46.991 4.33187 47.061C4.31187 47.091 4.28188 47.121 4.26188 47.151C4.20188 47.221 4.15187 47.291 4.08187 47.371C4.06187 47.391 4.04188 47.411 4.03188 47.441C3.97188 47.511 3.91187 47.581 3.84187 47.651C3.81187 47.691 3.78187 47.721 3.74187 47.761C3.64187 47.861 3.53187 47.971 3.42188 48.071L8.35188 51.121C8.46188 51.011 8.57187 50.911 8.67188 50.811C8.70187 50.771 8.73188 50.741 8.77188 50.701C8.83188 50.641 8.89187 50.581 8.94187 50.511C8.94187 50.511 8.95187 50.501 8.96187 50.491C8.98187 50.471 9.00188 50.451 9.01188 50.431C9.07188 50.361 9.13187 50.281 9.19187 50.211C9.21187 50.181 9.24188 50.151 9.26188 50.121C9.28188 50.091 9.30187 50.061 9.32187 50.041C9.35187 49.991 9.39188 49.941 9.42188 49.891C9.42188 49.881 9.44187 49.861 9.45187 49.851C9.50187 49.781 9.54187 49.701 9.58187 49.631C9.58187 49.621 9.59188 49.601 9.60188 49.591C9.61188 49.571 9.62188 49.541 9.63188 49.521C9.67188 49.451 9.70187 49.371 9.73187 49.301C9.73187 49.281 9.75187 49.261 9.75187 49.241C9.75187 49.241 9.75188 49.221 9.76188 49.211C9.79188 49.131 9.81188 49.051 9.84188 48.981C9.84188 48.961 9.85188 48.941 9.85188 48.931C9.87188 48.841 9.90187 48.751 9.91187 48.661C9.92187 48.571 9.93187 48.481 9.94187 48.391C9.94187 48.371 9.94187 48.351 9.94187 48.341C9.94187 48.251 9.94187 48.161 9.94187 48.071C9.94187 48.051 9.94187 48.041 9.94187 48.021C9.94187 47.931 9.92187 47.851 9.90187 47.761C9.90187 47.751 9.90187 47.741 9.90187 47.731C9.88187 47.641 9.86187 47.551 9.83187 47.451C9.83187 47.431 9.82188 47.411 9.81188 47.391C9.78188 47.301 9.75187 47.201 9.71187 47.111C9.71187 47.101 9.70187 47.091 9.69187 47.071C9.65187 46.981 9.61187 46.891 9.57187 46.801C9.57187 46.781 9.55187 46.761 9.54187 46.751C9.49187 46.651 9.44188 46.561 9.38188 46.461C9.37188 46.441 9.35188 46.421 9.34188 46.401C9.28188 46.301 9.21188 46.201 9.14188 46.091L4.21187 43.041C4.28187 43.141 4.35187 43.251 4.41187 43.351C4.42187 43.371 4.44187 43.391 4.45187 43.411C4.51187 43.511 4.56188 43.611 4.61188 43.701L4.64187 43.671Z" fill="#B69751" stroke="black" stroke-linecap="round" stroke-linejoin="round"/>
<path d="M14.0525 41.1401C14.0725 41.0801 14.0925 41.0101 14.1125 40.9401C14.1225 40.9001 14.1325 40.8601 14.1425 40.8201C14.1625 40.7501 14.1825 40.6701 14.2025 40.5901C14.2025 40.5501 14.2225 40.5201 14.2225 40.4801C14.2425 40.3701 14.2725 40.2501 14.2925 40.1301L9.3625 37.0801C9.3425 37.2001 9.3125 37.3201 9.2925 37.4301C9.2925 37.4701 9.2725 37.5001 9.2625 37.5401C9.2425 37.6201 9.2225 37.6901 9.2125 37.7601C9.2025 37.8001 9.1925 37.8401 9.1825 37.8801C9.1625 37.9501 9.1425 38.0101 9.1225 38.0701C9.1125 38.1101 9.1025 38.1501 9.0825 38.1901C9.0625 38.2501 9.0425 38.3101 9.0225 38.3701C9.0125 38.4001 8.9925 38.4401 8.9825 38.4701C8.9525 38.5401 8.9325 38.6001 8.9025 38.6701C8.8925 38.6901 8.8825 38.7201 8.8725 38.7401C8.8325 38.8301 8.7925 38.9101 8.7525 38.9901C8.7525 38.9901 8.7425 39.0101 8.7325 39.0201C8.6825 39.1201 8.6225 39.2101 8.5625 39.3001C8.5525 39.3201 8.5425 39.3401 8.5225 39.3501C8.4725 39.4301 8.4125 39.5001 8.3525 39.5701C8.3425 39.5801 8.3325 39.6001 8.3225 39.6101C8.2725 39.6601 8.2325 39.7101 8.1825 39.7601C8.1625 39.7801 8.1425 39.8001 8.1225 39.8101C8.0725 39.8501 8.0225 39.9001 7.9725 39.9401C7.9525 39.9501 7.9425 39.9701 7.9225 39.9801C7.8425 40.0401 7.7625 40.0901 7.6725 40.1401C7.6525 40.1501 7.6325 40.1601 7.6225 40.1701C7.5225 40.2201 7.4325 40.2701 7.3225 40.3101C7.2325 40.3501 7.1325 40.3801 7.0325 40.4101C6.9825 40.4301 6.9325 40.4401 6.8825 40.4501C6.8025 40.4701 6.7225 40.4901 6.6325 40.5001C6.5825 40.5001 6.5325 40.5201 6.4725 40.5301C6.3725 40.5401 6.2725 40.5501 6.1725 40.5601C6.1225 40.5601 6.0825 40.5701 6.0325 40.5701C5.8825 40.5701 5.7225 40.5801 5.5625 40.5801L10.5025 43.6301C10.6625 43.6301 10.8225 43.6301 10.9725 43.6201C11.0225 43.6201 11.0725 43.6201 11.1125 43.6101C11.2125 43.6101 11.3125 43.5901 11.4025 43.5801C11.4525 43.5801 11.5125 43.5601 11.5625 43.5501C11.6425 43.5301 11.7325 43.5201 11.8025 43.5001C11.8525 43.4901 11.9025 43.4701 11.9525 43.4601C11.9925 43.4501 12.0425 43.4401 12.0825 43.4201C12.1325 43.4001 12.1925 43.3801 12.2425 43.3601C12.3425 43.3201 12.4425 43.2701 12.5425 43.2201C12.5525 43.2201 12.5625 43.2101 12.5725 43.2001C12.5725 43.2001 12.5825 43.2001 12.5925 43.1901C12.6825 43.1401 12.7625 43.0901 12.8425 43.0301C12.8425 43.0301 12.8525 43.0301 12.8625 43.0201C12.8725 43.0101 12.8825 43.0001 12.9025 42.9901C12.9525 42.9501 13.0025 42.9101 13.0525 42.8601C13.0625 42.8501 13.0725 42.8401 13.0825 42.8301C13.0825 42.8301 13.1025 42.8101 13.1125 42.8001C13.1625 42.7501 13.2125 42.7001 13.2525 42.6501C13.2525 42.6401 13.2725 42.6301 13.2825 42.6201C13.3425 42.5501 13.4025 42.4801 13.4525 42.4001C13.4525 42.4001 13.4625 42.3901 13.4625 42.3801C13.4625 42.3701 13.4725 42.3601 13.4825 42.3501C13.5425 42.2601 13.6025 42.1701 13.6525 42.0701C13.6525 42.0701 13.6525 42.0601 13.6625 42.0501C13.7025 41.9701 13.7425 41.8901 13.7825 41.8001C13.7825 41.7801 13.8025 41.7601 13.8125 41.7401C13.8425 41.6701 13.8725 41.6101 13.9025 41.5301C13.9025 41.5301 13.9025 41.5101 13.9125 41.5001C13.9125 41.4801 13.9325 41.4501 13.9325 41.4301C13.9525 41.3701 13.9725 41.3101 14.0025 41.2401C14.0125 41.2001 14.0225 41.1701 14.0425 41.1301L14.0525 41.1401Z" fill="#B69751" stroke="black" stroke-linecap="round" stroke-linejoin="round"/>
<path d="M17.44 57.591L12.5 54.541C12.86 54.761 13.21 55.091 13.58 55.521L18.52 58.571C18.16 58.141 17.8 57.811 17.45 57.591H17.44Z" fill="#B69751" stroke="black" stroke-linecap="round" stroke-linejoin="round"/>
<path d="M25.1505 43.7306C25.2605 43.7606 25.3705 43.7806 25.4905 43.8006C25.5005 43.8006 25.5105 43.8006 25.5205 43.8006C25.6205 43.8206 25.7205 43.8306 25.8305 43.8406C25.8605 43.8406 25.8905 43.8406 25.9305 43.8406C26.0505 43.8506 26.1805 43.8606 26.3105 43.8606L21.3705 40.8106C21.2405 40.8106 21.1105 40.8006 20.9905 40.7906C20.9605 40.7906 20.9305 40.7906 20.8905 40.7906C20.7805 40.7806 20.6805 40.7706 20.5805 40.7506C20.5705 40.7506 20.5505 40.7506 20.5405 40.7506C20.4205 40.7306 20.3105 40.7106 20.2005 40.6806C20.1805 40.6806 20.1505 40.6706 20.1305 40.6606C20.0205 40.6306 19.9205 40.6006 19.8305 40.5606C19.7905 40.5406 19.7505 40.5206 19.7105 40.5106C19.6905 40.5106 19.6705 40.4906 19.6505 40.4806C19.5905 40.4506 19.5405 40.4206 19.4805 40.3906L24.4205 43.4406C24.4705 43.4706 24.5305 43.5006 24.5905 43.5306C24.6105 43.5406 24.6305 43.5506 24.6505 43.5606C24.6905 43.5806 24.7205 43.5906 24.7605 43.6106C24.7605 43.6106 24.7605 43.6106 24.7705 43.6106C24.8705 43.6506 24.9705 43.6806 25.0705 43.7106C25.0905 43.7106 25.1205 43.7206 25.1405 43.7306H25.1505Z" fill="#B69751" stroke="black" stroke-linecap="round" stroke-linejoin="round"/>
<path d="M22.3803 49.8105C22.4203 49.6905 22.4503 49.5705 22.4803 49.4505C22.4803 49.4305 22.4903 49.4005 22.5003 49.3805C22.5303 49.2705 22.5503 49.1505 22.5703 49.0405C22.5703 49.0305 22.5703 49.0105 22.5703 49.0005C22.5903 48.8805 22.6003 48.7505 22.6203 48.6305C22.6203 48.6005 22.6203 48.5805 22.6203 48.5505C22.6303 48.4305 22.6403 48.3005 22.6403 48.1805C22.6403 48.1605 22.6403 48.1505 22.6403 48.1305C22.6403 48.0105 22.6403 47.9005 22.6403 47.7805C22.6403 47.7605 22.6403 47.7405 22.6403 47.7105C22.6403 47.5905 22.6203 47.4605 22.6003 47.3405C22.6003 47.3105 22.6003 47.2905 22.5903 47.2605C22.5703 47.1305 22.5503 47.0105 22.5203 46.8805C22.2303 45.6405 21.5303 44.6805 20.6003 44.1105C18.9503 43.0905 17.3103 42.0705 15.6603 41.0605C16.5903 41.6405 17.3003 42.5905 17.5803 43.8305C17.6103 43.9505 17.6303 44.0805 17.6503 44.2105C17.6503 44.2405 17.6503 44.2605 17.6603 44.2905C17.6803 44.4105 17.6903 44.5305 17.7003 44.6605C17.7003 44.6805 17.7003 44.7005 17.7003 44.7305C17.7003 44.8505 17.7003 44.9605 17.7003 45.0805C17.7003 45.1005 17.7003 45.1105 17.7003 45.1305C17.7003 45.2505 17.7003 45.3805 17.6803 45.5005C17.6803 45.5305 17.6803 45.5505 17.6803 45.5805C17.6703 45.7005 17.6503 45.8305 17.6303 45.9505C17.6303 45.9605 17.6303 45.9805 17.6303 45.9905C17.6103 46.1005 17.5903 46.2205 17.5603 46.3305C17.5603 46.3505 17.5503 46.3805 17.5403 46.4005C17.5103 46.5205 17.4803 46.6405 17.4403 46.7605C17.4403 46.7905 17.4203 46.8105 17.4203 46.8405C17.3803 46.9605 17.3403 47.0705 17.3003 47.1905C17.3003 47.1905 17.3003 47.2005 17.3003 47.2105C17.2503 47.3305 17.2003 47.4505 17.1503 47.5705C17.1403 47.5905 17.1303 47.6205 17.1203 47.6405C17.0703 47.7505 17.0103 47.8705 16.9503 47.9805C16.9403 48.0005 16.9203 48.0305 16.9103 48.0505C16.8703 48.1205 16.8303 48.1905 16.7803 48.2605C16.7603 48.2905 16.7503 48.3205 16.7303 48.3405C16.6703 48.4305 16.6203 48.5205 16.5603 48.6005C16.5603 48.6005 16.5603 48.6105 16.5503 48.6205C16.4903 48.7005 16.4303 48.7805 16.3703 48.8605C16.3503 48.8905 16.3303 48.9105 16.3103 48.9405C16.2703 48.9905 16.2203 49.0505 16.1803 49.1005C16.1603 49.1305 16.1303 49.1605 16.1103 49.1805C16.0703 49.2305 16.0203 49.2805 15.9703 49.3305C15.9503 49.3505 15.9203 49.3805 15.9003 49.4005C15.8403 49.4605 15.7803 49.5205 15.7203 49.5805C15.7103 49.5905 15.7003 49.6005 15.6903 49.6105C15.6203 49.6805 15.5403 49.7505 15.4603 49.8105C15.4403 49.8305 15.4103 49.8505 15.3903 49.8705C15.3303 49.9205 15.2803 49.9605 15.2203 50.0105C15.1903 50.0305 15.1703 50.0505 15.1403 50.0705C15.0603 50.1305 14.9803 50.1805 14.9003 50.2305C14.8803 50.2405 14.8703 50.2505 14.8503 50.2605C14.7603 50.3205 14.6603 50.3805 14.5603 50.4305C14.5303 50.4505 14.5103 50.4605 14.4803 50.4705C14.4103 50.5105 14.3403 50.5505 14.2603 50.5805C14.2303 50.5905 14.2003 50.6105 14.1703 50.6205C14.0703 50.6705 13.9703 50.7105 13.8703 50.7505C13.7803 50.7905 13.6803 50.8205 13.5903 50.8605C13.5603 50.8705 13.5203 50.8805 13.4903 50.8905C13.4303 50.9105 13.3703 50.9305 13.3103 50.9505C13.2703 50.9605 13.2303 50.9705 13.1903 50.9805C13.1403 50.9905 13.0803 51.0105 13.0303 51.0205C12.9903 51.0205 12.9503 51.0405 12.9103 51.0405C12.8603 51.0505 12.8003 51.0605 12.7503 51.0705C12.7103 51.0705 12.6703 51.0805 12.6203 51.0905C12.5703 51.0905 12.5203 51.1005 12.4703 51.1105C12.4303 51.1105 12.3903 51.1105 12.3403 51.1105C12.2903 51.1105 12.2403 51.1105 12.1903 51.1105C12.1503 51.1105 12.1103 51.1105 12.0603 51.1105C12.0103 51.1105 11.9603 51.1105 11.9103 51.1105C11.8703 51.1105 11.8303 51.1105 11.7903 51.1105C11.7403 51.1105 11.6903 51.1105 11.6403 51.1005C11.6003 51.1005 11.5603 51.1005 11.5203 51.0905C11.4703 51.0905 11.4203 51.0805 11.3803 51.0705C11.3403 51.0705 11.3003 51.0605 11.2603 51.0505C11.2203 51.0505 11.1903 51.0405 11.1503 51.0305C11.1103 51.0305 11.0603 51.0105 11.0203 51.0005C10.9803 51.0005 10.9503 50.9805 10.9103 50.9705C10.8703 50.9605 10.8203 50.9505 10.7803 50.9305C10.7503 50.9205 10.7103 50.9105 10.6803 50.9005C10.6403 50.8905 10.5903 50.8705 10.5503 50.8605C10.5203 50.8505 10.4803 50.8405 10.4503 50.8205C10.4203 50.8105 10.3903 50.8005 10.3703 50.7805C10.3003 50.7505 10.2303 50.7205 10.1603 50.6805C10.1303 50.6705 10.1103 50.6505 10.0803 50.6405C9.99031 50.5905 9.90031 50.5405 9.82031 50.4905L14.7503 53.5405C14.8403 53.5905 14.9303 53.6405 15.0203 53.6905C15.0503 53.7005 15.0703 53.7205 15.1003 53.7305C15.1703 53.7605 15.2403 53.8005 15.3103 53.8305C15.3303 53.8305 15.3403 53.8505 15.3603 53.8505C15.3703 53.8505 15.3803 53.8505 15.4003 53.8605C15.4303 53.8705 15.4703 53.8805 15.5003 53.9005C15.5403 53.9205 15.5903 53.9305 15.6303 53.9505C15.6603 53.9605 15.7003 53.9705 15.7303 53.9805C15.7703 53.9905 15.8203 54.0105 15.8603 54.0205C15.8903 54.0205 15.9303 54.0405 15.9603 54.0505C16.0003 54.0605 16.0503 54.0705 16.1003 54.0805C16.1303 54.0805 16.1703 54.0905 16.2103 54.1005C16.2303 54.1005 16.2503 54.1005 16.2703 54.1105C16.2903 54.1105 16.3203 54.1105 16.3403 54.1105C16.3903 54.1105 16.4403 54.1205 16.4803 54.1305C16.5203 54.1305 16.5603 54.1305 16.6003 54.1405C16.6503 54.1405 16.7003 54.1405 16.7503 54.1505C16.7903 54.1505 16.8303 54.1505 16.8703 54.1505C16.9203 54.1505 16.9703 54.1505 17.0203 54.1505C17.0603 54.1505 17.1003 54.1505 17.1403 54.1505C17.1903 54.1505 17.2403 54.1505 17.2903 54.1505C17.3303 54.1505 17.3703 54.1505 17.4103 54.1505C17.4603 54.1505 17.5203 54.1405 17.5703 54.1305C17.6103 54.1305 17.6503 54.1305 17.6903 54.1105C17.7503 54.1105 17.8003 54.0905 17.8603 54.0805C17.9003 54.0805 17.9403 54.0705 17.9803 54.0605C18.0403 54.0505 18.1003 54.0305 18.1603 54.0205C18.1903 54.0205 18.2303 54.0005 18.2603 53.9905C18.3303 53.9705 18.4003 53.9505 18.4703 53.9305C18.4903 53.9305 18.5203 53.9205 18.5403 53.9105C18.6303 53.8805 18.7303 53.8405 18.8203 53.8005C18.9203 53.7605 19.0203 53.7105 19.1203 53.6705C19.1503 53.6605 19.1803 53.6405 19.2003 53.6305C19.2703 53.5905 19.3503 53.5605 19.4203 53.5205C19.4403 53.5205 19.4603 53.5005 19.4703 53.4905C19.4703 53.4905 19.4903 53.4805 19.5003 53.4705C19.6003 53.4105 19.6903 53.3605 19.7903 53.3005C19.8003 53.3005 19.8203 53.2805 19.8303 53.2705C19.9103 53.2205 19.9903 53.1605 20.0703 53.1005C20.0803 53.1005 20.1003 53.0805 20.1103 53.0705C20.1203 53.0605 20.1403 53.0505 20.1503 53.0405C20.2103 52.9905 20.2703 52.9505 20.3303 52.9005C20.3503 52.8805 20.3703 52.8705 20.4003 52.8505C20.4803 52.7805 20.5603 52.7205 20.6303 52.6405C20.6403 52.6405 20.6503 52.6205 20.6603 52.6105C20.7203 52.5505 20.7803 52.4905 20.8403 52.4305C20.8603 52.4105 20.8903 52.3805 20.9103 52.3605C20.9603 52.3105 21.0003 52.2605 21.0503 52.2105C21.0603 52.2005 21.0803 52.1805 21.0903 52.1705C21.1003 52.1605 21.1103 52.1405 21.1203 52.1305C21.1703 52.0805 21.2103 52.0205 21.2603 51.9705C21.2803 51.9405 21.3003 51.9205 21.3203 51.8905C21.3803 51.8105 21.4403 51.7305 21.5003 51.6405C21.5603 51.5505 21.6203 51.4605 21.6803 51.3705C21.7003 51.3405 21.7103 51.3205 21.7303 51.2905C21.7703 51.2205 21.8203 51.1505 21.8603 51.0705C21.8603 51.0505 21.8803 51.0405 21.8903 51.0205C21.8903 51.0205 21.8903 51.0105 21.9003 51.0005C21.9603 50.8905 22.0203 50.7705 22.0703 50.6605C22.0803 50.6405 22.0903 50.6105 22.1003 50.5905C22.1503 50.4705 22.2103 50.3505 22.2503 50.2305C22.2503 50.2305 22.2503 50.2305 22.2503 50.2205C22.2903 50.1005 22.3303 49.9905 22.3703 49.8705C22.3703 49.8405 22.3903 49.8205 22.3903 49.7905L22.3803 49.8105Z" fill="#B69751" stroke="black" stroke-linecap="round" stroke-linejoin="round"/>
<path d="M12.1813 57.6901L7.24125 54.6401C7.08125 54.5401 6.93125 54.4401 6.78125 54.3301L11.7213 57.3801C11.8713 57.4901 12.0213 57.5901 12.1813 57.6901Z" fill="#B69751"/>
<mask id="mask5_93_11071" style="mask-type:luminance" maskUnits="userSpaceOnUse" x="6" y="54" width="7" height="4">
<path d="M12.1813 57.6901L7.24125 54.6401C7.08125 54.5401 6.93125 54.4401 6.78125 54.3301L11.7213 57.3801C11.8713 57.4901 12.0213 57.5901 12.1813 57.6901Z" fill="white"/>
</mask>
<g mask="url(#mask5_93_11071)">
<path d="M12.1813 57.6901L7.24125 54.6401C7.08125 54.5401 6.93125 54.4401 6.78125 54.3301L11.7213 57.3801C11.8713 57.4901 12.0213 57.5901 12.1813 57.6901Z" fill="#B69751" stroke="black" stroke-linecap="round" stroke-linejoin="round"/>
</g>
<path d="M12.1813 57.6901L7.24125 54.6401C7.08125 54.5401 6.93125 54.4401 6.78125 54.3301L11.7213 57.3801C11.8713 57.4901 12.0213 57.5901 12.1813 57.6901Z" stroke="black" stroke-linecap="round" stroke-linejoin="round"/>
<path d="M26.3206 43.8791C26.4806 44.2891 26.6206 44.7291 26.7206 45.1791C26.8106 45.5891 26.8806 46.0091 26.9206 46.4291C25.0406 48.2891 24.8206 49.7491 26.1706 51.5491C25.8406 52.3991 25.4106 53.2091 24.8906 53.9591C24.2006 53.9791 23.6306 54.0791 23.1406 54.2691C21.9706 54.7391 21.3406 55.7691 21.0306 57.5391C20.6306 57.7691 20.2206 57.9691 19.7906 58.1391C19.3606 58.3091 18.9306 58.4491 18.5106 58.5591C17.4906 57.3291 16.5206 56.9491 15.3706 57.4191C14.8906 57.6091 14.3806 57.9491 13.8206 58.4391C13.0606 58.1891 12.3606 57.8291 11.7206 57.3691C12.0406 54.9191 11.2506 53.8791 8.97062 53.6991C8.82062 53.3191 8.70063 52.9191 8.60063 52.4991C8.49063 52.0391 8.42062 51.5691 8.39062 51.0991C10.2306 49.3591 10.4606 47.9191 9.19062 46.0491C9.53062 45.1991 9.97062 44.3891 10.4906 43.6291C11.1806 43.6291 11.7606 43.5491 12.2506 43.3591C13.3606 42.9091 13.9806 41.8891 14.3006 40.1291C14.7006 39.9091 15.1106 39.7091 15.5306 39.5291C15.9506 39.3591 16.3806 39.2191 16.8006 39.1191C17.7806 40.3591 18.7206 40.7591 19.8406 40.2991C20.3306 40.0991 20.8606 39.7391 21.4406 39.2091C22.1906 39.4491 22.8806 39.7991 23.5206 40.2391C23.2006 42.7691 24.0006 43.7991 26.3206 43.8691V43.8791ZM18.8006 53.8291C21.4806 52.7491 23.1406 49.6391 22.5106 46.8891C21.8806 44.1391 19.1906 42.7891 16.5206 43.8691C13.8406 44.9491 12.1806 48.0591 12.8106 50.8091C13.4406 53.5591 16.1206 54.9091 18.8006 53.8291Z" fill="white" stroke="black" stroke-linecap="round" stroke-linejoin="round"/>
<path d="M22.1022 39.4699C22.2322 39.5299 22.3622 39.5899 22.4922 39.6499C22.5422 39.6699 22.5922 39.6999 22.6422 39.7199C22.8122 39.8099 22.9722 39.8999 23.1322 39.9999L21.7122 39.1199C20.5422 38.3999 19.3722 37.6699 18.2022 36.9499C18.0422 36.8499 17.8722 36.7599 17.7022 36.6699C17.6522 36.6399 17.6022 36.6199 17.5522 36.5999C17.4222 36.5399 17.2922 36.4799 17.1522 36.4199C17.1222 36.4099 17.0922 36.3899 17.0622 36.3799C17.0422 36.3799 17.0322 36.3699 17.0122 36.3599C16.8422 36.2899 16.6722 36.2299 16.4922 36.1699L21.4322 39.2199C21.6022 39.2799 21.7822 39.3399 21.9522 39.4099C22.0022 39.4299 22.0522 39.4499 22.1022 39.4699Z" fill="#B69751" stroke="black" stroke-linecap="round" stroke-linejoin="round"/>
<path d="M8.38313 51.1105L3.45312 48.0605C3.49312 48.5305 3.56313 49.0005 3.66313 49.4605C3.76313 49.8805 3.88313 50.2805 4.03313 50.6605L8.97313 53.7105C8.82313 53.3305 8.70313 52.9305 8.60313 52.5105C8.49313 52.0505 8.42313 51.5805 8.39313 51.1105H8.38313Z" fill="#B69751" stroke="black" stroke-linecap="round" stroke-linejoin="round"/>
<path d="M16.3216 39.2601C16.3216 39.2601 16.4016 39.2401 16.4316 39.2301C16.5516 39.2001 16.6716 39.1601 16.7816 39.1301L11.8416 36.0801C11.7216 36.1101 11.6016 36.1401 11.4916 36.1801C11.4516 36.1901 11.4216 36.2001 11.3816 36.2101C11.3016 36.2301 11.2216 36.2601 11.1316 36.2901C11.1116 36.2901 11.0916 36.3001 11.0716 36.3101C11.0516 36.3101 11.0316 36.3201 11.0216 36.3301C10.8716 36.3801 10.7216 36.4401 10.5816 36.5001C10.1516 36.6701 9.75156 36.8701 9.35156 37.1001L14.2816 40.1501C14.6816 39.9301 15.0916 39.7301 15.5116 39.5501C15.6616 39.4901 15.8116 39.4401 15.9516 39.3801C15.9916 39.3701 16.0316 39.3501 16.0616 39.3401C16.1416 39.3101 16.2216 39.2901 16.3016 39.2601H16.3216Z" fill="#B69751" stroke="black" stroke-linecap="round" stroke-linejoin="round"/>
<path d="M9.79219 44.7698C9.86219 44.6398 9.93219 44.5098 10.0122 44.3898C10.0522 44.3298 10.0822 44.2598 10.1222 44.1998C10.2422 44.0098 10.3622 43.8298 10.4822 43.6398L5.54219 40.5898C5.41219 40.7698 5.29219 40.9598 5.18219 41.1498C5.14219 41.2098 5.11219 41.2798 5.07219 41.3398C5.00219 41.4498 4.94219 41.5598 4.87219 41.6798C4.87219 41.6898 4.86219 41.7098 4.85219 41.7198C4.77219 41.8598 4.70219 41.9998 4.63219 42.1498C4.60219 42.2198 4.56219 42.2898 4.52219 42.3598C4.42219 42.5798 4.32219 42.7898 4.24219 43.0098L9.17219 46.0598C9.26219 45.8398 9.35219 45.6198 9.46219 45.4098C9.49219 45.3398 9.53219 45.2698 9.57219 45.1998C9.64219 45.0598 9.71219 44.9098 9.79219 44.7698Z" fill="#B69751" stroke="black" stroke-linecap="round" stroke-linejoin="round"/>
</g>
<defs>
<clipPath id="clip0_93_11071">
<rect width="64" height="64" fill="white"/>
</clipPath>
</defs>
</svg>
