<svg width="64" height="64" viewBox="0 0 64 64" fill="none" xmlns="http://www.w3.org/2000/svg">
<g clip-path="url(#clip0_93_10994)">
<path d="M12.12 23.2994C12.44 25.3694 13.4 27.4194 14.94 28.1894C16.48 28.9594 18.64 30.2594 19.35 27.3294C20.06 24.3994 32.96 13.1194 33.27 13.0694C33.58 13.0194 43.53 5.64937 43.53 5.64937C43.53 5.64937 43 3.65937 39.4 2.11937C35.85 0.599373 30.64 0.539373 26.7 1.91937C22.36 3.43937 19.76 5.81937 16.44 9.69937C13.04 13.6794 11.28 17.7794 12.13 23.2994H12.12Z" fill="#079EDE" stroke="black" stroke-linecap="round" stroke-linejoin="round"/>
<path d="M15.7513 27.7697C14.8613 27.7697 14.0913 27.2497 13.5113 26.5997C12.9013 25.9197 12.8013 24.9997 13.6313 24.6097H13.6513C14.2113 24.3397 14.8813 24.4697 15.2813 24.9397C15.4813 25.1697 15.6613 25.3297 15.7713 25.3397C15.7913 25.3297 15.8013 25.3197 15.8213 25.2597C15.9813 24.8197 15.7913 23.6997 15.1013 22.4797C14.4013 21.2297 14.2913 19.7397 14.8113 18.4997C15.3013 17.3297 16.3013 16.4797 17.6413 16.1097C18.2613 15.9397 18.8113 15.8797 19.2913 15.8897C20.7213 15.9297 21.1613 17.8397 19.8913 18.4797C19.8913 18.4797 19.8913 18.5097 19.9313 18.5497C19.9213 18.5297 19.5813 18.0997 18.2913 18.4497C17.6713 18.6197 17.2613 18.9497 17.0613 19.4397C16.8313 19.9897 16.8913 20.7097 17.2313 21.2997C17.6113 21.9697 18.7913 24.2997 18.1113 26.1197C17.8413 26.8397 17.3013 27.3797 16.5813 27.6397C16.3013 27.7397 16.0313 27.7897 15.7713 27.7897L15.7513 27.7697Z" fill="#079EDE" stroke="black" stroke-linecap="round" stroke-linejoin="round"/>
<path d="M13.5098 23.2891C12.8598 23.7991 11.8798 23.5291 11.6198 22.7391C11.4098 22.1191 11.2298 21.3091 11.2198 20.3191C11.1998 19.1691 11.4798 18.2291 11.8098 17.5291C12.1598 16.7791 13.1398 16.6091 13.7398 17.1691C14.1098 17.5291 14.2298 18.0791 14.0098 18.5491C13.8198 18.9591 13.6398 19.5491 13.6498 20.2791C13.6598 20.9791 13.7798 21.5291 13.9098 21.9291C14.0698 22.4191 13.9198 22.9591 13.5198 23.2891H13.5098Z" fill="white" stroke="black" stroke-linecap="round" stroke-linejoin="round"/>
<path d="M14.141 15.8799C13.511 15.3399 13.601 14.3399 14.311 13.9199C15.381 13.2699 17.131 12.6299 19.531 13.0499C20.301 13.1899 20.721 13.0099 20.831 12.8199C20.921 12.6699 20.891 12.4599 20.771 12.2799C20.571 12.0099 19.971 11.4099 18.721 11.5699C18.191 11.6399 17.731 11.7899 17.361 11.9399C16.851 12.1499 16.261 11.9799 15.931 11.5299C15.471 10.8899 15.711 9.98989 16.441 9.68989C16.971 9.46989 17.641 9.25989 18.411 9.15989C21.011 8.81989 22.371 10.3599 22.721 10.8399C23.441 11.8199 23.511 13.0999 22.901 14.0999C22.201 15.2299 20.791 15.7299 19.111 15.4399C17.431 15.1499 16.251 15.5799 15.571 15.9899C15.121 16.2599 14.541 16.2299 14.141 15.8799Z" fill="white" stroke="black" stroke-linecap="round" stroke-linejoin="round"/>
<path d="M28.2407 9.00955C27.8307 9.58955 27.0207 9.69955 26.4707 9.24955C25.1707 8.17955 23.5707 6.52955 23.7207 4.97955C23.8307 3.83955 24.4107 2.97955 25.3107 2.59955C26.2707 2.19955 27.3907 2.41955 28.3807 3.21955L28.6007 3.39955C29.0307 3.74955 29.9107 4.46955 30.2307 4.40955C30.2707 4.40955 30.4107 4.30955 30.6107 3.97955C30.6307 3.93955 30.6407 3.91955 30.6407 3.91955C30.6107 3.75955 30.2807 3.45955 29.8507 3.17955C29.3607 2.85955 29.1607 2.24955 29.3707 1.70955C29.6507 1.00955 30.5007 0.719554 31.1407 1.12955C31.8507 1.57955 32.6207 2.24955 32.9307 3.13955C33.1707 3.83955 33.0907 4.55955 32.7007 5.21955C32.1707 6.12955 31.4807 6.65955 30.6607 6.80955C29.2407 7.05955 28.0407 6.07955 27.0707 5.29955L26.8607 5.12955C26.5107 4.84955 26.2907 4.83955 26.2507 4.84955C26.2407 4.85955 26.1607 4.96955 26.1407 5.22955C26.1807 5.59955 27.0107 6.53955 28.0407 7.39955C28.5207 7.79955 28.6007 8.50955 28.2407 9.02955V9.00955Z" fill="#079EDE" stroke="black" stroke-linecap="round" stroke-linejoin="round"/>
<path d="M24.6417 10.7192C24.1417 10.9692 23.5417 10.8292 23.1817 10.3992C22.9017 10.0592 22.5217 9.64917 22.0217 9.26917C21.5317 8.88917 20.8017 8.60917 20.1917 8.42917C19.6217 8.25917 19.2717 7.69917 19.3617 7.11917V7.04917C19.4817 6.33917 20.1917 5.89917 20.8817 6.09917C21.6817 6.32917 22.7117 6.72917 23.5117 7.34917C24.1917 7.87917 24.7117 8.42917 25.0917 8.88917C25.5717 9.47917 25.3817 10.3492 24.7117 10.6892L24.6517 10.7192H24.6417Z" fill="white" stroke="black" stroke-linecap="round" stroke-linejoin="round"/>
<path d="M19.4015 30.4793C20.1815 31.9093 22.6115 34.3793 27.2415 34.9493C31.5215 35.4693 36.2915 34.2993 42.0615 31.1093C47.8415 27.9193 52.8715 25.5593 52.1715 17.5493C51.4715 9.53932 46.5615 6.56932 44.3815 5.67932C42.2015 4.78932 37.6515 4.78932 34.0215 6.63932C30.8415 8.26932 24.9015 12.5193 21.9115 17.9793C19.0915 23.1193 18.0715 28.0493 19.3915 30.4693L19.4015 30.4793Z" fill="#079EDE" stroke="black" stroke-linecap="round" stroke-linejoin="round"/>
<path d="M27.6907 34.2689C27.3607 34.2689 27.0307 34.2489 26.6907 34.2189C24.1907 33.9589 22.2807 32.9889 21.4407 31.5689C20.9507 30.7389 20.8707 29.8089 21.2107 28.9889C21.9907 27.1389 25.0007 27.4389 27.7907 28.1889C28.4607 28.3689 28.8407 29.0689 28.6307 29.7289C28.4307 30.3489 27.7907 30.6989 27.1707 30.5389C25.5807 30.1289 24.0307 29.9289 23.4407 30.0789C23.4507 30.1789 23.5007 30.2689 23.5407 30.3289C23.8807 30.8989 24.9507 31.5889 26.9507 31.7989C28.5407 31.9689 29.8607 31.6089 30.4707 30.8289C30.8507 30.3589 30.9207 29.7689 30.6807 29.0689C30.3107 27.9789 26.7407 27.1889 23.7707 27.1589L21.5807 27.1389C20.8007 27.1389 20.5707 26.0589 21.2907 25.7389L23.2907 24.8389C23.2907 24.8389 25.3107 23.8689 24.9107 22.6889C24.6607 21.9489 23.9707 21.6989 23.5807 21.6189C22.8107 21.4589 21.9807 21.6689 21.5607 22.1289C21.2207 22.4989 21.1707 22.9489 21.2007 23.3089C21.2407 23.7789 21.0007 24.2289 20.5807 24.4489H20.5507C19.7707 24.8689 18.8407 24.3389 18.7707 23.4689C18.7007 22.5389 18.9007 21.4489 19.7507 20.5089C20.7507 19.3989 22.4407 18.9089 24.0707 19.2489C25.6007 19.5689 26.7407 20.5489 27.2107 21.9289C27.6007 23.1089 27.3307 24.1389 26.7907 24.9689C29.2207 25.3189 32.2507 26.1689 32.9707 28.2889C33.4807 29.7789 33.2607 31.2189 32.3607 32.3489C31.3707 33.5889 29.7007 34.2689 27.6907 34.2689Z" fill="white" stroke="black" stroke-linecap="round" stroke-linejoin="round"/>
<path d="M20.419 31.2407C19.879 31.8007 18.949 31.7107 18.559 31.0407C18.229 30.4907 17.939 29.7807 17.909 28.9907C17.889 28.4907 17.979 28.0007 18.099 27.5707C18.309 26.8207 19.169 26.4607 19.839 26.8607L19.889 26.8907C20.349 27.1607 20.579 27.7007 20.429 28.2107C20.369 28.4407 20.319 28.6807 20.329 28.9107C20.329 29.1907 20.459 29.4907 20.619 29.7507C20.889 30.2107 20.829 30.7907 20.459 31.1807L20.409 31.2307L20.419 31.2407Z" fill="white" stroke="black" stroke-linecap="round" stroke-linejoin="round"/>
<path d="M34.5481 33.9792C33.7881 34.1992 33.0282 33.6392 32.9982 32.8492C32.9782 32.1292 33.0981 31.3192 33.6181 30.7192C33.8981 30.3892 34.5382 29.8692 35.6782 30.0092C36.7582 30.1492 37.4281 29.9392 37.6881 29.6892C37.7481 29.6292 37.9282 29.4692 37.8982 28.9892C37.8682 28.4492 37.5081 28.0892 37.1381 27.8592C36.7081 27.5892 36.4782 27.0892 36.5882 26.5892V26.5292C36.7882 25.7492 37.6781 25.3492 38.3681 25.7692C39.3281 26.3492 40.2481 27.3492 40.3182 28.8692C40.3882 30.1992 39.8182 31.0192 39.3282 31.4692C38.4582 32.2792 37.0781 32.6092 35.4381 32.4192C35.4281 32.5092 35.4281 32.6292 35.4381 32.7592C35.4581 33.3192 35.0882 33.8192 34.5582 33.9692L34.5481 33.9792Z" fill="white" stroke="black" stroke-linecap="round" stroke-linejoin="round"/>
<path d="M42.0109 27.8794C41.8209 27.8794 41.6409 27.8494 41.4609 27.7994C40.2009 27.4194 39.0509 25.6394 39.9509 21.8494C40.3909 20.0294 39.3309 19.1794 37.5509 17.9894C36.3509 17.1994 34.8709 16.2094 35.3209 14.5294C35.5709 13.5794 36.1909 12.9094 37.0709 12.6394C38.9009 12.0594 41.2009 13.4194 42.2709 14.3194C42.7209 14.6894 43.0709 14.9994 43.3509 15.2594C43.9109 15.7694 43.8809 16.6594 43.2809 17.1194L42.4509 17.7694C42.4509 17.7694 42.0809 17.3394 40.7109 16.1794C39.6509 15.2894 38.3009 14.7994 37.8009 14.9494C37.7709 14.9494 37.7409 14.9694 37.7009 15.0594C37.8909 15.2894 38.4909 15.6894 38.9009 15.9594C40.5009 17.0194 43.1809 18.7994 42.3209 22.3994C42.0009 23.7294 42.0309 24.5894 42.1309 25.0694C42.1609 24.9994 42.1909 24.9294 42.2209 24.8394C42.8609 23.0894 43.9209 20.1494 46.7709 20.5594C47.6609 20.6894 48.4209 21.2794 48.8009 22.1394C49.0409 22.6794 49.1109 23.2694 49.0209 23.8694C48.8909 24.7394 47.8709 25.1694 47.1409 24.6794C46.7509 24.4094 46.5709 23.9494 46.6209 23.4694C46.6309 23.3394 46.6209 23.2194 46.5809 23.1294C46.5309 23.0294 46.4709 22.9694 46.4209 22.9694C45.9309 22.8994 45.4509 23.0594 44.5009 25.6694C43.9309 27.2294 42.9209 27.8694 42.0109 27.8694V27.8794Z" fill="white" stroke="black" stroke-linecap="round" stroke-linejoin="round"/>
<path d="M42.0702 31.1101H42.0602C41.5102 31.1101 41.0902 30.6201 41.1802 30.0801L41.2102 29.8701V29.8101C41.3102 29.2001 41.7902 28.7401 42.3902 28.6201C42.8402 28.5401 43.3602 28.3501 43.8002 27.9601C44.2502 27.5501 44.5102 27.1401 44.6602 26.8001C44.8502 26.3701 45.2702 26.0801 45.7402 26.0801H45.8302C46.6702 26.0801 47.2402 26.9301 46.9102 27.7101C46.6502 28.3401 46.2002 29.0701 45.4302 29.7601C44.1402 30.9201 42.9502 31.1101 42.0802 31.1101H42.0702Z" fill="white" stroke="black" stroke-linecap="round" stroke-linejoin="round"/>
<path d="M50.1884 20.9796C49.3884 20.9796 48.6584 20.5896 48.0684 20.2696C47.7084 20.0796 47.3484 19.8796 46.9284 19.7196C46.1184 19.3996 45.5184 19.6396 45.1384 19.9196C44.7784 20.1896 44.2984 20.2296 43.9184 19.9896L43.8484 19.9496C43.0884 19.4896 43.0584 18.4196 43.7784 17.9196C44.7384 17.2396 46.1284 16.7996 47.8184 17.4596C48.3684 17.6796 48.8184 17.9196 49.2184 18.1396C50.1184 18.6296 50.1584 18.5996 50.3284 18.4596C50.3584 18.4396 50.3684 18.4196 50.3684 18.4196C50.3684 18.3496 50.1984 17.8296 49.2384 17.1596C48.5884 16.6996 47.6284 16.5696 46.8784 16.5496C46.2884 16.5396 45.7884 16.1096 45.6984 15.5196C45.5784 14.7796 46.1584 14.0996 46.9084 14.1196C47.9684 14.1396 49.4384 14.3396 50.6184 15.1696C51.9684 16.1096 52.7284 17.2296 52.7784 18.3296C52.8084 19.1096 52.4884 19.8196 51.8584 20.3296C51.2784 20.8096 50.7084 20.9796 50.1784 20.9796H50.1884Z" fill="#079EDE" stroke="black" stroke-linecap="round" stroke-linejoin="round"/>
<path d="M22.4814 17.9106C21.8314 17.6206 21.5714 16.8406 21.9114 16.2206C22.6314 14.9006 23.9914 12.7306 25.8214 11.1406C27.8614 9.37061 29.9714 9.50061 31.1614 10.4106C32.2514 11.2406 32.5514 12.6906 31.9014 13.9906C32.1414 14.0806 32.5814 14.1406 33.0614 14.1606C33.6614 14.1806 34.1514 14.6406 34.2214 15.2406C34.3014 15.9706 33.7214 16.6206 32.9914 16.5906C31.8814 16.5506 30.4814 16.3006 29.8114 15.3506C29.5314 14.9606 29.1514 14.1106 29.7414 12.9006C29.9314 12.5106 29.7614 12.3806 29.7014 12.3306C29.3814 12.0906 28.4814 12.0506 27.4214 12.9606C25.8714 14.3006 24.6814 16.2206 24.0514 17.3706C23.7514 17.9306 23.0714 18.1506 22.4914 17.8906L22.4814 17.9106Z" fill="#079EDE" stroke="black" stroke-linecap="round" stroke-linejoin="round"/>
<path d="M39.5687 20.9899C39.1887 19.6299 37.7487 18.5199 35.1687 17.5899C31.8487 16.3899 29.2687 17.2799 29.1587 17.3199C28.5287 17.5299 27.7987 17.6499 27.4287 17.6099C27.5087 17.1999 27.9587 16.7499 28.4287 16.3999C28.8287 16.0999 28.9687 15.5599 28.7487 15.1099L28.5987 14.7999C28.3087 14.2099 27.5587 14.0299 27.0287 14.4199C26.0787 15.1199 24.8587 16.3499 25.0087 17.9899C25.0687 18.6899 25.4187 19.2699 25.9787 19.6299C26.4587 19.9399 27.0487 20.0399 27.6387 20.0399C28.6687 20.0399 29.7087 19.7199 30.1587 19.5499C30.7087 19.4099 32.3187 19.1299 34.3487 19.8699C36.9287 20.7999 37.2087 21.5599 37.2387 21.6399C37.2587 21.7299 37.2087 21.8499 37.0787 22.0199C37.0287 22.0799 36.9987 22.1099 36.9787 22.1199C36.7487 22.0899 36.1487 21.7399 35.7487 21.5099C35.4287 21.3199 35.0687 21.1099 34.6687 20.9099C33.1387 20.1199 30.0287 19.7299 28.4287 20.8699C27.6587 21.4199 27.2987 22.2699 27.4387 23.2099C27.7587 25.3999 29.4287 25.4099 30.3287 25.4199C30.9887 25.4199 31.6687 25.4299 32.4487 25.8599C33.2987 26.3299 33.4487 27.0999 33.4087 27.6799C33.3787 28.1499 33.6587 28.5799 34.0987 28.7399L34.3987 28.8499C35.0587 29.0899 35.7587 28.6399 35.8187 27.9399C35.9187 26.5599 35.5187 24.7899 33.6287 23.7399C32.3087 23.0099 31.1387 22.9999 30.3587 22.9899C30.1987 22.9899 29.9987 22.9899 29.8687 22.9799C29.8687 22.9499 29.8587 22.9099 29.8487 22.8599C29.8487 22.8599 29.8487 22.8499 29.8487 22.8399C30.2587 22.4699 32.3787 22.4499 33.5687 23.0599C33.9087 23.2299 34.2187 23.4199 34.5287 23.5999C35.7187 24.2999 37.5187 25.3499 38.9787 23.5299C39.7887 22.5199 39.7587 21.5799 39.5787 20.9799L39.5687 20.9899Z" fill="white" stroke="black" stroke-linecap="round" stroke-linejoin="round"/>
<path d="M47.3014 8.47961C46.9014 8.90961 46.2514 8.98961 45.7514 8.66961C44.8414 8.07961 43.2014 7.27961 41.1214 7.27961H41.1014C38.7314 7.27961 37.2215 7.73961 36.4015 8.09961C35.9115 8.30961 35.3415 8.17961 34.9915 7.76961C34.4615 7.13961 34.6914 6.18961 35.4414 5.85961C36.5514 5.36961 38.3814 4.84961 41.1014 4.84961H41.1315C43.8015 4.84961 45.8714 5.84961 47.0714 6.62961C47.7114 7.03961 47.8214 7.92961 47.3014 8.48961L47.4015 8.38961L47.3115 8.48961L47.3014 8.47961Z" fill="white" stroke="black" stroke-linecap="round" stroke-linejoin="round"/>
<path d="M50.9195 13.1303C50.6795 13.6803 50.0695 13.9803 49.4895 13.8203C48.5295 13.5603 46.9795 13.2803 45.3895 13.5803C43.1195 14.0103 41.5895 13.7603 40.7295 12.8303C40.2795 12.3403 39.8195 11.4403 40.2295 9.95027C40.3895 9.35027 40.7695 8.88027 41.3195 8.58027C41.9495 8.24027 42.7295 8.19027 43.4095 8.25027C44.1895 8.32027 44.7095 9.08027 44.4695 9.83027C44.2995 10.3703 43.7695 10.7203 43.2095 10.6703C42.9295 10.6403 42.6895 10.6503 42.5495 10.6803C42.4595 11.0503 42.5195 11.1803 42.5195 11.1803C42.5195 11.1803 42.9495 11.5703 44.9395 11.1903C46.9695 10.8003 48.8995 11.1403 50.1195 11.4703C50.8395 11.6603 51.2095 12.4503 50.9195 13.1303Z" fill="white" stroke="black" stroke-linecap="round" stroke-linejoin="round"/>
<path d="M34.5916 12.28C34.4116 12.28 34.2216 12.25 34.0316 12.19C33.1316 11.9 32.6916 11.01 32.4216 10.27C32.3216 9.99004 31.9216 9.81004 31.4916 9.70004C30.9616 9.57004 30.6016 9.08004 30.6016 8.54004C30.6016 7.74004 31.3516 7.16004 32.1216 7.36004C33.0816 7.61004 34.2216 8.16004 34.6916 9.41004C34.7316 9.52004 34.7716 9.60004 34.8016 9.68004C34.8416 9.65004 34.8916 9.62004 34.9316 9.60004C35.5116 9.22004 36.3916 8.65004 37.5516 8.72004C37.7716 8.73004 37.9716 8.76004 38.1616 8.79004C39.0816 8.96004 39.4716 10.05 38.8716 10.77L38.3516 11.39C38.3516 11.39 38.3616 11.4 38.3816 11.42C38.3716 11.42 38.0516 11.19 37.3916 11.14C37.0316 11.12 36.6616 11.36 36.2616 11.63C35.8316 11.91 35.2616 12.28 34.6016 12.28H34.5916Z" fill="white" stroke="black" stroke-linecap="round" stroke-linejoin="round"/>
<path d="M33.8979 2.62985C33.4379 1.93985 33.7979 0.989849 34.6079 0.789849C35.2379 0.629849 36.0579 0.519849 37.0479 0.589849C38.1979 0.669849 39.1079 1.02985 39.7779 1.40985C40.4979 1.81985 40.5879 2.81985 39.9679 3.35985C39.5779 3.69985 39.0179 3.76985 38.5679 3.50985C38.1679 3.27985 37.6079 3.05985 36.8779 3.00985C36.1779 2.95985 35.6179 3.03985 35.2179 3.13985C34.7179 3.25985 34.1879 3.06985 33.8979 2.62985Z" fill="white" stroke="black" stroke-linecap="round" stroke-linejoin="round"/>
<path d="M52.2812 22.8203C52.2812 23.5103 51.7213 24.0703 51.0312 24.0703C50.3413 24.0703 49.7812 23.5103 49.7812 22.8203C49.7812 22.1303 50.3413 21.5703 51.0312 21.5703C51.7213 21.5703 52.2812 22.1303 52.2812 22.8203Z" fill="white" stroke="black" stroke-linecap="round" stroke-linejoin="round"/>
<path d="M32.4211 50.7791L34.4111 49.3691L34.3611 59.3291L32.3711 60.7391L32.4211 50.7791Z" fill="white" stroke="black" stroke-linecap="round" stroke-linejoin="round"/>
<path d="M30.0208 39.1094L38.9308 54.5394L32.4208 50.7794L32.3708 60.7394L27.5108 57.9394L27.5608 47.9794L21.0508 44.2194L30.0208 39.1094Z" fill="#079EDE" stroke="black" stroke-linecap="round" stroke-linejoin="round"/>
<path d="M30.0195 39.1092L32.4595 37.9492L41.3695 53.3892L38.9295 54.5392L30.0195 39.1092Z" fill="white" stroke="black" stroke-linecap="round" stroke-linejoin="round"/>
</g>
<defs>
<clipPath id="clip0_93_10994">
<rect width="64" height="64" fill="white"/>
</clipPath>
</defs>
</svg>
