<svg width="64" height="64" viewBox="0 0 64 64" fill="none" xmlns="http://www.w3.org/2000/svg">
<g clip-path="url(#clip0_93_10881)">
<path d="M22.9402 25.57L21.2002 24.56L21.1602 12.5L22.9002 13.51L22.9402 25.57Z" fill="white" stroke="black" stroke-linecap="round" stroke-linejoin="round"/>
<path d="M22.9002 13.5103L21.1602 12.5003L41.8302 0.570312L43.5702 1.58031L22.9002 13.5103Z" fill="white" stroke="black" stroke-linecap="round" stroke-linejoin="round"/>
<path d="M43.5704 1.58008L43.6004 13.6401L22.9404 25.5701L22.9004 13.5101L43.5704 1.58008Z" fill="white" stroke="black" stroke-linecap="round" stroke-linejoin="round"/>
<path d="M22.9402 41.9491L21.2002 40.9391L21.1602 28.8691L22.9002 29.8791L22.9402 41.9491Z" fill="white" stroke="black" stroke-linecap="round" stroke-linejoin="round"/>
<path d="M22.9002 29.8795L21.1602 28.8695L41.8302 16.9395L43.5702 17.9495L22.9002 29.8795Z" fill="white" stroke="black" stroke-linecap="round" stroke-linejoin="round"/>
<path d="M43.5704 17.9492L43.6004 30.0192L22.9404 41.9492L22.9004 29.8792L43.5704 17.9492Z" fill="white" stroke="black" stroke-linecap="round" stroke-linejoin="round"/>
<path d="M22.9402 58.8691L21.2002 57.8591L21.1602 45.7891L22.9002 46.7991L22.9402 58.8691Z" fill="#77A200" stroke="black" stroke-linecap="round" stroke-linejoin="round"/>
<path d="M22.9002 46.7994L21.1602 45.7894L41.8302 33.8594L43.5702 34.8694L22.9002 46.7994Z" fill="#77A200" stroke="black" stroke-linecap="round" stroke-linejoin="round"/>
<path d="M43.5704 34.8691L43.6004 46.9391L22.9404 58.8691L22.9004 46.7991L43.5704 34.8691Z" fill="#77A200" stroke="black" stroke-linecap="round" stroke-linejoin="round"/>
<path d="M48.0701 39.6303L46.3301 38.6203L53.3501 34.5703L55.0901 35.5803L48.0701 39.6303Z" fill="#77A200" stroke="black" stroke-linecap="round" stroke-linejoin="round"/>
<path d="M48.0801 41.7911L46.3401 40.7811L46.3301 38.6211L48.0701 39.6311L48.0801 41.7911Z" fill="#77A200" stroke="black" stroke-linecap="round" stroke-linejoin="round"/>
<path d="M55.0895 35.581L53.3495 34.571L53.2695 4.29102L55.0095 5.30102L55.0895 35.581Z" fill="#77A200" stroke="black" stroke-linecap="round" stroke-linejoin="round"/>
<path d="M50.4002 5.79125L48.6602 4.78125L55.1502 1.03125L56.8902 2.04125L50.4002 5.79125Z" fill="#77A200" stroke="black" stroke-linecap="round" stroke-linejoin="round"/>
<path d="M47.2693 8.9407L45.5293 7.9307L48.6593 2.4707L50.3893 3.4807L47.2693 8.9407Z" fill="#77A200" stroke="black" stroke-linecap="round" stroke-linejoin="round"/>
<path d="M50.3895 3.48102L50.3995 5.79102L56.8895 2.04102L56.9795 36.651L48.0795 41.791L48.0695 39.631L55.0895 35.581L55.0095 5.30102L50.4095 7.95102V10.261L47.2695 8.94102L50.3895 3.48102Z" fill="#77A200" stroke="black" stroke-linecap="round" stroke-linejoin="round"/>
<path d="M14.8398 41.0702L13.0998 40.0602L13.0898 37.6602L14.8298 38.6702L14.8398 41.0702Z" fill="white" stroke="black" stroke-linecap="round" stroke-linejoin="round"/>
<path d="M14.8201 36.66L13.0901 35.65L13.0801 33.75L14.8201 34.76V36.66Z" fill="white" stroke="black" stroke-linecap="round" stroke-linejoin="round"/>
<path d="M14.8201 34.76L13.0801 33.75L16.0101 34.97L17.7501 35.98L14.8201 34.76Z" fill="white" stroke="black" stroke-linecap="round" stroke-linejoin="round"/>
<path d="M10.5486 39.1304L8.80859 38.1204L13.0886 35.6504L14.8186 36.6604L10.5486 39.1304Z" fill="white" stroke="black" stroke-linecap="round" stroke-linejoin="round"/>
<path d="M8.79953 42.1502L7.05953 41.1402L7.01953 24.1602L8.75953 25.1702L8.79953 42.1502Z" fill="white" stroke="black" stroke-linecap="round" stroke-linejoin="round"/>
<path d="M8.75953 25.1702L7.01953 24.1602L15.9595 18.9902L17.6995 20.0002L8.75953 25.1702Z" fill="white" stroke="black" stroke-linecap="round" stroke-linejoin="round"/>
<path d="M17.6998 20L17.7098 22.02L10.5098 26.17L10.5498 39.13L14.8198 36.66V34.76L17.7498 35.98L14.8398 41.07L14.8298 38.67L8.79977 42.15L8.75977 25.17L17.6998 20Z" fill="white" stroke="black" stroke-linecap="round" stroke-linejoin="round"/>
</g>
<defs>
<clipPath id="clip0_93_10881">
<rect width="64" height="64" fill="white"/>
</clipPath>
</defs>
</svg>
