<svg width="64" height="64" viewBox="0 0 64 64" fill="none" xmlns="http://www.w3.org/2000/svg">
<g clip-path="url(#clip0_105_22730)">
<path d="M36.0502 56.4496C36.0502 56.4496 36.0502 56.4096 36.0502 56.3996V54.3596H35.8002C35.6102 54.0696 35.3102 53.7896 34.9002 53.5596C33.3702 52.6796 30.9002 52.6696 29.3802 53.5496C28.9702 53.7896 28.6702 54.0696 28.4802 54.3596H28.2402V56.3896C28.2402 56.3896 28.2402 56.4296 28.2402 56.4396V56.4696C28.2702 57.0296 28.6502 57.5896 29.3902 58.0096C30.9202 58.8896 33.3902 58.8996 34.9102 58.0096C35.6502 57.5796 36.0302 57.0196 36.0402 56.4596L36.0502 56.4496Z" fill="#878787" stroke="black" stroke-linecap="round" stroke-linejoin="round"/>
<path d="M34.9101 55.9498C33.3901 56.8298 30.9201 56.8198 29.3901 55.9498C27.8601 55.0698 27.8501 53.6398 29.3701 52.7598C30.8901 51.8798 33.3601 51.8898 34.8901 52.7598C36.4201 53.6398 36.4301 55.0698 34.9101 55.9498Z" fill="#878787" stroke="black" stroke-linecap="round" stroke-linejoin="round"/>
<path d="M35.7391 55.1094C33.7691 56.2494 30.5491 56.2394 28.5691 55.0994C26.5791 53.9494 26.5691 52.0994 28.5491 50.9594C30.5191 49.8194 33.7391 49.8294 35.7191 50.9694C37.7091 52.1194 37.7191 53.9694 35.7391 55.1094Z" fill="#878787" stroke="black" stroke-linecap="round" stroke-linejoin="round"/>
<path d="M37.5709 53.6802C37.5709 53.6802 37.5709 53.6302 37.5709 53.6102V52.1102H37.2209C36.9509 51.7002 36.5409 51.3202 35.9709 50.9902C33.8409 49.7602 30.4109 49.7602 28.2909 50.9802C27.7209 51.3102 27.3109 51.7002 27.0409 52.1102H26.7109V53.5802C26.7109 53.5802 26.7109 53.6302 26.7109 53.6502V53.6902C26.7509 54.4702 27.2709 55.2402 28.3109 55.8402C30.4409 57.0702 33.8709 57.0702 35.9909 55.8502C37.0209 55.2502 37.5409 54.4702 37.5609 53.6902L37.5709 53.6802Z" fill="#878787" stroke="black" stroke-linecap="round" stroke-linejoin="round"/>
<path d="M37.2101 51.8709C37.2101 51.8709 37.2101 51.8209 37.2101 51.8009V50.0309H36.8801C36.6301 49.6509 36.2501 49.2909 35.7201 48.9809C33.7301 47.8309 30.5201 47.8309 28.5501 48.9709C28.0101 49.2809 27.6301 49.6409 27.3901 50.0309H27.0801V51.7809C27.0801 51.7809 27.0801 51.8309 27.0801 51.8509V51.8909C27.1101 52.6209 27.6101 53.3409 28.5701 53.8909C30.5601 55.0409 33.7701 55.0409 35.7401 53.9009C36.7101 53.3409 37.1901 52.6109 37.2101 51.8809V51.8709Z" fill="#878787" stroke="black" stroke-linecap="round" stroke-linejoin="round"/>
<path d="M35.7391 52.0996C33.7691 53.2396 30.5491 53.2296 28.5691 52.0896C26.5791 50.9396 26.5691 49.0896 28.5491 47.9496C30.5191 46.8096 33.7391 46.8196 35.7191 47.9596C37.7091 49.1096 37.7191 50.9596 35.7391 52.0996Z" fill="#878787" stroke="black" stroke-linecap="round" stroke-linejoin="round"/>
<path d="M35.8899 49.2095C33.8399 50.3995 30.4899 50.3895 28.4299 49.1995C26.3599 48.0095 26.3499 46.0795 28.4099 44.8895C30.4699 43.6995 33.8099 43.7095 35.8699 44.8995C37.9399 46.0895 37.9499 48.0195 35.8899 49.2095Z" fill="#878787" stroke="black" stroke-linecap="round" stroke-linejoin="round"/>
<path d="M38.1694 47.5805C38.1694 47.5805 38.1694 47.5305 38.1694 47.5005V45.8405H37.7794C37.4794 45.3905 37.0294 44.9605 36.3894 44.6005C34.0294 43.2405 30.2094 43.2305 27.8594 44.5805C27.2194 44.9505 26.7694 45.3805 26.4794 45.8405H26.1094V47.4805C26.1094 47.4805 26.1094 47.5305 26.1094 47.5605V47.6005C26.1494 48.4605 26.7394 49.3205 27.8794 49.9805C30.2394 51.3405 34.0594 51.3505 36.4094 50.0005C37.5594 49.3405 38.1394 48.4705 38.1594 47.6005V47.5805H38.1694Z" fill="#878787" stroke="black" stroke-linecap="round" stroke-linejoin="round"/>
<path d="M36.4207 48.29C34.0707 49.65 30.2507 49.64 27.8907 48.27C25.5307 46.91 25.5107 44.7 27.8607 43.34C30.2107 41.98 34.0307 41.99 36.3907 43.36C38.7507 44.72 38.7707 46.93 36.4207 48.29Z" fill="#878787" stroke="black" stroke-linecap="round" stroke-linejoin="round"/>
<path d="M44.5408 29.4692C44.3708 30.9292 43.9408 32.3592 43.2608 33.6692C43.0808 34.0192 42.8808 34.3692 42.6708 34.7092C42.0608 35.7192 41.3608 36.6692 40.7508 37.6792C40.1408 38.6892 39.7408 39.7092 39.3908 40.8192C38.9308 42.2792 38.8008 43.8692 38.7808 45.4692C38.7808 46.4592 38.1308 47.4292 36.8508 48.1692C34.2608 49.6592 30.0508 49.6592 27.4508 48.1492C26.2308 47.4392 25.5808 46.5392 25.4908 45.6192C25.4908 45.4992 25.4908 45.3992 25.4908 45.2992C25.4608 43.7592 25.3208 42.2292 24.8808 40.8192C24.5308 39.7092 24.1308 38.6892 23.5208 37.6792C22.9108 36.6692 22.2208 35.7192 21.6008 34.7092C21.3908 34.3692 21.1908 34.0192 21.0108 33.6692C20.3408 32.3592 19.9108 30.9292 19.7408 29.4692C19.6208 28.7592 19.5508 28.0292 19.5508 27.2892C19.5508 20.3392 25.1908 14.6992 32.1408 14.6992C39.0908 14.6992 44.7308 20.3292 44.7308 27.2892C44.7308 28.0292 44.6608 28.7592 44.5408 29.4692Z" fill="#878787" stroke="black" stroke-linecap="round" stroke-linejoin="round"/>
<path d="M39.4898 23.3303C38.9398 23.0103 38.2198 23.0603 37.5298 23.4603L35.5498 24.6003C34.3398 25.3003 33.3898 26.9403 33.3898 28.3303V30.3803L31.3198 31.5803V30.3103C31.3198 29.5103 31.0098 28.8703 30.4598 28.5603C29.9098 28.2403 29.1898 28.2903 28.4998 28.6903L26.4198 29.8903C25.2098 30.5903 24.2598 32.2303 24.2598 33.6203V33.9603C24.2598 34.7503 24.5698 35.3903 25.1198 35.7103C25.6698 36.0303 26.3898 35.9803 27.0798 35.5803L29.9798 33.9003V45.9103C29.9798 46.0103 30.0498 46.1103 30.1798 46.1903C30.4398 46.3403 30.8698 46.3403 31.1298 46.1903C31.2298 46.1303 31.2898 46.0603 31.3198 45.9903V33.1203L33.3898 31.9203V43.9603C33.3898 44.0603 33.4598 44.1603 33.5898 44.2403C33.8498 44.3903 34.2798 44.3903 34.5398 44.2403C34.6398 44.1803 34.6998 44.1103 34.7298 44.0403V31.1503L38.1998 29.1503C39.4098 28.4503 40.3598 26.8103 40.3598 25.4203V25.0803C40.3598 24.2903 40.0498 23.6503 39.4998 23.3303H39.4898ZM29.9698 32.3403L26.3998 34.4003C26.0898 34.5803 25.8698 34.5803 25.7798 34.5303C25.6598 34.4603 25.5798 34.2303 25.5798 33.9403V33.6003C25.5798 32.6903 26.2698 31.4903 27.0698 31.0303L29.1498 29.8303C29.3498 29.7103 29.5198 29.6703 29.6298 29.6703C29.6898 29.6703 29.7398 29.6803 29.7698 29.7003C29.8898 29.7703 29.9698 30.0003 29.9698 30.2903V32.3403ZM39.0098 25.4203C39.0098 26.3303 38.3198 27.5303 37.5198 27.9903L34.7198 29.6003V28.3303C34.7198 27.4203 35.4098 26.2203 36.2098 25.7603L38.1898 24.6203C38.3898 24.5003 38.5598 24.4603 38.6698 24.4603C38.7298 24.4603 38.7798 24.4703 38.8098 24.4903C38.9298 24.5603 39.0098 24.7903 39.0098 25.0803V25.4203Z" fill="white" stroke="black" stroke-linecap="round" stroke-linejoin="round"/>
</g>
<defs>
<clipPath id="clip0_105_22730">
<rect width="64" height="64" fill="white"/>
</clipPath>
</defs>
</svg>
