<svg width="64" height="64" viewBox="0 0 64 64" fill="none" xmlns="http://www.w3.org/2000/svg">
<g clip-path="url(#clip0_93_10756)">
<path d="M42.7311 3.23945V48.2995C42.7311 49.7095 41.7811 49.9695 41.7811 49.9695L21.2411 58.5395C19.5311 58.8295 19.7211 57.2095 19.7211 57.2095V12.6895C19.7211 11.0895 20.7711 10.8595 20.7711 10.8595L41.2011 2.39945C41.2011 2.39945 42.7211 1.55945 42.7211 3.23945H42.7311Z" fill="white" stroke="black" stroke-linecap="round" stroke-linejoin="round"/>
<path d="M17.7494 56.7102L20.3694 58.4802C19.7694 58.2902 19.7294 57.4902 19.7294 57.4902L19.7094 12.7602L17.4994 11.2402V56.1202C17.4994 56.1202 17.4494 56.5202 17.7394 56.7102H17.7494Z" fill="#079EDE" stroke="black" stroke-linecap="round" stroke-linejoin="round"/>
<path d="M20.4617 11.0093C20.4617 11.0093 19.7117 11.3993 19.7217 12.7593L17.5117 11.2593C17.5117 10.2693 18.0017 9.7493 18.3017 9.5293L20.4617 11.0193V11.0093Z" fill="white" stroke="black" stroke-linecap="round" stroke-linejoin="round"/>
<path d="M18.2817 9.53942C18.4017 9.43942 18.5217 9.38942 18.5217 9.38942L38.9817 0.859418C38.9817 0.859418 40.0717 0.229418 40.8217 0.829418L42.2217 1.77942C42.2217 1.77942 42.7217 2.04942 42.6817 2.82942C42.6817 2.82942 42.5417 1.95942 41.1917 2.40942L20.4517 11.0194L18.2617 9.54942L18.2817 9.53942Z" fill="#079EDE" stroke="black" stroke-linecap="round" stroke-linejoin="round"/>
<path d="M27.7383 10.4198V11.3398L32.8683 9.13977V8.25977L27.7383 10.4198Z" fill="white" stroke="black" stroke-linecap="round" stroke-linejoin="round"/>
<path d="M34.8389 7.71917C35.0189 7.89917 34.9589 8.24917 34.7689 8.40917C34.7089 8.45917 34.6189 8.50917 34.5389 8.51917C34.3189 8.53917 34.1289 8.34917 34.1289 8.11917C34.1289 7.96917 34.1789 7.82917 34.2889 7.73917C34.3989 7.63917 34.5689 7.57917 34.7189 7.63917C34.7689 7.65917 34.8089 7.68917 34.8389 7.71917Z" fill="white" stroke="black" stroke-linecap="round" stroke-linejoin="round"/>
<path d="M9.96875 22.9102L9.46875 26.2102L15.1287 29.3102L15.6187 26.0002L9.96875 22.9102Z" fill="#079EDE" stroke="black" stroke-linecap="round" stroke-linejoin="round"/>
<path d="M13.5008 13.8398C13.4308 13.9298 13.3708 14.0098 13.3008 14.0998C13.3608 14.0098 13.4308 13.9298 13.5008 13.8398Z" fill="white" stroke="black" stroke-linecap="round" stroke-linejoin="round"/>
<path d="M13.3022 14.0996C13.3022 14.0996 13.2622 14.1596 13.2422 14.1796C13.2622 14.1496 13.2822 14.1196 13.3022 14.0996Z" fill="white" stroke="black" stroke-linecap="round" stroke-linejoin="round"/>
<path d="M13.06 14.4512C13.06 14.4512 13.02 14.5112 13 14.5412C13.02 14.5112 13.04 14.4812 13.06 14.4512Z" fill="white" stroke="black" stroke-linecap="round" stroke-linejoin="round"/>
<path d="M13.2386 14.1797C13.1786 14.2697 13.1186 14.3597 13.0586 14.4497" stroke="black" stroke-linecap="round" stroke-linejoin="round"/>
<path d="M12.8391 14.8203C12.8391 14.8203 12.7991 14.8903 12.7891 14.9203C12.8091 14.8903 12.8291 14.8503 12.8391 14.8203Z" fill="white" stroke="black" stroke-linecap="round" stroke-linejoin="round"/>
<path d="M12.7789 14.9199C12.7289 15.0099 12.6789 15.1099 12.6289 15.1999" stroke="black" stroke-linecap="round" stroke-linejoin="round"/>
<path d="M13.002 14.541C12.942 14.631 12.892 14.721 12.832 14.821C12.882 14.731 12.942 14.631 13.002 14.541Z" fill="white" stroke="black" stroke-linecap="round" stroke-linejoin="round"/>
<path d="M14.0598 13.2109C13.9798 13.2909 13.9098 13.3609 13.8398 13.4409C13.9098 13.3609 13.9898 13.2809 14.0598 13.2109Z" fill="white" stroke="black" stroke-linecap="round" stroke-linejoin="round"/>
<path d="M14.4294 12.8594C14.4294 12.8594 14.3794 12.8994 14.3594 12.9294C14.3794 12.9094 14.4094 12.8894 14.4294 12.8594Z" fill="white" stroke="black" stroke-linecap="round" stroke-linejoin="round"/>
<path d="M13.56 13.7598C13.56 13.7598 13.52 13.8098 13.5 13.8398C13.52 13.8098 13.54 13.7898 13.56 13.7598Z" fill="white" stroke="black" stroke-linecap="round" stroke-linejoin="round"/>
<path d="M14.6619 12.6699C14.5819 12.7299 14.5019 12.7999 14.4219 12.8599C14.5019 12.7899 14.5819 12.7299 14.6619 12.6699Z" fill="white" stroke="black" stroke-linecap="round" stroke-linejoin="round"/>
<path d="M13.7686 13.5098C13.6986 13.5898 13.6286 13.6698 13.5586 13.7598C13.6286 13.6798 13.6986 13.5898 13.7686 13.5098Z" fill="white" stroke="black" stroke-linecap="round" stroke-linejoin="round"/>
<path d="M13.8295 13.4395C13.8295 13.4395 13.7895 13.4895 13.7695 13.5095C13.7895 13.4895 13.8095 13.4595 13.8295 13.4395Z" fill="white" stroke="black" stroke-linecap="round" stroke-linejoin="round"/>
<path d="M14.7402 12.6094C14.7402 12.6094 14.6902 12.6494 14.6602 12.6694C14.6902 12.6494 14.7102 12.6294 14.7402 12.6094Z" fill="white" stroke="black" stroke-linecap="round" stroke-linejoin="round"/>
<path d="M12.0392 16.8008C12.0092 16.9408 11.9792 17.0808 11.9492 17.2108C11.9692 17.0708 11.9992 16.9308 12.0392 16.8008Z" fill="white" stroke="black" stroke-linecap="round" stroke-linejoin="round"/>
<path d="M12.0991 16.5898C12.0791 16.6598 12.0591 16.7298 12.0391 16.7998" stroke="black" stroke-linecap="round" stroke-linejoin="round"/>
<path d="M14.0586 13.2106C14.0586 13.2106 14.0986 13.1606 14.1286 13.1406C14.1086 13.1606 14.0786 13.1906 14.0586 13.2106Z" fill="white" stroke="black" stroke-linecap="round" stroke-linejoin="round"/>
<path d="M12.632 15.2012C12.632 15.2012 12.602 15.2712 12.582 15.3112C12.602 15.2712 12.612 15.2412 12.632 15.2012Z" fill="white" stroke="black" stroke-linecap="round" stroke-linejoin="round"/>
<path d="M12.1516 16.3906C12.1316 16.4506 12.1116 16.5206 12.1016 16.5806C12.1216 16.5206 12.1316 16.4506 12.1516 16.3906Z" fill="white" stroke="black" stroke-linecap="round" stroke-linejoin="round"/>
<path d="M14.1211 13.1397C14.2011 13.0697 14.2711 12.9997 14.3511 12.9297" stroke="black" stroke-linecap="round" stroke-linejoin="round"/>
<path d="M15.4102 12.1805C15.4902 12.1405 15.5702 12.1005 15.6602 12.0605C15.5802 12.1005 15.4902 12.1405 15.4102 12.1805Z" fill="white" stroke="black" stroke-linecap="round" stroke-linejoin="round"/>
<path d="M12.4523 15.5898C12.4523 15.5898 12.4223 15.6798 12.4023 15.7198C12.4223 15.6798 12.4323 15.6298 12.4523 15.5898Z" fill="white" stroke="black" stroke-linecap="round" stroke-linejoin="round"/>
<path d="M12.5792 15.3105C12.5392 15.4005 12.4892 15.4905 12.4492 15.5905C12.4892 15.5005 12.5392 15.4005 12.5792 15.3105Z" fill="white" stroke="black" stroke-linecap="round" stroke-linejoin="round"/>
<path d="M12.3991 15.7207C12.3591 15.8107 12.3291 15.9007 12.2891 15.9907C12.3191 15.9007 12.3591 15.8107 12.3991 15.7207Z" fill="white" stroke="black" stroke-linecap="round" stroke-linejoin="round"/>
<path d="M12.2423 16.1406C12.2123 16.2206 12.1823 16.3106 12.1523 16.3906C12.1823 16.3006 12.2123 16.2206 12.2423 16.1406Z" fill="white" stroke="black" stroke-linecap="round" stroke-linejoin="round"/>
<path d="M12.2922 15.9902C12.2722 16.0402 12.2622 16.0902 12.2422 16.1402" stroke="black" stroke-linecap="round" stroke-linejoin="round"/>
<path d="M28.8116 14.2198L28.7916 11.1298C28.7716 8.56984 26.9716 7.24984 24.7716 8.18984L15.8316 11.9898C15.8316 11.9898 15.7716 12.0198 15.7316 12.0398C15.7016 12.0498 15.6816 12.0698 15.6616 12.0798C15.5716 12.1198 15.4816 12.1698 15.3916 12.2198C15.3916 12.2198 15.4016 12.2198 15.4116 12.2198C15.4016 12.2198 15.3916 12.2298 15.3716 12.2398C15.3516 12.2498 15.3316 12.2698 15.3016 12.2798C15.2216 12.3298 15.1416 12.3698 15.0616 12.4198C15.1316 12.3698 15.2116 12.3298 15.2816 12.2898C15.1916 12.3398 15.1016 12.3898 15.0216 12.4498C15.0316 12.4498 15.0516 12.4298 15.0616 12.4198C15.0416 12.4298 15.0216 12.4398 15.0116 12.4598C15.0016 12.4598 14.9916 12.4798 14.9716 12.4898C14.8916 12.5398 14.8116 12.5998 14.7316 12.6598C14.8116 12.5998 14.8816 12.5498 14.9616 12.4998C13.3416 13.6098 12.0916 15.7598 11.8516 18.2998C11.8516 18.3198 11.8516 18.3398 11.8516 18.3598L11.8816 22.9998C11.9016 25.4498 13.5416 26.7598 15.6116 26.0598L15.1116 29.3698L19.1616 24.5698L24.8416 22.1598C27.0416 21.2198 28.8216 18.3898 28.8016 15.8298V14.2798L28.8116 14.2198Z" fill="white"/>
<path d="M15.0616 12.4198C15.1416 12.3698 15.2216 12.3298 15.3016 12.2798C15.3316 12.2698 15.3516 12.2498 15.3716 12.2398C15.3916 12.2298 15.4016 12.2198 15.4116 12.2198C15.4016 12.2198 15.3916 12.2198 15.3916 12.2198C15.4816 12.1698 15.5716 12.1198 15.6616 12.0798C15.6816 12.0698 15.7016 12.0498 15.7316 12.0398C15.7716 12.0198 15.8316 11.9898 15.8316 11.9898L24.7716 8.18984C26.9716 7.24984 28.7716 8.56984 28.7916 11.1298L28.8116 14.2198L28.8016 14.2798V15.8298C28.8216 18.3898 27.0416 21.2198 24.8416 22.1598L19.1616 24.5698L15.1116 29.3698L15.6116 26.0598C13.5416 26.7598 11.9016 25.4498 11.8816 22.9998L11.8516 18.3598C11.8516 18.3398 11.8516 18.3198 11.8516 18.2998C12.0916 15.7598 13.3416 13.6098 14.9616 12.4998C14.8816 12.5498 14.8116 12.5998 14.7316 12.6598C14.8116 12.5998 14.8916 12.5398 14.9716 12.4898C14.9916 12.4798 15.0016 12.4598 15.0116 12.4598C15.0216 12.4398 15.0416 12.4298 15.0616 12.4198ZM15.0616 12.4198C15.1316 12.3698 15.2116 12.3298 15.2816 12.2898C15.1916 12.3398 15.1016 12.3898 15.0216 12.4498C15.0316 12.4498 15.0516 12.4298 15.0616 12.4198Z" stroke="black" stroke-linecap="round" stroke-linejoin="round"/>
<path d="M13.5008 13.8398C13.4308 13.9298 13.3708 14.0098 13.3008 14.0998C13.3608 14.0098 13.4308 13.9298 13.5008 13.8398Z" fill="white" stroke="black" stroke-linecap="round" stroke-linejoin="round"/>
<path d="M13.3022 14.0996C13.3022 14.0996 13.2622 14.1596 13.2422 14.1796C13.2622 14.1496 13.2822 14.1196 13.3022 14.0996Z" fill="white" stroke="black" stroke-linecap="round" stroke-linejoin="round"/>
<path d="M13.06 14.4512C13.06 14.4512 13.02 14.5112 13 14.5412C13.02 14.5112 13.04 14.4812 13.06 14.4512Z" fill="white" stroke="black" stroke-linecap="round" stroke-linejoin="round"/>
<path d="M13.2386 14.1797C13.1786 14.2697 13.1186 14.3597 13.0586 14.4497" stroke="black" stroke-linecap="round" stroke-linejoin="round"/>
<path d="M12.8391 14.8203C12.8391 14.8203 12.7991 14.8903 12.7891 14.9203C12.8091 14.8903 12.8291 14.8503 12.8391 14.8203Z" fill="white" stroke="black" stroke-linecap="round" stroke-linejoin="round"/>
<path d="M12.7789 14.9199C12.7289 15.0099 12.6789 15.1099 12.6289 15.1999" stroke="black" stroke-linecap="round" stroke-linejoin="round"/>
<path d="M13.002 14.541C12.942 14.631 12.892 14.721 12.832 14.821C12.882 14.731 12.942 14.631 13.002 14.541Z" fill="white" stroke="black" stroke-linecap="round" stroke-linejoin="round"/>
<path d="M14.0598 13.2109C13.9798 13.2909 13.9098 13.3609 13.8398 13.4409C13.9098 13.3609 13.9898 13.2809 14.0598 13.2109Z" fill="white" stroke="black" stroke-linecap="round" stroke-linejoin="round"/>
<path d="M14.4294 12.8594C14.4294 12.8594 14.3794 12.8994 14.3594 12.9294C14.3794 12.9094 14.4094 12.8894 14.4294 12.8594Z" fill="white" stroke="black" stroke-linecap="round" stroke-linejoin="round"/>
<path d="M13.56 13.7598C13.56 13.7598 13.52 13.8098 13.5 13.8398C13.52 13.8098 13.54 13.7898 13.56 13.7598Z" fill="white" stroke="black" stroke-linecap="round" stroke-linejoin="round"/>
<path d="M14.6619 12.6699C14.5819 12.7299 14.5019 12.7999 14.4219 12.8599C14.5019 12.7899 14.5819 12.7299 14.6619 12.6699Z" fill="white" stroke="black" stroke-linecap="round" stroke-linejoin="round"/>
<path d="M13.7686 13.5098C13.6986 13.5898 13.6286 13.6698 13.5586 13.7598C13.6286 13.6798 13.6986 13.5898 13.7686 13.5098Z" fill="white" stroke="black" stroke-linecap="round" stroke-linejoin="round"/>
<path d="M13.8295 13.4395C13.8295 13.4395 13.7895 13.4895 13.7695 13.5095C13.7895 13.4895 13.8095 13.4595 13.8295 13.4395Z" fill="white" stroke="black" stroke-linecap="round" stroke-linejoin="round"/>
<path d="M14.7402 12.6094C14.7402 12.6094 14.6902 12.6494 14.6602 12.6694C14.6902 12.6494 14.7102 12.6294 14.7402 12.6094Z" fill="white" stroke="black" stroke-linecap="round" stroke-linejoin="round"/>
<path d="M12.0392 16.8008C12.0092 16.9408 11.9792 17.0808 11.9492 17.2108C11.9692 17.0708 11.9992 16.9308 12.0392 16.8008Z" fill="white" stroke="black" stroke-linecap="round" stroke-linejoin="round"/>
<path d="M12.0991 16.5898C12.0791 16.6598 12.0591 16.7298 12.0391 16.7998" stroke="black" stroke-linecap="round" stroke-linejoin="round"/>
<path d="M14.0586 13.2106C14.0586 13.2106 14.0986 13.1606 14.1286 13.1406C14.1086 13.1606 14.0786 13.1906 14.0586 13.2106Z" fill="white" stroke="black" stroke-linecap="round" stroke-linejoin="round"/>
<path d="M12.632 15.2012C12.632 15.2012 12.602 15.2712 12.582 15.3112C12.602 15.2712 12.612 15.2412 12.632 15.2012Z" fill="white" stroke="black" stroke-linecap="round" stroke-linejoin="round"/>
<path d="M12.1516 16.3906C12.1316 16.4506 12.1116 16.5206 12.1016 16.5806C12.1216 16.5206 12.1316 16.4506 12.1516 16.3906Z" fill="white" stroke="black" stroke-linecap="round" stroke-linejoin="round"/>
<path d="M14.1211 13.1397C14.2011 13.0697 14.2711 12.9997 14.3511 12.9297" stroke="black" stroke-linecap="round" stroke-linejoin="round"/>
<path d="M15.4102 12.1805C15.4902 12.1405 15.5702 12.1005 15.6602 12.0605C15.5802 12.1005 15.4902 12.1405 15.4102 12.1805Z" fill="white" stroke="black" stroke-linecap="round" stroke-linejoin="round"/>
<path d="M12.4523 15.5898C12.4523 15.5898 12.4223 15.6798 12.4023 15.7198C12.4223 15.6798 12.4323 15.6298 12.4523 15.5898Z" fill="white" stroke="black" stroke-linecap="round" stroke-linejoin="round"/>
<path d="M12.5792 15.3105C12.5392 15.4005 12.4892 15.4905 12.4492 15.5905C12.4892 15.5005 12.5392 15.4005 12.5792 15.3105Z" fill="white" stroke="black" stroke-linecap="round" stroke-linejoin="round"/>
<path d="M12.3991 15.7207C12.3591 15.8107 12.3291 15.9007 12.2891 15.9907C12.3191 15.9007 12.3591 15.8107 12.3991 15.7207Z" fill="white" stroke="black" stroke-linecap="round" stroke-linejoin="round"/>
<path d="M12.2423 16.1406C12.2123 16.2206 12.1823 16.3106 12.1523 16.3906C12.1823 16.3006 12.2123 16.2206 12.2423 16.1406Z" fill="white" stroke="black" stroke-linecap="round" stroke-linejoin="round"/>
<path d="M12.2922 15.9902C12.2722 16.0402 12.2622 16.0902 12.2422 16.1402" stroke="black" stroke-linecap="round" stroke-linejoin="round"/>
<path d="M28.8116 14.2198L28.7916 11.1298C28.7716 8.56984 26.9716 7.24984 24.7716 8.18984L15.8316 11.9898C15.8316 11.9898 15.7716 12.0198 15.7316 12.0398C15.7016 12.0498 15.6816 12.0698 15.6616 12.0798C15.5716 12.1198 15.4816 12.1698 15.3916 12.2198C15.3916 12.2198 15.4016 12.2198 15.4116 12.2198C15.4016 12.2198 15.3916 12.2298 15.3716 12.2398C15.3516 12.2498 15.3316 12.2698 15.3016 12.2798C15.2216 12.3298 15.1416 12.3698 15.0616 12.4198C15.1316 12.3698 15.2116 12.3298 15.2816 12.2898C15.1916 12.3398 15.1016 12.3898 15.0216 12.4498C15.0316 12.4498 15.0516 12.4298 15.0616 12.4198C15.0416 12.4298 15.0216 12.4398 15.0116 12.4598C15.0016 12.4598 14.9916 12.4798 14.9716 12.4898C14.8916 12.5398 14.8116 12.5998 14.7316 12.6598C14.8116 12.5998 14.8816 12.5498 14.9616 12.4998C13.3416 13.6098 12.0916 15.7598 11.8516 18.2998C11.8516 18.3198 11.8516 18.3398 11.8516 18.3598L11.8816 22.9998C11.9016 25.4498 13.5416 26.7598 15.6116 26.0598L15.1116 29.3698L19.1616 24.5698L24.8416 22.1598C27.0416 21.2198 28.8216 18.3898 28.8016 15.8298V14.2798L28.8116 14.2198Z" fill="white"/>
<path d="M15.0616 12.4198C15.1416 12.3698 15.2216 12.3298 15.3016 12.2798C15.3316 12.2698 15.3516 12.2498 15.3716 12.2398C15.3916 12.2298 15.4016 12.2198 15.4116 12.2198C15.4016 12.2198 15.3916 12.2198 15.3916 12.2198C15.4816 12.1698 15.5716 12.1198 15.6616 12.0798C15.6816 12.0698 15.7016 12.0498 15.7316 12.0398C15.7716 12.0198 15.8316 11.9898 15.8316 11.9898L24.7716 8.18984C26.9716 7.24984 28.7716 8.56984 28.7916 11.1298L28.8116 14.2198L28.8016 14.2798V15.8298C28.8216 18.3898 27.0416 21.2198 24.8416 22.1598L19.1616 24.5698L15.1116 29.3698L15.6116 26.0598C13.5416 26.7598 11.9016 25.4498 11.8816 22.9998L11.8516 18.3598C11.8516 18.3398 11.8516 18.3198 11.8516 18.2998C12.0916 15.7598 13.3416 13.6098 14.9616 12.4998C14.8816 12.5498 14.8116 12.5998 14.7316 12.6598C14.8116 12.5998 14.8916 12.5398 14.9716 12.4898C14.9916 12.4798 15.0016 12.4598 15.0116 12.4598C15.0216 12.4398 15.0416 12.4298 15.0616 12.4198ZM15.0616 12.4198C15.1316 12.3698 15.2116 12.3298 15.2816 12.2898C15.1916 12.3398 15.1016 12.3898 15.0216 12.4498C15.0316 12.4498 15.0516 12.4298 15.0616 12.4198Z" stroke="black" stroke-linecap="round" stroke-linejoin="round"/>
<path d="M21.6805 5.08031C21.6805 5.08031 21.6405 5.06031 21.6205 5.05031C21.6205 5.05031 21.6105 5.05031 21.6005 5.05031C21.5305 5.01031 21.4505 4.98031 21.3705 4.95031C21.3705 4.95031 21.3705 4.95031 21.3605 4.95031C21.3605 4.95031 21.3505 4.95031 21.3405 4.95031C21.2605 4.92031 21.1805 4.90031 21.0905 4.87031C21.0905 4.87031 21.0905 4.87031 21.0805 4.87031C21.0805 4.87031 21.0705 4.87031 21.0605 4.87031C20.9705 4.85031 20.8805 4.83031 20.7805 4.82031C20.7805 4.82031 20.7805 4.82031 20.7705 4.82031C20.7505 4.82031 20.7405 4.82031 20.7205 4.82031C20.6905 4.82031 20.6505 4.82031 20.6205 4.82031C20.6005 4.82031 20.5705 4.82031 20.5505 4.82031C20.5205 4.82031 20.4905 4.82031 20.4505 4.82031C20.4405 4.82031 20.4305 4.82031 20.4205 4.82031C20.4105 4.82031 20.3905 4.82031 20.3805 4.82031C20.3405 4.82031 20.2905 4.82031 20.2505 4.82031C20.2305 4.82031 20.2105 4.82031 20.1905 4.82031C20.1405 4.82031 20.0905 4.83031 20.0405 4.84031C20.0305 4.84031 20.0205 4.84031 20.0005 4.84031C19.9205 4.85031 19.8305 4.87031 19.7405 4.89031C19.7205 4.89031 19.7105 4.89031 19.6905 4.90031C19.6005 4.92031 19.5205 4.95031 19.4305 4.97031C19.4305 4.97031 19.4305 4.97031 19.4205 4.97031C19.4205 4.97031 19.4005 4.97031 19.3905 4.98031C19.2905 5.01031 19.2005 5.05031 19.1005 5.09031L10.1605 8.89031C10.1605 8.89031 10.1005 8.92031 10.0705 8.93031C10.0705 8.93031 10.0205 8.95031 9.99047 8.97031C9.92047 9.00031 9.85047 9.04031 9.77047 9.08031C9.75047 9.08031 9.74047 9.10031 9.72047 9.11031C9.69047 9.12031 9.67047 9.14031 9.65047 9.15031C9.56047 9.20031 9.48047 9.25031 9.39047 9.31031C9.32047 9.35031 9.26047 9.40031 9.19047 9.45031C9.19047 9.45031 9.18047 9.45031 9.17047 9.46031C9.08047 9.53031 8.99047 9.60031 8.90047 9.67031C8.89047 9.67031 8.88047 9.69031 8.87047 9.70031C8.85047 9.71031 8.84047 9.73031 8.83047 9.74031C8.77047 9.79031 8.70047 9.85031 8.64047 9.91031C8.62047 9.93031 8.60047 9.95031 8.57047 9.97031C8.49047 10.0503 8.41047 10.1303 8.33047 10.2103C8.33047 10.2103 8.32047 10.2203 8.31047 10.2303C8.19047 10.3603 8.07047 10.4903 7.96047 10.6203C7.96047 10.6203 7.95047 10.6303 7.94047 10.6403C7.89047 10.7003 7.84047 10.7603 7.79047 10.8203C7.76047 10.8603 7.73047 10.9003 7.70047 10.9403C7.68047 10.9603 7.66047 10.9803 7.65047 11.0103C7.64047 11.0303 7.62047 11.0503 7.61047 11.0703C7.59047 11.0903 7.57047 11.1203 7.56047 11.1403C7.56047 11.1403 7.56047 11.1503 7.55047 11.1603C7.51047 11.2103 7.48047 11.2703 7.44047 11.3203C7.43047 11.3403 7.41047 11.3603 7.40047 11.3903C7.40047 11.3903 7.39047 11.4103 7.38047 11.4203C7.31047 11.5303 7.24047 11.6403 7.18047 11.7603C7.18047 11.7703 7.17047 11.7903 7.16047 11.8003C7.10047 11.9003 7.05047 12.0003 7.00047 12.1003C7.00047 12.1103 6.99047 12.1203 6.98047 12.1303C6.97047 12.1603 6.95047 12.1903 6.94047 12.2103C6.90047 12.2903 6.86047 12.3703 6.83047 12.4503C6.83047 12.4703 6.81047 12.4903 6.80047 12.5103C6.80047 12.5303 6.78047 12.5503 6.77047 12.5803C6.73047 12.6703 6.70047 12.7503 6.67047 12.8403C6.66047 12.8703 6.65047 12.8903 6.64047 12.9203C6.64047 12.9303 6.64047 12.9403 6.63047 12.9603C6.58047 13.0903 6.54047 13.2203 6.50047 13.3503C6.50047 13.3603 6.50047 13.3703 6.50047 13.3803C6.47047 13.4703 6.45047 13.5703 6.42047 13.6603C6.42047 13.6803 6.42047 13.7003 6.41047 13.7203C6.41047 13.7403 6.41047 13.7703 6.40047 13.7903C6.40047 13.8103 6.40047 13.8203 6.39047 13.8403C6.37047 13.9303 6.35047 14.0303 6.33047 14.1203C6.33047 14.1503 6.32047 14.1903 6.31047 14.2203C6.31047 14.2503 6.30047 14.2903 6.29047 14.3203C6.29047 14.3503 6.29047 14.3903 6.28047 14.4203C6.28047 14.4603 6.28047 14.4903 6.27047 14.5303L6.31047 14.5503C6.31047 14.5503 6.30047 14.6403 6.29047 14.6903C6.29047 14.7503 6.27047 14.8103 6.26047 14.8703C6.25047 14.9603 6.24047 15.0403 6.23047 15.1303V15.1903L6.26047 19.8303C6.26047 21.2603 6.83047 22.3003 7.71047 22.7803C9.60047 23.8103 11.4805 24.8403 13.3705 25.8803C12.4905 25.4003 11.9305 24.3603 11.9205 22.9303L11.8905 18.2903C11.8905 18.2903 11.8905 18.2503 11.8905 18.2303C11.9005 18.0803 11.9205 17.9403 11.9505 17.7903C11.9505 17.7303 11.9705 17.6803 11.9805 17.6203C12.0005 17.5003 12.0205 17.3703 12.0505 17.2503C12.0505 17.2103 12.0605 17.1703 12.0705 17.1303C12.1005 16.9803 12.1405 16.8303 12.1805 16.6803C12.1805 16.6503 12.2005 16.6203 12.2105 16.5803C12.2405 16.4903 12.2705 16.4003 12.2905 16.3003C12.3205 16.2103 12.3505 16.1203 12.3805 16.0303C12.4105 15.9503 12.4405 15.8703 12.4705 15.7803C12.5005 15.7103 12.5305 15.6303 12.5605 15.5603C12.6005 15.4703 12.6305 15.3903 12.6705 15.3103C12.7005 15.2503 12.7305 15.1903 12.7505 15.1303C12.7905 15.0403 12.8405 14.9503 12.8905 14.8703C12.9205 14.8203 12.9405 14.7703 12.9705 14.7203C13.0305 14.6203 13.0805 14.5203 13.1405 14.4303C13.1605 14.4003 13.1805 14.3603 13.2005 14.3303C13.2805 14.2003 13.3705 14.0703 13.4605 13.9503C13.5005 13.8903 13.5505 13.8303 13.6005 13.7703C13.6505 13.7103 13.7005 13.6403 13.7505 13.5803C13.8605 13.4503 13.9605 13.3303 14.0805 13.2203C14.1705 13.1203 14.2705 13.0303 14.3605 12.9403C14.3805 12.9203 14.4005 12.9103 14.4205 12.8903C14.5005 12.8203 14.5805 12.7503 14.6605 12.6803C14.7005 12.6503 14.7305 12.6203 14.7705 12.6003C14.8405 12.5503 14.9105 12.4903 14.9805 12.4503C15.0205 12.4203 15.0605 12.4003 15.1005 12.3703C15.1705 12.3203 15.2505 12.2803 15.3305 12.2303C15.3605 12.2103 15.3905 12.1903 15.4205 12.1803C15.4205 12.1803 15.4305 12.1803 15.4405 12.1803C15.5305 12.1303 15.6305 12.0803 15.7205 12.0403C15.7705 12.0203 15.8205 11.9903 15.8705 11.9703L24.8105 8.17031C24.9105 8.13031 25.0105 8.09031 25.1005 8.06031C25.1105 8.06031 25.1305 8.06031 25.1405 8.05031C25.2305 8.02031 25.3105 8.00031 25.4005 7.97031C25.4205 7.97031 25.4405 7.97031 25.4505 7.96031C25.5405 7.94031 25.6205 7.92031 25.7105 7.91031C25.7305 7.91031 25.7405 7.91031 25.7605 7.91031C25.8105 7.91031 25.8605 7.90031 25.9105 7.89031C25.9305 7.89031 25.9505 7.89031 25.9705 7.89031C26.0105 7.89031 26.0605 7.89031 26.1005 7.89031C26.1205 7.89031 26.1405 7.89031 26.1705 7.89031C26.2005 7.89031 26.2305 7.89031 26.2705 7.89031C26.2905 7.89031 26.3205 7.89031 26.3405 7.89031C26.3705 7.89031 26.4005 7.89031 26.4405 7.89031C26.4605 7.89031 26.4805 7.89031 26.5005 7.89031C26.5905 7.90031 26.6905 7.92031 26.7805 7.94031C26.7805 7.94031 26.8005 7.94031 26.8105 7.94031C26.9005 7.96031 26.9805 7.99031 27.0605 8.02031C27.0705 8.02031 27.0805 8.02031 27.0905 8.03031C27.1705 8.06031 27.2405 8.09031 27.3205 8.13031C27.3405 8.14031 27.3705 8.15031 27.3905 8.17031C25.5105 7.14031 23.6205 6.11031 21.7305 5.07031L21.6805 5.08031Z" fill="#079EDE" stroke="black" stroke-linecap="round" stroke-linejoin="round"/>
<path d="M24.9316 16.8408C25.1716 16.7408 25.3616 16.8808 25.3716 17.1608C25.3716 17.4408 25.1816 17.7408 24.9416 17.8508L16.5416 21.4108C16.3016 21.5108 16.1116 21.3708 16.1016 21.0908C16.1016 20.8108 16.2916 20.5108 16.5316 20.4008L24.9316 16.8408Z" fill="white" stroke="black" stroke-linecap="round" stroke-linejoin="round"/>
<path d="M24.9316 14.5498C25.1716 14.4498 25.3616 14.5898 25.3716 14.8698C25.3716 15.1498 25.1816 15.4498 24.9416 15.5598L16.5416 19.1198C16.3016 19.2198 16.1116 19.0798 16.1016 18.7998C16.1016 18.5198 16.2916 18.2098 16.5316 18.1098L24.9316 14.5498Z" fill="white" stroke="black" stroke-linecap="round" stroke-linejoin="round"/>
<path d="M24.9294 12.2705C25.1694 12.1705 25.3594 12.3105 25.3694 12.5905C25.3694 12.8705 25.1794 13.1705 24.9394 13.2805L16.8494 16.7105L16.5394 16.8405C16.4094 16.9005 16.2894 16.8805 16.2094 16.8005C16.1494 16.7405 16.1094 16.6405 16.1094 16.5205C16.1094 16.2405 16.2994 15.9305 16.5394 15.8305L24.9394 12.2705H24.9294Z" fill="white" stroke="black" stroke-linecap="round" stroke-linejoin="round"/>
<path d="M42.3292 39.6L38.4892 37.22L38.1992 34L42.0392 36.37L42.3292 39.6Z" fill="#079EDE" stroke="black" stroke-linecap="round" stroke-linejoin="round"/>
<path d="M57.5392 23.2705V23.2505C57.5092 23.1705 57.4792 23.0805 57.4492 23.0005C57.3992 22.8805 57.3492 22.7505 57.2892 22.6405C57.2892 22.6405 57.2892 22.6405 57.2892 22.6305C57.2292 22.5005 57.1592 22.3705 57.0892 22.2505C57.0292 22.1405 56.9592 22.0405 56.8892 21.9405C56.8692 21.9105 56.8492 21.8805 56.8292 21.8505C56.7992 21.8105 56.7792 21.7705 56.7492 21.7405C56.7292 21.7105 56.7092 21.6905 56.6892 21.6705C56.6392 21.6105 56.5892 21.5605 56.5392 21.5005C56.5192 21.4705 56.4892 21.4405 56.4692 21.4205C56.4692 21.4205 56.4692 21.4205 56.4592 21.4205C56.2992 21.2505 56.1292 21.0905 55.9392 20.9405C55.9392 20.9405 55.9492 20.9405 55.9592 20.9505C55.8892 20.8905 55.8092 20.8405 55.7392 20.7805C55.7192 20.7705 55.7092 20.7605 55.6992 20.7505C55.5992 20.6805 55.4892 20.6105 55.3892 20.5405C55.3792 20.5405 55.3692 20.5305 55.3592 20.5205L55.3092 20.4905C55.3092 20.4905 55.3392 20.5105 55.3592 20.5205L54.2492 19.8405L51.5192 18.1505C51.3792 18.0605 51.2392 17.9805 51.0892 17.9105C51.0692 17.9005 51.0492 17.8905 51.0292 17.8805C51.0192 17.8805 50.9992 17.8605 50.9892 17.8605C50.8592 17.8005 50.7392 17.7405 50.5992 17.6905C50.5792 17.6905 50.5592 17.6705 50.5492 17.6705C50.5292 17.6705 50.5092 17.6605 50.4992 17.6505C50.3692 17.6005 50.2392 17.5505 50.1092 17.5105C50.0592 17.4905 49.9992 17.4805 49.9492 17.4605C49.8492 17.4305 49.7492 17.4005 49.6392 17.3705C49.5792 17.3505 49.5092 17.3405 49.4492 17.3205C49.3492 17.3005 49.2492 17.2705 49.1492 17.2505C49.0792 17.2405 49.0092 17.2205 48.9492 17.2105C48.8992 17.2105 48.8492 17.1905 48.7992 17.1805C48.7292 17.1705 48.6592 17.1605 48.5892 17.1505C48.5592 17.1505 48.5292 17.1505 48.4992 17.1405C48.3392 17.1205 48.1792 17.1005 48.0192 17.0905C47.9792 17.0905 47.9492 17.0905 47.9092 17.0905C47.7592 17.0805 47.5992 17.0705 47.4392 17.0605C47.4192 17.0605 47.4092 17.0605 47.3892 17.0605C47.2192 17.0605 47.0492 17.0605 46.8692 17.0605C46.8292 17.0605 46.7892 17.0605 46.7492 17.0605C46.5792 17.0605 46.3992 17.0705 46.2192 17.0905C46.2092 17.0905 46.1892 17.0905 46.1792 17.0905C46.0092 17.1005 45.8392 17.1205 45.6692 17.1405C45.6292 17.1405 45.5892 17.1405 45.5492 17.1505C45.3692 17.1705 45.1892 17.2005 44.9992 17.2305C44.9692 17.2305 44.9392 17.2405 44.8992 17.2505C44.7292 17.2805 44.5692 17.3105 44.3992 17.3505C44.3692 17.3505 44.3292 17.3605 44.2992 17.3705C44.1092 17.4105 43.9292 17.4605 43.7392 17.5005C43.6992 17.5105 43.6592 17.5205 43.6192 17.5305C43.4392 17.5805 43.2592 17.6305 43.0792 17.6805C43.0592 17.6805 43.0492 17.6905 43.0292 17.6905C42.8792 17.7405 42.7392 17.7805 42.5892 17.8305C42.5392 17.8505 42.4992 17.8605 42.4492 17.8805C42.3992 17.9005 42.3592 17.9105 42.3092 17.9305C42.1092 18.0005 41.9192 18.0705 41.7192 18.1505C41.5192 18.2305 41.3192 18.3205 41.1192 18.4105C41.0592 18.4405 40.9992 18.4705 40.9392 18.4905C40.7992 18.5505 40.6592 18.6205 40.5292 18.6905C40.4592 18.7205 40.3992 18.7605 40.3292 18.7905C40.1892 18.8605 40.0492 18.9305 39.9192 19.0105C39.8692 19.0405 39.8092 19.0705 39.7592 19.1005C39.7392 19.1105 39.7292 19.1205 39.7092 19.1305C39.5392 19.2205 39.3792 19.3205 39.2092 19.4205C39.1792 19.4405 39.1492 19.4605 39.1192 19.4805C38.9692 19.5705 38.8192 19.6705 38.6792 19.7605C38.6192 19.8005 38.5692 19.8405 38.5092 19.8805C38.3892 19.9605 38.2692 20.0405 38.1592 20.1305C38.0992 20.1705 38.0492 20.2105 37.9892 20.2505C37.9592 20.2805 37.9192 20.3005 37.8792 20.3305C37.7592 20.4205 37.6392 20.5105 37.5192 20.6105C37.5192 20.6105 37.5192 20.6105 37.5092 20.6105C37.3592 20.7305 37.2092 20.8505 37.0592 20.9805C37.0392 21.0005 37.0192 21.0105 36.9992 21.0305C36.9692 21.0605 36.9392 21.0805 36.9092 21.1105C36.8892 21.1305 36.8592 21.1505 36.8392 21.1805C36.8192 21.2005 36.7992 21.2105 36.7892 21.2305C36.7892 21.2305 36.7692 21.2505 36.7592 21.2505C36.7592 21.2505 36.7192 21.2905 36.6992 21.3105C36.6492 21.3605 36.5992 21.4005 36.5492 21.4505C36.4792 21.5205 36.3992 21.5905 36.3292 21.6605C36.3192 21.6705 36.2992 21.6905 36.2892 21.7005C36.2192 21.7705 36.1492 21.8405 36.0892 21.9005C36.0292 21.9605 35.9692 22.0205 35.9092 22.0805C35.8992 22.0905 35.8792 22.1105 35.8692 22.1205C35.8692 22.1205 35.8692 22.1205 35.8592 22.1305C35.8392 22.1505 35.8192 22.1705 35.8092 22.1905C35.7692 22.2405 35.7192 22.2805 35.6792 22.3305C35.6592 22.3605 35.6292 22.3805 35.6092 22.4105C35.5792 22.4405 35.5592 22.4705 35.5292 22.5005C35.5292 22.5005 35.5292 22.5005 35.5292 22.5105C35.5292 22.5105 35.5192 22.5205 35.5092 22.5305C35.4992 22.5505 35.4792 22.5605 35.4692 22.5805C35.4392 22.6105 35.4092 22.6505 35.3792 22.6805C35.2892 22.7805 35.2092 22.8905 35.1192 22.9905C35.0892 23.0305 35.0592 23.0605 35.0292 23.1005C35.0092 23.1305 34.9892 23.1605 34.9592 23.1805C34.9192 23.2305 34.8892 23.2805 34.8492 23.3305C34.8092 23.3905 34.7692 23.4405 34.7292 23.5005C34.7192 23.5205 34.7092 23.5305 34.6992 23.5505C34.6892 23.5705 34.6792 23.5805 34.6592 23.6005C34.6492 23.6205 34.6392 23.6405 34.6192 23.6505C34.6192 23.6605 34.5992 23.6805 34.5892 23.6905C34.5892 23.6905 34.5792 23.7105 34.5692 23.7205C34.5492 23.7405 34.5392 23.7705 34.5192 23.7905C34.4892 23.8405 34.4592 23.8905 34.4292 23.9305C34.3992 23.9805 34.3692 24.0205 34.3392 24.0705C34.3092 24.1205 34.2792 24.1705 34.2492 24.2105C34.2192 24.2605 34.1892 24.3005 34.1692 24.3505C34.1392 24.4005 34.1092 24.4505 34.0792 24.5005C34.0492 24.5405 34.0292 24.5905 33.9992 24.6305C33.9892 24.6505 33.9792 24.6705 33.9692 24.6805C33.9492 24.7105 33.9392 24.7405 33.9192 24.7705C33.8992 24.8005 33.8792 24.8305 33.8692 24.8705C33.8692 24.8705 33.8692 24.8705 33.8692 24.8805C33.8592 24.9005 33.8492 24.9305 33.8392 24.9505C33.8292 24.9705 33.8192 24.9905 33.8092 25.0105C33.8092 25.0305 33.7892 25.0505 33.7792 25.0705C33.7792 25.0805 33.7692 25.1005 33.7592 25.1105C33.7592 25.1305 33.7492 25.1405 33.7392 25.1605C33.7092 25.2205 33.6792 25.2905 33.6492 25.3505C33.6492 25.3505 33.6492 25.3605 33.6492 25.3705C33.6092 25.4505 33.5792 25.5305 33.5492 25.6005C33.5492 25.6105 33.5392 25.6305 33.5292 25.6505C33.4992 25.7305 33.4592 25.8105 33.4292 25.8905C33.4192 25.9205 33.4092 25.9405 33.3992 25.9705C33.3892 26.0005 33.3692 26.0405 33.3592 26.0805C33.3592 26.1005 33.3392 26.1205 33.3392 26.1405C33.3392 26.1605 33.3292 26.1705 33.3192 26.1905C33.3192 26.2205 33.2992 26.2405 33.2992 26.2705C33.2992 26.2805 33.2992 26.2905 33.2892 26.3105C33.2892 26.3405 33.2692 26.3705 33.2592 26.4005C33.2592 26.4205 33.2492 26.4405 33.2392 26.4705C33.2392 26.5005 33.2192 26.5305 33.2092 26.5605C33.1892 26.6105 33.1792 26.6605 33.1692 26.7205C33.1692 26.7405 33.1692 26.7605 33.1592 26.7805C33.1592 26.8205 33.1392 26.8505 33.1292 26.8905C33.1192 26.9405 33.1092 26.9805 33.0992 27.0305C33.0892 27.0805 33.0792 27.1305 33.0692 27.1705C33.0692 27.1905 33.0692 27.2205 33.0492 27.2405C33.0492 27.2805 33.0392 27.3105 33.0292 27.3505C33.0292 27.3705 33.0292 27.4005 33.0192 27.4205C33.0192 27.4405 33.0192 27.4605 33.0092 27.4905C33.0092 27.5305 32.9992 27.5605 32.9892 27.6005C32.9892 27.6505 32.9792 27.6905 32.9692 27.7405C32.9692 27.7805 32.9692 27.8105 32.9592 27.8505C32.9592 27.8605 32.9592 27.8805 32.9592 27.8905C32.9592 27.9205 32.9592 27.9605 32.9492 27.9905C32.9492 27.9905 32.9492 28.0705 32.9492 28.1105C32.9492 28.1105 32.9492 28.1205 32.9492 28.1305C32.9492 28.1605 32.9492 28.1805 32.9492 28.2105C32.9492 28.2205 32.9492 28.2405 32.9492 28.2505C32.9492 28.2505 32.9492 28.2805 32.9492 28.2905C32.9492 28.3205 32.9492 28.3405 32.9492 28.3705C32.9492 28.3705 32.9492 28.3805 32.9492 28.3905C32.9492 28.4205 32.9492 28.4605 32.9492 28.4905V28.5205C32.9492 28.5205 32.9492 28.5805 32.9492 28.6105C32.9492 28.6305 32.9492 28.6505 32.9492 28.6705C32.9492 28.7005 32.9492 28.7205 32.9492 28.7505C32.9492 28.7505 32.9492 28.7705 32.9492 28.7805C32.9492 28.8105 32.9492 28.8405 32.9492 28.8705C32.9492 28.8805 32.9492 28.8905 32.9492 28.9005C32.9492 28.9405 32.9492 28.9705 32.9492 29.0105C32.9492 29.0305 32.9492 29.0505 32.9492 29.0805C32.9492 29.1005 32.9492 29.1305 32.9592 29.2205C32.9592 29.2605 32.9692 29.3005 32.9892 29.4205C32.9892 29.4405 32.9892 29.4605 33.0192 29.6205C33.0192 29.6405 33.0192 29.6605 33.0492 29.7605C33.0492 29.7805 33.0492 29.8005 33.0592 29.8205C33.3792 31.2105 34.2192 32.3005 35.4092 33.0305C36.6892 33.8205 37.9692 34.6105 39.2492 35.4005C38.0592 34.6605 37.2192 33.5805 36.8992 32.1905C36.8992 32.1705 36.8992 32.1505 36.8892 32.1305C36.8692 32.0305 36.8692 32.0105 36.8592 31.9905C36.8292 31.8305 36.8292 31.8105 36.8292 31.7905C36.8092 31.6705 36.8092 31.6305 36.7992 31.5905C36.7892 31.4905 36.7892 31.4705 36.7892 31.4505C36.7892 31.4205 36.7892 31.4005 36.7892 31.3805C36.7892 31.2705 36.7792 31.1605 36.7792 31.0505C36.7792 31.0205 36.7792 30.9905 36.7792 30.9705C36.7792 30.8705 36.7792 30.7605 36.7792 30.6605C36.7792 30.6405 36.7792 30.6305 36.7792 30.6105C36.7792 30.5105 36.7892 30.4005 36.7992 30.2905C36.7992 30.2605 36.7992 30.2305 36.7992 30.2105C36.7992 30.1405 36.8192 30.0605 36.8292 29.9905C36.8392 29.9205 36.8492 29.8505 36.8592 29.7805C36.8692 29.7105 36.8892 29.6405 36.8992 29.5705C36.9092 29.5005 36.9292 29.4305 36.9492 29.3605C36.9692 29.2905 36.9792 29.2205 36.9992 29.1405C37.0192 29.0705 37.0392 29.0105 37.0592 28.9405C37.0792 28.8805 37.0992 28.8205 37.1192 28.7505C37.1192 28.7505 37.1192 28.7305 37.1192 28.7205C37.1192 28.7105 37.1192 28.6905 37.1292 28.6805C37.1492 28.6305 37.1692 28.5805 37.1792 28.5305C37.1892 28.5005 37.1992 28.4605 37.2192 28.4305C37.2592 28.3305 37.2892 28.2305 37.3392 28.1305C37.3492 28.0905 37.3692 28.0605 37.3792 28.0205C37.3792 28.0105 37.3892 27.9905 37.3992 27.9805C37.4492 27.8605 37.5092 27.7405 37.5692 27.6205C37.5992 27.5705 37.6192 27.5105 37.6492 27.4605C37.6692 27.4205 37.6892 27.3905 37.6992 27.3505C37.7292 27.2905 37.7592 27.2305 37.7892 27.1705C37.8092 27.1305 37.8292 27.1005 37.8492 27.0605C37.8792 27.0105 37.9092 26.9605 37.9392 26.9005C37.9592 26.8605 37.9792 26.8305 38.0092 26.7905C38.0392 26.7405 38.0692 26.6805 38.1092 26.6305C38.1292 26.5905 38.1492 26.5605 38.1792 26.5205C38.2192 26.4605 38.2492 26.4105 38.2892 26.3505C38.3092 26.3205 38.3292 26.2905 38.3492 26.2505C38.3892 26.1905 38.4392 26.1205 38.4792 26.0605C38.4892 26.0405 38.5092 26.0205 38.5192 26.0005C38.5192 26.0005 38.5292 25.9905 38.5392 25.9805C38.6592 25.8105 38.7892 25.6405 38.9192 25.4705C38.9292 25.4605 38.9392 25.4405 38.9492 25.4305C39.0792 25.2605 39.2192 25.1005 39.3592 24.9405C39.3792 24.9105 39.4092 24.8905 39.4292 24.8605C39.4792 24.8005 39.5292 24.7505 39.5792 24.6905C39.6092 24.6605 39.6392 24.6205 39.6692 24.5905C39.7192 24.5405 39.7692 24.4905 39.8192 24.4305C39.9192 24.3305 40.0092 24.2305 40.1092 24.1305C40.1292 24.1105 40.1492 24.0905 40.1692 24.0705C40.1992 24.0405 40.2392 24.0105 40.2692 23.9705C40.3492 23.8905 40.4292 23.8205 40.5092 23.7505C40.6392 23.6305 40.7692 23.5205 40.8992 23.4005C40.9192 23.3805 40.9492 23.3605 40.9692 23.3405C41.1192 23.2205 41.2592 23.0905 41.4192 22.9705C41.4192 22.9705 41.4192 22.9705 41.4292 22.9705C41.5792 22.8505 41.7392 22.7305 41.8892 22.6205C41.9492 22.5805 42.0092 22.5405 42.0592 22.4905C42.1792 22.4105 42.2892 22.3305 42.4092 22.2405C42.4692 22.2005 42.5192 22.1605 42.5792 22.1205C42.7292 22.0205 42.8692 21.9305 43.0192 21.8405C43.0492 21.8205 43.0792 21.8005 43.1092 21.7805C43.2892 21.6705 43.4692 21.5605 43.6592 21.4605C43.7092 21.4305 43.7692 21.4005 43.8192 21.3705C43.9592 21.3005 44.0892 21.2205 44.2292 21.1505C44.2992 21.1205 44.3592 21.0805 44.4292 21.0505C44.5592 20.9805 44.6992 20.9205 44.8392 20.8505C44.8992 20.8205 44.9592 20.7905 45.0292 20.7605C45.2292 20.6705 45.4292 20.5805 45.6292 20.5005C45.8292 20.4205 46.0192 20.3505 46.2192 20.2805C46.2692 20.2605 46.3092 20.2505 46.3592 20.2305C46.5492 20.1605 46.7392 20.1005 46.9292 20.0405C46.9492 20.0405 46.9692 20.0305 46.9892 20.0205C47.1692 19.9705 47.3392 19.9205 47.5192 19.8705C47.5592 19.8605 47.5992 19.8505 47.6492 19.8405C47.8392 19.7905 48.0192 19.7505 48.2092 19.7105C48.2392 19.7105 48.2792 19.7005 48.3092 19.6905C48.4792 19.6505 48.6392 19.6205 48.8092 19.5905C48.8392 19.5905 48.8792 19.5805 48.9092 19.5705C49.0892 19.5405 49.2692 19.5105 49.4492 19.4905C49.4892 19.4905 49.5292 19.4905 49.5692 19.4805C49.7392 19.4605 49.9092 19.4405 50.0792 19.4305C50.0892 19.4305 50.1092 19.4305 50.1192 19.4305C50.2992 19.4205 50.4692 19.4105 50.6492 19.4005C50.6892 19.4005 50.7292 19.4005 50.7692 19.4005C50.9392 19.4005 51.1192 19.4005 51.2892 19.4005C51.3092 19.4005 51.3192 19.4005 51.3392 19.4005C51.4992 19.4005 51.6592 19.4105 51.8092 19.4305C51.8492 19.4305 51.8792 19.4305 51.9192 19.4305C52.0792 19.4405 52.2392 19.4605 52.3992 19.4805C52.4292 19.4805 52.4592 19.4805 52.4892 19.4905C52.6092 19.5105 52.7292 19.5305 52.8492 19.5505C52.9192 19.5605 52.9892 19.5805 53.0492 19.5905C53.0992 19.5905 53.1392 19.6105 53.1892 19.6205C53.2492 19.7105 53.3092 19.7905 53.3592 19.8805C53.4292 20.0005 53.4992 20.1305 53.5692 20.2605C53.6292 20.3805 53.6792 20.5105 53.7292 20.6305C53.7592 20.7105 53.7892 20.8005 53.8192 20.8805V20.9005C53.8292 20.9405 53.8492 20.9805 53.8592 21.0205L57.6992 23.3905C57.6992 23.3905 57.6692 23.3105 57.6592 23.2705H57.5392Z" fill="#079EDE"/>
<path d="M55.3592 20.5205C55.3692 20.5305 55.3792 20.5405 55.3892 20.5405C55.4892 20.6105 55.5992 20.6805 55.6992 20.7505C55.7092 20.7605 55.7192 20.7705 55.7392 20.7805C55.8092 20.8405 55.8892 20.8905 55.9592 20.9505C55.9492 20.9405 55.9392 20.9405 55.9392 20.9405C56.1292 21.0905 56.2992 21.2505 56.4592 21.4205C56.4692 21.4205 56.4692 21.4205 56.4692 21.4205C56.4892 21.4405 56.5192 21.4705 56.5392 21.5005C56.5892 21.5605 56.6392 21.6105 56.6892 21.6705C56.7092 21.6905 56.7292 21.7105 56.7492 21.7405C56.7792 21.7705 56.7992 21.8105 56.8292 21.8505C56.8492 21.8805 56.8692 21.9105 56.8892 21.9405C56.9592 22.0405 57.0292 22.1405 57.0892 22.2505C57.1592 22.3705 57.2292 22.5005 57.2892 22.6305C57.2892 22.6405 57.2892 22.6405 57.2892 22.6405C57.3492 22.7505 57.3992 22.8805 57.4492 23.0005C57.4792 23.0805 57.5092 23.1705 57.5392 23.2505V23.2705H57.6592C57.6692 23.3105 57.6992 23.3905 57.6992 23.3905L53.8592 21.0205C53.8492 20.9805 53.8292 20.9405 53.8192 20.9005V20.8805C53.7892 20.8005 53.7592 20.7105 53.7292 20.6305C53.6792 20.5105 53.6292 20.3805 53.5692 20.2605C53.4992 20.1305 53.4292 20.0005 53.3592 19.8805C53.3092 19.7905 53.2492 19.7105 53.1892 19.6205C53.1392 19.6105 53.0992 19.5905 53.0492 19.5905C52.9892 19.5805 52.9192 19.5605 52.8492 19.5505C52.7292 19.5305 52.6092 19.5105 52.4892 19.4905C52.4592 19.4805 52.4292 19.4805 52.3992 19.4805C52.2392 19.4605 52.0792 19.4405 51.9192 19.4305C51.8792 19.4305 51.8492 19.4305 51.8092 19.4305C51.6592 19.4105 51.4992 19.4005 51.3392 19.4005C51.3192 19.4005 51.3092 19.4005 51.2892 19.4005C51.1192 19.4005 50.9392 19.4005 50.7692 19.4005C50.7292 19.4005 50.6892 19.4005 50.6492 19.4005C50.4692 19.4105 50.2992 19.4205 50.1192 19.4305C50.1092 19.4305 50.0892 19.4305 50.0792 19.4305C49.9092 19.4405 49.7392 19.4605 49.5692 19.4805C49.5292 19.4905 49.4892 19.4905 49.4492 19.4905C49.2692 19.5105 49.0892 19.5405 48.9092 19.5705C48.8792 19.5805 48.8392 19.5905 48.8092 19.5905C48.6392 19.6205 48.4792 19.6505 48.3092 19.6905C48.2792 19.7005 48.2392 19.7105 48.2092 19.7105C48.0192 19.7505 47.8392 19.7905 47.6492 19.8405C47.5992 19.8505 47.5592 19.8605 47.5192 19.8705C47.3392 19.9205 47.1692 19.9705 46.9892 20.0205C46.9692 20.0305 46.9492 20.0405 46.9292 20.0405C46.7392 20.1005 46.5492 20.1605 46.3592 20.2305C46.3092 20.2505 46.2692 20.2605 46.2192 20.2805C46.0192 20.3505 45.8292 20.4205 45.6292 20.5005C45.4292 20.5805 45.2292 20.6705 45.0292 20.7605C44.9592 20.7905 44.8992 20.8205 44.8392 20.8505C44.6992 20.9205 44.5592 20.9805 44.4292 21.0505C44.3592 21.0805 44.2992 21.1205 44.2292 21.1505C44.0892 21.2205 43.9592 21.3005 43.8192 21.3705C43.7692 21.4005 43.7092 21.4305 43.6592 21.4605C43.4692 21.5605 43.2892 21.6705 43.1092 21.7805C43.0792 21.8005 43.0492 21.8205 43.0192 21.8405C42.8692 21.9305 42.7292 22.0205 42.5792 22.1205C42.5192 22.1605 42.4692 22.2005 42.4092 22.2405C42.2892 22.3305 42.1792 22.4105 42.0592 22.4905C42.0092 22.5405 41.9492 22.5805 41.8892 22.6205C41.7392 22.7305 41.5792 22.8505 41.4292 22.9705C41.4192 22.9705 41.4192 22.9705 41.4192 22.9705C41.2592 23.0905 41.1192 23.2205 40.9692 23.3405C40.9492 23.3605 40.9192 23.3805 40.8992 23.4005C40.7692 23.5205 40.6392 23.6305 40.5092 23.7505C40.4292 23.8205 40.3492 23.8905 40.2692 23.9705C40.2392 24.0105 40.1992 24.0405 40.1692 24.0705C40.1492 24.0905 40.1292 24.1105 40.1092 24.1305C40.0092 24.2305 39.9192 24.3305 39.8192 24.4305C39.7692 24.4905 39.7192 24.5405 39.6692 24.5905C39.6392 24.6205 39.6092 24.6605 39.5792 24.6905C39.5292 24.7505 39.4792 24.8005 39.4292 24.8605C39.4092 24.8905 39.3792 24.9105 39.3592 24.9405C39.2192 25.1005 39.0792 25.2605 38.9492 25.4305C38.9392 25.4405 38.9292 25.4605 38.9192 25.4705C38.7892 25.6405 38.6592 25.8105 38.5392 25.9805C38.5292 25.9905 38.5192 26.0005 38.5192 26.0005C38.5092 26.0205 38.4892 26.0405 38.4792 26.0605C38.4392 26.1205 38.3892 26.1905 38.3492 26.2505C38.3292 26.2905 38.3092 26.3205 38.2892 26.3505C38.2492 26.4105 38.2192 26.4605 38.1792 26.5205C38.1492 26.5605 38.1292 26.5905 38.1092 26.6305C38.0692 26.6805 38.0392 26.7405 38.0092 26.7905C37.9792 26.8305 37.9592 26.8605 37.9392 26.9005C37.9092 26.9605 37.8792 27.0105 37.8492 27.0605C37.8292 27.1005 37.8092 27.1305 37.7892 27.1705C37.7592 27.2305 37.7292 27.2905 37.6992 27.3505C37.6892 27.3905 37.6692 27.4205 37.6492 27.4605C37.6192 27.5105 37.5992 27.5705 37.5692 27.6205C37.5092 27.7405 37.4492 27.8605 37.3992 27.9805C37.3892 27.9905 37.3792 28.0105 37.3792 28.0205C37.3692 28.0605 37.3492 28.0905 37.3392 28.1305C37.2892 28.2305 37.2592 28.3305 37.2192 28.4305C37.1992 28.4605 37.1892 28.5005 37.1792 28.5305C37.1692 28.5805 37.1492 28.6305 37.1292 28.6805C37.1192 28.6905 37.1192 28.7105 37.1192 28.7205C37.1192 28.7305 37.1192 28.7505 37.1192 28.7505C37.0992 28.8205 37.0792 28.8805 37.0592 28.9405C37.0392 29.0105 37.0192 29.0705 36.9992 29.1405C36.9792 29.2205 36.9692 29.2905 36.9492 29.3605C36.9292 29.4305 36.9092 29.5005 36.8992 29.5705C36.8892 29.6405 36.8692 29.7105 36.8592 29.7805C36.8492 29.8505 36.8392 29.9205 36.8292 29.9905C36.8192 30.0605 36.7992 30.1405 36.7992 30.2105C36.7992 30.2305 36.7992 30.2605 36.7992 30.2905C36.7892 30.4005 36.7792 30.5105 36.7792 30.6105C36.7792 30.6305 36.7792 30.6405 36.7792 30.6605C36.7792 30.7605 36.7792 30.8705 36.7792 30.9705C36.7792 30.9905 36.7792 31.0205 36.7792 31.0505C36.7792 31.1605 36.7892 31.2705 36.7892 31.3805C36.7892 31.4005 36.7892 31.4205 36.7892 31.4505C36.7892 31.4705 36.7892 31.4905 36.7992 31.5905C36.8092 31.6305 36.8092 31.6705 36.8292 31.7905C36.8292 31.8105 36.8292 31.8305 36.8592 31.9905C36.8692 32.0105 36.8692 32.0305 36.8892 32.1305C36.8992 32.1505 36.8992 32.1705 36.8992 32.1905C37.2192 33.5805 38.0592 34.6605 39.2492 35.4005C37.9692 34.6105 36.6892 33.8205 35.4092 33.0305C34.2192 32.3005 33.3792 31.2105 33.0592 29.8205C33.0492 29.8005 33.0492 29.7805 33.0492 29.7605C33.0192 29.6605 33.0192 29.6405 33.0192 29.6205C32.9892 29.4605 32.9892 29.4405 32.9892 29.4205C32.9692 29.3005 32.9592 29.2605 32.9592 29.2205C32.9492 29.1305 32.9492 29.1005 32.9492 29.0805C32.9492 29.0505 32.9492 29.0305 32.9492 29.0105C32.9492 28.9705 32.9492 28.9405 32.9492 28.9005C32.9492 28.8905 32.9492 28.8805 32.9492 28.8705C32.9492 28.8405 32.9492 28.8105 32.9492 28.7805C32.9492 28.7705 32.9492 28.7505 32.9492 28.7505C32.9492 28.7205 32.9492 28.7005 32.9492 28.6705C32.9492 28.6505 32.9492 28.6305 32.9492 28.6105C32.9492 28.5805 32.9492 28.5205 32.9492 28.5205V28.4905C32.9492 28.4605 32.9492 28.4205 32.9492 28.3905C32.9492 28.3805 32.9492 28.3705 32.9492 28.3705C32.9492 28.3405 32.9492 28.3205 32.9492 28.2905C32.9492 28.2805 32.9492 28.2505 32.9492 28.2505C32.9492 28.2405 32.9492 28.2205 32.9492 28.2105C32.9492 28.1805 32.9492 28.1605 32.9492 28.1305C32.9492 28.1205 32.9492 28.1105 32.9492 28.1105C32.9492 28.0705 32.9492 27.9905 32.9492 27.9905C32.9592 27.9605 32.9592 27.9205 32.9592 27.8905C32.9592 27.8805 32.9592 27.8605 32.9592 27.8505C32.9692 27.8105 32.9692 27.7805 32.9692 27.7405C32.9792 27.6905 32.9892 27.6505 32.9892 27.6005C32.9992 27.5605 33.0092 27.5305 33.0092 27.4905C33.0192 27.4605 33.0192 27.4405 33.0192 27.4205C33.0292 27.4005 33.0292 27.3705 33.0292 27.3505C33.0392 27.3105 33.0492 27.2805 33.0492 27.2405C33.0692 27.2205 33.0692 27.1905 33.0692 27.1705C33.0792 27.1305 33.0892 27.0805 33.0992 27.0305C33.1092 26.9805 33.1192 26.9405 33.1292 26.8905C33.1392 26.8505 33.1592 26.8205 33.1592 26.7805C33.1692 26.7605 33.1692 26.7405 33.1692 26.7205C33.1792 26.6605 33.1892 26.6105 33.2092 26.5605C33.2192 26.5305 33.2392 26.5005 33.2392 26.4705C33.2492 26.4405 33.2592 26.4205 33.2592 26.4005C33.2692 26.3705 33.2892 26.3405 33.2892 26.3105C33.2992 26.2905 33.2992 26.2805 33.2992 26.2705C33.2992 26.2405 33.3192 26.2205 33.3192 26.1905C33.3292 26.1705 33.3392 26.1605 33.3392 26.1405C33.3392 26.1205 33.3592 26.1005 33.3592 26.0805C33.3692 26.0405 33.3892 26.0005 33.3992 25.9705C33.4092 25.9405 33.4192 25.9205 33.4292 25.8905C33.4592 25.8105 33.4992 25.7305 33.5292 25.6505C33.5392 25.6305 33.5492 25.6105 33.5492 25.6005C33.5792 25.5305 33.6092 25.4505 33.6492 25.3705C33.6492 25.3605 33.6492 25.3505 33.6492 25.3505C33.6792 25.2905 33.7092 25.2205 33.7392 25.1605C33.7492 25.1405 33.7592 25.1305 33.7592 25.1105C33.7692 25.1005 33.7792 25.0805 33.7792 25.0705C33.7892 25.0505 33.8092 25.0305 33.8092 25.0105C33.8192 24.9905 33.8292 24.9705 33.8392 24.9505C33.8492 24.9305 33.8592 24.9005 33.8692 24.8805C33.8692 24.8705 33.8692 24.8705 33.8692 24.8705C33.8792 24.8305 33.8992 24.8005 33.9192 24.7705C33.9392 24.7405 33.9492 24.7105 33.9692 24.6805C33.9792 24.6705 33.9892 24.6505 33.9992 24.6305C34.0292 24.5905 34.0492 24.5405 34.0792 24.5005C34.1092 24.4505 34.1392 24.4005 34.1692 24.3505C34.1892 24.3005 34.2192 24.2605 34.2492 24.2105C34.2792 24.1705 34.3092 24.1205 34.3392 24.0705C34.3692 24.0205 34.3992 23.9805 34.4292 23.9305C34.4592 23.8905 34.4892 23.8405 34.5192 23.7905C34.5392 23.7705 34.5492 23.7405 34.5692 23.7205C34.5792 23.7105 34.5892 23.6905 34.5892 23.6905C34.5992 23.6805 34.6192 23.6605 34.6192 23.6505C34.6392 23.6405 34.6492 23.6205 34.6592 23.6005C34.6792 23.5805 34.6892 23.5705 34.6992 23.5505C34.7092 23.5305 34.7192 23.5205 34.7292 23.5005C34.7692 23.4405 34.8092 23.3905 34.8492 23.3305C34.8892 23.2805 34.9192 23.2305 34.9592 23.1805C34.9892 23.1605 35.0092 23.1305 35.0292 23.1005C35.0592 23.0605 35.0892 23.0305 35.1192 22.9905C35.2092 22.8905 35.2892 22.7805 35.3792 22.6805C35.4092 22.6505 35.4392 22.6105 35.4692 22.5805C35.4792 22.5605 35.4992 22.5505 35.5092 22.5305C35.5192 22.5205 35.5292 22.5105 35.5292 22.5105C35.5292 22.5005 35.5292 22.5005 35.5292 22.5005C35.5592 22.4705 35.5792 22.4405 35.6092 22.4105C35.6292 22.3805 35.6592 22.3605 35.6792 22.3305C35.7192 22.2805 35.7692 22.2405 35.8092 22.1905C35.8192 22.1705 35.8392 22.1505 35.8592 22.1305C35.8692 22.1205 35.8692 22.1205 35.8692 22.1205C35.8792 22.1105 35.8992 22.0905 35.9092 22.0805C35.9692 22.0205 36.0292 21.9605 36.0892 21.9005C36.1492 21.8405 36.2192 21.7705 36.2892 21.7005C36.2992 21.6905 36.3192 21.6705 36.3292 21.6605C36.3992 21.5905 36.4792 21.5205 36.5492 21.4505C36.5992 21.4005 36.6492 21.3605 36.6992 21.3105C36.7192 21.2905 36.7592 21.2505 36.7592 21.2505C36.7692 21.2505 36.7892 21.2305 36.7892 21.2305C36.7992 21.2105 36.8192 21.2005 36.8392 21.1805C36.8592 21.1505 36.8892 21.1305 36.9092 21.1105C36.9392 21.0805 36.9692 21.0605 36.9992 21.0305C37.0192 21.0105 37.0392 21.0005 37.0592 20.9805C37.2092 20.8505 37.3592 20.7305 37.5092 20.6105C37.5192 20.6105 37.5192 20.6105 37.5192 20.6105C37.6392 20.5105 37.7592 20.4205 37.8792 20.3305C37.9192 20.3005 37.9592 20.2805 37.9892 20.2505C38.0492 20.2105 38.0992 20.1705 38.1592 20.1305C38.2692 20.0405 38.3892 19.9605 38.5092 19.8805C38.5692 19.8405 38.6192 19.8005 38.6792 19.7605C38.8192 19.6705 38.9692 19.5705 39.1192 19.4805C39.1492 19.4605 39.1792 19.4405 39.2092 19.4205C39.3792 19.3205 39.5392 19.2205 39.7092 19.1305C39.7292 19.1205 39.7392 19.1105 39.7592 19.1005C39.8092 19.0705 39.8692 19.0405 39.9192 19.0105C40.0492 18.9305 40.1892 18.8605 40.3292 18.7905C40.3992 18.7605 40.4592 18.7205 40.5292 18.6905C40.6592 18.6205 40.7992 18.5505 40.9392 18.4905C40.9992 18.4705 41.0592 18.4405 41.1192 18.4105C41.3192 18.3205 41.5192 18.2305 41.7192 18.1505C41.9192 18.0705 42.1092 18.0005 42.3092 17.9305C42.3592 17.9105 42.3992 17.9005 42.4492 17.8805C42.4992 17.8605 42.5392 17.8505 42.5892 17.8305C42.7392 17.7805 42.8792 17.7405 43.0292 17.6905C43.0492 17.6905 43.0592 17.6805 43.0792 17.6805C43.2592 17.6305 43.4392 17.5805 43.6192 17.5305C43.6592 17.5205 43.6992 17.5105 43.7392 17.5005C43.9292 17.4605 44.1092 17.4105 44.2992 17.3705C44.3292 17.3605 44.3692 17.3505 44.3992 17.3505C44.5692 17.3105 44.7292 17.2805 44.8992 17.2505C44.9392 17.2405 44.9692 17.2305 44.9992 17.2305C45.1892 17.2005 45.3692 17.1705 45.5492 17.1505C45.5892 17.1405 45.6292 17.1405 45.6692 17.1405C45.8392 17.1205 46.0092 17.1005 46.1792 17.0905C46.1892 17.0905 46.2092 17.0905 46.2192 17.0905C46.3992 17.0705 46.5792 17.0605 46.7492 17.0605C46.7892 17.0605 46.8292 17.0605 46.8692 17.0605C47.0492 17.0605 47.2192 17.0605 47.3892 17.0605C47.4092 17.0605 47.4192 17.0605 47.4392 17.0605C47.5992 17.0705 47.7592 17.0805 47.9092 17.0905C47.9492 17.0905 47.9792 17.0905 48.0192 17.0905C48.1792 17.1005 48.3392 17.1205 48.4992 17.1405C48.5292 17.1505 48.5592 17.1505 48.5892 17.1505C48.6592 17.1605 48.7292 17.1705 48.7992 17.1805C48.8492 17.1905 48.8992 17.2105 48.9492 17.2105C49.0092 17.2205 49.0792 17.2405 49.1492 17.2505C49.2492 17.2705 49.3492 17.3005 49.4492 17.3205C49.5092 17.3405 49.5792 17.3505 49.6392 17.3705C49.7492 17.4005 49.8492 17.4305 49.9492 17.4605C49.9992 17.4805 50.0592 17.4905 50.1092 17.5105C50.2392 17.5505 50.3692 17.6005 50.4992 17.6505C50.5092 17.6605 50.5292 17.6705 50.5492 17.6705C50.5592 17.6705 50.5792 17.6905 50.5992 17.6905C50.7392 17.7405 50.8592 17.8005 50.9892 17.8605C50.9992 17.8605 51.0192 17.8805 51.0292 17.8805C51.0492 17.8905 51.0692 17.9005 51.0892 17.9105C51.2392 17.9805 51.3792 18.0605 51.5192 18.1505L54.2492 19.8405L55.3592 20.5205ZM55.3592 20.5205L55.3092 20.4905C55.3092 20.4905 55.3392 20.5105 55.3592 20.5205Z" stroke="black" stroke-linecap="round" stroke-linejoin="round"/>
<path d="M38.2812 26.0996C38.2812 26.0996 38.2812 26.0996 38.2812 26.1096C38.2812 26.1096 38.2812 26.1096 38.2812 26.0996Z" fill="white" stroke="black" stroke-linecap="round" stroke-linejoin="round"/>
<path d="M55.6116 20.6797C55.7016 20.7397 55.7916 20.8097 55.8716 20.8797C55.7816 20.8097 55.6916 20.7397 55.6016 20.6797H55.6116Z" fill="white" stroke="black" stroke-linecap="round" stroke-linejoin="round"/>
<path d="M57.6586 23.6893C57.6586 23.6893 57.6486 23.6493 57.6386 23.6093C57.6386 23.5893 57.6286 23.5693 57.6186 23.5393C57.6186 23.5193 57.6086 23.4993 57.5986 23.4693C57.5986 23.4493 57.5886 23.4193 57.5786 23.3993C57.5286 23.2393 57.4786 23.0893 57.4186 22.9393C57.4186 22.9593 57.4286 22.9693 57.4386 22.9893C57.4386 22.9693 57.4186 22.9493 57.4086 22.9193C57.3886 22.8793 57.3786 22.8393 57.3586 22.8093C57.3386 22.7693 57.3286 22.7393 57.3086 22.6993V22.7193C57.3086 22.7093 57.2986 22.6893 57.2886 22.6793C57.2886 22.6793 57.2886 22.6893 57.2986 22.6993C57.2986 22.6793 57.2786 22.6593 57.2686 22.6393C57.2586 22.6193 57.2486 22.5893 57.2286 22.5693C57.2086 22.5293 57.1886 22.4893 57.1686 22.4493C57.1486 22.4193 57.1386 22.3893 57.1186 22.3593C57.1186 22.3493 57.1086 22.3393 57.0986 22.3293C57.0986 22.3293 57.0986 22.3093 57.0886 22.3093C57.0886 22.3093 57.0886 22.3193 57.0986 22.3293C57.0786 22.2993 57.0586 22.2693 57.0386 22.2393C57.0086 22.1993 56.9886 22.1493 56.9586 22.1093C56.9586 22.1093 56.9586 22.0993 56.9486 22.0893C56.9486 22.0693 56.9286 22.0593 56.9186 22.0393C56.9186 22.0493 56.9386 22.0693 56.9486 22.0793C56.9286 22.0493 56.9086 22.0193 56.8886 21.9893C56.8486 21.9293 56.8086 21.8793 56.7686 21.8193C56.7486 21.7893 56.7186 21.7493 56.6886 21.7193C56.6486 21.6693 56.5986 21.6093 56.5586 21.5593C56.5286 21.5293 56.5086 21.4993 56.4886 21.4693C56.4486 21.4293 56.4086 21.3893 56.3686 21.3493C56.3586 21.3293 56.3386 21.3193 56.3286 21.2993C56.3186 21.2893 56.3086 21.2693 56.2886 21.2593C56.2486 21.2293 56.2186 21.1893 56.1786 21.1593C56.1786 21.1593 56.1986 21.1793 56.2086 21.1793C56.1886 21.1593 56.1686 21.1493 56.1586 21.1293C56.1586 21.1293 56.1786 21.1493 56.1886 21.1593C56.1686 21.1393 56.1586 21.1293 56.1386 21.1093C56.1186 21.0893 56.0986 21.0693 56.0786 21.0593C56.0186 21.0093 55.9586 20.9593 55.8986 20.9093C55.8986 20.9093 55.8886 20.8993 55.8786 20.8893C55.8786 20.8893 55.8586 20.8793 55.8486 20.8693C55.7486 20.7893 55.6486 20.7193 55.5486 20.6493C53.2486 19.0493 49.4386 18.8593 45.4686 20.4693C43.6886 21.1893 42.0886 22.1793 40.7586 23.3293C40.7586 23.3293 40.7486 23.3393 40.7386 23.3493C40.6786 23.3993 40.6286 23.4493 40.5686 23.4993C40.5286 23.5393 40.4886 23.5693 40.4486 23.6093C40.3886 23.6593 40.3286 23.7193 40.2786 23.7693C40.2486 23.7993 40.2186 23.8193 40.1886 23.8493C40.1086 23.9293 40.0186 24.0093 39.9386 24.0893C39.9386 24.0893 39.9486 24.0793 39.9586 24.0693C39.9386 24.0893 39.9186 24.1093 39.8886 24.1393C39.8886 24.1393 39.8986 24.1293 39.9086 24.1193C39.8786 24.1493 39.8586 24.1693 39.8286 24.1993C39.8086 24.2193 39.7886 24.2393 39.7786 24.2493C39.7186 24.3093 39.6586 24.3693 39.5986 24.4393C39.5786 24.4593 39.5686 24.4693 39.5486 24.4893C39.5486 24.4893 39.5386 24.4993 39.5286 24.5093C39.4686 24.5693 39.4086 24.6393 39.3486 24.6993C39.3386 24.7093 39.3186 24.7293 39.3086 24.7393C39.1886 24.8793 39.0586 25.0193 38.9486 25.1593C38.9486 25.1593 38.9286 25.1793 38.9286 25.1893C38.8686 25.2593 38.8186 25.3293 38.7686 25.3893C38.7486 25.4093 38.7286 25.4393 38.7086 25.4593C38.6586 25.5293 38.5986 25.5993 38.5486 25.6593C38.5486 25.6593 38.5386 25.6793 38.5286 25.6893C38.5286 25.6993 38.5086 25.7193 38.4986 25.7293C38.4986 25.7293 38.5086 25.7193 38.5186 25.7093C38.5186 25.7193 38.5086 25.7293 38.4986 25.7393C38.4086 25.8593 38.3286 25.9793 38.2486 26.0993C38.2386 26.1193 38.2186 26.1393 38.2086 26.1593C38.2086 26.1493 38.2286 26.1293 38.2386 26.1193C38.2286 26.1393 38.2186 26.1493 38.2086 26.1693C38.2086 26.1793 38.1886 26.1893 38.1886 26.1993C38.1386 26.2693 38.0986 26.3393 38.0586 26.3993C38.0386 26.4293 38.0186 26.4593 38.0086 26.4793C37.9686 26.5493 37.9286 26.6093 37.8786 26.6793C37.8686 26.6993 37.8586 26.7193 37.8386 26.7393C37.7886 26.8193 37.7386 26.9093 37.6986 26.9893C37.6986 26.9893 37.6986 26.9793 37.7086 26.9693C37.6986 26.9993 37.6786 27.0193 37.6686 27.0393C37.6686 27.0293 37.6886 27.0093 37.6886 26.9993C37.6586 27.0493 37.6386 27.0993 37.6086 27.1493C37.5986 27.1693 37.5886 27.1893 37.5686 27.2193C37.5386 27.2793 37.5086 27.3393 37.4786 27.3993C37.4786 27.3993 37.4786 27.3893 37.4786 27.3793C37.4786 27.3893 37.4686 27.3993 37.4586 27.4093C37.4586 27.4093 37.4586 27.3993 37.4586 27.3893C37.4586 27.4093 37.4386 27.4293 37.4286 27.4393C37.4186 27.4593 37.4086 27.4793 37.3986 27.4993C37.3686 27.5593 37.3386 27.6293 37.3086 27.6893C37.2986 27.7193 37.2786 27.7493 37.2686 27.7793C37.2686 27.7793 37.2686 27.7793 37.2686 27.7893C37.2486 27.8193 37.2386 27.8593 37.2186 27.8993C37.2186 27.8993 37.2186 27.8893 37.2186 27.8793C37.1786 27.9693 37.1486 28.0493 37.1086 28.1393C37.0986 28.1793 37.0786 28.2093 37.0686 28.2393C37.0486 28.2993 37.0286 28.3593 36.9986 28.4193C36.9886 28.4593 36.9686 28.4993 36.9586 28.5393C36.9386 28.5893 36.9186 28.6393 36.9086 28.6993C36.9086 28.6893 36.9086 28.6793 36.9186 28.6593C36.9186 28.6793 36.9086 28.6993 36.8986 28.7093C36.8986 28.7093 36.8986 28.6993 36.8986 28.6893C36.8986 28.7093 36.8986 28.7193 36.8886 28.7393C36.8786 28.7793 36.8686 28.8093 36.8586 28.8493C36.8286 28.9293 36.8086 29.0193 36.7886 29.0993C36.7886 29.1093 36.7886 29.1293 36.7786 29.1393C36.7786 29.1293 36.7786 29.1193 36.7786 29.1093C36.7786 29.1493 36.7586 29.1793 36.7486 29.2193C36.7486 29.2393 36.7386 29.2693 36.7286 29.2893C36.7186 29.3393 36.7086 29.3993 36.6886 29.4493C36.6886 29.4893 36.6686 29.5193 36.6686 29.5593C36.6686 29.5893 36.6586 29.6093 36.6486 29.6393C36.6486 29.6293 36.6486 29.6093 36.6486 29.5993C36.6486 29.6193 36.6486 29.6493 36.6386 29.6693C36.6386 29.6593 36.6386 29.6493 36.6386 29.6393C36.6386 29.6793 36.6286 29.7193 36.6186 29.7493C36.6086 29.8093 36.5986 29.8693 36.5886 29.9293C36.5886 29.9593 36.5786 29.9993 36.5686 30.0293C36.5686 30.0093 36.5686 29.9993 36.5686 29.9793C36.5086 30.4293 36.4886 30.8693 36.5286 31.2993C36.5286 31.3193 36.5286 31.3393 36.5286 31.3693C36.5286 31.3893 36.5286 31.4093 36.5386 31.5093C36.5386 31.5493 36.5386 31.5893 36.5686 31.7093C36.5686 31.7293 36.5686 31.7493 36.5986 31.9093C36.5986 31.9293 36.5986 31.9493 36.6286 32.0493C36.6286 32.0693 36.6286 32.0893 36.6386 32.1093C37.1786 34.4693 39.2086 35.9493 41.9286 36.3393L42.2186 39.5593L44.7686 36.3693C46.0586 36.2293 47.4286 35.8893 48.8086 35.3293C54.5786 32.9993 58.4986 27.7693 57.5486 23.6593L57.6586 23.6893Z" fill="white"/>
<path d="M57.0986 22.3293C57.1086 22.3393 57.1186 22.3493 57.1186 22.3593C57.1386 22.3893 57.1486 22.4193 57.1686 22.4493C57.1886 22.4893 57.2086 22.5293 57.2286 22.5693C57.2486 22.5893 57.2586 22.6193 57.2686 22.6393C57.2786 22.6593 57.2986 22.6793 57.2986 22.6993C57.2886 22.6893 57.2886 22.6793 57.2886 22.6793C57.2986 22.6893 57.3086 22.7093 57.3086 22.7193V22.6993C57.3286 22.7393 57.3386 22.7693 57.3586 22.8093C57.3786 22.8393 57.3886 22.8793 57.4086 22.9193C57.4186 22.9493 57.4386 22.9693 57.4386 22.9893C57.4286 22.9693 57.4186 22.9593 57.4186 22.9393C57.4786 23.0893 57.5286 23.2393 57.5786 23.3993C57.5886 23.4193 57.5986 23.4493 57.5986 23.4693C57.6086 23.4993 57.6186 23.5193 57.6186 23.5393C57.6286 23.5693 57.6386 23.5893 57.6386 23.6093C57.6486 23.6493 57.6586 23.6893 57.6586 23.6893L57.5486 23.6593C58.4986 27.7693 54.5786 32.9993 48.8086 35.3293C47.4286 35.8893 46.0586 36.2293 44.7686 36.3693L42.2186 39.5593L41.9286 36.3393C39.2086 35.9493 37.1786 34.4693 36.6386 32.1093C36.6286 32.0893 36.6286 32.0693 36.6286 32.0493C36.5986 31.9493 36.5986 31.9293 36.5986 31.9093C36.5686 31.7493 36.5686 31.7293 36.5686 31.7093C36.5386 31.5893 36.5386 31.5493 36.5386 31.5093C36.5286 31.4093 36.5286 31.3893 36.5286 31.3693C36.5286 31.3393 36.5286 31.3193 36.5286 31.2993C36.4886 30.8693 36.5086 30.4293 36.5686 29.9793C36.5686 29.9993 36.5686 30.0093 36.5686 30.0293C36.5786 29.9993 36.5886 29.9593 36.5886 29.9293C36.5986 29.8693 36.6086 29.8093 36.6186 29.7493C36.6286 29.7193 36.6386 29.6793 36.6386 29.6393C36.6386 29.6493 36.6386 29.6593 36.6386 29.6693C36.6486 29.6493 36.6486 29.6193 36.6486 29.5993C36.6486 29.6093 36.6486 29.6293 36.6486 29.6393C36.6586 29.6093 36.6686 29.5893 36.6686 29.5593C36.6686 29.5193 36.6886 29.4893 36.6886 29.4493C36.7086 29.3993 36.7186 29.3393 36.7286 29.2893C36.7386 29.2693 36.7486 29.2393 36.7486 29.2193C36.7586 29.1793 36.7786 29.1493 36.7786 29.1093C36.7786 29.1193 36.7786 29.1293 36.7786 29.1393C36.7886 29.1293 36.7886 29.1093 36.7886 29.0993C36.8086 29.0193 36.8286 28.9293 36.8586 28.8493C36.8686 28.8093 36.8786 28.7793 36.8886 28.7393C36.8986 28.7193 36.8986 28.7093 36.8986 28.6893C36.8986 28.6993 36.8986 28.7093 36.8986 28.7093C36.9086 28.6993 36.9186 28.6793 36.9186 28.6593C36.9086 28.6793 36.9086 28.6893 36.9086 28.6993C36.9186 28.6393 36.9386 28.5893 36.9586 28.5393C36.9686 28.4993 36.9886 28.4593 36.9986 28.4193C37.0286 28.3593 37.0486 28.2993 37.0686 28.2393C37.0786 28.2093 37.0986 28.1793 37.1086 28.1393C37.1486 28.0493 37.1786 27.9693 37.2186 27.8793C37.2186 27.8893 37.2186 27.8993 37.2186 27.8993C37.2386 27.8593 37.2486 27.8193 37.2686 27.7893C37.2686 27.7793 37.2686 27.7793 37.2686 27.7793C37.2786 27.7493 37.2986 27.7193 37.3086 27.6893C37.3386 27.6293 37.3686 27.5593 37.3986 27.4993C37.4086 27.4793 37.4186 27.4593 37.4286 27.4393C37.4386 27.4293 37.4586 27.4093 37.4586 27.3893C37.4586 27.3993 37.4586 27.4093 37.4586 27.4093C37.4686 27.3993 37.4786 27.3893 37.4786 27.3793C37.4786 27.3893 37.4786 27.3993 37.4786 27.3993C37.5086 27.3393 37.5386 27.2793 37.5686 27.2193C37.5886 27.1893 37.5986 27.1693 37.6086 27.1493C37.6386 27.0993 37.6586 27.0493 37.6886 26.9993C37.6886 27.0093 37.6686 27.0293 37.6686 27.0393C37.6786 27.0193 37.6986 26.9993 37.7086 26.9693C37.6986 26.9793 37.6986 26.9893 37.6986 26.9893C37.7386 26.9093 37.7886 26.8193 37.8386 26.7393C37.8586 26.7193 37.8686 26.6993 37.8786 26.6793C37.9286 26.6093 37.9686 26.5493 38.0086 26.4793C38.0186 26.4593 38.0386 26.4293 38.0586 26.3993C38.0986 26.3393 38.1386 26.2693 38.1886 26.1993C38.1886 26.1893 38.2086 26.1793 38.2086 26.1693C38.2186 26.1493 38.2286 26.1393 38.2386 26.1193C38.2286 26.1293 38.2086 26.1493 38.2086 26.1593C38.2186 26.1393 38.2386 26.1193 38.2486 26.0993C38.3286 25.9793 38.4086 25.8593 38.4986 25.7393C38.5086 25.7293 38.5186 25.7193 38.5186 25.7093C38.5086 25.7193 38.4986 25.7293 38.4986 25.7293C38.5086 25.7193 38.5286 25.6993 38.5286 25.6893C38.5386 25.6793 38.5486 25.6593 38.5486 25.6593C38.5986 25.5993 38.6586 25.5293 38.7086 25.4593C38.7286 25.4393 38.7486 25.4093 38.7686 25.3893C38.8186 25.3293 38.8686 25.2593 38.9286 25.1893C38.9286 25.1793 38.9486 25.1593 38.9486 25.1593C39.0586 25.0193 39.1886 24.8793 39.3086 24.7393C39.3186 24.7293 39.3386 24.7093 39.3486 24.6993C39.4086 24.6393 39.4686 24.5693 39.5286 24.5093C39.5386 24.4993 39.5486 24.4893 39.5486 24.4893C39.5686 24.4693 39.5786 24.4593 39.5986 24.4393C39.6586 24.3693 39.7186 24.3093 39.7786 24.2493C39.7886 24.2393 39.8086 24.2193 39.8286 24.1993C39.8586 24.1693 39.8786 24.1493 39.9086 24.1193C39.8986 24.1293 39.8886 24.1393 39.8886 24.1393C39.9186 24.1093 39.9386 24.0893 39.9586 24.0693C39.9486 24.0793 39.9386 24.0893 39.9386 24.0893C40.0186 24.0093 40.1086 23.9293 40.1886 23.8493C40.2186 23.8193 40.2486 23.7993 40.2786 23.7693C40.3286 23.7193 40.3886 23.6593 40.4486 23.6093C40.4886 23.5693 40.5286 23.5393 40.5686 23.4993C40.6286 23.4493 40.6786 23.3993 40.7386 23.3493C40.7486 23.3393 40.7586 23.3293 40.7586 23.3293C42.0886 22.1793 43.6886 21.1893 45.4686 20.4693C49.4386 18.8593 53.2486 19.0493 55.5486 20.6493C55.6486 20.7193 55.7486 20.7893 55.8486 20.8693C55.8586 20.8793 55.8786 20.8893 55.8786 20.8893C55.8886 20.8993 55.8986 20.9093 55.8986 20.9093C55.9586 20.9593 56.0186 21.0093 56.0786 21.0593C56.0986 21.0693 56.1186 21.0893 56.1386 21.1093C56.1586 21.1293 56.1686 21.1393 56.1886 21.1593C56.1786 21.1493 56.1586 21.1293 56.1586 21.1293C56.1686 21.1493 56.1886 21.1593 56.2086 21.1793C56.1986 21.1793 56.1786 21.1593 56.1786 21.1593C56.2186 21.1893 56.2486 21.2293 56.2886 21.2593C56.3086 21.2693 56.3186 21.2893 56.3286 21.2993C56.3386 21.3193 56.3586 21.3293 56.3686 21.3493C56.4086 21.3893 56.4486 21.4293 56.4886 21.4693C56.5086 21.4993 56.5286 21.5293 56.5586 21.5593C56.5986 21.6093 56.6486 21.6693 56.6886 21.7193C56.7186 21.7493 56.7486 21.7893 56.7686 21.8193C56.8086 21.8793 56.8486 21.9293 56.8886 21.9893C56.9086 22.0193 56.9286 22.0493 56.9486 22.0793C56.9386 22.0693 56.9186 22.0493 56.9186 22.0393C56.9286 22.0593 56.9486 22.0693 56.9486 22.0893C56.9586 22.0993 56.9586 22.1093 56.9586 22.1093C56.9886 22.1493 57.0086 22.1993 57.0386 22.2393C57.0586 22.2693 57.0786 22.2993 57.0986 22.3293ZM57.0986 22.3293C57.0986 22.3293 57.0986 22.3093 57.0886 22.3093C57.0886 22.3093 57.0886 22.3193 57.0986 22.3293Z" stroke="black" stroke-linecap="round" stroke-linejoin="round"/>
<path d="M50.7797 25.4694C51.3597 25.2394 51.9397 25.5294 52.0797 26.1294C52.0897 26.1894 52.0997 26.2494 52.1097 26.3094C52.1497 26.8594 51.7997 27.4194 51.2797 27.6294C50.9197 27.7694 50.5697 27.7194 50.3097 27.5194C50.1497 27.3894 50.0297 27.1994 49.9797 26.9694C49.8497 26.3794 50.2097 25.7094 50.7797 25.4694Z" fill="#079EDE" stroke="black" stroke-linecap="round" stroke-linejoin="round"/>
<path d="M47.5201 26.7604C48.1101 26.5304 48.6901 26.8204 48.8201 27.4204C48.8801 27.7004 48.8401 27.9904 48.7101 28.2504C48.5701 28.5404 48.3201 28.7904 48.0101 28.9204C47.6301 29.0704 47.2601 29.0004 47.0101 28.7804C46.8701 28.6504 46.7601 28.4804 46.7101 28.2604C46.5801 27.6604 46.9401 27.0004 47.5201 26.7604Z" fill="#079EDE" stroke="black" stroke-linecap="round" stroke-linejoin="round"/>
<path d="M44.2491 28.0592C44.8391 27.8292 45.4191 28.1192 45.5491 28.7192C45.5691 28.7992 45.5791 28.8892 45.5791 28.9692C45.5791 29.4892 45.2391 30.0092 44.7491 30.2092C44.1591 30.4392 43.5791 30.1492 43.4491 29.5492C43.3791 29.2392 43.4491 28.9092 43.5991 28.6292C43.7491 28.3692 43.9691 28.1592 44.2491 28.0492V28.0592Z" fill="#079EDE" stroke="black" stroke-linecap="round" stroke-linejoin="round"/>
</g>
<defs>
<clipPath id="clip0_93_10756">
<rect width="64" height="64" fill="white"/>
</clipPath>
</defs>
</svg>
