<svg width="64" height="64" viewBox="0 0 64 64" fill="none" xmlns="http://www.w3.org/2000/svg">
<g clip-path="url(#clip0_93_11434)">
<path d="M22.9402 25.57L21.2002 24.56L21.1602 12.5L22.9002 13.51L22.9402 25.57Z" fill="#878787" stroke="black" stroke-linecap="round" stroke-linejoin="round"/>
<path d="M22.9002 13.5103L21.1602 12.5003L41.8302 0.570312L43.5702 1.58031L22.9002 13.5103Z" fill="#878787" stroke="black" stroke-linecap="round" stroke-linejoin="round"/>
<path d="M43.5704 1.58008L43.6004 13.6401L22.9404 25.5701L22.9004 13.5101L43.5704 1.58008Z" fill="#878787" stroke="black" stroke-linecap="round" stroke-linejoin="round"/>
<path d="M22.9402 41.9491L21.2002 40.9391L21.1602 28.8691L22.9002 29.8791L22.9402 41.9491Z" fill="white" stroke="black" stroke-linecap="round" stroke-linejoin="round"/>
<path d="M22.9002 29.8795L21.1602 28.8695L41.8302 16.9395L43.5702 17.9495L22.9002 29.8795Z" fill="white" stroke="black" stroke-linecap="round" stroke-linejoin="round"/>
<path d="M43.5704 17.9492L43.6004 30.0192L22.9404 41.9492L22.9004 29.8792L43.5704 17.9492Z" fill="white" stroke="black" stroke-linecap="round" stroke-linejoin="round"/>
<path d="M22.9402 58.8691L21.2002 57.8591L21.1602 45.7891L22.9002 46.7991L22.9402 58.8691Z" fill="white" stroke="black" stroke-linecap="round" stroke-linejoin="round"/>
<path d="M22.9002 46.7994L21.1602 45.7894L41.8302 33.8594L43.5702 34.8694L22.9002 46.7994Z" fill="white" stroke="black" stroke-linecap="round" stroke-linejoin="round"/>
<path d="M43.5704 34.8691L43.6004 46.9391L22.9404 58.8691L22.9004 46.7991L43.5704 34.8691Z" fill="white" stroke="black" stroke-linecap="round" stroke-linejoin="round"/>
</g>
<defs>
<clipPath id="clip0_93_11434">
<rect width="64" height="64" fill="white"/>
</clipPath>
</defs>
</svg>
