<svg width="64" height="64" viewBox="0 0 64 64" fill="none" xmlns="http://www.w3.org/2000/svg">
<g clip-path="url(#clip0_93_12136)">
<path d="M38.3369 48.7195L36.0469 47.3895C44.0269 42.6095 50.4569 31.4095 50.4769 22.1895L52.7669 23.5195C52.7469 32.7395 46.3169 43.9495 38.3369 48.7195Z" fill="#878787" stroke="black" stroke-linecap="round" stroke-linejoin="round"/>
<path d="M52.7666 23.5096L50.4766 22.1796C51.2366 21.7396 51.9966 21.2996 52.7766 20.8496L55.0666 22.1796C54.2766 22.6296 53.5166 23.0696 52.7666 23.5096Z" fill="#878787"/>
<mask id="mask0_93_12136" style="mask-type:luminance" maskUnits="userSpaceOnUse" x="50" y="20" width="6" height="4">
<path d="M52.7666 23.5096L50.4766 22.1796C51.2366 21.7396 51.9966 21.2996 52.7766 20.8496L55.0666 22.1796C54.2766 22.6296 53.5166 23.0696 52.7666 23.5096Z" fill="white"/>
</mask>
<g mask="url(#mask0_93_12136)">
<path d="M52.7666 23.5096L50.4766 22.1796C51.2366 21.7396 51.9966 21.2996 52.7766 20.8496L55.0666 22.1796C54.2766 22.6296 53.5166 23.0696 52.7666 23.5096Z" fill="white" stroke="black" stroke-linecap="round" stroke-linejoin="round"/>
</g>
<path d="M52.7666 23.5096L50.4766 22.1796C51.2366 21.7396 51.9966 21.2996 52.7766 20.8496L55.0666 22.1796C54.2766 22.6296 53.5166 23.0696 52.7666 23.5096Z" stroke="black" stroke-linecap="round" stroke-linejoin="round"/>
<path d="M34.997 51.9187L32.707 50.5887L36.047 45.4688L38.327 46.7987L34.997 51.9187Z" fill="#878787" stroke="black" stroke-linecap="round" stroke-linejoin="round"/>
<path d="M55.07 22.1797C55.2 22.2697 55.29 22.2897 55.45 22.3897C55.23 32.9897 47.46 45.9197 38.34 51.3497V53.1797L35.38 52.1297L35 51.9197L38.33 46.7997L38.71 47.0097L38.34 48.7197C46.32 43.9397 52.75 32.7397 52.77 23.5197C53.53 23.0797 54.29 22.6397 55.07 22.1897V22.1797Z" fill="#878787" stroke="black" stroke-linecap="round" stroke-linejoin="round"/>
<path d="M27.5673 12.8594L25.2873 11.5294L25.2773 9.60938L27.5673 10.9294V12.8594Z" fill="white" stroke="black" stroke-linecap="round" stroke-linejoin="round"/>
<path d="M27.5595 6.46867L25.2695 5.13867L28.6195 6.39867L30.9095 7.72867L27.5595 6.46867Z" fill="white" stroke="black" stroke-linecap="round" stroke-linejoin="round"/>
<path d="M27.5595 8.28867L25.2795 6.96867L25.2695 5.13867L27.5595 6.46867V8.28867Z" fill="#878787" stroke="black" stroke-linecap="round" stroke-linejoin="round"/>
<path d="M10.8291 37.4688L8.53906 36.1388C8.55906 25.4587 16.0191 12.4688 25.2691 6.96875L27.5591 8.29875C18.3091 13.8088 10.8591 26.7888 10.8291 37.4688Z" fill="#878787" stroke="black" stroke-linecap="round" stroke-linejoin="round"/>
<path d="M27.5581 6.46875L30.9081 7.72875L27.9781 12.9488L27.5681 12.8587V10.9387C19.5781 15.7188 13.1481 26.9188 13.1281 36.1488C12.4781 36.5188 11.2381 37.5688 11.2381 37.5688C11.2381 37.5688 10.9781 37.5088 10.8281 37.4788C10.8481 26.7987 18.3081 13.8088 27.5581 8.30875V6.47875V6.46875Z" fill="#878787" stroke="black" stroke-linecap="round" stroke-linejoin="round"/>
<path d="M27.1578 34.3387C27.1578 36.9387 25.0578 39.0387 22.4578 39.0387C19.8578 39.0387 17.7578 36.9387 17.7578 34.3387C17.7578 31.7387 19.8578 29.6387 22.4578 29.6387C25.0578 29.6387 27.1578 31.7387 27.1578 34.3387Z" fill="white" stroke="black" stroke-linecap="round" stroke-linejoin="round"/>
<path d="M34.5086 41.0992C36.8282 41.0992 38.7086 39.2188 38.7086 36.8992C38.7086 34.5796 36.8282 32.6992 34.5086 32.6992C32.189 32.6992 30.3086 34.5796 30.3086 36.8992C30.3086 39.2188 32.189 41.0992 34.5086 41.0992Z" fill="#878787" stroke="black" stroke-linecap="round" stroke-linejoin="round"/>
<path d="M45.5484 13.6687C45.5484 15.8488 43.7784 17.6188 41.5984 17.6188C39.4184 17.6188 37.6484 15.8488 37.6484 13.6687C37.6484 11.4887 39.4184 9.71875 41.5984 9.71875C43.7784 9.71875 45.5484 11.4887 45.5484 13.6687Z" fill="white" stroke="black" stroke-linecap="round" stroke-linejoin="round"/>
</g>
<defs>
<clipPath id="clip0_93_12136">
<rect width="64" height="64" fill="white"/>
</clipPath>
</defs>
</svg>
