<svg width="64" height="64" viewBox="0 0 64 64" fill="none" xmlns="http://www.w3.org/2000/svg">
<g clip-path="url(#clip0_93_10741)">
<path d="M48.8417 35.5897C52.4758 35.5897 55.4217 32.6437 55.4217 29.0097C55.4217 25.3757 52.4758 22.4297 48.8417 22.4297C45.2077 22.4297 42.2617 25.3757 42.2617 29.0097C42.2617 32.6437 45.2077 35.5897 48.8417 35.5897Z" fill="#079EDE" stroke="black" stroke-linecap="round" stroke-linejoin="round"/>
<path d="M32.2188 30.7195C32.2188 30.7195 33.3487 41.6995 33.4587 45.5295C33.6787 52.8095 44.7887 53.3695 49.7987 45.9195C50.7487 44.4995 50.9987 42.6895 50.3587 41.1095C46.8787 32.5695 47.0788 26.2595 48.1488 22.2995C37.1888 20.3095 32.2287 30.7295 32.2287 30.7295L32.2188 30.7195Z" fill="white" stroke="black" stroke-linecap="round" stroke-linejoin="round"/>
<path d="M22.2391 8.60913C26.9591 2.68913 39.6291 -2.65087 47.9491 7.52913C58.0191 19.8491 47.0091 32.9991 47.0091 32.9991C45.9891 37.3491 45.3891 38.6691 32.5791 44.5391C30.2291 45.6191 27.7691 44.5991 26.3991 42.2191C22.1191 34.7791 19.9091 23.5391 19.0391 14.8791C21.0791 11.6691 19.8891 11.5491 22.2291 8.60913H22.2391Z" fill="white" stroke="black" stroke-linecap="round" stroke-linejoin="round"/>
<path d="M47.0212 33.0008C47.0212 33.0008 48.0312 28.2608 42.6912 21.1808C40.5112 18.2808 37.2812 22.1908 29.2612 20.9408C25.9212 20.4208 20.1512 18.6008 19.4112 16.4808C18.3712 13.5108 19.1612 8.61079 21.6512 6.32079C25.9312 2.40079 34.4012 -2.12921 43.6412 2.58079C55.7612 8.76079 56.3411 26.3808 47.0112 33.0008H47.0212Z" fill="#079EDE" stroke="black" stroke-linecap="round" stroke-linejoin="round"/>
<path d="M46.7919 31.6409C46.7919 31.6409 50.6019 25.3109 48.4019 22.2109C46.2019 19.1109 42.9219 22.6109 42.9219 22.6109L46.7819 31.6409H46.7919Z" fill="white" stroke="black" stroke-linecap="round" stroke-linejoin="round"/>
<path d="M15.6086 45.8102L10.5586 42.8902L10.5786 36.9902L12.3586 38.0202L12.3486 41.8802L15.6186 43.7702L15.6086 45.8102Z" fill="#079EDE" stroke="black" stroke-linecap="round" stroke-linejoin="round"/>
<path d="M36.8314 58.57L31.6914 55.6V53.56L35.0614 55.5L35.0714 51.75L36.8514 52.77L36.8314 58.57Z" fill="#079EDE" stroke="black" stroke-linecap="round" stroke-linejoin="round"/>
<path d="M36.8408 31.83L35.0608 30.81L35.0808 26.94L31.8008 25.05L31.8108 23L36.8608 25.92L36.8408 31.83Z" fill="#079EDE" stroke="black" stroke-linecap="round" stroke-linejoin="round"/>
<path d="M12.3503 17.0802L10.5703 16.0502L10.5803 10.2402L15.7303 13.2102V15.2602L12.3603 13.3102L12.3503 17.0802Z" fill="#079EDE" stroke="black" stroke-linecap="round" stroke-linejoin="round"/>
</g>
<defs>
<clipPath id="clip0_93_10741">
<rect width="64" height="64" fill="white"/>
</clipPath>
</defs>
</svg>
