<svg width="64" height="64" viewBox="0 0 64 64" fill="none" xmlns="http://www.w3.org/2000/svg">
<g clip-path="url(#clip0_93_12494)">
<path d="M42.7311 3.23945V48.2995C42.7311 49.7095 41.7811 49.9695 41.7811 49.9695L21.2411 58.5395C19.5311 58.8295 19.7211 57.2095 19.7211 57.2095V12.6895C19.7211 11.0895 20.7711 10.8595 20.7711 10.8595L41.2011 2.39945C41.2011 2.39945 42.7211 1.55945 42.7211 3.23945H42.7311Z" fill="white" stroke="black" stroke-linecap="round" stroke-linejoin="round"/>
<path d="M17.7494 56.7102L20.3694 58.4802C19.7694 58.2902 19.7294 57.4902 19.7294 57.4902L19.7094 12.7602L17.4994 11.2402V56.1202C17.4994 56.1202 17.4494 56.5202 17.7394 56.7102H17.7494Z" fill="#878787" stroke="black" stroke-linecap="round" stroke-linejoin="round"/>
<path d="M20.4617 11.0093C20.4617 11.0093 19.7117 11.3993 19.7217 12.7593L17.5117 11.2593C17.5117 10.2693 18.0017 9.7493 18.3017 9.5293L20.4617 11.0193V11.0093Z" fill="white" stroke="black" stroke-linecap="round" stroke-linejoin="round"/>
<path d="M18.2817 9.53942C18.4017 9.43942 18.5217 9.38942 18.5217 9.38942L38.9817 0.859418C38.9817 0.859418 40.0717 0.229418 40.8217 0.829418L42.2217 1.77942C42.2217 1.77942 42.7217 2.04942 42.6817 2.82942C42.6817 2.82942 42.5417 1.95942 41.1917 2.40942L20.4517 11.0194L18.2617 9.54942L18.2817 9.53942Z" fill="#878787" stroke="black" stroke-linecap="round" stroke-linejoin="round"/>
<path d="M27.7383 10.4198V11.3398L32.8683 9.13977V8.25977L27.7383 10.4198Z" fill="white" stroke="black" stroke-linecap="round" stroke-linejoin="round"/>
<path d="M34.8389 7.71917C35.0189 7.89917 34.9589 8.24917 34.7689 8.40917C34.7089 8.45917 34.6189 8.50917 34.5389 8.51917C34.3189 8.53917 34.1289 8.34917 34.1289 8.11917C34.1289 7.96917 34.1789 7.82917 34.2889 7.73917C34.3989 7.63917 34.5689 7.57917 34.7189 7.63917C34.7689 7.65917 34.8089 7.68917 34.8389 7.71917Z" fill="white" stroke="black" stroke-linecap="round" stroke-linejoin="round"/>
</g>
<defs>
<clipPath id="clip0_93_12494">
<rect width="64" height="64" fill="white"/>
</clipPath>
</defs>
</svg>
