<svg width="64" height="64" viewBox="0 0 64 64" fill="none" xmlns="http://www.w3.org/2000/svg">
<g clip-path="url(#clip0_93_11940)">
<path d="M36.9192 51.1302L29.6992 46.6602C30.9792 47.4502 31.3892 48.9202 31.0792 51.3002L38.2992 55.7702C38.6092 53.3902 38.1992 51.9202 36.9192 51.1302Z" fill="#878787" stroke="black" stroke-linecap="round" stroke-linejoin="round"/>
<path d="M51.2394 30.2205C51.3594 30.1405 51.4894 30.0505 51.6194 29.9505C51.6194 29.9505 51.6194 29.9505 51.6294 29.9405C51.6494 29.9305 51.6594 29.9105 51.6794 29.9005C51.7894 29.8205 51.8994 29.7305 52.0094 29.6405C52.0494 29.6105 52.0794 29.5805 52.1194 29.5505C52.2494 29.4405 52.3894 29.3205 52.5194 29.2005L45.2994 24.7305C45.1594 24.8505 45.0294 24.9705 44.8994 25.0805C44.8594 25.1105 44.8294 25.1405 44.7894 25.1705C44.6794 25.2605 44.5694 25.3505 44.4594 25.4305C44.4394 25.4505 44.4194 25.4605 44.3994 25.4805C44.2694 25.5805 44.1494 25.6605 44.0194 25.7505C43.9894 25.7705 43.9594 25.7905 43.9294 25.8105C43.8294 25.8805 43.7194 25.9405 43.6194 26.0005C43.5894 26.0205 43.5694 26.0305 43.5394 26.0505C43.4694 26.0905 43.3994 26.1205 43.3294 26.1605C43.2994 26.1705 43.2694 26.1905 43.2394 26.2105C43.1394 26.2605 43.0494 26.3005 42.9494 26.3405C42.8494 26.3805 42.7494 26.4105 42.6494 26.4405C42.5794 26.4605 42.5194 26.4805 42.4494 26.5005C42.3894 26.5205 42.3294 26.5305 42.2694 26.5405C42.1994 26.5505 42.1394 26.5605 42.0694 26.5705C42.0094 26.5705 41.9494 26.5905 41.8994 26.5905C41.8294 26.5905 41.7694 26.5905 41.7094 26.5905C41.6494 26.5905 41.5994 26.5905 41.5394 26.5905C41.4794 26.5905 41.4094 26.5805 41.3494 26.5705C41.2894 26.5705 41.2394 26.5605 41.1794 26.5505C41.1294 26.5505 41.0794 26.5305 41.0394 26.5205C40.9794 26.5005 40.9094 26.4905 40.8494 26.4705C40.7994 26.4505 40.7594 26.4405 40.7094 26.4205C40.6394 26.3905 40.5694 26.3705 40.4994 26.3305C40.4694 26.3205 40.4394 26.3005 40.4094 26.2905C40.3094 26.2405 40.2094 26.1905 40.1094 26.1205L47.3294 30.5905C47.4294 30.6505 47.5294 30.7105 47.6394 30.7605C47.6694 30.7805 47.6994 30.7905 47.7294 30.8005C47.7694 30.8205 47.8094 30.8405 47.8494 30.8505C47.8794 30.8605 47.9094 30.8705 47.9394 30.8805C47.9894 30.9005 48.0294 30.9105 48.0794 30.9305C48.1394 30.9505 48.2094 30.9705 48.2694 30.9805C48.3194 30.9905 48.3594 31.0005 48.4094 31.0105C48.4294 31.0105 48.4494 31.0205 48.4694 31.0205C48.5094 31.0205 48.5494 31.0205 48.5894 31.0305C48.6494 31.0305 48.7094 31.0405 48.7794 31.0505C48.8394 31.0505 48.8894 31.0505 48.9494 31.0505C49.0094 31.0505 49.0794 31.0505 49.1394 31.0505C49.1994 31.0505 49.2594 31.0405 49.3194 31.0305C49.3794 31.0305 49.4494 31.0105 49.5194 31.0005C49.5794 30.9905 49.6394 30.9705 49.6994 30.9605C49.7694 30.9405 49.8294 30.9305 49.8994 30.9005C49.9294 30.9005 49.9494 30.8905 49.9794 30.8805C50.0494 30.8605 50.1294 30.8305 50.1994 30.8005C50.2994 30.7605 50.3894 30.7205 50.4894 30.6705C50.5194 30.6505 50.5594 30.6405 50.5894 30.6205C50.6494 30.5905 50.7194 30.5505 50.7894 30.5205C50.7994 30.5205 50.8094 30.5105 50.8194 30.5005C50.8394 30.4905 50.8594 30.4805 50.8794 30.4605C50.9794 30.4005 51.0794 30.3405 51.1794 30.2805C51.2094 30.2605 51.2394 30.2405 51.2694 30.2205H51.2394Z" fill="#878787" stroke="black" stroke-linecap="round" stroke-linejoin="round"/>
<path d="M27.9519 35.7198C27.9519 35.7198 27.9719 35.7698 27.9919 35.7998C28.0619 35.9298 28.1219 36.0598 28.1719 36.1898C28.1719 36.2098 28.1919 36.2298 28.1919 36.2398C28.2519 36.3798 28.2919 36.5098 28.3419 36.6498C28.3419 36.6798 28.3619 36.7098 28.3719 36.7398C28.4119 36.8798 28.4419 37.0098 28.4719 37.1398C28.4719 37.1598 28.4719 37.1698 28.4719 37.1898C28.4919 37.3198 28.5119 37.4398 28.5219 37.5598C28.5219 37.5798 28.5219 37.6098 28.5219 37.6298C28.5219 37.7598 28.5319 37.8898 28.5219 38.0198C28.5219 38.0498 28.5219 38.0698 28.5219 38.0998C28.5219 38.2298 28.5019 38.3598 28.4819 38.4898C28.4619 38.6198 28.4319 38.7498 28.3919 38.8898C28.3919 38.9198 28.3819 38.9398 28.3719 38.9698C28.3319 39.0998 28.2919 39.2198 28.2419 39.3498C28.2319 39.3798 28.2119 39.4098 28.2019 39.4398C28.1619 39.5498 28.1119 39.6498 28.0519 39.7598C28.0319 39.7898 28.0219 39.8298 28.0019 39.8598C27.9319 39.9898 27.8619 40.1198 27.7719 40.2498C27.7619 40.2698 27.7419 40.2998 27.7219 40.3198C27.6519 40.4298 27.5719 40.5398 27.4919 40.6498C27.4619 40.6998 27.4219 40.7398 27.3919 40.7898C27.3119 40.8998 27.2219 40.9998 27.1319 41.1098C27.1019 41.1398 27.0819 41.1698 27.0519 41.2098C26.9619 41.3098 26.8719 41.4098 26.7819 41.5098C26.7319 41.5598 26.6919 41.6098 26.6419 41.6598C26.4919 41.8098 26.3419 41.9698 26.1719 42.1198L33.3919 46.5898C33.5519 46.4298 33.7119 46.2798 33.8619 46.1298C33.9119 46.0798 33.9519 46.0298 34.0019 45.9798C34.0819 45.8898 34.1719 45.7998 34.2519 45.7098C34.2519 45.7098 34.2619 45.6898 34.2719 45.6798C34.3019 45.6498 34.3219 45.6198 34.3519 45.5898C34.4419 45.4798 34.5319 45.3698 34.6119 45.2698C34.6419 45.2298 34.6819 45.1798 34.7119 45.1398C34.7419 45.0998 34.7719 45.0598 34.8019 45.0198C34.8519 44.9498 34.9019 44.8798 34.9419 44.8098C34.9519 44.7898 34.9719 44.7698 34.9819 44.7498C35.0519 44.6398 35.1119 44.5298 35.1719 44.4198C35.1819 44.3998 35.1919 44.3798 35.2019 44.3498C35.2219 44.3198 35.2319 44.2798 35.2519 44.2498C35.3019 44.1398 35.3519 44.0298 35.4019 43.9198C35.4119 43.8898 35.4219 43.8598 35.4419 43.8398C35.4419 43.8298 35.4519 43.8098 35.4619 43.7998C35.5019 43.6898 35.5419 43.5698 35.5719 43.4598C35.5719 43.4298 35.5819 43.4098 35.5919 43.3798C35.6319 43.2498 35.6619 43.1098 35.6819 42.9798C35.7019 42.8498 35.7119 42.7098 35.7219 42.5798C35.7219 42.5498 35.7219 42.5298 35.7219 42.4998C35.7219 42.3698 35.7219 42.2398 35.7219 42.1098C35.7219 42.0898 35.7219 42.0598 35.7219 42.0398C35.7119 41.9198 35.6919 41.7898 35.6719 41.6698C35.6719 41.6498 35.6719 41.6398 35.6719 41.6198C35.6419 41.4898 35.6119 41.3498 35.5719 41.2198C35.5719 41.1898 35.5519 41.1598 35.5419 41.1298C35.5019 40.9898 35.4519 40.8598 35.3919 40.7198C35.3919 40.6998 35.3719 40.6798 35.3719 40.6698C35.3219 40.5398 35.2619 40.4098 35.1919 40.2798C35.1819 40.2498 35.1719 40.2298 35.1519 40.1998C35.0819 40.0598 35.0019 39.9198 34.9119 39.7698C34.8919 39.7398 34.8719 39.7098 34.8519 39.6798C34.7619 39.5298 34.6719 39.3798 34.5619 39.2298L27.3419 34.7598C27.4419 34.9098 27.5419 35.0598 27.6319 35.2098C27.6519 35.2398 27.6719 35.2698 27.6819 35.2998C27.7719 35.4398 27.8419 35.5898 27.9219 35.7298L27.9519 35.7198Z" fill="#878787" stroke="black" stroke-linecap="round" stroke-linejoin="round"/>
<path d="M41.7208 32.0101C41.7508 31.9201 41.7808 31.8201 41.8108 31.7201C41.8308 31.6601 41.8408 31.6101 41.8608 31.5501C41.8908 31.4401 41.9108 31.3301 41.9408 31.2201C41.9508 31.1701 41.9608 31.1201 41.9808 31.0601C42.0208 30.8901 42.0508 30.7201 42.0808 30.5501L34.8608 26.0801C34.8308 26.2601 34.7908 26.4301 34.7608 26.5901C34.7508 26.6401 34.7408 26.7001 34.7208 26.7501C34.6908 26.8601 34.6708 26.9701 34.6408 27.0801C34.6208 27.1401 34.6108 27.2001 34.5908 27.2601C34.5608 27.3601 34.5408 27.4501 34.5108 27.5401C34.4908 27.6001 34.4708 27.6501 34.4608 27.7101C34.4308 27.8001 34.4008 27.8901 34.3708 27.9801C34.3508 28.0301 34.3308 28.0801 34.3108 28.1301C34.2708 28.2301 34.2308 28.3301 34.1908 28.4201C34.1808 28.4501 34.1608 28.4901 34.1508 28.5201C34.0908 28.6401 34.0308 28.7601 33.9708 28.8801C33.9708 28.8901 33.9508 28.9101 33.9508 28.9201C33.8708 29.0601 33.7908 29.2001 33.7008 29.3301C33.6808 29.3601 33.6708 29.3801 33.6508 29.4101C33.5708 29.5201 33.4908 29.6301 33.4008 29.7301C33.3808 29.7501 33.3708 29.7701 33.3508 29.7901C33.2808 29.8701 33.2108 29.9401 33.1408 30.0101C33.1108 30.0401 33.0808 30.0601 33.0508 30.0901C32.9808 30.1501 32.9008 30.2201 32.8308 30.2801C32.8008 30.3001 32.7808 30.3201 32.7508 30.3401C32.6308 30.4301 32.5108 30.5001 32.3908 30.5801C32.3608 30.5901 32.3408 30.6101 32.3108 30.6201C32.1708 30.7001 32.0308 30.7701 31.8708 30.8301C31.7408 30.8801 31.5908 30.9301 31.4508 30.9701C31.3808 30.9901 31.3008 31.0101 31.2208 31.0301C31.1008 31.0601 30.9808 31.0801 30.8608 31.1001C30.7808 31.1101 30.7108 31.1301 30.6308 31.1401C30.4908 31.1601 30.3508 31.1701 30.2008 31.1901C30.1308 31.1901 30.0608 31.2001 29.9908 31.2101C29.7708 31.2201 29.5408 31.2301 29.3008 31.2301L36.5208 35.7001C36.7608 35.7001 36.9908 35.7001 37.2108 35.6801C37.2808 35.6801 37.3508 35.6701 37.4208 35.6601C37.5708 35.6501 37.7108 35.6301 37.8508 35.6101C37.9308 35.6001 38.0108 35.5801 38.0808 35.5701C38.2008 35.5501 38.3208 35.5201 38.4408 35.5001C38.5208 35.4801 38.5908 35.4601 38.6708 35.4401C38.7308 35.4201 38.8008 35.4101 38.8608 35.3901C38.9408 35.3601 39.0208 35.3301 39.0908 35.3001C39.2408 35.2401 39.3908 35.1701 39.5208 35.0901C39.5408 35.0901 39.5508 35.0801 39.5708 35.0701C39.5808 35.0701 39.5908 35.0601 39.6008 35.0501C39.7308 34.9801 39.8508 34.9001 39.9608 34.8101C39.9608 34.8101 39.9808 34.8001 39.9808 34.7901C40.0008 34.7801 40.0208 34.7601 40.0408 34.7401C40.1208 34.6801 40.1908 34.6201 40.2608 34.5601C40.2808 34.5501 40.2908 34.5301 40.3108 34.5201C40.3208 34.5101 40.3308 34.4901 40.3508 34.4801C40.4208 34.4101 40.4908 34.3401 40.5608 34.2601C40.5708 34.2401 40.5908 34.2301 40.6008 34.2201C40.6008 34.2201 40.6008 34.2201 40.6008 34.2101C40.6908 34.1101 40.7708 34.0001 40.8508 33.8901C40.8508 33.8801 40.8608 33.8701 40.8708 33.8601C40.8808 33.8401 40.8908 33.8301 40.9008 33.8101C40.9908 33.6801 41.0708 33.5501 41.1508 33.4101C41.1508 33.4001 41.1608 33.3901 41.1708 33.3801C41.1708 33.3801 41.1708 33.3801 41.1708 33.3701C41.2308 33.2501 41.2908 33.1401 41.3508 33.0101C41.3608 32.9801 41.3808 32.9501 41.3908 32.9201C41.4308 32.8201 41.4808 32.7201 41.5208 32.6201C41.5208 32.6101 41.5308 32.5901 41.5408 32.5801C41.5508 32.5501 41.5608 32.5101 41.5808 32.4801C41.6108 32.3901 41.6508 32.3001 41.6808 32.2001C41.7008 32.1501 41.7208 32.0901 41.7308 32.0401L41.7208 32.0101Z" fill="#878787" stroke="black" stroke-linecap="round" stroke-linejoin="round"/>
<path d="M46.6809 56.0813L39.4609 51.6113C39.9809 51.9413 40.5009 52.4113 41.0309 53.0513L48.2509 57.5213C47.7209 56.8913 47.2009 56.4013 46.6809 56.0813Z" fill="#878787" stroke="black" stroke-linecap="round" stroke-linejoin="round"/>
<path d="M57.9619 35.8104C58.1219 35.8504 58.2919 35.8904 58.4619 35.9204C58.4619 35.9204 58.4619 35.9204 58.4719 35.9204C58.4819 35.9204 58.5019 35.9204 58.5219 35.9204C58.6719 35.9404 58.8219 35.9604 58.9719 35.9804C59.0219 35.9804 59.0619 35.9804 59.1119 35.9904C59.2919 36.0004 59.4719 36.0204 59.6619 36.0204L52.4419 31.5504C52.2519 31.5504 52.0619 31.5304 51.8819 31.5204C51.8319 31.5204 51.7919 31.5204 51.7419 31.5104C51.5819 31.4904 51.4319 31.4804 51.2919 31.4504C51.2719 31.4504 51.2519 31.4504 51.2319 31.4504C51.0519 31.4204 50.8919 31.3804 50.7319 31.3404C50.7019 31.3404 50.6619 31.3204 50.6319 31.3104C50.4819 31.2704 50.3319 31.2204 50.1919 31.1604C50.1319 31.1404 50.0719 31.1104 50.0119 31.0804C49.9819 31.0704 49.9519 31.0504 49.9219 31.0404C49.8319 31.0004 49.7519 30.9504 49.6719 30.9004L56.8919 35.3704C56.9719 35.4204 57.0519 35.4604 57.1319 35.5104C57.1619 35.5204 57.1919 35.5404 57.2219 35.5504C57.2719 35.5704 57.3319 35.6004 57.3819 35.6204C57.3819 35.6204 57.3919 35.6204 57.4019 35.6204C57.5419 35.6804 57.6919 35.7204 57.8419 35.7704C57.8719 35.7804 57.9119 35.7904 57.9419 35.8004L57.9619 35.8104Z" fill="#878787" stroke="black" stroke-linecap="round" stroke-linejoin="round"/>
<path d="M53.9117 44.7004C53.9617 44.5304 54.0117 44.3504 54.0517 44.1804C54.0517 44.1504 54.0617 44.1104 54.0717 44.0804C54.1117 43.9104 54.1417 43.7504 54.1717 43.5804C54.1717 43.5604 54.1717 43.5404 54.1817 43.5204C54.2117 43.3404 54.2317 43.1604 54.2517 42.9804C54.2517 42.9404 54.2517 42.9004 54.2617 42.8604C54.2717 42.6804 54.2817 42.5004 54.2917 42.3104C54.2917 42.2904 54.2917 42.2604 54.2917 42.2404C54.2917 42.0704 54.2917 41.9004 54.2817 41.7304C54.2817 41.7004 54.2817 41.6604 54.2817 41.6304C54.2717 41.4504 54.2517 41.2704 54.2217 41.0904C54.2217 41.0504 54.2117 41.0104 54.2017 40.9804C54.1717 40.8004 54.1417 40.6104 54.1017 40.4304C53.6817 38.6204 52.6517 37.2204 51.2917 36.3704C48.8817 34.8804 46.4817 33.3904 44.0717 31.9004C45.4317 32.7404 46.4617 34.1404 46.8817 35.9604C46.9217 36.1404 46.9517 36.3304 46.9817 36.5104C46.9817 36.5504 46.9917 36.5904 47.0017 36.6204C47.0217 36.8004 47.0417 36.9804 47.0617 37.1604C47.0617 37.1904 47.0617 37.2304 47.0617 37.2604C47.0617 37.4304 47.0717 37.6004 47.0717 37.7704C47.0717 37.7904 47.0717 37.8204 47.0717 37.8404C47.0717 38.0204 47.0617 38.2004 47.0417 38.3804C47.0417 38.4204 47.0417 38.4604 47.0317 38.5004C47.0117 38.6804 46.9917 38.8604 46.9617 39.0404C46.9617 39.0604 46.9617 39.0804 46.9517 39.1004C46.9217 39.2704 46.8917 39.4404 46.8517 39.6004C46.8517 39.6304 46.8417 39.6704 46.8317 39.7004C46.7917 39.8804 46.7417 40.0504 46.6917 40.2204C46.6817 40.2604 46.6717 40.2904 46.6617 40.3304C46.6117 40.5004 46.5517 40.6704 46.4817 40.8404C46.4817 40.8404 46.4817 40.8604 46.4817 40.8704C46.4117 41.0504 46.3417 41.2204 46.2617 41.3904C46.2417 41.4304 46.2317 41.4604 46.2117 41.5004C46.1317 41.6704 46.0517 41.8304 45.9617 42.0004C45.9417 42.0404 45.9217 42.0704 45.9017 42.1104C45.8417 42.2204 45.7817 42.3204 45.7217 42.4204C45.7017 42.4604 45.6717 42.5004 45.6417 42.5404C45.5617 42.6704 45.4817 42.8004 45.3917 42.9204C45.3917 42.9204 45.3817 42.9404 45.3717 42.9504C45.2917 43.0704 45.2017 43.1804 45.1117 43.3004C45.0817 43.3404 45.0517 43.3804 45.0217 43.4204C44.9617 43.5004 44.8917 43.5804 44.8217 43.6604C44.7917 43.7004 44.7517 43.7404 44.7117 43.7804C44.6517 43.8504 44.5817 43.9304 44.5117 44.0004C44.4817 44.0404 44.4417 44.0704 44.4117 44.1104C44.3217 44.2004 44.2417 44.2904 44.1517 44.3704C44.1317 44.3904 44.1217 44.4004 44.1017 44.4204C43.9917 44.5204 43.8817 44.6204 43.7617 44.7204C43.7317 44.7504 43.6917 44.7804 43.6617 44.8004C43.5817 44.8704 43.4917 44.9404 43.4117 45.0004C43.3717 45.0304 43.3317 45.0604 43.2917 45.0904C43.1817 45.1704 43.0617 45.2504 42.9517 45.3304C42.9317 45.3404 42.9117 45.3604 42.8817 45.3804C42.7417 45.4704 42.6017 45.5504 42.4617 45.6304C42.4217 45.6504 42.3817 45.6704 42.3417 45.7004C42.2417 45.7604 42.1317 45.8104 42.0317 45.8604C41.9917 45.8804 41.9517 45.9004 41.9017 45.9204C41.7617 45.9904 41.6117 46.0504 41.4617 46.1104C41.3217 46.1704 41.1817 46.2204 41.0517 46.2604C41.0017 46.2804 40.9517 46.2904 40.9017 46.3104C40.8117 46.3404 40.7217 46.3704 40.6417 46.3904C40.5817 46.4104 40.5217 46.4204 40.4717 46.4304C40.3917 46.4504 40.3117 46.4704 40.2317 46.4904C40.1717 46.5004 40.1117 46.5104 40.0517 46.5204C39.9717 46.5304 39.9017 46.5504 39.8217 46.5604C39.7617 46.5604 39.7017 46.5804 39.6317 46.5804C39.5617 46.5804 39.4817 46.6004 39.4117 46.6104C39.3517 46.6104 39.2917 46.6204 39.2217 46.6204C39.1517 46.6204 39.0717 46.6204 39.0017 46.6304C38.9417 46.6304 38.8817 46.6304 38.8117 46.6304C38.7417 46.6304 38.6717 46.6304 38.5917 46.6304C38.5317 46.6304 38.4717 46.6304 38.4117 46.6304C38.3417 46.6304 38.2717 46.6304 38.2017 46.6204C38.1417 46.6204 38.0817 46.6104 38.0217 46.6004C37.9517 46.6004 37.8817 46.5804 37.8117 46.5704C37.7517 46.5704 37.6917 46.5504 37.6317 46.5404C37.5817 46.5404 37.5217 46.5204 37.4717 46.5104C37.4017 46.5004 37.3417 46.4804 37.2817 46.4704C37.2317 46.4604 37.1717 46.4404 37.1217 46.4304C37.0617 46.4104 36.9917 46.3904 36.9317 46.3804C36.8817 46.3604 36.8317 46.3504 36.7817 46.3304C36.7217 46.3104 36.6517 46.2904 36.5917 46.2604C36.5417 46.2404 36.4917 46.2204 36.4417 46.2004C36.4017 46.1804 36.3617 46.1704 36.3217 46.1504C36.2217 46.1104 36.1117 46.0604 36.0117 46.0104C35.9717 45.9904 35.9317 45.9704 35.9017 45.9504C35.7717 45.8804 35.6417 45.8104 35.5117 45.7304L42.7317 50.2004C42.8617 50.2804 42.9917 50.3504 43.1217 50.4204C43.1617 50.4404 43.2017 50.4604 43.2317 50.4804C43.3317 50.5304 43.4317 50.5804 43.5417 50.6204C43.5617 50.6304 43.5917 50.6404 43.6117 50.6504C43.6317 50.6504 43.6517 50.6604 43.6617 50.6704C43.7117 50.6904 43.7617 50.7104 43.8017 50.7204C43.8617 50.7404 43.9317 50.7704 43.9917 50.7904C44.0417 50.8104 44.0917 50.8204 44.1417 50.8404C44.2017 50.8604 44.2717 50.8804 44.3317 50.9004C44.3817 50.9104 44.4317 50.9304 44.4817 50.9404C44.5517 50.9604 44.6117 50.9704 44.6817 50.9804C44.7317 50.9904 44.7817 51.0004 44.8417 51.0104C44.8717 51.0104 44.9017 51.0204 44.9317 51.0304C44.9617 51.0304 45.0017 51.0304 45.0317 51.0404C45.1017 51.0504 45.1717 51.0604 45.2417 51.0704C45.3017 51.0704 45.3617 51.0804 45.4217 51.0904C45.4917 51.0904 45.5617 51.1004 45.6417 51.1004C45.7017 51.1004 45.7617 51.1004 45.8217 51.1004C45.8917 51.1004 45.9717 51.1004 46.0417 51.1004C46.1017 51.1004 46.1617 51.1004 46.2217 51.1004C46.3017 51.1004 46.3717 51.1004 46.4517 51.0904C46.5117 51.0904 46.5717 51.0904 46.6317 51.0804C46.7117 51.0804 46.7917 51.0604 46.8617 51.0504C46.9217 51.0504 46.9817 51.0404 47.0417 51.0304C47.1217 51.0204 47.2017 51.0004 47.2817 50.9904C47.3417 50.9804 47.3917 50.9704 47.4517 50.9604C47.5417 50.9404 47.6217 50.9204 47.7117 50.9004C47.7617 50.8904 47.8117 50.8804 47.8617 50.8604C47.9617 50.8304 48.0617 50.8004 48.1617 50.7704C48.1917 50.7604 48.2317 50.7504 48.2617 50.7404C48.4017 50.6904 48.5417 50.6404 48.6817 50.5904C48.8317 50.5304 48.9717 50.4604 49.1217 50.4004C49.1617 50.3804 49.2017 50.3604 49.2417 50.3404C49.3517 50.2904 49.4517 50.2304 49.5617 50.1704C49.5917 50.1604 49.6117 50.1404 49.6417 50.1304C49.6417 50.1304 49.6717 50.1104 49.6817 50.1104C49.8217 50.0304 49.9617 49.9404 50.1017 49.8504C50.1217 49.8404 50.1417 49.8204 50.1617 49.8104C50.2817 49.7304 50.4017 49.6504 50.5117 49.5604C50.5317 49.5504 50.5517 49.5304 50.5717 49.5204C50.5917 49.5104 50.6117 49.4904 50.6317 49.4804C50.7217 49.4104 50.8117 49.3404 50.8917 49.2704C50.9217 49.2404 50.9517 49.2204 50.9917 49.1904C51.1117 49.0904 51.2217 48.9904 51.3317 48.8904C51.3417 48.8804 51.3617 48.8604 51.3717 48.8504C51.4617 48.7604 51.5517 48.6804 51.6317 48.5904C51.6617 48.5504 51.7017 48.5204 51.7317 48.4804C51.8017 48.4104 51.8617 48.3404 51.9317 48.2604C51.9517 48.2404 51.9717 48.2204 51.9917 48.2004C52.0117 48.1804 52.0217 48.1604 52.0417 48.1404C52.1117 48.0604 52.1717 47.9804 52.2417 47.9004C52.2717 47.8604 52.3017 47.8304 52.3317 47.7904C52.4217 47.6704 52.5117 47.5504 52.6017 47.4304C52.6917 47.3004 52.7717 47.1704 52.8617 47.0404C52.8817 47.0004 52.9117 46.9604 52.9317 46.9204C52.9917 46.8204 53.0617 46.7104 53.1217 46.6004C53.1317 46.5804 53.1517 46.5504 53.1617 46.5304C53.1617 46.5204 53.1717 46.5104 53.1817 46.5004C53.2717 46.3404 53.3517 46.1704 53.4317 46.0004C53.4517 45.9704 53.4617 45.9304 53.4817 45.9004C53.5617 45.7304 53.6317 45.5504 53.7017 45.3704C53.7017 45.3704 53.7017 45.3604 53.7017 45.3504C53.7617 45.1804 53.8217 45.0104 53.8817 44.8404C53.8917 44.8004 53.9017 44.7704 53.9117 44.7304V44.7004Z" fill="#878787" stroke="black" stroke-linecap="round" stroke-linejoin="round"/>
<path d="M59.6702 36.0301C59.9102 36.6301 60.1102 37.2701 60.2602 37.9401C60.4002 38.5501 60.4902 39.1601 60.5502 39.7701C57.8002 42.5001 57.4702 44.6301 59.4502 47.2601C58.9602 48.5001 58.3302 49.6901 57.5802 50.7901C56.5802 50.8201 55.7302 50.9601 55.0202 51.2501C53.3102 51.9401 52.3802 53.4501 51.9402 56.0401C51.3602 56.3701 50.7602 56.6601 50.1302 56.9201C49.5002 57.1701 48.8802 57.3801 48.2502 57.5301C46.7602 55.7401 45.3402 55.1801 43.6502 55.8601C42.9502 56.1401 42.2002 56.6401 41.3702 57.3501C40.2602 56.9801 39.2302 56.4601 38.2902 55.7801C38.7602 52.1901 37.6002 50.6801 34.2602 50.4201C34.0402 49.8601 33.8602 49.2701 33.7202 48.6601C33.5602 47.9801 33.4602 47.3001 33.4102 46.6101C36.1102 44.0601 36.4402 41.9601 34.5802 39.2301C35.0802 37.9901 35.7202 36.8001 36.4802 35.6901C37.4902 35.7001 38.3402 35.5801 39.0502 35.2901C40.6802 34.6301 41.5802 33.1401 42.0502 30.5601C42.6302 30.2301 43.2302 29.9401 43.8502 29.6901C44.4702 29.4401 45.0902 29.2401 45.7002 29.0801C47.1402 30.8901 48.5102 31.4701 50.1502 30.8101C50.8702 30.5201 51.6402 29.9901 52.5002 29.2201C53.5902 29.5701 54.6102 30.0801 55.5402 30.7301C55.0702 34.4401 56.2402 35.9401 59.6402 36.0301H59.6702ZM48.6702 50.5801C52.5902 49.0001 55.0202 44.4501 54.0902 40.4301C53.1702 36.4101 49.2402 34.4301 45.3202 36.0101C41.4002 37.5901 38.9702 42.1401 39.9002 46.1601C40.8202 50.1801 44.7502 52.1601 48.6702 50.5801Z" fill="white" stroke="black" stroke-linecap="round" stroke-linejoin="round"/>
<path d="M53.4991 29.5805C53.6891 29.6605 53.8891 29.7505 54.0791 29.8405C54.1491 29.8805 54.2291 29.9105 54.2991 29.9505C54.5391 30.0805 54.7891 30.2105 55.0191 30.3605L52.9391 29.0705C51.2291 28.0105 49.5091 26.9505 47.7991 25.8905C47.5591 25.7405 47.3191 25.6105 47.0691 25.4805C46.9991 25.4405 46.9291 25.4105 46.8491 25.3705C46.6591 25.2805 46.4691 25.1905 46.2691 25.1005C46.2191 25.0805 46.1791 25.0605 46.1291 25.0405C46.1091 25.0305 46.0791 25.0205 46.0491 25.0105C45.7991 24.9105 45.5491 24.8205 45.2891 24.7305L52.5091 29.2005C52.7691 29.2805 53.0191 29.3805 53.2691 29.4705C53.3391 29.5005 53.4091 29.5305 53.4791 29.5605L53.4991 29.5805Z" fill="#878787" stroke="black" stroke-linecap="round" stroke-linejoin="round"/>
<path d="M33.4192 46.6009L26.1992 42.1309C26.2492 42.8209 26.3592 43.5009 26.5092 44.1809C26.6492 44.8009 26.8292 45.3809 27.0492 45.9409L34.2692 50.4109C34.0492 49.8509 33.8692 49.2609 33.7292 48.6509C33.5692 47.9709 33.4692 47.2909 33.4192 46.6009Z" fill="#878787" stroke="black" stroke-linecap="round" stroke-linejoin="round"/>
<path d="M45.0416 29.2713C45.0916 29.2513 45.1516 29.2413 45.2116 29.2213C45.3816 29.1713 45.5516 29.1213 45.7316 29.0813L38.5116 24.6113C38.3416 24.6513 38.1716 24.7013 37.9916 24.7513C37.9416 24.7713 37.8816 24.7813 37.8316 24.8013C37.7116 24.8413 37.5916 24.8713 37.4716 24.9113C37.4416 24.9113 37.4116 24.9313 37.3816 24.9413C37.3516 24.9413 37.3316 24.9613 37.3016 24.9713C37.0816 25.0513 36.8716 25.1213 36.6516 25.2113C36.0316 25.4613 35.4316 25.7513 34.8516 26.0813L42.0716 30.5513C42.6516 30.2213 43.2516 29.9313 43.8716 29.6813C44.0916 29.5913 44.3016 29.5113 44.5216 29.4413C44.5816 29.4213 44.6316 29.4013 44.6916 29.3813C44.8116 29.3413 44.9316 29.3013 45.0516 29.2713H45.0416Z" fill="#878787" stroke="black" stroke-linecap="round" stroke-linejoin="round"/>
<path d="M35.4811 37.3309C35.5811 37.1409 35.6911 36.9609 35.8011 36.7709C35.8511 36.6809 35.9111 36.5809 35.9611 36.4909C36.1311 36.2109 36.3111 35.9409 36.4911 35.6809L29.2711 31.2109C29.0911 31.4809 28.9111 31.7509 28.7411 32.0209C28.6811 32.1109 28.6311 32.2109 28.5811 32.3009C28.4811 32.4609 28.3811 32.6309 28.2911 32.7909C28.2811 32.8109 28.2711 32.8309 28.2611 32.8509C28.1511 33.0609 28.0511 33.2609 27.9411 33.4709C27.8911 33.5709 27.8311 33.6709 27.7911 33.7809C27.6411 34.0909 27.5011 34.4109 27.3711 34.7409L34.5911 39.2109C34.7211 38.8909 34.8611 38.5709 35.0111 38.2509C35.0611 38.1509 35.1111 38.0409 35.1611 37.9409C35.2611 37.7309 35.3711 37.5209 35.4811 37.3209V37.3309Z" fill="#878787" stroke="black" stroke-linecap="round" stroke-linejoin="round"/>
<path d="M22.7697 44.8501L16.6797 41.0801C17.1697 41.3801 17.6597 41.8601 18.1797 42.5301L24.2697 46.3001C23.7497 45.6301 23.2497 45.1501 22.7697 44.8501Z" fill="#878787" stroke="black" stroke-linecap="round" stroke-linejoin="round"/>
<path d="M35.2688 22.0605C35.2688 22.0605 35.3288 22.0805 35.3688 22.0905C35.4288 22.1105 35.4888 22.1205 35.5588 22.1405C35.5888 22.1405 35.6188 22.1605 35.6488 22.1605C35.7388 22.1805 35.8388 22.2005 35.9388 22.2205C35.9388 22.2205 35.9388 22.2205 35.9488 22.2205C36.0988 22.2405 36.2588 22.2605 36.4188 22.2805C36.4588 22.2805 36.4988 22.2805 36.5488 22.2905C36.7188 22.3005 36.8888 22.3205 37.0788 22.3205L30.9888 18.5505C30.8088 18.5505 30.6288 18.5305 30.4588 18.5205C30.4188 18.5205 30.3788 18.5205 30.3288 18.5105C30.1688 18.4905 30.0088 18.4805 29.8588 18.4505C29.7488 18.4305 29.6488 18.4105 29.5488 18.3905C29.5188 18.3905 29.4888 18.3805 29.4588 18.3705C29.3988 18.3505 29.3288 18.3405 29.2688 18.3205C29.2388 18.3205 29.1988 18.3005 29.1688 18.2905C29.1088 18.2705 29.0588 18.2505 28.9988 18.2305C28.9688 18.2205 28.9388 18.2105 28.9188 18.2005C28.8588 18.1805 28.8088 18.1505 28.7488 18.1305C28.7288 18.1205 28.6988 18.1105 28.6788 18.1005C28.5988 18.0605 28.5287 18.0205 28.4688 17.9805C30.4987 19.2405 32.5288 20.4905 34.5588 21.7505C34.6288 21.7905 34.6888 21.8305 34.7688 21.8605C34.7888 21.8705 34.8188 21.8805 34.8388 21.8905C34.8788 21.9105 34.9187 21.9305 34.9688 21.9505C34.9787 21.9505 34.9988 21.9505 35.0088 21.9605C35.0388 21.9705 35.0688 21.9805 35.0988 21.9905C35.1488 22.0105 35.2088 22.0305 35.2688 22.0505V22.0605Z" fill="#878787" stroke="black" stroke-linecap="round" stroke-linejoin="round"/>
<path d="M8.71094 39.6602L14.8009 43.4302C15.5009 43.8702 15.8909 44.9002 16.0409 46.5802L9.95094 42.8102C9.80094 41.1302 9.41094 40.0902 8.71094 39.6602Z" fill="#878787"/>
<mask id="mask0_93_11940" style="mask-type:luminance" maskUnits="userSpaceOnUse" x="8" y="39" width="9" height="8">
<path d="M8.71094 39.6602L14.8009 43.4302C15.5009 43.8702 15.8909 44.9002 16.0409 46.5802L9.95094 42.8102C9.80094 41.1302 9.41094 40.0902 8.71094 39.6602Z" fill="white"/>
</mask>
<g mask="url(#mask0_93_11940)">
<path d="M16.0409 46.5802L9.95094 42.8102C9.80094 41.1302 9.41094 40.0902 8.71094 39.6602L14.8009 43.4302C15.5009 43.8702 15.8909 44.9002 16.0409 46.5802Z" fill="#878787" stroke="black" stroke-linecap="round" stroke-linejoin="round"/>
</g>
<path d="M8.71094 39.6602L14.8009 43.4302C15.5009 43.8702 15.8909 44.9002 16.0409 46.5802L9.95094 42.8102C9.80094 41.1302 9.41094 40.0902 8.71094 39.6602Z" stroke="black" stroke-linecap="round" stroke-linejoin="round"/>
<path d="M30.1806 31.6295C30.2406 31.4395 30.2906 31.2495 30.3406 31.0595C30.3506 31.0095 30.3606 30.9695 30.3706 30.9195C30.4206 30.7195 30.4606 30.5195 30.5006 30.3095C30.5006 30.2695 30.5106 30.2395 30.5206 30.1995C30.5506 30.0195 30.5706 29.8395 30.6006 29.6495C30.6006 29.6095 30.6106 29.5695 30.6106 29.5195C30.6306 29.3195 30.6406 29.1095 30.6506 28.8995C30.6506 28.8595 30.6506 28.8095 30.6506 28.7695C30.6506 28.5795 30.6506 28.3895 30.6506 28.2095C30.6506 28.1795 30.6506 28.1495 30.6506 28.1195C30.6506 27.9095 30.6206 27.7095 30.6006 27.4995C30.6006 27.4495 30.5906 27.3995 30.5806 27.3595C30.5506 27.1495 30.5206 26.9395 30.4806 26.7295C30.0306 24.4095 28.7606 22.6095 27.0406 21.5395C25.0106 20.2795 22.9806 19.0295 20.9506 17.7695C22.6706 18.8295 23.9406 20.6295 24.3906 22.9595C24.4306 23.1695 24.4606 23.3795 24.4906 23.5895C24.4906 23.6395 24.5006 23.6895 24.5106 23.7295C24.5306 23.9395 24.5506 24.1395 24.5606 24.3495C24.5606 24.3795 24.5606 24.4095 24.5606 24.4395C24.5606 24.6295 24.5606 24.8195 24.5606 25.0095C24.5606 25.0495 24.5606 25.0995 24.5606 25.1395C24.5606 25.3495 24.5406 25.5495 24.5206 25.7595C24.5206 25.7995 24.5206 25.8395 24.5106 25.8795C24.4906 26.0595 24.4606 26.2495 24.4306 26.4295C24.4306 26.4595 24.4206 26.4995 24.4106 26.5295C24.3706 26.7295 24.3306 26.9395 24.2806 27.1395C24.2706 27.1895 24.2606 27.2295 24.2506 27.2795C24.2006 27.4695 24.1506 27.6695 24.0906 27.8595C24.0906 27.8695 24.0906 27.8895 24.0806 27.8995C24.0206 28.0995 23.9506 28.2995 23.8706 28.4995C23.8506 28.5395 23.8406 28.5895 23.8206 28.6295C23.7406 28.8395 23.6506 29.0495 23.5606 29.2495C23.5506 29.2795 23.5306 29.3095 23.5206 29.3395C23.4306 29.5395 23.3306 29.7295 23.2206 29.9295C23.2106 29.9495 23.2006 29.9695 23.1906 29.9895C23.1006 30.1595 23.0006 30.3195 22.9006 30.4795C22.8706 30.5195 22.8506 30.5595 22.8206 30.5995C22.7406 30.7295 22.6606 30.8495 22.5706 30.9695C22.5406 31.0095 22.5106 31.0595 22.4806 31.0995C22.3906 31.2295 22.2906 31.3595 22.2006 31.4795C22.1906 31.4995 22.1706 31.5095 22.1606 31.5295C22.0506 31.6695 21.9406 31.8095 21.8206 31.9395C21.7906 31.9795 21.7506 32.0195 21.7106 32.0595C21.6306 32.1495 21.5506 32.2395 21.4606 32.3295C21.4206 32.3695 21.3706 32.4195 21.3306 32.4595C21.2406 32.5495 21.1606 32.6295 21.0706 32.7195C21.0306 32.7595 20.9906 32.7995 20.9506 32.8395C20.8206 32.9595 20.6806 33.0795 20.5506 33.1995C20.5406 33.2095 20.5206 33.2195 20.5106 33.2395C20.3906 33.3395 20.2606 33.4395 20.1306 33.5395C20.0906 33.5695 20.0506 33.5995 20.0106 33.6295C19.8806 33.7295 19.7506 33.8195 19.6106 33.9095C19.5806 33.9295 19.5406 33.9595 19.5106 33.9795C19.3506 34.0895 19.1806 34.1895 19.0106 34.2795C18.9706 34.2995 18.9306 34.3295 18.8806 34.3495C18.7506 34.4195 18.6206 34.4895 18.4906 34.5495C18.4406 34.5695 18.3906 34.5995 18.3406 34.6195C18.1706 34.6995 18.0006 34.7795 17.8206 34.8495C17.7206 34.8895 17.6206 34.9295 17.5106 34.9695C17.4006 35.0095 17.2906 35.0395 17.1806 35.0795C17.0806 35.1095 16.9906 35.1395 16.8906 35.1695C16.8206 35.1895 16.7506 35.2095 16.6806 35.2295C16.5806 35.2595 16.4906 35.2795 16.3906 35.2995C16.3206 35.3195 16.2506 35.3295 16.1906 35.3495C16.0906 35.3695 15.9906 35.3895 15.8906 35.3995C15.8306 35.4095 15.7606 35.4195 15.7006 35.4295C15.5906 35.4495 15.4806 35.4595 15.3706 35.4695C15.3206 35.4695 15.2606 35.4795 15.2106 35.4895C15.0506 35.4995 14.8906 35.5095 14.7306 35.5195C14.5706 35.5195 14.4206 35.5195 14.2606 35.5195C14.2106 35.5195 14.1606 35.5195 14.1106 35.5195C14.0106 35.5195 13.9006 35.5095 13.8006 35.4995C13.7406 35.4995 13.6806 35.4895 13.6206 35.4795C13.5306 35.4695 13.4306 35.4595 13.3406 35.4395C13.2706 35.4295 13.2006 35.4195 13.1306 35.3995C13.0606 35.3895 13.0006 35.3795 12.9406 35.3595C12.8706 35.3395 12.7906 35.3295 12.7206 35.3095C12.6606 35.2895 12.5906 35.2795 12.5306 35.2595C12.4606 35.2395 12.3906 35.2195 12.3106 35.1995C12.2506 35.1795 12.1906 35.1595 12.1306 35.1395C12.0606 35.1195 11.9906 35.0895 11.9206 35.0595C11.8606 35.0395 11.8006 35.0195 11.7406 34.9895C11.7106 34.9795 11.6806 34.9595 11.6406 34.9495C11.5006 34.8895 11.3706 34.8295 11.2406 34.7695C11.2006 34.7495 11.1506 34.7295 11.1106 34.7095C10.9606 34.6295 10.8006 34.5495 10.6506 34.4495C10.6506 34.4495 10.6506 34.4495 10.6406 34.4495L16.7306 38.2195C16.7306 38.2195 16.7306 38.2195 16.7406 38.2195C16.8906 38.3095 17.0406 38.3895 17.1906 38.4695C17.2306 38.4895 17.2806 38.5095 17.3206 38.5395C17.4506 38.5995 17.5806 38.6595 17.7206 38.7195C17.7406 38.7295 17.7706 38.7395 17.7906 38.7495C17.8006 38.7495 17.8106 38.7495 17.8206 38.7595C17.8706 38.7795 17.9306 38.7995 17.9906 38.8195C18.0606 38.8495 18.1406 38.8795 18.2106 38.8995C18.2706 38.9195 18.3306 38.9395 18.3906 38.9595C18.4606 38.9795 18.5406 39.0095 18.6106 39.0295C18.6706 39.0495 18.7306 39.0595 18.7906 39.0795C18.8606 39.0995 18.9406 39.1195 19.0106 39.1295C19.0706 39.1395 19.1406 39.1595 19.2006 39.1695C19.2506 39.1695 19.3006 39.1895 19.3506 39.1995C19.3706 39.1995 19.3906 39.1995 19.4206 39.1995C19.5106 39.2095 19.6106 39.2295 19.7006 39.2395C19.7606 39.2395 19.8206 39.2495 19.8806 39.2595C19.9806 39.2695 20.0906 39.2795 20.2006 39.2795C20.2506 39.2795 20.3006 39.2795 20.3506 39.2795C20.5106 39.2795 20.6606 39.2795 20.8206 39.2795C20.9806 39.2795 21.1406 39.2695 21.3006 39.2495C21.3506 39.2495 21.4006 39.2395 21.4606 39.2295C21.5706 39.2195 21.6806 39.2095 21.7906 39.1895C21.8506 39.1895 21.9206 39.1695 21.9806 39.1595C22.0806 39.1395 22.1806 39.1295 22.2806 39.1095C22.3506 39.0995 22.4206 39.0795 22.4806 39.0695C22.5806 39.0495 22.6706 39.0295 22.7706 38.9995C22.8406 38.9795 22.9106 38.9595 22.9806 38.9395C23.0806 38.9095 23.1706 38.8795 23.2706 38.8495C23.3106 38.8395 23.3506 38.8295 23.3906 38.8095C23.4606 38.7895 23.5306 38.7595 23.6006 38.7395C23.7006 38.6995 23.8006 38.6595 23.9006 38.6195C24.0806 38.5495 24.2506 38.4695 24.4206 38.3895C24.4706 38.3695 24.5206 38.3395 24.5606 38.3195C24.6906 38.2495 24.8206 38.1895 24.9506 38.1095C24.9806 38.0895 25.0106 38.0795 25.0306 38.0695C25.0406 38.0695 25.0506 38.0495 25.0706 38.0495C25.2406 37.9495 25.4106 37.8495 25.5706 37.7395C25.6006 37.7195 25.6406 37.6895 25.6706 37.6695C25.8106 37.5795 25.9406 37.4795 26.0706 37.3895C26.0906 37.3695 26.1206 37.3595 26.1406 37.3395C26.1606 37.3295 26.1706 37.3095 26.1906 37.2995C26.3206 37.1995 26.4506 37.0995 26.5806 36.9995C26.5906 36.9895 26.6106 36.9795 26.6206 36.9695C26.7606 36.8495 26.8906 36.7295 27.0306 36.6095C27.0406 36.5995 27.0506 36.5895 27.0706 36.5795C27.1006 36.5595 27.1206 36.5295 27.1506 36.4995C27.2406 36.4095 27.3306 36.3295 27.4206 36.2395C27.4606 36.1995 27.5006 36.1595 27.5406 36.1095C27.6306 36.0195 27.7106 35.9295 27.7906 35.8295C27.8206 35.7995 27.8406 35.7795 27.8706 35.7495C27.8806 35.7395 27.8906 35.7295 27.9006 35.7095C28.0206 35.5795 28.1306 35.4395 28.2406 35.2995C28.2606 35.2795 28.2706 35.2595 28.2806 35.2395C28.3706 35.1195 28.4706 34.9895 28.5606 34.8695C28.5706 34.8495 28.5906 34.8395 28.6006 34.8195C28.6206 34.7895 28.6406 34.7595 28.6506 34.7395C28.7306 34.6195 28.8106 34.4995 28.8906 34.3695C28.9206 34.3295 28.9406 34.2895 28.9706 34.2395C29.0706 34.0795 29.1706 33.9195 29.2606 33.7495C29.2606 33.7495 29.2606 33.7395 29.2706 33.7295C29.2706 33.7095 29.2906 33.6995 29.2906 33.6795C29.3906 33.4895 29.4906 33.2895 29.5806 33.0995C29.5906 33.0695 29.6106 33.0395 29.6206 33.0095C29.7106 32.8095 29.8006 32.5995 29.8806 32.3895C29.8806 32.3695 29.9006 32.3495 29.9106 32.3295C29.9106 32.3095 29.9306 32.2795 29.9306 32.2595C30.0006 32.0595 30.0706 31.8595 30.1406 31.6595C30.1406 31.6495 30.1406 31.6295 30.1506 31.6195L30.1806 31.6295Z" fill="#878787" stroke="black" stroke-linecap="round" stroke-linejoin="round"/>
<path d="M31.9311 15.9691C31.9911 15.9391 32.0611 15.8991 32.1211 15.8691C32.1611 15.8491 32.2011 15.8291 32.2411 15.8091C32.3011 15.7791 32.3611 15.7391 32.4311 15.7091C32.4811 15.6791 32.5211 15.6591 32.5711 15.6391L26.4811 11.8691C26.3811 11.9291 26.2811 11.9791 26.1811 12.0291C26.1811 12.0291 26.1611 12.0391 26.1511 12.0491C26.0611 12.0991 25.9711 12.1491 25.8811 12.1891C25.8711 12.1891 25.8511 12.1991 25.8411 12.2091C25.7511 12.2491 25.6611 12.2891 25.5811 12.3291C25.5711 12.3291 25.5511 12.3391 25.5411 12.3491C25.4411 12.3891 25.3411 12.4391 25.2511 12.4691C25.1311 12.5191 25.0111 12.5591 24.9011 12.5991C24.7711 12.6391 24.6411 12.6791 24.5211 12.7091C24.5011 12.7091 24.4811 12.7091 24.4611 12.7191C24.3611 12.7391 24.2611 12.7591 24.1711 12.7791C24.1311 12.7791 24.0911 12.7791 24.0511 12.7891C23.9811 12.7891 23.9011 12.7991 23.8311 12.7991C23.7911 12.7991 23.7511 12.7991 23.7111 12.7991C23.6511 12.7991 23.5811 12.7991 23.5211 12.7891C23.4711 12.7891 23.4211 12.7791 23.3811 12.7691C23.3611 12.7691 23.3411 12.7691 23.3211 12.7591C23.2511 12.7391 23.1711 12.7191 23.1011 12.6891C23.0411 12.6691 22.9811 12.6291 22.9211 12.5991C22.9011 12.5991 22.8911 12.5791 22.8711 12.5791L28.9611 16.3491C28.9611 16.3491 29.0011 16.3691 29.0311 16.3791C29.0811 16.4091 29.1311 16.4391 29.1911 16.4591C29.2611 16.4891 29.3311 16.5091 29.4011 16.5291C29.4211 16.5291 29.4411 16.5291 29.4611 16.5391C29.4911 16.5391 29.5111 16.5491 29.5411 16.5591C29.5611 16.5591 29.5811 16.5591 29.6011 16.5591C29.6611 16.5591 29.7211 16.5691 29.7911 16.5691C29.8311 16.5691 29.8711 16.5691 29.9111 16.5691C29.9811 16.5691 30.0511 16.5691 30.1311 16.5491C30.1711 16.5491 30.2011 16.5491 30.2411 16.5391C30.3411 16.5291 30.4411 16.5091 30.5411 16.4791C30.5611 16.4791 30.5811 16.4791 30.6011 16.4691C30.7211 16.4391 30.8511 16.3991 30.9811 16.3591C30.9811 16.3591 30.9911 16.3591 31.0011 16.3591C31.1111 16.3191 31.2211 16.2791 31.3311 16.2391C31.4211 16.1991 31.5211 16.1591 31.6211 16.1191C31.6911 16.0891 31.7711 16.0491 31.8411 16.0191C31.8711 16.0091 31.8911 15.9991 31.9211 15.9791L31.9311 15.9691Z" fill="#878787" stroke="black" stroke-linecap="round" stroke-linejoin="round"/>
<path d="M11.1884 44.1402L5.09844 40.3702C4.48844 39.8802 3.91844 39.3402 3.39844 38.7402L9.48844 42.5102C10.0084 43.1102 10.5784 43.6502 11.1884 44.1402Z" fill="#878787"/>
<mask id="mask1_93_11940" style="mask-type:luminance" maskUnits="userSpaceOnUse" x="3" y="38" width="9" height="7">
<path d="M11.1884 44.1402L5.09844 40.3702C4.48844 39.8802 3.91844 39.3402 3.39844 38.7402L9.48844 42.5102C10.0084 43.1102 10.5784 43.6502 11.1884 44.1402Z" fill="white"/>
</mask>
<g mask="url(#mask1_93_11940)">
<path d="M11.1884 44.1402L5.09844 40.3702C4.48844 39.8802 3.91844 39.3402 3.39844 38.7402L9.48844 42.5102C10.0084 43.1102 10.5784 43.6502 11.1884 44.1402Z" fill="#878787" stroke="black" stroke-linecap="round" stroke-linejoin="round"/>
</g>
<path d="M11.1884 44.1402L5.09844 40.3702C4.48844 39.8802 3.91844 39.3402 3.39844 38.7402L9.48844 42.5102C10.0084 43.1102 10.5784 43.6502 11.1884 44.1402Z" stroke="black" stroke-linecap="round" stroke-linejoin="round"/>
<path d="M25.3713 12.77L19.2812 9C20.0813 9.07 20.8713 9.21 21.6413 9.41L27.7313 13.18C26.9713 12.98 26.1813 12.84 25.3713 12.77Z" fill="#878787"/>
<path d="M25.3713 12.77L19.2812 9C20.0813 9.07 20.8713 9.21 21.6413 9.41L27.7313 13.18C26.9713 12.98 26.1813 12.84 25.3713 12.77Z" stroke="black" stroke-linecap="round" stroke-linejoin="round"/>
<path d="M3.10938 34.25C5.13937 35.51 7.16937 36.76 9.19937 38.02C10.3494 38.73 10.4094 40.15 9.48937 42.51L3.39937 38.74C4.31937 36.38 4.25937 34.97 3.10938 34.25Z" fill="#878787"/>
<mask id="mask2_93_11940" style="mask-type:luminance" maskUnits="userSpaceOnUse" x="3" y="34" width="8" height="9">
<path d="M3.10938 34.25C5.13937 35.51 7.16937 36.76 9.19937 38.02C10.3494 38.73 10.4094 40.15 9.48937 42.51L3.39937 38.74C4.31938 36.38 4.25937 34.97 3.10938 34.25Z" fill="white"/>
</mask>
<g mask="url(#mask2_93_11940)">
<path d="M9.48844 42.5002L3.39844 38.7302C3.39844 38.7302 3.41844 38.6802 3.42844 38.6602L9.51844 42.4302C9.51844 42.4302 9.49844 42.4802 9.48844 42.5002Z" fill="#878787" stroke="black" stroke-linecap="round" stroke-linejoin="round"/>
<path d="M9.51937 42.4302L3.42937 38.6602C4.31937 36.3502 4.25937 34.9502 3.10938 34.2402L9.19937 38.0102C10.3394 38.7202 10.4094 40.1102 9.51937 42.4302Z" fill="#878787" stroke="black" stroke-linecap="round" stroke-linejoin="round"/>
</g>
<path d="M3.10938 34.25C5.13937 35.51 7.16937 36.76 9.19937 38.02C10.3494 38.73 10.4094 40.15 9.48937 42.51L3.39937 38.74C4.31937 36.38 4.25937 34.97 3.10938 34.25Z" stroke="black" stroke-linecap="round" stroke-linejoin="round"/>
<path d="M6.69 37.4503L0.6 33.6803C0.47 33.2603 0.35 32.8403 0.24 32.4003C0.13 31.9603 0.06 31.5203 0 31.0703L6.09 34.8403C6.15 35.2803 6.23 35.7303 6.33 36.1703C6.43 36.6103 6.55 37.0303 6.69 37.4503Z" fill="#878787"/>
<mask id="mask3_93_11940" style="mask-type:luminance" maskUnits="userSpaceOnUse" x="0" y="31" width="7" height="7">
<path d="M6.69 37.4503L0.6 33.6803C0.47 33.2603 0.35 32.8403 0.24 32.4003C0.13 31.9603 0.06 31.5203 0 31.0703L6.09 34.8403C6.15 35.2803 6.23 35.7303 6.33 36.1703C6.43 36.6103 6.55 37.0303 6.69 37.4503Z" fill="white"/>
</mask>
<g mask="url(#mask3_93_11940)">
<path d="M6.69 37.4503L0.6 33.6803C0.47 33.2603 0.35 32.8403 0.24 32.4003C0.13 31.9603 0.06 31.5203 0 31.0703L6.09 34.8403C6.15 35.2803 6.23 35.7303 6.33 36.1703C6.43 36.6103 6.55 37.0303 6.69 37.4503Z" fill="#878787" stroke="black" stroke-linecap="round" stroke-linejoin="round"/>
</g>
<path d="M6.69 37.4503L0.6 33.6803C0.47 33.2603 0.35 32.8403 0.24 32.4003C0.13 31.9603 0.06 31.5203 0 31.0703L6.09 34.8403C6.15 35.2803 6.23 35.7303 6.33 36.1703C6.43 36.6103 6.55 37.0303 6.69 37.4503Z" stroke="black" stroke-linecap="round" stroke-linejoin="round"/>
<path d="M6.28922 28.5697L0.199219 24.7997C0.379219 23.9097 0.629219 23.0397 0.929219 22.1797L7.01922 25.9497C6.71922 26.8097 6.46922 27.6797 6.28922 28.5697Z" fill="#878787"/>
<mask id="mask4_93_11940" style="mask-type:luminance" maskUnits="userSpaceOnUse" x="0" y="22" width="8" height="7">
<path d="M6.28922 28.5697L0.199219 24.7997C0.379219 23.9097 0.629219 23.0397 0.929219 22.1797L7.01922 25.9497C6.71922 26.8097 6.46922 27.6797 6.28922 28.5697Z" fill="white"/>
</mask>
<g mask="url(#mask4_93_11940)">
<path d="M6.28922 28.5697L0.199219 24.7997C0.379219 23.9097 0.629219 23.0397 0.929219 22.1797L7.01922 25.9497C6.71922 26.8097 6.46922 27.6797 6.28922 28.5697Z" fill="#878787" stroke="black" stroke-linecap="round" stroke-linejoin="round"/>
</g>
<path d="M6.28922 28.5697L0.199219 24.7997C0.379219 23.9097 0.629219 23.0397 0.929219 22.1797L7.01922 25.9497C6.71922 26.8097 6.46922 27.6797 6.28922 28.5697Z" stroke="black" stroke-linecap="round" stroke-linejoin="round"/>
<path d="M25.0214 13.26C25.0214 13.26 25.0614 13.21 25.0814 13.19C25.1714 13.08 25.2514 12.96 25.3414 12.83C25.3514 12.81 25.3714 12.79 25.3814 12.77L19.2914 9C19.1914 9.14 19.0914 9.28 18.9914 9.41C18.9714 9.44 18.9514 9.46 18.9314 9.49C18.8414 9.61 18.7414 9.74 18.6514 9.85C18.6514 9.85 18.6314 9.87 18.6314 9.88C18.5514 9.98 18.4714 10.07 18.3914 10.15C18.3514 10.19 18.3214 10.23 18.2814 10.27C18.2214 10.34 18.1614 10.4 18.0914 10.46C18.0614 10.49 18.0214 10.53 17.9914 10.56C17.9014 10.64 17.8214 10.72 17.7314 10.8C17.7214 10.8 17.7114 10.82 17.7014 10.83C17.6214 10.9 17.5414 10.96 17.4614 11.01C17.4414 11.02 17.4214 11.04 17.4014 11.05C17.3214 11.11 17.2314 11.16 17.1514 11.21C17.0514 11.27 16.9514 11.32 16.8514 11.36C16.7914 11.39 16.7314 11.4 16.6614 11.42C16.6214 11.43 16.5814 11.44 16.5514 11.45C16.5114 11.46 16.4714 11.47 16.4314 11.48C16.3914 11.48 16.3514 11.49 16.3214 11.5C16.2814 11.5 16.2414 11.5 16.2014 11.51C16.1614 11.51 16.1214 11.51 16.0914 11.51C16.0514 11.51 16.0114 11.51 15.9714 11.51C15.9314 11.51 15.8914 11.51 15.8614 11.5C15.8214 11.5 15.7814 11.49 15.7414 11.48C15.7014 11.48 15.6714 11.46 15.6314 11.46C15.5914 11.45 15.5414 11.44 15.5014 11.42C15.4614 11.41 15.4314 11.4 15.3914 11.38C15.3414 11.36 15.2914 11.34 15.2414 11.32C15.2214 11.31 15.1914 11.3 15.1714 11.29C15.1014 11.25 15.0214 11.21 14.9414 11.16C16.9714 12.42 19.0014 13.67 21.0314 14.93C21.1114 14.98 21.1814 15.02 21.2514 15.06C21.2814 15.07 21.3014 15.08 21.3214 15.09C21.3614 15.11 21.3914 15.13 21.4314 15.14C21.4414 15.14 21.4614 15.14 21.4714 15.15C21.5114 15.16 21.5414 15.18 21.5814 15.19C21.6214 15.2 21.6614 15.22 21.7114 15.23C21.7514 15.24 21.7814 15.25 21.8214 15.26C21.8414 15.26 21.8714 15.27 21.8914 15.28C21.9114 15.28 21.9214 15.28 21.9414 15.28C21.9814 15.28 22.0214 15.28 22.0614 15.29C22.1014 15.29 22.1414 15.29 22.1814 15.29C22.2214 15.29 22.2614 15.29 22.3014 15.29C22.3414 15.29 22.3814 15.29 22.4214 15.28C22.4614 15.28 22.5014 15.27 22.5314 15.26C22.5714 15.26 22.6114 15.24 22.6514 15.23C22.6914 15.23 22.7314 15.21 22.7614 15.2C22.7814 15.2 22.8014 15.19 22.8214 15.18C22.8614 15.17 22.9014 15.15 22.9414 15.13C23.0414 15.09 23.1414 15.04 23.2414 14.98C23.2414 14.98 23.2414 14.98 23.2514 14.98C23.3314 14.94 23.4114 14.88 23.4914 14.83C23.5114 14.82 23.5314 14.8 23.5514 14.79C23.5814 14.77 23.6014 14.75 23.6314 14.74C23.6814 14.7 23.7414 14.66 23.7914 14.61C23.8014 14.61 23.8114 14.59 23.8214 14.58C23.8914 14.52 23.9714 14.46 24.0414 14.39C24.0514 14.38 24.0714 14.36 24.0814 14.35C24.1114 14.32 24.1514 14.28 24.1814 14.25C24.2414 14.19 24.3014 14.13 24.3714 14.06C24.4114 14.02 24.4414 13.98 24.4814 13.94C24.5114 13.91 24.5314 13.88 24.5614 13.85C24.6114 13.79 24.6614 13.73 24.7214 13.67C24.7214 13.67 24.7314 13.65 24.7414 13.64C24.8314 13.53 24.9314 13.41 25.0214 13.28V13.26Z" fill="#878787" stroke="black" stroke-linecap="round" stroke-linejoin="round"/>
<path d="M8.2 31.2903C8.2 31.2303 8.2 31.1703 8.19 31.1103C8.19 31.1003 8.19 31.0903 8.19 31.0803C8.19 31.0103 8.17 30.9403 8.15 30.8703C8.15 30.8503 8.14 30.8303 8.13 30.8103C8.12 30.7603 8.1 30.7103 8.08 30.6603C8.08 30.6403 8.06 30.6103 8.05 30.5903C8.03 30.5403 8.01 30.4903 7.99 30.4403C7.99 30.4203 7.97 30.4003 7.96 30.3803C7.93 30.3103 7.89 30.2403 7.85 30.1703C7.85 30.1703 7.84 30.1503 7.83 30.1403C7.79 30.0803 7.76 30.0203 7.71 29.9603C7.69 29.9403 7.68 29.9203 7.66 29.8903C7.63 29.8403 7.59 29.7903 7.55 29.7503C7.53 29.7303 7.51 29.7003 7.49 29.6803C7.44 29.6303 7.4 29.5703 7.35 29.5203C7.34 29.5103 7.32 29.4903 7.31 29.4803C7.25 29.4103 7.18 29.3403 7.11 29.2803C7.09 29.2603 7.07 29.2403 7.05 29.2303C7 29.1803 6.94 29.1303 6.88 29.0803C6.85 29.0603 6.83 29.0303 6.8 29.0103C6.74 28.9603 6.68 28.9103 6.62 28.8603C6.59 28.8403 6.57 28.8203 6.54 28.8003C6.45 28.7303 6.36 28.6603 6.27 28.5903L0.18 24.8203C0.27 24.8903 0.37 24.9603 0.45 25.0303C0.48 25.0503 0.5 25.0703 0.53 25.0903C0.59 25.1403 0.65 25.1903 0.71 25.2403C0.74 25.2603 0.76 25.2903 0.79 25.3103C0.85 25.3603 0.91 25.4103 0.96 25.4703C0.98 25.4903 1 25.5003 1.02 25.5203C1.09 25.5903 1.16 25.6603 1.22 25.7303C1.23 25.7403 1.25 25.7603 1.26 25.7703C1.31 25.8203 1.36 25.8803 1.4 25.9303C1.42 25.9503 1.44 25.9703 1.45 26.0003C1.49 26.0503 1.53 26.1003 1.56 26.1503C1.58 26.1703 1.59 26.1903 1.61 26.2103C1.65 26.2703 1.69 26.3303 1.73 26.3903C1.73 26.3903 1.73 26.4103 1.74 26.4103C1.78 26.4803 1.82 26.5503 1.85 26.6203C1.85 26.6403 1.87 26.6603 1.88 26.6803C1.9 26.7303 1.92 26.7803 1.94 26.8303C1.94 26.8503 1.96 26.8803 1.96 26.9003C1.98 26.9503 1.99 27.0003 2.01 27.0603C2.01 27.0803 2.02 27.1003 2.03 27.1203C2.05 27.1903 2.06 27.2603 2.07 27.3303C2.07 27.3403 2.07 27.3503 2.07 27.3603C2.07 27.4203 2.08 27.4803 2.08 27.5503C2.08 27.5703 2.08 27.6003 2.08 27.6203C2.08 27.6703 2.08 27.7203 2.08 27.7703C2.08 27.7903 2.08 27.8203 2.08 27.8403C2.08 27.9003 2.07 27.9603 2.06 28.0203C2.06 28.0403 2.06 28.0503 2.06 28.0603C2.05 28.1303 2.03 28.2103 2.01 28.2803C2.01 28.3003 2 28.3203 1.99 28.3403C1.97 28.4003 1.95 28.4503 1.93 28.5103C1.92 28.5403 1.91 28.5703 1.9 28.5903C1.88 28.6303 1.86 28.6803 1.84 28.7303C1.83 28.7603 1.81 28.7903 1.8 28.8203C1.78 28.8703 1.75 28.9203 1.73 28.9703C1.72 29.0003 1.7 29.0203 1.69 29.0503C1.65 29.1303 1.6 29.2003 1.55 29.2803C1.5 29.3603 1.45 29.4303 1.4 29.5103C1.39 29.5303 1.37 29.5503 1.36 29.5703C1.31 29.6503 1.25 29.7203 1.19 29.8003C1.17 29.8203 1.15 29.8503 1.13 29.8703C1.05 29.9603 0.98 30.0603 0.89 30.1503C0.89 30.1503 0.87 30.1703 0.87 30.1803C0.75 30.3203 0.62 30.4603 0.48 30.6103C0.48 30.6103 0.47 30.6203 0.46 30.6303C0.32 30.7803 0.16 30.9303 0 31.0803L6.09 34.8503C6.25 34.7003 6.41 34.5403 6.55 34.3903C6.55 34.3903 6.55 34.3903 6.56 34.3803C6.7 34.2303 6.83 34.0903 6.95 33.9503C6.95 33.9503 6.96 33.9403 6.97 33.9303C7.05 33.8303 7.13 33.7403 7.21 33.6503C7.23 33.6303 7.25 33.6003 7.27 33.5803C7.33 33.5003 7.39 33.4303 7.44 33.3503C7.45 33.3403 7.46 33.3203 7.47 33.3103C7.47 33.3103 7.47 33.3003 7.48 33.2903C7.53 33.2103 7.58 33.1403 7.63 33.0703C7.63 33.0703 7.63 33.0703 7.63 33.0603C7.68 32.9803 7.72 32.9103 7.76 32.8303C7.76 32.8303 7.76 32.8203 7.77 32.8103C7.78 32.7903 7.79 32.7703 7.8 32.7503C7.83 32.7003 7.85 32.6503 7.88 32.6003C7.89 32.5703 7.91 32.5503 7.92 32.5203C7.94 32.4703 7.96 32.4203 7.98 32.3803C7.98 32.3703 7.99 32.3503 8 32.3403C8 32.3303 8 32.3203 8.01 32.3103C8.03 32.2503 8.05 32.1903 8.07 32.1303C8.07 32.1103 8.08 32.0903 8.09 32.0703C8.11 31.9903 8.13 31.9203 8.14 31.8403C8.14 31.8303 8.14 31.8103 8.14 31.8003C8.15 31.7403 8.16 31.6803 8.16 31.6203C8.16 31.6003 8.16 31.5703 8.16 31.5503C8.16 31.5003 8.16 31.4503 8.16 31.3903C8.16 31.3703 8.16 31.3403 8.16 31.3203L8.2 31.2903Z" fill="#878787" stroke="black" stroke-linecap="round" stroke-linejoin="round"/>
<path d="M16.6192 16.0109C16.6592 15.8709 16.6992 15.7309 16.7392 15.5909C16.7392 15.5609 16.7492 15.5309 16.7592 15.5009C16.7892 15.3809 16.8192 15.2509 16.8492 15.1109C16.8492 15.0709 16.8692 15.0209 16.8792 14.9809C16.9092 14.8209 16.9392 14.6509 16.9692 14.4809L10.8792 10.7109C10.8492 10.8809 10.8192 11.0509 10.7892 11.2109C10.7892 11.2509 10.7692 11.3009 10.7592 11.3409C10.7292 11.4709 10.6992 11.6009 10.6692 11.7209C10.6692 11.7509 10.6592 11.7809 10.6492 11.8109C10.6092 11.9609 10.5692 12.1009 10.5292 12.2309C10.5192 12.2609 10.5092 12.3009 10.4992 12.3309C10.4692 12.4409 10.4292 12.5409 10.3892 12.6409C10.3792 12.6709 10.3692 12.7109 10.3492 12.7409C10.3192 12.8209 10.2892 12.8909 10.2592 12.9609C10.2492 12.9909 10.2392 13.0209 10.2192 13.0409C10.1792 13.1409 10.1292 13.2309 10.0792 13.3209C10.0792 13.3209 10.0692 13.3409 10.0592 13.3509C9.99922 13.4609 9.93922 13.5509 9.86922 13.6509C9.84922 13.6709 9.83922 13.7009 9.81922 13.7209C9.76922 13.7909 9.71922 13.8609 9.65922 13.9209C9.65922 13.9209 9.63922 13.9409 9.63922 13.9509C9.57922 14.0209 9.51922 14.0809 9.45922 14.1409C9.43922 14.1609 9.41922 14.1709 9.39922 14.1909C9.34922 14.2309 9.30922 14.2709 9.25922 14.3109C9.23922 14.3309 9.20922 14.3409 9.18922 14.3609C9.12922 14.4009 9.07922 14.4409 9.01922 14.4709C8.99922 14.4809 8.96922 14.5009 8.94922 14.5109C8.86922 14.5509 8.78922 14.5909 8.69922 14.6309C8.63922 14.6609 8.56922 14.6709 8.50922 14.6909C8.42922 14.7209 8.34922 14.7409 8.25922 14.7509C8.21922 14.7509 8.17922 14.7709 8.13922 14.7709C8.02922 14.7909 7.90922 14.8009 7.78922 14.8109C7.77922 14.8109 7.75922 14.8109 7.74922 14.8109C7.61922 14.8109 7.46922 14.8109 7.32922 14.8109C7.28922 14.8109 7.23922 14.8109 7.19922 14.8009C7.08922 14.8009 6.98922 14.7809 6.86922 14.7609C6.81922 14.7609 6.75922 14.7409 6.70922 14.7309C6.59922 14.7109 6.48922 14.6909 6.36922 14.6609C6.31922 14.6509 6.26922 14.6409 6.21922 14.6209C6.04922 14.5809 5.87922 14.5309 5.69922 14.4709L11.7892 18.2409C11.9692 18.3009 12.1392 18.3409 12.3092 18.3909C12.3592 18.4009 12.4092 18.4109 12.4592 18.4309C12.5792 18.4609 12.6892 18.4809 12.7992 18.5009C12.8292 18.5009 12.8592 18.5109 12.8892 18.5209C12.9192 18.5209 12.9392 18.5209 12.9692 18.5209C13.0792 18.5409 13.1892 18.5509 13.2992 18.5609C13.3392 18.5609 13.3892 18.5609 13.4292 18.5709C13.5792 18.5709 13.7192 18.5809 13.8492 18.5709C13.8592 18.5709 13.8692 18.5709 13.8892 18.5709C14.0092 18.5709 14.1292 18.5509 14.2392 18.5309C14.2792 18.5309 14.3192 18.5109 14.3592 18.5109C14.4492 18.4909 14.5292 18.4709 14.6092 18.4509C14.6292 18.4509 14.6592 18.4509 14.6792 18.4309C14.7192 18.4209 14.7692 18.4009 14.8092 18.3809C14.8992 18.3509 14.9792 18.3109 15.0592 18.2609C15.0592 18.2609 15.0792 18.2609 15.0892 18.2509C15.0992 18.2509 15.1192 18.2309 15.1292 18.2209C15.1892 18.1909 15.2492 18.1509 15.2992 18.1109C15.3092 18.1109 15.3292 18.0909 15.3392 18.0809C15.3392 18.0809 15.3592 18.0709 15.3592 18.0609C15.4092 18.0209 15.4592 17.9809 15.4992 17.9409C15.5092 17.9309 15.5292 17.9209 15.5392 17.9009C15.5392 17.9009 15.5392 17.9009 15.5392 17.8909C15.5992 17.8309 15.6592 17.7709 15.7192 17.7009C15.7192 17.7009 15.7292 17.6809 15.7392 17.6809C15.7892 17.6209 15.8492 17.5509 15.8992 17.4809C15.8992 17.4809 15.9092 17.4609 15.9192 17.4509C15.9192 17.4409 15.9392 17.4209 15.9392 17.4109C15.9992 17.3209 16.0692 17.2209 16.1192 17.1109C16.1192 17.1109 16.1192 17.1009 16.1292 17.0909C16.1792 17.0009 16.2292 16.9109 16.2692 16.8109C16.2792 16.7909 16.2892 16.7609 16.2992 16.7309C16.3292 16.6609 16.3692 16.5809 16.3992 16.5009C16.3992 16.4909 16.4092 16.4809 16.4092 16.4709C16.4092 16.4509 16.4192 16.4309 16.4292 16.4109C16.4692 16.3109 16.4992 16.2009 16.5392 16.1009C16.5492 16.0709 16.5592 16.0409 16.5692 16.0009L16.6192 16.0109Z" fill="#878787" stroke="black" stroke-linecap="round" stroke-linejoin="round"/>
<path d="M10.4809 23.3405C10.4909 23.2805 10.5009 23.2105 10.5109 23.1505C10.5109 23.1005 10.5309 23.0405 10.5309 22.9905C10.5309 22.9205 10.5309 22.8505 10.5309 22.7805C10.5309 22.7205 10.5309 22.6705 10.5309 22.6105C10.5309 22.5405 10.5309 22.4605 10.5209 22.3905C10.5209 22.3305 10.5209 22.2705 10.5109 22.2105C10.5109 22.1305 10.4909 22.0505 10.4709 21.9705C10.4609 21.9105 10.4509 21.8505 10.4409 21.7805C10.4209 21.6905 10.4009 21.6005 10.3809 21.5105C10.3709 21.4505 10.3509 21.3905 10.3409 21.3205C10.3109 21.2205 10.2809 21.1105 10.2509 21.0105C10.2309 20.9505 10.2209 20.9005 10.2009 20.8405C10.1509 20.6805 10.0909 20.5105 10.0209 20.3305L3.93094 16.5605C4.00094 16.7305 4.06094 16.9005 4.11094 17.0705C4.13094 17.1305 4.14094 17.1805 4.16094 17.2305C4.19094 17.3405 4.23094 17.4405 4.25094 17.5505C4.27094 17.6105 4.28094 17.6705 4.29094 17.7405C4.31094 17.8305 4.33094 17.9205 4.35094 18.0105C4.36094 18.0705 4.37094 18.1305 4.38094 18.2005C4.39094 18.2805 4.41094 18.3605 4.42094 18.4405C4.42094 18.5005 4.43094 18.5605 4.43094 18.6205C4.43094 18.6905 4.44094 18.7705 4.44094 18.8405C4.44094 18.9005 4.44094 18.9605 4.44094 19.0105C4.44094 19.0805 4.44094 19.1505 4.44094 19.2205C4.44094 19.2805 4.43094 19.3305 4.42094 19.3805C4.42094 19.4405 4.40094 19.5105 4.39094 19.5705C4.38094 19.6205 4.36094 19.6705 4.35094 19.7205C4.33094 19.7805 4.32094 19.8405 4.30094 19.9005C4.28094 19.9505 4.26094 20.0005 4.24094 20.0505C4.22094 20.1005 4.20094 20.1505 4.17094 20.2005C4.14094 20.2605 4.11094 20.3105 4.08094 20.3705C4.06094 20.4005 4.04094 20.4305 4.02094 20.4605C3.97094 20.5305 3.91094 20.6105 3.86094 20.6805C3.86094 20.6805 3.85094 20.7005 3.84094 20.7105C3.77094 20.7905 3.70094 20.8705 3.62094 20.9405C3.58094 20.9805 3.53094 21.0205 3.48094 21.0605C3.43094 21.1005 3.39094 21.1405 3.34094 21.1805C3.32094 21.1905 3.31094 21.2005 3.29094 21.2205C3.21094 21.2705 3.13094 21.3305 3.05094 21.3805C3.02094 21.4005 3.00094 21.4105 2.97094 21.4305C2.89094 21.4705 2.81094 21.5205 2.73094 21.5605C2.69094 21.5805 2.66094 21.6005 2.62094 21.6205C2.50094 21.6805 2.37094 21.7405 2.24094 21.7905C2.12094 21.8405 2.00094 21.8805 1.87094 21.9305C1.83094 21.9405 1.80094 21.9605 1.76094 21.9705C1.67094 22.0005 1.58094 22.0305 1.48094 22.0605C1.44094 22.0705 1.40094 22.0805 1.37094 22.0905C1.24094 22.1305 1.10094 22.1705 0.960938 22.2005L7.05094 25.9705C7.19094 25.9305 7.32094 25.9005 7.46094 25.8605C7.50094 25.8505 7.54094 25.8405 7.58094 25.8205C7.67094 25.7905 7.76094 25.7605 7.85094 25.7405C7.87094 25.7405 7.90094 25.7205 7.92094 25.7205C7.94094 25.7205 7.95094 25.7105 7.97094 25.7005C8.10094 25.6605 8.22094 25.6105 8.34094 25.5605C8.47094 25.5105 8.60094 25.4505 8.72094 25.3905C8.76094 25.3705 8.80094 25.3505 8.83094 25.3305C8.89094 25.3005 8.96094 25.2705 9.02094 25.2305C9.04094 25.2205 9.06094 25.2105 9.08094 25.2005C9.11094 25.1805 9.13094 25.1705 9.16094 25.1505C9.25094 25.1005 9.33094 25.0505 9.40094 24.9905C9.42094 24.9805 9.43094 24.9705 9.45094 24.9505C9.45094 24.9505 9.47094 24.9405 9.47094 24.9305C9.47094 24.9305 9.55094 24.8605 9.59094 24.8305C9.64094 24.7905 9.69094 24.7505 9.73094 24.7105C9.73094 24.7105 9.74094 24.7105 9.75094 24.7005C9.82094 24.6305 9.89094 24.5605 9.96094 24.4905C9.96094 24.4905 9.97094 24.4705 9.98094 24.4605C10.0309 24.4005 10.0809 24.3405 10.1209 24.2805C10.1209 24.2705 10.1309 24.2605 10.1409 24.2405C10.1609 24.2105 10.1809 24.1805 10.2009 24.1505C10.2209 24.1105 10.2509 24.0805 10.2709 24.0405C10.2709 24.0205 10.2909 24.0005 10.3009 23.9805C10.3309 23.9305 10.3509 23.8805 10.3709 23.8305C10.3809 23.8005 10.4009 23.7705 10.4109 23.7405C10.4109 23.7205 10.4209 23.7005 10.4309 23.6805C10.4509 23.6205 10.4709 23.5605 10.4809 23.5005C10.4909 23.4505 10.5109 23.4005 10.5209 23.3505L10.4809 23.3405Z" fill="#878787" stroke="black" stroke-linecap="round" stroke-linejoin="round"/>
<path d="M10.0197 20.3402L3.92969 16.5702C4.47969 15.8402 5.06969 15.1402 5.70969 14.4902L11.7997 18.2602C11.1597 18.9102 10.5697 19.6102 10.0197 20.3402Z" fill="#878787"/>
<path d="M10.0197 20.3402L3.92969 16.5702C4.47969 15.8402 5.06969 15.1402 5.70969 14.4902L11.7997 18.2602C11.1597 18.9102 10.5697 19.6102 10.0197 20.3402Z" stroke="black" stroke-linecap="round" stroke-linejoin="round"/>
<path d="M37.6781 24.9293C34.9281 27.5193 34.8581 29.2993 37.4781 31.1993C37.2981 32.0893 37.0481 32.9593 36.7481 33.8193C36.2681 33.9393 35.8481 34.0793 35.4681 34.2293C33.1781 35.1593 32.6981 36.7093 33.7481 39.4293C33.1981 40.1593 32.6081 40.8593 31.9581 41.5093C30.6981 41.1093 29.7181 41.0493 28.9481 41.3593C27.8181 41.8193 27.1581 43.0893 26.7981 45.2793C26.3881 45.4893 25.9681 45.6793 25.5381 45.8493C25.1081 46.0193 24.6781 46.1693 24.2581 46.3093C23.0381 44.7493 21.9581 44.1893 20.8281 44.6493C20.0581 44.9593 19.2681 45.7393 18.3881 46.9993C17.5781 46.9293 16.7981 46.7893 16.0281 46.5893C15.7581 43.5493 14.7081 42.6193 12.4081 43.5393C12.0281 43.6893 11.6181 43.8993 11.1781 44.1493C10.5681 43.6593 9.99813 43.1193 9.47813 42.5193C10.8481 39.0093 10.0481 37.5793 6.67813 37.4593C6.54813 37.0393 6.42813 36.6193 6.31813 36.1793C6.21813 35.7393 6.13812 35.2993 6.07812 34.8493C8.82812 32.2593 8.89812 30.4793 6.27812 28.5793C6.45812 27.6893 6.70813 26.8193 7.00813 25.9593C7.48813 25.8393 7.90813 25.6993 8.28813 25.5493C10.5781 24.6193 11.0581 23.0693 10.0081 20.3493C10.5581 19.6193 11.1481 18.9193 11.7881 18.2693C13.0481 18.6693 14.0281 18.7293 14.7981 18.4193C15.9281 17.9593 16.5881 16.6993 16.9481 14.4993C17.3581 14.2993 17.7781 14.0993 18.2081 13.9293C18.6381 13.7593 19.0681 13.6093 19.4881 13.4693C20.7081 15.0293 21.7881 15.5893 22.9181 15.1293C23.6881 14.8193 24.4781 14.0393 25.3581 12.7793C26.1581 12.8493 26.9481 12.9893 27.7181 13.1893C27.9881 16.2293 29.0381 17.1693 31.3281 16.2393C31.7081 16.0893 32.1181 15.8793 32.5681 15.6293C33.1781 16.1193 33.7481 16.6593 34.2681 17.2593C32.8981 20.7793 33.6981 22.1993 37.0681 22.3193C37.1981 22.7393 37.3181 23.1593 37.4281 23.5993C37.5281 24.0393 37.6081 24.4793 37.6681 24.9293H37.6781ZM30.4781 26.7393C29.5281 21.8393 24.9181 19.2693 20.1681 21.0093C20.0681 21.0493 19.9681 21.0893 19.8681 21.1293C15.2981 22.9793 12.3581 28.2293 13.2881 33.0293C14.2381 37.9293 18.8481 40.4993 23.5981 38.7593C23.6981 38.7193 23.7981 38.6793 23.8981 38.6393C28.4681 36.7893 31.3981 31.5393 30.4781 26.7393Z" fill="white" stroke="black" stroke-linecap="round" stroke-linejoin="round"/>
<path d="M16.9611 14.4895L10.8711 10.7195C11.2811 10.5195 11.7011 10.3195 12.1311 10.1495C12.5611 9.97945 12.9911 9.82945 13.4111 9.68945L19.5011 13.4595C19.0711 13.5995 18.6511 13.7395 18.2211 13.9195C17.7911 14.0895 17.3711 14.2895 16.9611 14.4895Z" fill="#878787"/>
<path d="M16.9611 14.4895L10.8711 10.7195C11.2811 10.5195 11.7011 10.3195 12.1311 10.1495C12.5611 9.97945 12.9911 9.82945 13.4111 9.68945L19.5011 13.4595C19.0711 13.5995 18.6511 13.7395 18.2211 13.9195C17.7911 14.0895 17.3711 14.2895 16.9611 14.4895Z" stroke="black" stroke-linecap="round" stroke-linejoin="round"/>
</g>
<defs>
<clipPath id="clip0_93_11940">
<rect width="64" height="64" fill="white"/>
</clipPath>
</defs>
</svg>
