<svg width="64" height="64" viewBox="0 0 64 64" fill="none" xmlns="http://www.w3.org/2000/svg">
<g clip-path="url(#clip0_93_10944)">
<path d="M38.3369 48.7195L36.0469 47.3895C44.0269 42.6095 50.4569 31.4095 50.4769 22.1895L52.7669 23.5195C52.7469 32.7395 46.3169 43.9495 38.3369 48.7195Z" fill="#B69751" stroke="black" stroke-linecap="round" stroke-linejoin="round"/>
<path d="M52.7666 23.5096L50.4766 22.1796C51.2366 21.7396 51.9966 21.2996 52.7766 20.8496L55.0666 22.1796C54.2766 22.6296 53.5166 23.0696 52.7666 23.5096Z" fill="#B69751"/>
<mask id="mask0_93_10944" style="mask-type:luminance" maskUnits="userSpaceOnUse" x="50" y="20" width="6" height="4">
<path d="M52.7666 23.5096L50.4766 22.1796C51.2366 21.7396 51.9966 21.2996 52.7766 20.8496L55.0666 22.1796C54.2766 22.6296 53.5166 23.0696 52.7666 23.5096Z" fill="white"/>
</mask>
<g mask="url(#mask0_93_10944)">
<path d="M52.7666 23.5096L50.4766 22.1796C51.2366 21.7396 51.9966 21.2996 52.7766 20.8496L55.0666 22.1796C54.2766 22.6296 53.5166 23.0696 52.7666 23.5096Z" fill="white" stroke="black" stroke-linecap="round" stroke-linejoin="round"/>
</g>
<path d="M52.7666 23.5096L50.4766 22.1796C51.2366 21.7396 51.9966 21.2996 52.7766 20.8496L55.0666 22.1796C54.2766 22.6296 53.5166 23.0696 52.7666 23.5096Z" stroke="black" stroke-linecap="round" stroke-linejoin="round"/>
<path d="M34.997 51.9187L32.707 50.5887L36.047 45.4688L38.327 46.7987L34.997 51.9187Z" fill="#B69751" stroke="black" stroke-linecap="round" stroke-linejoin="round"/>
<path d="M55.07 22.1797C55.2 22.2697 55.29 22.2897 55.45 22.3897C55.23 32.9897 47.46 45.9197 38.34 51.3497V53.1797L35.38 52.1297L35 51.9197L38.33 46.7997L38.71 47.0097L38.34 48.7197C46.32 43.9397 52.75 32.7397 52.77 23.5197C53.53 23.0797 54.29 22.6397 55.07 22.1897V22.1797Z" fill="#B69751" stroke="black" stroke-linecap="round" stroke-linejoin="round"/>
<path d="M27.5673 12.8594L25.2873 11.5294L25.2773 9.60938L27.5673 10.9294V12.8594Z" fill="white" stroke="black" stroke-linecap="round" stroke-linejoin="round"/>
<path d="M27.5595 6.46867L25.2695 5.13867L28.6195 6.39867L30.9095 7.72867L27.5595 6.46867Z" fill="white" stroke="black" stroke-linecap="round" stroke-linejoin="round"/>
<path d="M27.5595 8.28867L25.2795 6.96867L25.2695 5.13867L27.5595 6.46867V8.28867Z" fill="#B69751" stroke="black" stroke-linecap="round" stroke-linejoin="round"/>
<path d="M10.8291 37.4688L8.53906 36.1388C8.55906 25.4587 16.0191 12.4688 25.2691 6.96875L27.5591 8.29875C18.3091 13.8088 10.8591 26.7888 10.8291 37.4688Z" fill="#B69751" stroke="black" stroke-linecap="round" stroke-linejoin="round"/>
<path d="M27.5581 6.46875L30.9081 7.72875L27.9781 12.9488L27.5681 12.8587V10.9387C19.5781 15.7188 13.1481 26.9188 13.1281 36.1488C12.4781 36.5188 11.2381 37.5688 11.2381 37.5688C11.2381 37.5688 10.9781 37.5088 10.8281 37.4788C10.8481 26.7987 18.3081 13.8088 27.5581 8.30875V6.47875V6.46875Z" fill="#B69751" stroke="black" stroke-linecap="round" stroke-linejoin="round"/>
<path d="M53.8486 13.6699L51.5586 12.3399L53.1486 11.4199L55.4386 12.7499L53.8486 13.6699Z" fill="white" stroke="black" stroke-linecap="round" stroke-linejoin="round"/>
<path d="M49.8798 15.9599L47.5898 14.6299L49.2598 13.6699L51.5498 14.9999L49.8798 15.9599Z" fill="white" stroke="black" stroke-linecap="round" stroke-linejoin="round"/>
<path d="M52.6698 18.1989L50.3798 16.8689L47.5898 14.6289L49.8798 15.9589L52.6698 18.1989Z" fill="white" stroke="black" stroke-linecap="round" stroke-linejoin="round"/>
<path d="M51.5509 14.9993L49.2609 13.6693C49.1809 9.1893 47.5509 6.0293 44.9609 4.5293L47.2509 5.8593C49.8409 7.3693 51.4709 10.5193 51.5509 14.9993Z" fill="white" stroke="black" stroke-linecap="round" stroke-linejoin="round"/>
<path d="M36.8291 4.16911L34.5391 2.83911C39.2391 0.159114 43.4991 -0.0708861 46.5791 1.71911L48.8691 3.04911C45.7891 1.25911 41.5291 1.48911 36.8291 4.16911Z" fill="white" stroke="black" stroke-linecap="round" stroke-linejoin="round"/>
<path d="M36.8408 6.81984L34.5508 5.48984C34.5508 4.61984 34.5508 3.74984 34.5508 2.83984L36.8408 4.16984C36.8408 5.06984 36.8408 5.94984 36.8408 6.81984Z" fill="white"/>
<mask id="mask1_93_10944" style="mask-type:luminance" maskUnits="userSpaceOnUse" x="34" y="2" width="3" height="5">
<path d="M36.8408 6.81984L34.5508 5.48984C34.5508 4.61984 34.5508 3.74984 34.5508 2.83984L36.8408 4.16984C36.8408 5.06984 36.8408 5.94984 36.8408 6.81984Z" fill="white"/>
</mask>
<g mask="url(#mask1_93_10944)">
<path d="M36.8408 6.81984L34.5508 5.48984C34.5508 4.61984 34.5508 3.74984 34.5508 2.83984L36.8408 4.16984C36.8408 5.06984 36.8408 5.94984 36.8408 6.81984Z" fill="white" stroke="black" stroke-linecap="round" stroke-linejoin="round"/>
</g>
<path d="M36.8408 6.81984L34.5508 5.48984C34.5508 4.61984 34.5508 3.74984 34.5508 2.83984L36.8408 4.16984C36.8408 5.06984 36.8408 5.94984 36.8408 6.81984Z" stroke="black" stroke-linecap="round" stroke-linejoin="round"/>
<path d="M55.4398 12.7492L54.2298 13.4492C54.0398 9.08915 52.5498 5.85916 50.1798 4.01916C47.0598 1.25916 42.2498 1.07916 36.8398 4.16916C36.8398 5.06916 36.8398 5.94916 36.8398 6.81916C36.9598 6.93916 37.0698 7.03916 37.2498 7.17915C45.0898 2.91915 51.3698 6.03916 51.5398 14.9992L49.8698 15.9592L53.0698 18.5592L55.4198 12.7492H55.4398Z" fill="white" stroke="black" stroke-linecap="round" stroke-linejoin="round"/>
<path d="M18.6377 54.6201L16.3477 53.2901C19.0077 54.8401 22.6877 54.6401 26.7477 52.3301L29.0377 53.6601C24.9777 55.9701 21.3077 56.1701 18.6377 54.6201Z" fill="white" stroke="black" stroke-linecap="round" stroke-linejoin="round"/>
<path d="M16.9966 57.4185L14.7066 56.0885C11.7066 54.3385 9.81656 50.6785 9.72656 45.4785L12.0166 46.8085C12.1066 52.0085 13.9966 55.6785 16.9966 57.4185Z" fill="white" stroke="black" stroke-linecap="round" stroke-linejoin="round"/>
<path d="M10.4284 47.7195L8.14844 46.3895L10.9184 40.9395L13.2084 42.2695L10.4284 47.7195Z" fill="white" stroke="black" stroke-linecap="round" stroke-linejoin="round"/>
<path d="M13.2075 42.2695L13.6275 42.5695L15.9975 44.5095L14.3275 45.4795C14.5075 54.5595 21.0275 58.2195 29.0375 53.6595C29.1075 53.6995 29.4575 53.9595 29.4575 53.9595C29.4575 53.9595 29.0375 55.4595 29.0475 56.3095C19.7775 61.5995 12.2075 57.3595 12.0275 46.8195L10.8575 48.0295L10.4375 47.7295L13.2075 42.2795V42.2695Z" fill="white" stroke="black" stroke-linecap="round" stroke-linejoin="round"/>
<path d="M30.9081 29.7596C34.5422 29.7596 37.4881 26.8136 37.4881 23.1796C37.4881 19.5456 34.5422 16.5996 30.9081 16.5996C27.2741 16.5996 24.3281 19.5456 24.3281 23.1796C24.3281 26.8136 27.2741 29.7596 30.9081 29.7596Z" fill="#B69751" stroke="black" stroke-linecap="round" stroke-linejoin="round"/>
<path d="M27.1578 34.3387C27.1578 36.9387 25.0578 39.0387 22.4578 39.0387C19.8578 39.0387 17.7578 36.9387 17.7578 34.3387C17.7578 31.7387 19.8578 29.6387 22.4578 29.6387C25.0578 29.6387 27.1578 31.7387 27.1578 34.3387Z" fill="white" stroke="black" stroke-linecap="round" stroke-linejoin="round"/>
<path d="M34.5086 41.0992C36.8282 41.0992 38.7086 39.2188 38.7086 36.8992C38.7086 34.5796 36.8282 32.6992 34.5086 32.6992C32.189 32.6992 30.3086 34.5796 30.3086 36.8992C30.3086 39.2188 32.189 41.0992 34.5086 41.0992Z" fill="#B69751" stroke="black" stroke-linecap="round" stroke-linejoin="round"/>
<path d="M28.6877 45.2794C28.6877 46.6194 27.6077 47.6994 26.2677 47.6994C24.9277 47.6994 23.8477 46.6194 23.8477 45.2794C23.8477 43.9394 24.9277 42.8594 26.2677 42.8594C27.6077 42.8594 28.6877 43.9394 28.6877 45.2794Z" fill="#B69751" stroke="black" stroke-linecap="round" stroke-linejoin="round"/>
<path d="M44.2298 31.0788C45.8259 31.0788 47.1198 29.7849 47.1198 28.1888C47.1198 26.5927 45.8259 25.2988 44.2298 25.2988C42.6337 25.2988 41.3398 26.5927 41.3398 28.1888C41.3398 29.7849 42.6337 31.0788 44.2298 31.0788Z" fill="white" stroke="black" stroke-linecap="round" stroke-linejoin="round"/>
<path d="M45.5484 13.6687C45.5484 15.8488 43.7784 17.6188 41.5984 17.6188C39.4184 17.6188 37.6484 15.8488 37.6484 13.6687C37.6484 11.4887 39.4184 9.71875 41.5984 9.71875C43.7784 9.71875 45.5484 11.4887 45.5484 13.6687Z" fill="white" stroke="black" stroke-linecap="round" stroke-linejoin="round"/>
</g>
<defs>
<clipPath id="clip0_93_10944">
<rect width="64" height="64" fill="white"/>
</clipPath>
</defs>
</svg>
