<svg width="64" height="64" viewBox="0 0 64 64" fill="none" xmlns="http://www.w3.org/2000/svg">
<g clip-path="url(#clip0_93_11168)">
<path d="M15.62 23.5689C15.94 25.6389 16.9 27.6889 18.44 28.4589C19.98 29.2289 22.14 30.5289 22.85 27.5989C23.56 24.6689 36.46 13.3889 36.77 13.3389C37.08 13.2889 47.03 5.9189 47.03 5.9189C47.03 5.9189 46.5 3.9289 42.9 2.3889C39.35 0.868904 34.14 0.808904 30.2 2.1889C25.86 3.7089 23.26 6.0889 19.94 9.9689C16.54 13.9489 14.78 18.0489 15.63 23.5689H15.62Z" fill="#B69751" stroke="black" stroke-linecap="round" stroke-linejoin="round"/>
<path d="M19.2493 28.0393C18.3593 28.0393 17.5893 27.5193 17.0093 26.8693C16.3993 26.1893 16.2993 25.2693 17.1293 24.8793H17.1493C17.7093 24.6093 18.3793 24.7393 18.7793 25.2093C18.9793 25.4393 19.1593 25.5993 19.2693 25.6093C19.2893 25.5993 19.2993 25.5893 19.3193 25.5293C19.4793 25.0893 19.2893 23.9693 18.5993 22.7493C17.8993 21.4993 17.7893 20.0093 18.3093 18.7693C18.7993 17.5993 19.7993 16.7493 21.1393 16.3793C21.7593 16.2093 22.3093 16.1493 22.7893 16.1593C24.2193 16.1993 24.6593 18.1093 23.3893 18.7493C23.3893 18.7493 23.3893 18.7793 23.4293 18.8193C23.4193 18.7993 23.0793 18.3693 21.7893 18.7193C21.1693 18.8893 20.7593 19.2193 20.5593 19.7093C20.3293 20.2593 20.3893 20.9793 20.7293 21.5693C21.1093 22.2393 22.2893 24.5693 21.6093 26.3893C21.3393 27.1093 20.7993 27.6493 20.0793 27.9093C19.7993 28.0093 19.5293 28.0593 19.2693 28.0593L19.2493 28.0393Z" fill="#B69751" stroke="black" stroke-linecap="round" stroke-linejoin="round"/>
<path d="M17.0098 23.5489C16.3598 24.0589 15.3798 23.7889 15.1198 22.9989C14.9098 22.3789 14.7298 21.5689 14.7198 20.5789C14.6998 19.4289 14.9798 18.4889 15.3098 17.7889C15.6598 17.0389 16.6398 16.8689 17.2398 17.4289C17.6098 17.7889 17.7298 18.3389 17.5098 18.8089C17.3198 19.2189 17.1398 19.8089 17.1498 20.5389C17.1598 21.2389 17.2798 21.7889 17.4098 22.1889C17.5698 22.6789 17.4198 23.2189 17.0198 23.5489H17.0098Z" fill="white" stroke="black" stroke-linecap="round" stroke-linejoin="round"/>
<path d="M17.639 16.1494C17.009 15.6094 17.099 14.6094 17.809 14.1894C18.879 13.5394 20.629 12.8994 23.029 13.3194C23.799 13.4594 24.219 13.2794 24.329 13.0894C24.419 12.9394 24.389 12.7294 24.269 12.5494C24.069 12.2794 23.469 11.6794 22.219 11.8394C21.689 11.9094 21.229 12.0594 20.859 12.2094C20.349 12.4194 19.759 12.2494 19.429 11.7994C18.969 11.1594 19.209 10.2594 19.939 9.95942C20.469 9.73942 21.139 9.52942 21.909 9.42942C24.509 9.08942 25.869 10.6294 26.219 11.1094C26.939 12.0894 27.009 13.3694 26.399 14.3694C25.699 15.4994 24.289 15.9994 22.609 15.7094C20.929 15.4194 19.749 15.8494 19.069 16.2594C18.619 16.5294 18.039 16.4994 17.639 16.1494Z" fill="white" stroke="black" stroke-linecap="round" stroke-linejoin="round"/>
<path d="M31.729 9.27909C31.319 9.85909 30.509 9.96909 29.959 9.51909C28.659 8.44909 27.059 6.79909 27.209 5.24909C27.319 4.10909 27.899 3.24909 28.799 2.86909C29.759 2.46909 30.879 2.68909 31.869 3.48909L32.089 3.66909C32.519 4.01909 33.399 4.73909 33.719 4.67909C33.759 4.67909 33.899 4.57909 34.099 4.24909C34.119 4.20909 34.129 4.18909 34.129 4.18909C34.099 4.02909 33.769 3.72909 33.339 3.44909C32.849 3.12909 32.649 2.51909 32.859 1.97909C33.139 1.27909 33.989 0.989085 34.629 1.39909C35.339 1.84909 36.109 2.51909 36.419 3.40909C36.659 4.10909 36.579 4.82909 36.189 5.48909C35.659 6.39909 34.969 6.92909 34.149 7.07909C32.729 7.32909 31.529 6.34909 30.559 5.56909L30.349 5.39909C29.999 5.11909 29.779 5.10909 29.739 5.11909C29.729 5.12909 29.649 5.23909 29.629 5.49909C29.669 5.86909 30.499 6.80909 31.529 7.66909C32.009 8.06909 32.089 8.77909 31.729 9.29909V9.27909Z" fill="#B69751" stroke="black" stroke-linecap="round" stroke-linejoin="round"/>
<path d="M28.1398 10.9887C27.6398 11.2387 27.0398 11.0987 26.6798 10.6687C26.3998 10.3287 26.0198 9.9187 25.5198 9.5387C25.0298 9.1587 24.2998 8.8787 23.6898 8.6987C23.1198 8.5287 22.7698 7.9687 22.8598 7.3887V7.3187C22.9798 6.6087 23.6898 6.1687 24.3798 6.3687C25.1798 6.5987 26.2098 6.9987 27.0098 7.6187C27.6898 8.1487 28.2098 8.6987 28.5898 9.1587C29.0698 9.7487 28.8798 10.6187 28.2098 10.9587L28.1498 10.9887H28.1398Z" fill="white" stroke="black" stroke-linecap="round" stroke-linejoin="round"/>
<path d="M22.8996 30.7488C23.6796 32.1788 26.1096 34.6489 30.7396 35.2189C35.0196 35.7389 39.7896 34.5688 45.5596 31.3788C51.3396 28.1888 56.3696 25.8289 55.6696 17.8189C54.9696 9.80885 50.0596 6.83885 47.8796 5.94885C45.6996 5.05885 41.1496 5.05885 37.5196 6.90885C34.3396 8.53885 28.3996 12.7889 25.4096 18.2489C22.5896 23.3889 21.5696 28.3188 22.8896 30.7388L22.8996 30.7488Z" fill="#B69751" stroke="black" stroke-linecap="round" stroke-linejoin="round"/>
<path d="M31.179 34.5384C30.849 34.5384 30.519 34.5184 30.179 34.4884C27.679 34.2284 25.769 33.2584 24.929 31.8384C24.439 31.0084 24.359 30.0784 24.699 29.2584C25.479 27.4084 28.489 27.7084 31.279 28.4584C31.949 28.6384 32.329 29.3384 32.119 29.9984C31.919 30.6184 31.279 30.9684 30.659 30.8084C29.069 30.3984 27.519 30.1984 26.929 30.3484C26.939 30.4484 26.989 30.5384 27.029 30.5984C27.369 31.1684 28.439 31.8584 30.439 32.0684C32.029 32.2384 33.349 31.8784 33.959 31.0984C34.339 30.6284 34.409 30.0384 34.169 29.3384C33.799 28.2484 30.229 27.4584 27.259 27.4284L25.069 27.4084C24.289 27.4084 24.059 26.3284 24.779 26.0084L26.779 25.1084C26.779 25.1084 28.799 24.1384 28.399 22.9584C28.149 22.2184 27.459 21.9684 27.069 21.8884C26.299 21.7284 25.469 21.9384 25.049 22.3984C24.709 22.7684 24.659 23.2184 24.689 23.5784C24.729 24.0484 24.489 24.4984 24.069 24.7184H24.039C23.259 25.1384 22.329 24.6084 22.259 23.7384C22.189 22.8084 22.389 21.7184 23.239 20.7784C24.239 19.6684 25.929 19.1784 27.559 19.5184C29.089 19.8384 30.229 20.8184 30.699 22.1984C31.089 23.3784 30.819 24.4084 30.279 25.2384C32.709 25.5884 35.739 26.4384 36.459 28.5584C36.969 30.0484 36.749 31.4884 35.849 32.6184C34.859 33.8584 33.189 34.5384 31.179 34.5384Z" fill="white" stroke="black" stroke-linecap="round" stroke-linejoin="round"/>
<path d="M23.919 31.5102C23.379 32.0702 22.449 31.9802 22.059 31.3102C21.729 30.7602 21.439 30.0502 21.409 29.2602C21.389 28.7602 21.479 28.2702 21.599 27.8402C21.809 27.0902 22.669 26.7302 23.339 27.1302L23.389 27.1602C23.849 27.4302 24.079 27.9702 23.929 28.4802C23.869 28.7102 23.819 28.9502 23.829 29.1802C23.829 29.4602 23.959 29.7602 24.119 30.0202C24.389 30.4802 24.329 31.0602 23.959 31.4502L23.909 31.5002L23.919 31.5102Z" fill="white" stroke="black" stroke-linecap="round" stroke-linejoin="round"/>
<path d="M38.0501 34.239C37.2901 34.459 36.5301 33.899 36.5001 33.109C36.4801 32.389 36.6001 31.579 37.1201 30.979C37.4001 30.649 38.0401 30.129 39.1801 30.269C40.2601 30.409 40.9301 30.199 41.1901 29.949C41.2501 29.889 41.4301 29.729 41.4001 29.249C41.3701 28.709 41.0101 28.349 40.6401 28.119C40.2101 27.849 39.9801 27.349 40.0901 26.849V26.789C40.2901 26.009 41.1801 25.609 41.8701 26.029C42.8301 26.609 43.7501 27.609 43.8201 29.129C43.8901 30.459 43.3201 31.279 42.8301 31.729C41.9601 32.539 40.5801 32.869 38.9401 32.679C38.9301 32.769 38.9301 32.889 38.9401 33.019C38.9601 33.579 38.5901 34.079 38.0601 34.229L38.0501 34.239Z" fill="white" stroke="black" stroke-linecap="round" stroke-linejoin="round"/>
<path d="M45.5089 28.149C45.3189 28.149 45.1389 28.119 44.9589 28.069C43.6989 27.689 42.5489 25.909 43.4489 22.119C43.8889 20.299 42.8289 19.449 41.0489 18.259C39.8489 17.469 38.3689 16.479 38.8189 14.799C39.0689 13.849 39.6889 13.179 40.5689 12.909C42.3989 12.329 44.6989 13.689 45.7689 14.589C46.2189 14.959 46.5689 15.269 46.8489 15.529C47.4089 16.039 47.3789 16.929 46.7789 17.389L45.9489 18.039C45.9489 18.039 45.5789 17.609 44.2089 16.449C43.1489 15.559 41.7989 15.069 41.2989 15.219C41.2689 15.219 41.2389 15.239 41.1989 15.329C41.3889 15.559 41.9889 15.959 42.3989 16.229C43.9989 17.289 46.6789 19.069 45.8189 22.669C45.4989 23.999 45.5289 24.859 45.6289 25.339C45.6589 25.269 45.6889 25.199 45.7189 25.109C46.3589 23.359 47.4189 20.419 50.2689 20.829C51.1589 20.959 51.9189 21.549 52.2989 22.409C52.5389 22.949 52.6089 23.539 52.5189 24.139C52.3889 25.009 51.3689 25.439 50.6389 24.949C50.2489 24.679 50.0689 24.219 50.1189 23.739C50.1289 23.609 50.1189 23.489 50.0789 23.399C50.0289 23.299 49.9689 23.239 49.9189 23.239C49.4289 23.169 48.9489 23.329 47.9989 25.939C47.4289 27.499 46.4189 28.139 45.5089 28.139V28.149Z" fill="white" stroke="black" stroke-linecap="round" stroke-linejoin="round"/>
<path d="M45.5702 31.3796H45.5602C45.0102 31.3796 44.5902 30.8896 44.6802 30.3496L44.7102 30.1396V30.0796C44.8102 29.4696 45.2902 29.0096 45.8902 28.8896C46.3402 28.8096 46.8602 28.6196 47.3002 28.2296C47.7502 27.8196 48.0102 27.4096 48.1602 27.0696C48.3502 26.6396 48.7702 26.3496 49.2402 26.3496H49.3302C50.1702 26.3496 50.7402 27.1996 50.4102 27.9796C50.1502 28.6096 49.7002 29.3396 48.9302 30.0296C47.6402 31.1896 46.4502 31.3796 45.5802 31.3796H45.5702Z" fill="white" stroke="black" stroke-linecap="round" stroke-linejoin="round"/>
<path d="M53.6904 21.2491C52.8904 21.2491 52.1604 20.8591 51.5704 20.5391C51.2104 20.3491 50.8504 20.1491 50.4304 19.9891C49.6204 19.6691 49.0204 19.9091 48.6404 20.1891C48.2804 20.4591 47.8004 20.4991 47.4204 20.2591L47.3504 20.2191C46.5904 19.7591 46.5604 18.6891 47.2804 18.1891C48.2404 17.5091 49.6304 17.0691 51.3204 17.7291C51.8704 17.9491 52.3204 18.1891 52.7204 18.4091C53.6204 18.8991 53.6604 18.8691 53.8304 18.7291C53.8604 18.7091 53.8704 18.6891 53.8704 18.6891C53.8704 18.6191 53.7004 18.0991 52.7404 17.4291C52.0904 16.9691 51.1304 16.8391 50.3804 16.8191C49.7904 16.8091 49.2904 16.3791 49.2004 15.7891C49.0804 15.0491 49.6604 14.3691 50.4104 14.3891C51.4704 14.4091 52.9404 14.6091 54.1204 15.4391C55.4704 16.3791 56.2304 17.4991 56.2804 18.5991C56.3104 19.3791 55.9904 20.0891 55.3604 20.5991C54.7804 21.0791 54.2104 21.2491 53.6804 21.2491H53.6904Z" fill="#B69751" stroke="black" stroke-linecap="round" stroke-linejoin="round"/>
<path d="M25.9794 18.1801C25.3294 17.8901 25.0694 17.1101 25.4094 16.4901C26.1294 15.1701 27.4894 13.0001 29.3194 11.4101C31.3594 9.64014 33.4694 9.77014 34.6594 10.6801C35.7494 11.5101 36.0494 12.9601 35.3994 14.2601C35.6394 14.3501 36.0794 14.4101 36.5594 14.4301C37.1594 14.4501 37.6494 14.9101 37.7194 15.5101C37.7994 16.2401 37.2194 16.8901 36.4894 16.8601C35.3794 16.8201 33.9794 16.5701 33.3094 15.6201C33.0294 15.2301 32.6494 14.3801 33.2394 13.1701C33.4294 12.7801 33.2594 12.6501 33.1994 12.6001C32.8794 12.3601 31.9794 12.3201 30.9194 13.2301C29.3694 14.5701 28.1794 16.4901 27.5494 17.6401C27.2494 18.2001 26.5694 18.4201 25.9894 18.1601L25.9794 18.1801Z" fill="#B69751" stroke="black" stroke-linecap="round" stroke-linejoin="round"/>
<path d="M43.0706 21.2595C42.6906 19.8995 41.2506 18.7895 38.6706 17.8595C35.3506 16.6595 32.7706 17.5495 32.6606 17.5895C32.0306 17.7995 31.3006 17.9195 30.9306 17.8795C31.0106 17.4695 31.4606 17.0195 31.9306 16.6695C32.3306 16.3695 32.4706 15.8295 32.2506 15.3795L32.1006 15.0695C31.8106 14.4795 31.0606 14.2995 30.5306 14.6895C29.5806 15.3895 28.3606 16.6195 28.5106 18.2595C28.5706 18.9595 28.9206 19.5395 29.4806 19.8995C29.9606 20.2095 30.5506 20.3095 31.1406 20.3095C32.1706 20.3095 33.2106 19.9895 33.6606 19.8195C34.2106 19.6795 35.8206 19.3995 37.8506 20.1395C40.4306 21.0695 40.7106 21.8295 40.7406 21.9095C40.7606 21.9995 40.7106 22.1195 40.5806 22.2895C40.5306 22.3495 40.5006 22.3795 40.4806 22.3895C40.2506 22.3595 39.6506 22.0095 39.2506 21.7795C38.9306 21.5895 38.5706 21.3795 38.1706 21.1795C36.6406 20.3895 33.5306 19.9995 31.9306 21.1395C31.1606 21.6895 30.8006 22.5395 30.9406 23.4795C31.2606 25.6695 32.9306 25.6795 33.8306 25.6895C34.4906 25.6895 35.1706 25.6995 35.9506 26.1295C36.8006 26.5995 36.9506 27.3695 36.9106 27.9495C36.8806 28.4195 37.1606 28.8495 37.6006 29.0095L37.9006 29.1195C38.5606 29.3595 39.2606 28.9095 39.3206 28.2095C39.4206 26.8295 39.0206 25.0595 37.1306 24.0095C35.8106 23.2795 34.6406 23.2695 33.8606 23.2595C33.7006 23.2595 33.5006 23.2595 33.3706 23.2495C33.3706 23.2195 33.3606 23.1795 33.3506 23.1295C33.3506 23.1295 33.3506 23.1195 33.3506 23.1095C33.7606 22.7395 35.8806 22.7195 37.0706 23.3295C37.4106 23.4995 37.7206 23.6895 38.0306 23.8695C39.2206 24.5695 41.0206 25.6195 42.4806 23.7995C43.2906 22.7895 43.2606 21.8495 43.0806 21.2495L43.0706 21.2595Z" fill="white" stroke="black" stroke-linecap="round" stroke-linejoin="round"/>
<path d="M50.7995 8.74914C50.3995 9.17914 49.7495 9.25914 49.2495 8.93914C48.3395 8.34914 46.6995 7.54914 44.6195 7.54914H44.5995C42.2295 7.54914 40.7195 8.00914 39.8995 8.36914C39.4095 8.57914 38.8395 8.44914 38.4895 8.03914C37.9595 7.40914 38.1895 6.45914 38.9395 6.12914C40.0495 5.63914 41.8795 5.11914 44.5995 5.11914H44.6295C47.2995 5.11914 49.3695 6.11914 50.5695 6.89914C51.2095 7.30914 51.3195 8.19914 50.7995 8.75914L50.8995 8.65914L50.8095 8.75914L50.7995 8.74914Z" fill="white" stroke="black" stroke-linecap="round" stroke-linejoin="round"/>
<path d="M54.4195 13.3998C54.1795 13.9498 53.5695 14.2498 52.9895 14.0898C52.0295 13.8298 50.4795 13.5498 48.8895 13.8498C46.6195 14.2798 45.0895 14.0298 44.2295 13.0998C43.7795 12.6098 43.3195 11.7098 43.7295 10.2198C43.8895 9.6198 44.2695 9.1498 44.8195 8.8498C45.4495 8.5098 46.2295 8.4598 46.9095 8.5198C47.6895 8.5898 48.2095 9.3498 47.9695 10.0998C47.7995 10.6398 47.2695 10.9898 46.7095 10.9398C46.4295 10.9098 46.1895 10.9198 46.0495 10.9498C45.9595 11.3198 46.0195 11.4498 46.0195 11.4498C46.0195 11.4498 46.4495 11.8398 48.4395 11.4598C50.4695 11.0698 52.3995 11.4098 53.6195 11.7398C54.3395 11.9298 54.7095 12.7198 54.4195 13.3998Z" fill="white" stroke="black" stroke-linecap="round" stroke-linejoin="round"/>
<path d="M38.0798 12.5496C37.8998 12.5496 37.7098 12.5196 37.5198 12.4596C36.6198 12.1696 36.1798 11.2796 35.9098 10.5396C35.8098 10.2596 35.4098 10.0796 34.9798 9.96958C34.4498 9.83958 34.0898 9.34958 34.0898 8.80958C34.0898 8.00958 34.8398 7.42958 35.6098 7.62958C36.5698 7.87958 37.7098 8.42958 38.1798 9.67958C38.2198 9.78958 38.2598 9.86958 38.2898 9.94957C38.3298 9.91957 38.3798 9.88958 38.4198 9.86958C38.9998 9.48958 39.8798 8.91957 41.0398 8.98957C41.2598 8.99957 41.4598 9.02958 41.6498 9.05958C42.5698 9.22958 42.9598 10.3196 42.3598 11.0396L41.8398 11.6596C41.8398 11.6596 41.8498 11.6696 41.8698 11.6896C41.8598 11.6896 41.5398 11.4596 40.8798 11.4096C40.5198 11.3896 40.1498 11.6296 39.7498 11.8996C39.3198 12.1796 38.7498 12.5496 38.0898 12.5496H38.0798Z" fill="white" stroke="black" stroke-linecap="round" stroke-linejoin="round"/>
<path d="M37.3901 2.89938C36.9301 2.20938 37.2901 1.25938 38.1001 1.05938C38.7301 0.899381 39.5501 0.789381 40.5401 0.859381C41.6901 0.939381 42.6001 1.29938 43.2701 1.67938C43.9901 2.08938 44.0801 3.08938 43.4601 3.62938C43.0701 3.96938 42.5101 4.03938 42.0601 3.77938C41.6601 3.54938 41.1001 3.32938 40.3701 3.27938C39.6701 3.22938 39.1101 3.30938 38.7101 3.40938C38.2101 3.52938 37.6801 3.33938 37.3901 2.89938Z" fill="white" stroke="black" stroke-linecap="round" stroke-linejoin="round"/>
<path d="M55.7793 23.0898C55.7793 23.7798 55.2193 24.3398 54.5293 24.3398C53.8393 24.3398 53.2793 23.7798 53.2793 23.0898C53.2793 22.3998 53.8393 21.8398 54.5293 21.8398C55.2193 21.8398 55.7793 22.3998 55.7793 23.0898Z" fill="white" stroke="black" stroke-linecap="round" stroke-linejoin="round"/>
<path d="M35.9194 51.0487L37.9094 49.6387L37.8594 59.5987L35.8594 61.0087L35.9194 51.0487Z" fill="white" stroke="black" stroke-linecap="round" stroke-linejoin="round"/>
<path d="M33.5188 39.3789L42.4288 54.8089L35.9188 51.0489L35.8588 61.0089L31.0088 58.1989L31.0588 48.2489L24.5488 44.4889L33.5188 39.3789Z" fill="#B69751" stroke="black" stroke-linecap="round" stroke-linejoin="round"/>
<path d="M33.5195 39.3787L35.9495 38.2188L44.8595 53.6488L42.4295 54.8088L33.5195 39.3787Z" fill="white" stroke="black" stroke-linecap="round" stroke-linejoin="round"/>
</g>
<defs>
<clipPath id="clip0_93_11168">
<rect width="64" height="64" fill="white"/>
</clipPath>
</defs>
</svg>
