<svg width="64" height="64" viewBox="0 0 64 64" fill="none" xmlns="http://www.w3.org/2000/svg">
<g clip-path="url(#clip0_93_11195)">
<path d="M30.3492 4.2207L28.9192 3.2207L28.4492 14.7807L29.8792 15.7807C30.3192 16.0907 30.5292 16.4507 30.5092 16.8007L30.9792 5.2407C30.9892 4.8907 30.7892 4.5207 30.3492 4.2107V4.2207Z" fill="#77A200" stroke="black" stroke-linecap="round" stroke-linejoin="round"/>
<path d="M38.6295 4.94117C38.5395 4.98117 38.4595 5.02117 38.3895 5.06117C38.3895 5.06117 38.3895 5.06117 38.3795 5.06117C38.3195 5.09117 38.2695 5.13117 38.2095 5.16117C38.1995 5.16117 38.1895 5.18117 38.1695 5.19117C38.1395 5.21117 38.1095 5.23117 38.0795 5.26117C38.0795 5.26117 38.0595 5.27117 38.0595 5.28117C38.0195 5.31117 37.9895 5.35117 37.9495 5.38117C37.9395 5.39117 37.9195 5.41117 37.9095 5.42117C37.9095 5.42117 37.9095 5.42117 37.9095 5.43117C37.8895 5.45117 37.8695 5.48117 37.8495 5.50117C37.8295 5.52117 37.8195 5.54117 37.7995 5.56117C37.7995 5.56117 37.7995 5.56117 37.7995 5.57117C37.7895 5.59117 37.7795 5.61117 37.7595 5.63117C37.7495 5.65117 37.7295 5.67117 37.7195 5.70117C37.7195 5.70117 37.7195 5.71117 37.7195 5.72117C37.7195 5.74117 37.6995 5.76117 37.6995 5.78117C37.6995 5.80117 37.6795 5.82117 37.6795 5.84117C37.6795 5.84117 37.6795 5.86117 37.6795 5.87117C37.6795 5.89117 37.6695 5.91117 37.6695 5.94117C37.6695 5.96117 37.6695 5.98117 37.6595 6.00117C37.6595 6.02117 37.6595 6.04117 37.6595 6.06117L37.1895 17.6212C37.1895 17.6212 37.1895 17.5412 37.2095 17.5112C37.2095 17.4912 37.2095 17.4612 37.2195 17.4412C37.2195 17.4112 37.2395 17.3812 37.2495 17.3512C37.2495 17.3312 37.2695 17.3112 37.2695 17.2912C37.2795 17.2612 37.2995 17.2312 37.3195 17.2012C37.3295 17.1812 37.3395 17.1612 37.3595 17.1412C37.3795 17.1212 37.3995 17.0912 37.4195 17.0712C37.4395 17.0512 37.4595 17.0212 37.4795 17.0012C37.4995 16.9812 37.5195 16.9712 37.5295 16.9512C37.5595 16.9212 37.5995 16.8812 37.6395 16.8512C37.6795 16.8212 37.7095 16.7912 37.7595 16.7612C37.7695 16.7612 37.7795 16.7412 37.7995 16.7312C37.8595 16.6912 37.9195 16.6612 37.9795 16.6212C38.0595 16.5812 38.1395 16.5412 38.2195 16.5012L39.9595 15.7612L40.4295 4.20117L38.6895 4.94117H38.6295Z" fill="#77A200" stroke="black" stroke-linecap="round" stroke-linejoin="round"/>
<path d="M23.5101 11.3605L23.0301 22.9205L17.8301 19.2905L18.3001 7.73047L23.5101 11.3605Z" fill="white" stroke="black" stroke-linecap="round" stroke-linejoin="round"/>
<path d="M23.5092 11.3594L23.0292 22.9194L22.9492 22.9594L23.4192 11.3994L23.5092 11.3594Z" fill="white" stroke="black" stroke-linecap="round" stroke-linejoin="round"/>
<path d="M5.13998 21.7709C5.29998 17.9209 5.44998 14.0709 5.60998 10.2109C5.59998 10.5609 5.79998 10.9309 6.23998 11.2409L5.76998 22.8009C5.32998 22.4909 5.11998 22.1309 5.13998 21.7709Z" fill="white"/>
<mask id="mask0_93_11195" style="mask-type:luminance" maskUnits="userSpaceOnUse" x="5" y="10" width="2" height="13">
<path d="M5.13998 21.7709C5.29998 17.9209 5.44998 14.0709 5.60998 10.2109C5.59998 10.5609 5.79998 10.9309 6.23998 11.2409L5.76998 22.8009C5.32998 22.4909 5.11998 22.1309 5.13998 21.7709Z" fill="white"/>
</mask>
<g mask="url(#mask0_93_11195)">
<path d="M6.23998 11.2409L5.76998 22.8009C5.32998 22.4909 5.11998 22.1309 5.13998 21.7709L5.60998 10.2109C5.59998 10.5609 5.79998 10.9309 6.23998 11.2409Z" fill="white" stroke="black" stroke-linecap="round" stroke-linejoin="round"/>
</g>
<path d="M5.13998 21.7709C5.29998 17.9209 5.44998 14.0709 5.60998 10.2109C5.59998 10.5609 5.79998 10.9309 6.23998 11.2409L5.76998 22.8009C5.32998 22.4909 5.11998 22.1309 5.13998 21.7709Z" stroke="black" stroke-linecap="round" stroke-linejoin="round"/>
<path d="M42.859 12.9609L42.389 24.5209L40.959 23.5209L41.429 11.9609L42.859 12.9609Z" fill="white" stroke="black" stroke-linecap="round" stroke-linejoin="round"/>
<path d="M49.1087 10.3105L48.6387 21.8605L42.3887 24.5205L42.8587 12.9605L49.1087 10.3105Z" fill="white" stroke="black" stroke-linecap="round" stroke-linejoin="round"/>
<path d="M23.4191 11.4004L22.9491 22.9604L21.2891 23.6604L21.7691 12.1004L23.4191 11.4004Z" fill="white" stroke="black" stroke-linecap="round" stroke-linejoin="round"/>
<path d="M36.0293 24.321L36.4993 12.761C36.5193 12.331 36.8593 11.911 37.5093 11.641C38.6993 11.141 40.4493 11.281 41.4293 11.961L40.9593 23.521C39.9793 22.841 38.2293 22.691 37.0393 23.201C36.3893 23.481 36.0393 23.891 36.0293 24.321Z" fill="white"/>
<mask id="mask1_93_11195" style="mask-type:luminance" maskUnits="userSpaceOnUse" x="36" y="11" width="6" height="14">
<path d="M36.0293 24.321L36.4993 12.761C36.5193 12.331 36.8593 11.911 37.5093 11.641C38.6993 11.141 40.4493 11.281 41.4293 11.961L40.9593 23.521C39.9793 22.841 38.2293 22.691 37.0393 23.201C36.3893 23.481 36.0393 23.891 36.0293 24.321Z" fill="white"/>
</mask>
<g mask="url(#mask1_93_11195)">
<path d="M41.43 11.9612L40.96 23.5212C40.82 23.4212 40.67 23.3412 40.5 23.2612L40.97 11.7012C41.14 11.7812 41.29 11.8612 41.43 11.9612Z" fill="white" stroke="black" stroke-linecap="round" stroke-linejoin="round"/>
<path d="M40.9697 11.702L40.4997 23.262C40.3997 23.212 40.2897 23.172 40.1797 23.142L40.6497 11.582C40.7597 11.622 40.8697 11.662 40.9697 11.712" fill="white"/>
<path d="M40.9697 11.702L40.4997 23.262C40.3997 23.212 40.2897 23.172 40.1797 23.142L40.6497 11.582C40.7597 11.622 40.8697 11.662 40.9697 11.712" stroke="black" stroke-linecap="round" stroke-linejoin="round"/>
<path d="M40.6484 11.582L40.1784 23.142C40.0884 23.112 39.9884 23.082 39.8984 23.062L40.3684 11.502C40.4684 11.522 40.5584 11.552 40.6484 11.582Z" fill="white" stroke="black" stroke-linecap="round" stroke-linejoin="round"/>
<path d="M40.3689 11.4916L39.8989 23.0516C39.8089 23.0316 39.7189 23.0116 39.6289 22.9916L40.0989 11.4316C40.1889 11.4516 40.2789 11.4716 40.3589 11.4916" fill="white"/>
<path d="M40.3689 11.4916L39.8989 23.0516C39.8089 23.0316 39.7189 23.0116 39.6289 22.9916L40.0989 11.4316C40.1889 11.4516 40.2789 11.4716 40.3589 11.4916" stroke="black" stroke-linecap="round" stroke-linejoin="round"/>
<path d="M40.0991 11.4326L39.6291 22.9926C39.5391 22.9726 39.4591 22.9626 39.3691 22.9526L39.8391 11.3926C39.9291 11.4026 40.0191 11.4226 40.0991 11.4326Z" fill="white" stroke="black" stroke-linecap="round" stroke-linejoin="round"/>
<path d="M39.8396 11.3913L39.3696 22.9513C39.2796 22.9413 39.1896 22.9313 39.0996 22.9213L39.5696 11.3613C39.6596 11.3613 39.7496 11.3813 39.8396 11.3913Z" fill="white" stroke="black" stroke-linecap="round" stroke-linejoin="round"/>
<path d="M39.5801 11.3618L39.1101 22.9218C39.0201 22.9218 38.9301 22.9118 38.8301 22.9018L39.3001 11.3418C39.3901 11.3418 39.4901 11.3418 39.5801 11.3618Z" fill="white" stroke="black" stroke-linecap="round" stroke-linejoin="round"/>
<path d="M39.2993 11.3418L38.8293 22.9018C38.7293 22.9018 38.6293 22.9018 38.5293 22.9018L38.9993 11.3418C39.0993 11.3418 39.1993 11.3418 39.2993 11.3418Z" fill="white" stroke="black" stroke-linecap="round" stroke-linejoin="round"/>
<path d="M38.9995 11.3418L38.5295 22.9018C38.4195 22.9018 38.2995 22.9018 38.1895 22.9218L38.6595 11.3618C38.7695 11.3518 38.8795 11.3418 38.9995 11.3418Z" fill="white" stroke="black" stroke-linecap="round" stroke-linejoin="round"/>
<path d="M38.6585 11.3613L38.1885 22.9213C38.0385 22.9313 37.8785 22.9613 37.7285 22.9913L38.1985 11.4313C38.3485 11.4013 38.4985 11.3813 38.6585 11.3613Z" fill="white" stroke="black" stroke-linecap="round" stroke-linejoin="round"/>
<path d="M38.2091 11.4316L37.7391 22.9916C37.4991 23.0416 37.2591 23.1116 37.0491 23.2016C36.9591 23.2416 36.8691 23.2816 36.7891 23.3216L37.2591 11.7616C37.3391 11.7216 37.4191 11.6816 37.5091 11.6416C37.7291 11.5516 37.9591 11.4816 38.2091 11.4316Z" fill="white" stroke="black" stroke-linecap="round" stroke-linejoin="round"/>
<path d="M37.2602 11.7617L36.7902 23.3217C36.6802 23.3817 36.5802 23.4517 36.4902 23.5217L36.9602 11.9617C37.0502 11.8917 37.1502 11.8217 37.2602 11.7617Z" fill="white" stroke="black" stroke-linecap="round" stroke-linejoin="round"/>
<path d="M36.9584 11.9609L36.4884 23.5209C36.4284 23.5709 36.3684 23.6209 36.3184 23.6809L36.7884 12.1209C36.8384 12.0709 36.8984 12.0109 36.9584 11.9609Z" fill="white" stroke="black" stroke-linecap="round" stroke-linejoin="round"/>
<path d="M36.7892 12.1211L36.3192 23.6811C36.3192 23.6811 36.2392 23.7811 36.1992 23.8311L36.6692 12.2711C36.6992 12.2211 36.7392 12.1711 36.7892 12.1211Z" fill="white" stroke="black" stroke-linecap="round" stroke-linejoin="round"/>
<path d="M36.6691 12.2715L36.1991 23.8315C36.1991 23.8315 36.1391 23.9215 36.1191 23.9715L36.5891 12.4115C36.5891 12.4115 36.6391 12.3115 36.6691 12.2715Z" fill="white" stroke="black" stroke-linecap="round" stroke-linejoin="round"/>
<path d="M36.5886 12.4121L36.1186 23.9721C36.1186 23.9721 36.0786 24.0721 36.0586 24.1121L36.5286 12.5521C36.5286 12.5521 36.5586 12.4521 36.5786 12.4121" fill="white"/>
<path d="M36.5886 12.4121L36.1186 23.9721C36.1186 23.9721 36.0786 24.0721 36.0586 24.1121L36.5286 12.5521C36.5286 12.5521 36.5586 12.4521 36.5786 12.4121" stroke="black" stroke-linecap="round" stroke-linejoin="round"/>
<path d="M36.5293 12.5527L36.0593 24.1127C36.0593 24.1127 36.0393 24.2127 36.0293 24.2627L36.4993 12.7027C36.4993 12.7027 36.5193 12.6027 36.5293 12.5527Z" fill="white" stroke="black" stroke-linecap="round" stroke-linejoin="round"/>
<path d="M36.4993 12.7012L36.0293 24.2612C36.0293 24.2612 36.0293 24.3012 36.0293 24.3212L36.4993 12.7612C36.4993 12.7612 36.4993 12.7212 36.4993 12.7012Z" fill="white" stroke="black" stroke-linecap="round" stroke-linejoin="round"/>
</g>
<path d="M36.0293 24.321L36.4993 12.761C36.5193 12.331 36.8593 11.911 37.5093 11.641C38.6993 11.141 40.4493 11.281 41.4293 11.961L40.9593 23.521C39.9793 22.841 38.2293 22.691 37.0393 23.201C36.3893 23.481 36.0393 23.891 36.0293 24.321Z" stroke="black" stroke-linecap="round" stroke-linejoin="round"/>
<path d="M7.66953 12.2402L7.19953 23.8002L5.76953 22.8002L6.23953 11.2402L7.66953 12.2402Z" fill="white" stroke="black" stroke-linecap="round" stroke-linejoin="round"/>
<path d="M36.099 24.3705L36.569 12.8105C36.559 13.1605 36.759 13.5305 37.199 13.8405L36.729 25.4005C36.289 25.0905 36.079 24.7305 36.099 24.3705Z" fill="white"/>
<mask id="mask2_93_11195" style="mask-type:luminance" maskUnits="userSpaceOnUse" x="36" y="12" width="2" height="14">
<path d="M36.099 24.3705L36.569 12.8105C36.559 13.1605 36.759 13.5305 37.199 13.8405L36.729 25.4005C36.289 25.0905 36.079 24.7305 36.099 24.3705Z" fill="white"/>
</mask>
<g mask="url(#mask2_93_11195)">
<path d="M37.199 13.8405L36.729 25.4005C36.289 25.0905 36.079 24.7305 36.099 24.3705L36.569 12.8105C36.559 13.1605 36.759 13.5305 37.199 13.8405Z" fill="white" stroke="black" stroke-linecap="round" stroke-linejoin="round"/>
</g>
<path d="M36.099 24.3705L36.569 12.8105C36.559 13.1605 36.759 13.5305 37.199 13.8405L36.729 25.4005C36.289 25.0905 36.079 24.7305 36.099 24.3705Z" stroke="black" stroke-linecap="round" stroke-linejoin="round"/>
<path d="M20.2793 24.7796C20.4393 20.9296 20.5893 17.0696 20.7493 13.2196C20.7693 12.7896 21.1093 12.3696 21.7693 12.0996L21.2993 23.6596C20.6493 23.9396 20.2993 24.3496 20.2893 24.7796H20.2793Z" fill="white"/>
<mask id="mask3_93_11195" style="mask-type:luminance" maskUnits="userSpaceOnUse" x="20" y="12" width="2" height="13">
<path d="M20.2793 24.7796C20.4393 20.9296 20.5893 17.0696 20.7493 13.2196C20.7693 12.7896 21.1093 12.3696 21.7693 12.0996L21.2993 23.6596C20.6493 23.9396 20.2993 24.3496 20.2893 24.7796H20.2793Z" fill="white"/>
</mask>
<g mask="url(#mask3_93_11195)">
<path d="M21.7688 12.0996L21.2988 23.6596C21.2088 23.6996 21.1188 23.7396 21.0488 23.7796L21.5188 12.2196C21.5988 12.1796 21.6788 12.1396 21.7788 12.0996" fill="white"/>
<path d="M21.7688 12.0996L21.2988 23.6596C21.2088 23.6996 21.1188 23.7396 21.0488 23.7796L21.5188 12.2196C21.5988 12.1796 21.6788 12.1396 21.7788 12.0996" stroke="black" stroke-linecap="round" stroke-linejoin="round"/>
<path d="M21.5083 12.2188L21.0383 23.7788C20.9283 23.8388 20.8283 23.9087 20.7383 23.9787L21.2083 12.4187C21.2983 12.3487 21.3983 12.2787 21.5083 12.2188Z" fill="white" stroke="black" stroke-linecap="round" stroke-linejoin="round"/>
<path d="M21.2084 12.4199L20.7384 23.9799C20.6784 24.0299 20.6184 24.0799 20.5684 24.1399L21.0384 12.5799C21.0884 12.5299 21.1484 12.4699 21.2084 12.4199Z" fill="white" stroke="black" stroke-linecap="round" stroke-linejoin="round"/>
<path d="M21.0392 12.5801L20.5692 24.1401C20.5692 24.1401 20.4892 24.2401 20.4492 24.2901L20.9192 12.7301C20.9192 12.7301 20.9892 12.6301 21.0392 12.5801Z" fill="white" stroke="black" stroke-linecap="round" stroke-linejoin="round"/>
<path d="M20.9191 12.7305L20.4491 24.2905C20.4491 24.2905 20.3891 24.3805 20.3691 24.4305L20.8391 12.8705C20.8391 12.8705 20.8891 12.7705 20.9191 12.7305Z" fill="white" stroke="black" stroke-linecap="round" stroke-linejoin="round"/>
<path d="M20.8386 12.8691L20.3686 24.4291C20.3686 24.4291 20.3286 24.5291 20.3086 24.5691L20.7786 13.0091C20.7786 13.0091 20.8086 12.9091 20.8286 12.8691" fill="white"/>
<path d="M20.8386 12.8691L20.3686 24.4291C20.3686 24.4291 20.3286 24.5291 20.3086 24.5691L20.7786 13.0091C20.7786 13.0091 20.8086 12.9091 20.8286 12.8691" stroke="black" stroke-linecap="round" stroke-linejoin="round"/>
<path d="M20.7891 13.0098L20.3191 24.5698C20.3191 24.5698 20.2991 24.6698 20.2891 24.7198L20.7591 13.1598C20.7591 13.1098 20.7791 13.0598 20.7891 13.0098Z" fill="white" stroke="black" stroke-linecap="round" stroke-linejoin="round"/>
<path d="M20.7591 13.1602L20.2891 24.7202C20.2891 24.7202 20.2891 24.7602 20.2891 24.7802L20.7591 13.2202C20.7591 13.2202 20.7591 13.1802 20.7591 13.1602Z" fill="white" stroke="black" stroke-linecap="round" stroke-linejoin="round"/>
</g>
<path d="M20.2793 24.7796C20.4393 20.9296 20.5893 17.0696 20.7493 13.2196C20.7693 12.7896 21.1093 12.3696 21.7693 12.0996L21.2993 23.6596C20.6493 23.9396 20.2993 24.3496 20.2893 24.7796H20.2793Z" stroke="black" stroke-linecap="round" stroke-linejoin="round"/>
<path d="M38.5585 14.7898L38.0885 26.3398L36.7285 25.3998L37.1985 13.8398L38.5585 14.7898Z" fill="white" stroke="black" stroke-linecap="round" stroke-linejoin="round"/>
<path d="M38.6298 14.841L38.1598 26.391L38.0898 26.341L38.5598 14.791L38.6298 14.841Z" fill="white" stroke="black" stroke-linecap="round" stroke-linejoin="round"/>
<path d="M27.0387 13.8301L26.5687 25.3901L24.8887 26.1001L25.3587 14.5401L27.0387 13.8301Z" fill="white" stroke="black" stroke-linecap="round" stroke-linejoin="round"/>
<path d="M20.3392 24.7612C20.4992 20.9112 20.6492 17.0512 20.8092 13.2012C20.7992 13.5512 20.9992 13.9212 21.4392 14.2312C22.4192 14.9112 24.1692 15.0612 25.3592 14.5512L24.8892 26.1112C23.6992 26.6112 21.9492 26.4712 20.9692 25.7912C20.5292 25.4812 20.3192 25.1212 20.3392 24.7712V24.7612Z" fill="white"/>
<mask id="mask4_93_11195" style="mask-type:luminance" maskUnits="userSpaceOnUse" x="20" y="13" width="6" height="14">
<path d="M20.3392 24.7612C20.4992 20.9112 20.6492 17.0512 20.8092 13.2012C20.7992 13.5512 20.9992 13.9212 21.4392 14.2312C22.4192 14.9112 24.1692 15.0612 25.3592 14.5512L24.8892 26.1112C23.6992 26.6112 21.9492 26.4712 20.9692 25.7912C20.5292 25.4812 20.3192 25.1212 20.3392 24.7712V24.7612Z" fill="white"/>
</mask>
<g mask="url(#mask4_93_11195)">
<path d="M25.3592 14.541L24.8892 26.101C24.6692 26.191 24.4392 26.261 24.1992 26.311L24.6692 14.751C24.9092 14.701 25.1492 14.631 25.3692 14.541" fill="white"/>
<path d="M25.3592 14.541L24.8892 26.101C24.6692 26.191 24.4392 26.261 24.1992 26.311L24.6692 14.751C24.9092 14.701 25.1492 14.631 25.3692 14.541" stroke="black" stroke-linecap="round" stroke-linejoin="round"/>
<path d="M24.6683 14.7617L24.1983 26.3217C24.0483 26.3517 23.8983 26.3717 23.7383 26.3917L24.2083 14.8317C24.3683 14.8217 24.5183 14.7917 24.6683 14.7617Z" fill="white" stroke="black" stroke-linecap="round" stroke-linejoin="round"/>
<path d="M24.2084 14.8203L23.7384 26.3803C23.6284 26.3903 23.5184 26.4003 23.3984 26.4003L23.8684 14.8403C23.9784 14.8403 24.0984 14.8403 24.2084 14.8203Z" fill="white" stroke="black" stroke-linecap="round" stroke-linejoin="round"/>
<path d="M23.8696 14.8418L23.3996 26.4018C23.2996 26.4018 23.1996 26.4018 23.0996 26.4018L23.5696 14.8418C23.6696 14.8418 23.7696 14.8418 23.8696 14.8418Z" fill="white" stroke="black" stroke-linecap="round" stroke-linejoin="round"/>
<path d="M23.5684 14.8403L23.0984 26.4003C23.0084 26.4003 22.9184 26.4003 22.8184 26.3803L23.2884 14.8203C23.3784 14.8203 23.4684 14.8303 23.5684 14.8403Z" fill="white" stroke="black" stroke-linecap="round" stroke-linejoin="round"/>
<path d="M23.2986 14.8308L22.8286 26.3908C22.7386 26.3908 22.6486 26.3708 22.5586 26.3608L23.0286 14.8008C23.1186 14.8108 23.2086 14.8208 23.2986 14.8308Z" fill="white" stroke="black" stroke-linecap="round" stroke-linejoin="round"/>
<path d="M23.0288 14.792L22.5588 26.352C22.4688 26.342 22.3788 26.322 22.2988 26.312L22.7688 14.752C22.8588 14.772 22.9388 14.782 23.0288 14.792Z" fill="white" stroke="black" stroke-linecap="round" stroke-linejoin="round"/>
<path d="M22.7691 14.7514L22.2991 26.3114C22.2091 26.2914 22.1191 26.2714 22.0391 26.2514L22.5091 14.6914C22.5991 14.7114 22.6791 14.7314 22.7691 14.7514Z" fill="white" stroke="black" stroke-linecap="round" stroke-linejoin="round"/>
<path d="M22.5 14.6913L22.03 26.2513C21.93 26.2313 21.84 26.2013 21.75 26.1713L22.22 14.6113C22.31 14.6413 22.41 14.6713 22.5 14.6913Z" fill="white" stroke="black" stroke-linecap="round" stroke-linejoin="round"/>
<path d="M22.2197 14.6005L21.7497 26.1605C21.6397 26.1205 21.5297 26.0805 21.4297 26.0405L21.8997 14.4805C21.9997 14.5305 22.1097 14.5705 22.2197 14.6005Z" fill="white" stroke="black" stroke-linecap="round" stroke-linejoin="round"/>
<path d="M21.8992 14.4812L21.4292 26.0412C21.2592 25.9712 21.1092 25.8812 20.9692 25.7812C20.5292 25.4712 20.3192 25.1112 20.3392 24.7612L20.8092 13.2012C20.7992 13.5512 20.9992 13.9212 21.4392 14.2312C21.5792 14.3312 21.7292 14.4112 21.8992 14.4912" fill="white"/>
<path d="M21.8992 14.4812L21.4292 26.0412C21.2592 25.9712 21.1092 25.8812 20.9692 25.7812C20.5292 25.4712 20.3192 25.1112 20.3392 24.7612L20.8092 13.2012C20.7992 13.5512 20.9992 13.9212 21.4392 14.2312C21.5792 14.3312 21.7292 14.4112 21.8992 14.4912" stroke="black" stroke-linecap="round" stroke-linejoin="round"/>
</g>
<path d="M20.3392 24.7612C20.4992 20.9112 20.6492 17.0512 20.8092 13.2012C20.7992 13.5512 20.9992 13.9212 21.4392 14.2312C22.4192 14.9112 24.1692 15.0612 25.3592 14.5512L24.8892 26.1112C23.6992 26.6112 21.9492 26.4712 20.9692 25.7912C20.5292 25.4812 20.3192 25.1212 20.3392 24.7712V24.7612Z" stroke="black" stroke-linecap="round" stroke-linejoin="round"/>
<path d="M60.6595 14.7209C60.6595 14.7209 60.6595 14.7709 60.6495 14.7909C60.6495 14.8209 60.6295 14.8509 60.6195 14.8809C60.6195 14.9009 60.6095 14.9209 60.5995 14.9409C60.5895 14.9709 60.5695 15.0009 60.5495 15.0309C60.5395 15.0509 60.5295 15.0709 60.5095 15.0909C60.4895 15.1209 60.4695 15.1409 60.4495 15.1709C60.4295 15.1909 60.4095 15.2209 60.3895 15.2409C60.3695 15.2609 60.3495 15.2809 60.3395 15.2909C60.3095 15.3209 60.2695 15.3609 60.2295 15.3909C60.1895 15.4209 60.1495 15.4509 60.1095 15.4809C60.0995 15.4809 60.0895 15.5009 60.0695 15.5109C60.0095 15.5509 59.9495 15.5809 59.8895 15.6209C59.8095 15.6609 59.7295 15.7009 59.6495 15.7409L57.9095 16.4809L57.4395 28.0409L59.1795 27.3009C59.2695 27.2609 59.3495 27.2209 59.4195 27.1809C59.4195 27.1809 59.4195 27.1809 59.4295 27.1809C59.4895 27.1509 59.5495 27.1109 59.5995 27.0809C59.6095 27.0809 59.6295 27.0609 59.6395 27.0509C59.6695 27.0309 59.6995 27.0109 59.7295 26.9809C59.7295 26.9809 59.7395 26.9709 59.7495 26.9609C59.7895 26.9309 59.8195 26.8909 59.8595 26.8609C59.8695 26.8509 59.8895 26.8309 59.8995 26.8209C59.8995 26.8209 59.8995 26.8209 59.8995 26.8109C59.9195 26.7909 59.9395 26.7609 59.9595 26.7409C59.9795 26.7209 59.9995 26.7009 60.0095 26.6809C60.0095 26.6809 60.0095 26.6809 60.0095 26.6709C60.0195 26.6509 60.0295 26.6309 60.0395 26.6109C60.0495 26.5909 60.0695 26.5609 60.0795 26.5409C60.0795 26.5409 60.0795 26.5309 60.0795 26.5209C60.0795 26.5009 60.0995 26.4809 60.0995 26.4609C60.0995 26.4409 60.1195 26.4209 60.1295 26.4009C60.1295 26.4009 60.1295 26.3809 60.1295 26.3709C60.1295 26.3509 60.1295 26.3309 60.1395 26.3009C60.1395 26.2809 60.1395 26.2609 60.1495 26.2509C60.1495 26.2509 60.1495 26.2109 60.1495 26.1909C60.3095 22.3409 60.4595 18.4809 60.6195 14.6309C60.6195 14.6709 60.6195 14.7109 60.5995 14.7509L60.6595 14.7209Z" fill="white"/>
<path d="M60.1495 26.2509C60.1395 26.2609 60.1395 26.2809 60.1395 26.3009C60.1295 26.3309 60.1295 26.3509 60.1295 26.3709C60.1295 26.3809 60.1295 26.4009 60.1295 26.4009C60.1195 26.4209 60.0995 26.4409 60.0995 26.4609C60.0995 26.4809 60.0795 26.5009 60.0795 26.5209C60.0795 26.5309 60.0795 26.5409 60.0795 26.5409C60.0695 26.5609 60.0495 26.5909 60.0395 26.6109C60.0295 26.6309 60.0195 26.6509 60.0095 26.6709C60.0095 26.6809 60.0095 26.6809 60.0095 26.6809C59.9995 26.7009 59.9795 26.7209 59.9595 26.7409C59.9395 26.7609 59.9195 26.7909 59.8995 26.8109C59.8995 26.8209 59.8995 26.8209 59.8995 26.8209C59.8895 26.8309 59.8695 26.8509 59.8595 26.8609C59.8195 26.8909 59.7895 26.9309 59.7495 26.9609C59.7395 26.9709 59.7295 26.9809 59.7295 26.9809C59.6995 27.0109 59.6695 27.0309 59.6395 27.0509C59.6295 27.0609 59.6095 27.0809 59.5995 27.0809C59.5495 27.1109 59.4895 27.1509 59.4295 27.1809C59.4195 27.1809 59.4195 27.1809 59.4195 27.1809C59.3495 27.2209 59.2695 27.2609 59.1795 27.3009L57.4395 28.0409L57.9095 16.4809L59.6495 15.7409C59.7295 15.7009 59.8095 15.6609 59.8895 15.6209C59.9495 15.5809 60.0095 15.5509 60.0695 15.5109C60.0895 15.5009 60.0995 15.4809 60.1095 15.4809C60.1495 15.4509 60.1895 15.4209 60.2295 15.3909C60.2695 15.3609 60.3095 15.3209 60.3395 15.2909C60.3495 15.2809 60.3695 15.2609 60.3895 15.2409C60.4095 15.2209 60.4295 15.1909 60.4495 15.1709C60.4695 15.1409 60.4895 15.1209 60.5095 15.0909C60.5295 15.0709 60.5395 15.0509 60.5495 15.0309C60.5695 15.0009 60.5895 14.9709 60.5995 14.9409C60.6095 14.9209 60.6195 14.9009 60.6195 14.8809C60.6295 14.8509 60.6495 14.8209 60.6495 14.7909C60.6595 14.7709 60.6595 14.7209 60.6595 14.7209L60.5995 14.7509C60.6195 14.7109 60.6195 14.6709 60.6195 14.6309C60.4595 18.4809 60.3095 22.3409 60.1495 26.1909C60.1495 26.2109 60.1495 26.2509 60.1495 26.2509ZM60.1495 26.2509V26.2109" stroke="black" stroke-linecap="round" stroke-linejoin="round"/>
<path d="M32.2384 17.4701L31.7684 29.0201L26.5684 25.3901L27.0384 13.8301L32.2384 17.4701Z" fill="white" stroke="black" stroke-linecap="round" stroke-linejoin="round"/>
<path d="M38.5595 14.791L38.0895 26.341L31.6895 29.061L32.1595 17.501L38.5595 14.791Z" fill="white" stroke="black" stroke-linecap="round" stroke-linejoin="round"/>
<path d="M32.2395 17.4707L31.7695 29.0207L31.6895 29.0607L32.1595 17.5007L32.2395 17.4707Z" fill="white" stroke="black" stroke-linecap="round" stroke-linejoin="round"/>
<path d="M35.1686 0.570312L40.3686 4.21031L38.6286 4.95031C37.4386 5.45031 37.2686 6.41031 38.2486 7.10031C39.2286 7.78031 40.9786 7.93031 42.1686 7.42031L43.9086 6.68031L49.1186 10.3103L42.8586 12.9703L41.4286 11.9703C40.4486 11.2903 38.6986 11.1403 37.5086 11.6503C36.3186 12.1503 36.1486 13.1203 37.1286 13.8003L37.1986 13.8503L38.5586 14.8003L32.1586 17.5203L32.2486 17.4803L27.0486 13.8403L25.3686 14.5503C24.1786 15.0503 22.4286 14.9103 21.4486 14.2303C20.4686 13.5503 20.6486 12.5903 21.8286 12.0803L23.4186 11.4103L23.5086 11.3703L18.3086 7.73031L24.6286 5.05031L26.0586 6.05031C27.0386 6.73031 28.7886 6.88031 29.9786 6.37031C31.1686 5.87031 31.3386 4.90031 30.3586 4.22031L28.9286 3.22031L35.1786 0.570312H35.1686Z" fill="#77A200" stroke="black" stroke-linecap="round" stroke-linejoin="round"/>
<path d="M6.54914 18.5597L6.07914 30.1197L0.869141 26.4897L1.33914 14.9297L6.54914 18.5597Z" fill="white" stroke="black" stroke-linecap="round" stroke-linejoin="round"/>
<path d="M25.9098 20.1504L25.4398 31.7104L24.0098 30.7104L24.4798 19.1504L25.9098 20.1504Z" fill="white" stroke="black" stroke-linecap="round" stroke-linejoin="round"/>
<path d="M32.1595 17.5L31.6895 29.06L25.4395 31.71L25.9095 20.15L32.1595 17.5Z" fill="white" stroke="black" stroke-linecap="round" stroke-linejoin="round"/>
<path d="M19.0801 31.5105L19.5501 19.9505C19.5701 19.5205 19.9101 19.1105 20.5701 18.8305C21.7601 18.3305 23.5101 18.4705 24.4901 19.1505L24.0201 30.7105C23.0401 30.0305 21.2901 29.8805 20.1001 30.3905C19.4501 30.6705 19.1001 31.0805 19.0801 31.5105Z" fill="white"/>
<mask id="mask5_93_11195" style="mask-type:luminance" maskUnits="userSpaceOnUse" x="19" y="18" width="6" height="14">
<path d="M19.0801 31.5105L19.5501 19.9505C19.5701 19.5205 19.9101 19.1105 20.5701 18.8305C21.7601 18.3305 23.5101 18.4705 24.4901 19.1505L24.0201 30.7105C23.0401 30.0305 21.2901 29.8805 20.1001 30.3905C19.4501 30.6705 19.1001 31.0805 19.0801 31.5105Z" fill="white"/>
</mask>
<g mask="url(#mask5_93_11195)">
<path d="M24.4808 19.1506L24.0108 30.7106C23.8708 30.6106 23.7208 30.5306 23.5508 30.4506L24.0208 18.8906C24.1908 18.9706 24.3408 19.0506 24.4808 19.1506Z" fill="white" stroke="black" stroke-linecap="round" stroke-linejoin="round"/>
<path d="M24.0205 18.9012L23.5505 30.4612C23.4505 30.4112 23.3405 30.3712 23.2305 30.3412L23.7005 18.7812C23.8105 18.8212 23.9205 18.8612 24.0205 18.9012Z" fill="white" stroke="black" stroke-linecap="round" stroke-linejoin="round"/>
<path d="M23.709 18.7714L23.239 30.3314C23.149 30.3014 23.049 30.2714 22.959 30.2514L23.429 18.6914C23.529 18.7114 23.619 18.7414 23.709 18.7714Z" fill="white" stroke="black" stroke-linecap="round" stroke-linejoin="round"/>
<path d="M23.4195 18.6909L22.9495 30.2509C22.8595 30.2309 22.7695 30.2109 22.6895 30.1909L23.1595 18.6309C23.2495 18.6509 23.3395 18.6709 23.4295 18.6909" fill="white"/>
<path d="M23.4195 18.6909L22.9495 30.2509C22.8595 30.2309 22.7695 30.2109 22.6895 30.1909L23.1595 18.6309C23.2495 18.6509 23.3395 18.6709 23.4295 18.6909" stroke="black" stroke-linecap="round" stroke-linejoin="round"/>
<path d="M23.1597 18.6318L22.6897 30.1918C22.5997 30.1718 22.5197 30.1618 22.4297 30.1518L22.8997 18.5918C22.9897 18.6018 23.0797 18.6218 23.1597 18.6318Z" fill="white" stroke="black" stroke-linecap="round" stroke-linejoin="round"/>
<path d="M22.9002 18.5808L22.4302 30.1408C22.3402 30.1308 22.2502 30.1208 22.1602 30.1108L22.6302 18.5508C22.7202 18.5508 22.8102 18.5708 22.9002 18.5808Z" fill="white" stroke="black" stroke-linecap="round" stroke-linejoin="round"/>
<path d="M22.6289 18.5512L22.1589 30.1112C22.0689 30.1112 21.9789 30.1012 21.8789 30.0912L22.3489 18.5313C22.4389 18.5313 22.5289 18.5312 22.6289 18.5512Z" fill="white" stroke="black" stroke-linecap="round" stroke-linejoin="round"/>
<path d="M22.3501 18.5312L21.8801 30.0912C21.7801 30.0912 21.6801 30.0912 21.5801 30.0912L22.0501 18.5312C22.1501 18.5312 22.2501 18.5312 22.3501 18.5312Z" fill="white" stroke="black" stroke-linecap="round" stroke-linejoin="round"/>
<path d="M22.06 18.5312L21.59 30.0912C21.48 30.0912 21.36 30.0912 21.25 30.1112L21.72 18.5512C21.83 18.5412 21.95 18.5312 22.06 18.5312Z" fill="white" stroke="black" stroke-linecap="round" stroke-linejoin="round"/>
<path d="M21.7191 18.5508L21.2491 30.1108C21.0891 30.1308 20.9391 30.1508 20.7891 30.1808L21.2591 18.6208C21.4091 18.5908 21.5591 18.5708 21.7191 18.5508Z" fill="white" stroke="black" stroke-linecap="round" stroke-linejoin="round"/>
<path d="M21.2598 18.6211L20.7898 30.1811C20.5398 30.2311 20.3098 30.3011 20.0998 30.3911C20.0098 30.4311 19.9198 30.4711 19.8398 30.5111L20.3098 18.9511C20.3898 18.9111 20.4698 18.8611 20.5598 18.8311C20.7798 18.7411 21.0098 18.6711 21.2498 18.6211" fill="white"/>
<path d="M21.2598 18.6211L20.7898 30.1811C20.5398 30.2311 20.3098 30.3011 20.0998 30.3911C20.0098 30.4311 19.9198 30.4711 19.8398 30.5111L20.3098 18.9511C20.3898 18.9111 20.4698 18.8611 20.5598 18.8311C20.7798 18.7411 21.0098 18.6711 21.2498 18.6211" stroke="black" stroke-linecap="round" stroke-linejoin="round"/>
<path d="M20.3091 18.9609L19.8391 30.5209C19.7291 30.5809 19.6291 30.6509 19.5391 30.7209L20.0091 19.1609C20.0991 19.0909 20.1991 19.0209 20.3091 18.9609Z" fill="white" stroke="black" stroke-linecap="round" stroke-linejoin="round"/>
<path d="M20.0091 19.1504L19.5391 30.7104C19.4791 30.7604 19.4191 30.8104 19.3691 30.8704L19.8391 19.3104C19.8891 19.2604 19.9491 19.2004 20.0091 19.1504Z" fill="white" stroke="black" stroke-linecap="round" stroke-linejoin="round"/>
<path d="M19.84 19.3105L19.37 30.8705C19.37 30.8705 19.29 30.9705 19.25 31.0205L19.72 19.4605C19.75 19.4105 19.79 19.3605 19.84 19.3105Z" fill="white" stroke="black" stroke-linecap="round" stroke-linejoin="round"/>
<path d="M19.7199 19.4609L19.2499 31.0209C19.2499 31.0209 19.1899 31.1109 19.1699 31.1609L19.6399 19.6009C19.6399 19.6009 19.6899 19.5009 19.7199 19.4609Z" fill="white" stroke="black" stroke-linecap="round" stroke-linejoin="round"/>
<path d="M19.6394 19.6016L19.1694 31.1616C19.1694 31.1616 19.1294 31.2516 19.1094 31.3016L19.5794 19.7416C19.5794 19.7416 19.6094 19.6416 19.6294 19.6016" fill="white"/>
<path d="M19.6394 19.6016L19.1694 31.1616C19.1694 31.1616 19.1294 31.2516 19.1094 31.3016L19.5794 19.7416C19.5794 19.7416 19.6094 19.6416 19.6294 19.6016" stroke="black" stroke-linecap="round" stroke-linejoin="round"/>
<path d="M19.5898 19.7422L19.1198 31.3022C19.1198 31.3022 19.0998 31.4022 19.0898 31.4522L19.5598 19.8922C19.5598 19.8922 19.5798 19.7922 19.5898 19.7422Z" fill="white" stroke="black" stroke-linecap="round" stroke-linejoin="round"/>
<path d="M19.5598 19.8906L19.0898 31.4506C19.0898 31.4506 19.0898 31.4906 19.0898 31.5106L19.5598 19.9506C19.5598 19.9506 19.5598 19.9106 19.5598 19.8906Z" fill="white" stroke="black" stroke-linecap="round" stroke-linejoin="round"/>
</g>
<path d="M19.0801 31.5105L19.5501 19.9505C19.5701 19.5205 19.9101 19.1105 20.5701 18.8305C21.7601 18.3305 23.5101 18.4705 24.4901 19.1505L24.0201 30.7105C23.0401 30.0305 21.2901 29.8805 20.1001 30.3905C19.4501 30.6705 19.1001 31.0805 19.0801 31.5105Z" stroke="black" stroke-linecap="round" stroke-linejoin="round"/>
<path d="M37.4298 21.1908L36.9598 32.7508L31.7598 29.1108L32.2298 17.5508L37.4298 21.1908Z" fill="white" stroke="black" stroke-linecap="round" stroke-linejoin="round"/>
<path d="M19.1497 31.56C19.3097 27.71 19.4597 23.85 19.6197 20C19.5997 20.35 19.8097 20.72 20.2497 21.03L19.7797 32.59C19.3397 32.28 19.1297 31.92 19.1497 31.56Z" fill="white"/>
<mask id="mask6_93_11195" style="mask-type:luminance" maskUnits="userSpaceOnUse" x="19" y="20" width="2" height="13">
<path d="M19.1497 31.56C19.3097 27.71 19.4597 23.85 19.6197 20C19.5997 20.35 19.8097 20.72 20.2497 21.03L19.7797 32.59C19.3397 32.28 19.1297 31.92 19.1497 31.56Z" fill="white"/>
</mask>
<g mask="url(#mask6_93_11195)">
<path d="M20.2595 21.03L19.7895 32.59C19.3495 32.28 19.1395 31.92 19.1595 31.56L19.6295 20C19.6095 20.35 19.8195 20.72 20.2595 21.03Z" fill="white" stroke="black" stroke-linecap="round" stroke-linejoin="round"/>
</g>
<path d="M19.1497 31.56C19.3097 27.71 19.4597 23.85 19.6197 20C19.5997 20.35 19.8097 20.72 20.2497 21.03L19.7797 32.59C19.3397 32.28 19.1297 31.92 19.1497 31.56Z" stroke="black" stroke-linecap="round" stroke-linejoin="round"/>
<path d="M37.4291 21.1895L36.9591 32.7495L35.3691 33.4195L35.8391 21.8595L37.4291 21.1895Z" fill="white" stroke="black" stroke-linecap="round" stroke-linejoin="round"/>
<path d="M63.1284 20.0898L62.6584 31.6498L56.3984 34.3098L56.8684 22.7498L63.1284 20.0898Z" fill="white" stroke="black" stroke-linecap="round" stroke-linejoin="round"/>
<path d="M55.4396 21.7504C55.3696 21.7004 55.2996 21.6604 55.2296 21.6204C55.2096 21.6104 55.1796 21.6004 55.1596 21.5804C55.1096 21.5504 55.0596 21.5304 55.0096 21.5004C55.0096 21.5004 54.9896 21.5004 54.9796 21.4904C54.9696 21.4904 54.9496 21.4804 54.9296 21.4704C54.8596 21.4404 54.7896 21.4104 54.7096 21.3804C54.6896 21.3804 54.6796 21.3704 54.6596 21.3604C54.6496 21.3604 54.6396 21.3604 54.6196 21.3504C54.5596 21.3304 54.4996 21.3104 54.4396 21.3004C54.4196 21.3004 54.3996 21.2904 54.3696 21.2804C54.3696 21.2804 54.3596 21.2804 54.3496 21.2804C54.2996 21.2704 54.2496 21.2504 54.1896 21.2404C54.1596 21.2404 54.1296 21.2304 54.0996 21.2204H54.0896C54.0396 21.2204 53.9996 21.2004 53.9496 21.2004C53.9196 21.2004 53.8796 21.1904 53.8396 21.1804C53.8396 21.1804 53.8396 21.1804 53.8296 21.1804C53.7796 21.1804 53.7396 21.1704 53.6896 21.1604C53.6496 21.1604 53.6196 21.1604 53.5796 21.1504C53.5796 21.1504 53.5796 21.1504 53.5696 21.1504C53.5196 21.1504 53.4596 21.1504 53.4096 21.1504C53.3796 21.1504 53.3396 21.1504 53.3096 21.1504C53.2196 21.1504 53.1196 21.1504 53.0296 21.1504C53.0296 21.1504 53.0096 21.1504 52.9996 21.1504C52.9096 21.1504 52.8196 21.1504 52.7296 21.1704C52.7196 21.1704 52.7096 21.1704 52.6896 21.1704C52.6796 21.1704 52.6596 21.1704 52.6496 21.1704C52.5096 21.1804 52.3696 21.2004 52.2396 21.2304C52.2396 21.2304 52.2196 21.2304 52.2096 21.2304C52.1096 21.2504 52.0196 21.2704 51.9196 21.3004C51.8896 21.3004 51.8696 21.3204 51.8396 21.3304C51.7396 21.3604 51.6396 21.4004 51.5396 21.4404C51.4496 21.4804 51.3696 21.5204 51.2996 21.5604C51.2996 21.5604 51.2996 21.5604 51.2896 21.5604C51.2296 21.5904 51.1796 21.6304 51.1196 21.6604C51.1096 21.6604 51.0896 21.6804 51.0796 21.6904C51.0496 21.7104 51.0196 21.7304 50.9896 21.7604C50.9896 21.7604 50.9796 21.7704 50.9696 21.7804C50.9296 21.8104 50.8996 21.8504 50.8596 21.8804C50.8496 21.8904 50.8296 21.9104 50.8196 21.9204C50.8196 21.9204 50.8196 21.9204 50.8196 21.9304C50.7996 21.9504 50.7796 21.9804 50.7596 22.0004C50.7396 22.0204 50.7296 22.0404 50.7096 22.0604C50.7096 22.0604 50.7096 22.0604 50.7096 22.0704C50.6996 22.0904 50.6896 22.1104 50.6796 22.1304C50.6696 22.1504 50.6496 22.1804 50.6396 22.2004C50.6396 22.2004 50.6396 22.2104 50.6396 22.2204C50.6396 22.2404 50.6196 22.2604 50.6196 22.2804C50.6196 22.3004 50.5996 22.3204 50.5896 22.3404C50.5896 22.3404 50.5896 22.3604 50.5896 22.3704C50.5896 22.3904 50.5896 22.4104 50.5796 22.4404C50.5796 22.4604 50.5796 22.4804 50.5696 22.4904C50.5696 22.5104 50.5696 22.5304 50.5696 22.5504L50.0996 34.1104C50.0996 34.1104 50.1096 34.0304 50.1196 33.9904C50.1196 33.9704 50.1196 33.9504 50.1296 33.9204C50.1296 33.8904 50.1496 33.8604 50.1596 33.8304C50.1596 33.8104 50.1696 33.7904 50.1796 33.7704C50.1896 33.7404 50.2096 33.7104 50.2296 33.6804C50.2396 33.6604 50.2496 33.6404 50.2696 33.6204C50.2896 33.6004 50.3096 33.5704 50.3296 33.5504C50.3496 33.5304 50.3696 33.5004 50.3896 33.4804C50.4096 33.4604 50.4196 33.4504 50.4396 33.4304C50.4696 33.4004 50.5096 33.3604 50.5496 33.3304C50.5896 33.3004 50.6296 33.2704 50.6696 33.2404C50.6796 33.2404 50.6896 33.2204 50.6996 33.2104C50.7596 33.1704 50.8196 33.1404 50.8796 33.1004C50.9596 33.0604 51.0396 33.0204 51.1196 32.9804C51.2196 32.9404 51.3196 32.9004 51.4196 32.8704C51.4496 32.8704 51.4696 32.8504 51.4996 32.8404C51.5896 32.8104 51.6796 32.7904 51.7796 32.7704C51.7896 32.7704 51.8096 32.7704 51.8196 32.7704C51.9496 32.7404 52.0896 32.7204 52.2296 32.7104C52.2596 32.7104 52.2796 32.7104 52.2996 32.7104C52.3896 32.7104 52.4796 32.7004 52.5596 32.6904C52.5696 32.6904 52.5896 32.6904 52.5996 32.6904C52.6896 32.6904 52.7896 32.6904 52.8796 32.6904C52.9096 32.6904 52.9496 32.6904 52.9796 32.6904C53.0396 32.6904 53.0896 32.6904 53.1496 32.6904C53.1896 32.6904 53.2296 32.6904 53.2696 32.7004C53.3196 32.7004 53.3696 32.7004 53.4096 32.7204C53.4496 32.7204 53.4896 32.7304 53.5396 32.7404C53.5796 32.7404 53.6296 32.7504 53.6696 32.7604C53.7096 32.7604 53.7396 32.7804 53.7796 32.7804C53.8296 32.7904 53.8796 32.8004 53.9296 32.8104C53.9596 32.8104 53.9896 32.8304 54.0196 32.8404C54.0796 32.8604 54.1396 32.8704 54.1996 32.8904C54.2296 32.8904 54.2496 32.9104 54.2796 32.9204C54.3596 32.9504 54.4296 32.9804 54.5096 33.0104C54.5296 33.0104 54.5596 33.0304 54.5796 33.0404C54.6296 33.0604 54.6796 33.0904 54.7296 33.1204C54.7496 33.1304 54.7796 33.1404 54.7996 33.1604C54.8696 33.2004 54.9396 33.2404 55.0096 33.2904L56.4396 34.2904L56.9096 22.7304L55.4796 21.7304L55.4396 21.7504Z" fill="white" stroke="black" stroke-linecap="round" stroke-linejoin="round"/>
<path d="M21.6191 21.9812L21.1491 33.5413L19.7891 32.5912L20.2591 21.0312L21.6191 21.9812Z" fill="white" stroke="black" stroke-linecap="round" stroke-linejoin="round"/>
<path d="M21.6884 22.0305L21.2184 33.5905L21.1484 33.5405L21.6184 21.9805L21.6884 22.0305Z" fill="white" stroke="black" stroke-linecap="round" stroke-linejoin="round"/>
<path d="M34.2988 34.5794L34.7688 23.0194C34.7888 22.5794 35.1488 22.1594 35.8388 21.8594L35.3688 33.4194C34.6788 33.7094 34.3188 34.1394 34.2988 34.5794Z" fill="white"/>
<mask id="mask7_93_11195" style="mask-type:luminance" maskUnits="userSpaceOnUse" x="34" y="21" width="2" height="14">
<path d="M34.2988 34.5794L34.7688 23.0194C34.7888 22.5794 35.1488 22.1594 35.8388 21.8594L35.3688 33.4194C34.6788 33.7094 34.3188 34.1394 34.2988 34.5794Z" fill="white"/>
</mask>
<g mask="url(#mask7_93_11195)">
<path d="M35.8379 21.8594L35.3679 33.4194C35.2679 33.4594 35.1779 33.5094 35.0879 33.5594L35.5579 21.9994C35.6479 21.9494 35.7379 21.9094 35.8379 21.8594Z" fill="white" stroke="black" stroke-linecap="round" stroke-linejoin="round"/>
<path d="M35.5595 22L35.0895 33.56C34.9695 33.63 34.8595 33.7 34.7695 33.77L35.2395 22.21C35.3295 22.14 35.4395 22.06 35.5595 22Z" fill="white" stroke="black" stroke-linecap="round" stroke-linejoin="round"/>
<path d="M35.2379 22.209L34.7679 33.769C34.6979 33.819 34.6379 33.879 34.5879 33.929L35.0579 22.369C35.1079 22.309 35.1679 22.259 35.2379 22.209Z" fill="white" stroke="black" stroke-linecap="round" stroke-linejoin="round"/>
<path d="M35.0685 22.3789L34.5985 33.9389C34.5985 33.9389 34.5085 34.0389 34.4785 34.0889L34.9485 22.5289C34.9785 22.4789 35.0285 22.4289 35.0685 22.3789Z" fill="white" stroke="black" stroke-linecap="round" stroke-linejoin="round"/>
<path d="M34.9484 22.5293L34.4784 34.0893C34.4784 34.0893 34.4184 34.1893 34.3984 34.2293L34.8684 22.6693C34.8684 22.6693 34.9184 22.5693 34.9484 22.5293Z" fill="white" stroke="black" stroke-linecap="round" stroke-linejoin="round"/>
<path d="M34.8581 22.6699L34.3881 34.2299C34.3881 34.2299 34.3481 34.3299 34.3281 34.3699L34.7981 22.8099C34.7981 22.8099 34.8281 22.7099 34.8481 22.6699" fill="white"/>
<path d="M34.8581 22.6699L34.3881 34.2299C34.3881 34.2299 34.3481 34.3299 34.3281 34.3699L34.7981 22.8099C34.7981 22.8099 34.8281 22.7099 34.8481 22.6699" stroke="black" stroke-linecap="round" stroke-linejoin="round"/>
<path d="M34.8086 22.8086L34.3386 34.3686C34.3386 34.3686 34.3186 34.4686 34.3086 34.5186L34.7786 22.9586C34.7786 22.9586 34.7986 22.8586 34.8086 22.8086Z" fill="white" stroke="black" stroke-linecap="round" stroke-linejoin="round"/>
<path d="M34.7786 22.959L34.3086 34.519C34.3086 34.519 34.3086 34.559 34.3086 34.579L34.7786 23.019C34.7786 23.019 34.7786 22.979 34.7786 22.959Z" fill="white" stroke="black" stroke-linecap="round" stroke-linejoin="round"/>
</g>
<path d="M34.2988 34.5794L34.7688 23.0194C34.7888 22.5794 35.1488 22.1594 35.8388 21.8594L35.3688 33.4194C34.6788 33.7094 34.3188 34.1394 34.2988 34.5794Z" stroke="black" stroke-linecap="round" stroke-linejoin="round"/>
<path d="M8.33966 21.7699C8.23966 21.8099 8.13966 21.8499 8.03966 21.8799C8.00966 21.8799 7.98966 21.8999 7.95966 21.9099C7.86966 21.9399 7.77966 21.9599 7.67966 21.9799C7.66966 21.9799 7.64966 21.9799 7.63966 21.9799C7.50966 22.0099 7.36966 22.0299 7.22966 22.0399C7.19966 22.0399 7.17966 22.0399 7.14966 22.0399C7.05966 22.0399 6.97966 22.0499 6.88966 22.0599C6.86966 22.0599 6.85966 22.0599 6.83966 22.0599C6.74966 22.0599 6.64966 22.0599 6.55966 22.0599C6.51966 22.0599 6.47966 22.0599 6.43966 22.0599C6.38966 22.0599 6.33966 22.0599 6.27966 22.0599C6.23966 22.0599 6.18966 22.0599 6.14966 22.0499C6.09966 22.0499 6.05966 22.0499 6.00966 22.0299C5.96966 22.0299 5.92966 22.0199 5.88966 22.0099C5.84966 22.0099 5.79966 21.9999 5.75966 21.9899C5.71966 21.9899 5.67966 21.9699 5.64966 21.9599C5.59966 21.9499 5.54966 21.9399 5.49966 21.9299C5.46966 21.9299 5.43966 21.9099 5.40966 21.8999C5.34966 21.8799 5.28966 21.8699 5.22966 21.8499C5.19966 21.8499 5.16966 21.8299 5.14966 21.8199C5.06966 21.7899 4.99966 21.7599 4.92966 21.7299C4.89966 21.7199 4.87966 21.7099 4.85966 21.6999C4.80966 21.6699 4.74966 21.6499 4.69966 21.6199C4.67966 21.6099 4.64966 21.5999 4.62966 21.5799C4.55966 21.5399 4.48966 21.4999 4.41966 21.4499C3.97966 21.1399 3.76966 20.7799 3.78966 20.4199C3.62966 24.2699 3.47966 28.1299 3.31966 31.9799C3.29966 32.3299 3.50966 32.6999 3.94966 33.0099C4.01966 33.0599 4.08966 33.0999 4.15966 33.1399C4.17966 33.1499 4.20966 33.1699 4.22966 33.1799C4.27966 33.2099 4.32966 33.2299 4.37966 33.2599C4.37966 33.2599 4.39966 33.2599 4.40966 33.2699C4.42966 33.2699 4.43966 33.2799 4.45966 33.2899C4.52966 33.3199 4.60966 33.3499 4.67966 33.3799C4.69966 33.3799 4.70966 33.3899 4.72966 33.3999C4.73966 33.3999 4.74966 33.3999 4.76966 33.4099C4.82966 33.4299 4.88966 33.4499 4.94966 33.4599C4.96966 33.4599 4.98966 33.4699 5.01966 33.4799C5.01966 33.4799 5.02966 33.4799 5.03966 33.4799C5.08966 33.4899 5.13966 33.4999 5.18966 33.5099C5.21966 33.5099 5.24966 33.5299 5.28966 33.5299C5.28966 33.5299 5.29966 33.5299 5.30966 33.5299C5.34966 33.5299 5.39966 33.5399 5.43966 33.5499C5.47966 33.5499 5.51966 33.5599 5.55966 33.5699C5.55966 33.5699 5.55966 33.5699 5.56966 33.5699C5.60966 33.5699 5.65966 33.5799 5.69966 33.5899C5.73966 33.5899 5.77966 33.5899 5.81966 33.5999C5.81966 33.5999 5.81966 33.5999 5.82966 33.5999C5.88966 33.5999 5.93966 33.5999 5.99966 33.5999C6.02966 33.5999 6.05966 33.5999 6.09966 33.5999C6.18966 33.5999 6.28966 33.5999 6.37966 33.5999C6.38966 33.5999 6.39966 33.5999 6.41966 33.5999C6.50966 33.5999 6.59966 33.5999 6.68966 33.5799C6.69966 33.5799 6.70966 33.5799 6.72966 33.5799C6.73966 33.5799 6.75966 33.5799 6.76966 33.5799C6.90966 33.5699 7.04966 33.5499 7.17966 33.5199C7.18966 33.5199 7.19966 33.5199 7.20966 33.5199C7.29966 33.4999 7.39966 33.4799 7.48966 33.4499C7.51966 33.4499 7.54966 33.4299 7.56966 33.4199C7.66966 33.3899 7.76966 33.3499 7.86966 33.3099L9.60966 32.5699L10.0797 21.0099L8.33966 21.7499V21.7699Z" fill="white" stroke="black" stroke-linecap="round" stroke-linejoin="round"/>
<path d="M40.9682 23.6602L40.4982 35.2202L38.9082 35.8902L39.3782 24.3302L40.9682 23.6602Z" fill="white" stroke="black" stroke-linecap="round" stroke-linejoin="round"/>
<path d="M34.3587 34.5405L34.8287 22.9805C34.8087 23.3305 35.0187 23.7005 35.4587 24.0105C36.4387 24.6905 38.1887 24.8405 39.3787 24.3305L38.9087 35.8905C37.7187 36.3905 35.9687 36.2505 34.9887 35.5705C34.5487 35.2605 34.3387 34.9005 34.3587 34.5405Z" fill="white"/>
<mask id="mask8_93_11195" style="mask-type:luminance" maskUnits="userSpaceOnUse" x="34" y="22" width="6" height="15">
<path d="M34.3587 34.5405L34.8287 22.9805C34.8087 23.3305 35.0187 23.7005 35.4587 24.0105C36.4387 24.6905 38.1887 24.8405 39.3787 24.3305L38.9087 35.8905C37.7187 36.3905 35.9687 36.2505 34.9887 35.5705C34.5487 35.2605 34.3387 34.9005 34.3587 34.5405Z" fill="white"/>
</mask>
<g mask="url(#mask8_93_11195)">
<path d="M39.379 24.3301L38.909 35.8901C38.689 35.9801 38.459 36.0501 38.209 36.1001L38.679 24.5401C38.929 24.4901 39.159 24.4201 39.379 24.3301Z" fill="white" stroke="black" stroke-linecap="round" stroke-linejoin="round"/>
<path d="M38.678 24.541L38.208 36.101C38.058 36.131 37.908 36.151 37.748 36.171L38.218 24.611C38.378 24.591 38.528 24.571 38.678 24.541Z" fill="white" stroke="black" stroke-linecap="round" stroke-linejoin="round"/>
<path d="M38.2182 24.6113L37.7482 36.1713C37.6382 36.1813 37.5282 36.1913 37.4082 36.1913L37.8782 24.6313C37.9882 24.6313 38.1082 24.6313 38.2182 24.6113Z" fill="white" stroke="black" stroke-linecap="round" stroke-linejoin="round"/>
<path d="M37.8891 24.6309L37.4191 36.1909C37.3191 36.1909 37.2191 36.1909 37.1191 36.1909L37.5891 24.6309C37.6891 24.6309 37.7891 24.6309 37.8891 24.6309Z" fill="white" stroke="black" stroke-linecap="round" stroke-linejoin="round"/>
<path d="M37.5879 24.6313L37.1179 36.1913C37.0279 36.1913 36.9379 36.1913 36.8379 36.1713L37.3079 24.6113C37.3979 24.6113 37.4879 24.6213 37.5879 24.6313Z" fill="white" stroke="black" stroke-linecap="round" stroke-linejoin="round"/>
<path d="M37.3084 24.6101L36.8384 36.1701C36.7484 36.1701 36.6584 36.1501 36.5684 36.1401L37.0384 24.5801C37.1284 24.5901 37.2184 24.6001 37.3084 24.6101Z" fill="white" stroke="black" stroke-linecap="round" stroke-linejoin="round"/>
<path d="M37.0484 24.581L36.5784 36.141C36.4884 36.131 36.3984 36.111 36.3184 36.101L36.7884 24.541C36.8784 24.561 36.9584 24.571 37.0484 24.591" fill="white"/>
<path d="M37.0484 24.581L36.5784 36.141C36.4884 36.131 36.3984 36.111 36.3184 36.101L36.7884 24.541C36.8784 24.561 36.9584 24.571 37.0484 24.591" stroke="black" stroke-linecap="round" stroke-linejoin="round"/>
<path d="M36.7788 24.5405L36.3088 36.1005C36.2188 36.0805 36.1288 36.0605 36.0488 36.0405L36.5188 24.4805C36.6088 24.5005 36.6988 24.5205 36.7788 24.5405Z" fill="white" stroke="black" stroke-linecap="round" stroke-linejoin="round"/>
<path d="M36.5195 24.4806L36.0495 36.0406C35.9495 36.0106 35.8595 35.9906 35.7695 35.9506L36.2395 24.3906C36.3295 24.4206 36.4295 24.4506 36.5195 24.4806Z" fill="white" stroke="black" stroke-linecap="round" stroke-linejoin="round"/>
<path d="M36.2392 24.3898L35.7692 35.9498C35.6592 35.9098 35.5492 35.8698 35.4492 35.8198L35.9192 24.2598C36.0192 24.3098 36.1292 24.3498 36.2392 24.3798" fill="white"/>
<path d="M36.2392 24.3898L35.7692 35.9498C35.6592 35.9098 35.5492 35.8698 35.4492 35.8198L35.9192 24.2598C36.0192 24.3098 36.1292 24.3498 36.2392 24.3798" stroke="black" stroke-linecap="round" stroke-linejoin="round"/>
<path d="M35.9187 24.2705L35.4487 35.8305C35.2787 35.7605 35.1287 35.6705 34.9887 35.5705C34.5487 35.2605 34.3387 34.9005 34.3587 34.5405L34.8287 22.9805C34.8087 23.3305 35.0187 23.7005 35.4587 24.0105C35.5987 24.1105 35.7487 24.1905 35.9187 24.2705Z" fill="white" stroke="black" stroke-linecap="round" stroke-linejoin="round"/>
</g>
<path d="M34.3587 34.5405L34.8287 22.9805C34.8087 23.3305 35.0187 23.7005 35.4587 24.0105C36.4387 24.6905 38.1887 24.8405 39.3787 24.3305L38.9087 35.8905C37.7187 36.3905 35.9687 36.2505 34.9887 35.5705C34.5487 35.2605 34.3387 34.9005 34.3587 34.5405Z" stroke="black" stroke-linecap="round" stroke-linejoin="round"/>
<path d="M21.6186 21.9805L21.1486 33.5405L14.8086 36.2205L15.2886 24.6705L21.6186 21.9805Z" fill="white" stroke="black" stroke-linecap="round" stroke-linejoin="round"/>
<path d="M46.17 27.2902L45.7 38.8502L40.5 35.2202L40.97 23.6602L46.17 27.2902Z" fill="white" stroke="black" stroke-linecap="round" stroke-linejoin="round"/>
<path d="M46.2592 27.25L45.7892 38.81L45.6992 38.85L46.1692 27.29L46.2592 27.25Z" fill="white" stroke="black" stroke-linecap="round" stroke-linejoin="round"/>
<path d="M46.259 27.25L45.789 38.81L39.459 41.5L39.929 29.94L46.259 27.25Z" fill="#77A200" stroke="black" stroke-linecap="round" stroke-linejoin="round"/>
<path d="M6.61984 9.0907C7.80984 8.5907 9.55984 8.7307 10.5398 9.4107L11.9698 10.4107L18.2998 7.7207L23.4998 11.3607L23.4098 11.4007L21.7598 12.1007C20.5698 12.6007 20.3998 13.5607 21.3798 14.2507C22.3598 14.9307 24.1098 15.0807 25.2998 14.5707L27.0398 13.8307L32.2398 17.4707L32.1498 17.5107L25.9098 20.1607L24.4798 19.1607C23.4998 18.4807 21.7498 18.3307 20.5598 18.8407C19.3698 19.3507 19.1998 20.3107 20.1798 20.9907L20.2498 21.0407L21.6098 21.9907L15.2798 24.6807L10.0798 21.0407L8.33984 21.7807C7.14984 22.2807 5.39984 22.1407 4.41984 21.4607C3.43984 20.7807 3.60984 19.8207 4.79984 19.3107L6.53984 18.5707L1.33984 14.9307L7.66984 12.2407L6.23984 11.2407C5.25984 10.5607 5.42984 9.6007 6.61984 9.0907Z" fill="white" stroke="black" stroke-linecap="round" stroke-linejoin="round"/>
<path d="M15.2894 24.6712L14.8094 36.2213L9.60938 32.5912L10.0794 21.0312L15.2894 24.6712Z" fill="white" stroke="black" stroke-linecap="round" stroke-linejoin="round"/>
<path d="M52.5691 24.5703L52.0991 36.1303L45.7891 38.8103L46.2591 27.2503L52.5691 24.5703Z" fill="white" stroke="black" stroke-linecap="round" stroke-linejoin="round"/>
<path d="M37.5788 11.6896C38.7688 11.1896 40.5187 11.3296 41.4987 12.0096L42.9287 13.0096L49.1787 10.3496L54.3887 13.9896L56.1287 13.2496C57.3188 12.7496 59.0687 12.8896 60.0487 13.5696C61.0287 14.2496 60.8587 15.2096 59.6687 15.7196L57.9287 16.4596L63.1287 20.0996L56.8787 22.7496L55.4487 21.7496C54.4688 21.0696 52.7187 20.9196 51.5287 21.4296C50.3387 21.9296 50.1688 22.8996 51.1488 23.5796L52.5788 24.5796L46.2587 27.2596L46.1687 27.2996L40.9587 23.6596L39.3687 24.3396C38.1787 24.8396 36.4287 24.6996 35.4487 24.0196C34.4687 23.3396 34.6388 22.3796 35.8288 21.8696L37.4187 21.1996L32.2188 17.5596L38.6187 14.8396L38.5487 14.7896L37.1887 13.8396C36.2087 13.1596 36.3887 12.1996 37.5687 11.6896H37.5788Z" fill="white" stroke="black" stroke-linecap="round" stroke-linejoin="round"/>
<path d="M20.5587 28.3509L20.0887 39.9109L14.8887 36.2709L15.3587 24.7109L20.5587 28.3509Z" fill="#77A200" stroke="black" stroke-linecap="round" stroke-linejoin="round"/>
<path d="M26.2194 27.9301C26.1594 27.8801 26.0794 27.8401 26.0094 27.8001C25.9894 27.7901 25.9594 27.7801 25.9394 27.7601C25.8894 27.7301 25.8394 27.7101 25.7794 27.6801C25.7794 27.6801 25.7594 27.6801 25.7494 27.6701C25.7394 27.6701 25.7194 27.6601 25.6994 27.6501C25.6294 27.6201 25.5494 27.5901 25.4794 27.5601C25.4594 27.5601 25.4494 27.5501 25.4294 27.5401C25.4194 27.5401 25.4094 27.5401 25.3894 27.5301C25.3294 27.5101 25.2694 27.4901 25.2094 27.4801C25.1894 27.4801 25.1694 27.4701 25.1494 27.4601C25.1494 27.4601 25.1394 27.4601 25.1294 27.4601C25.0794 27.4501 25.0294 27.4401 24.9694 27.4201C24.9394 27.4201 24.9094 27.4101 24.8794 27.4001C24.8794 27.4001 24.8694 27.4001 24.8594 27.4001C24.8094 27.4001 24.7694 27.3801 24.7194 27.3801C24.6894 27.3801 24.6494 27.3701 24.6194 27.3601C24.6194 27.3601 24.6194 27.3601 24.6094 27.3601C24.5594 27.3601 24.5194 27.3501 24.4694 27.3401C24.4294 27.3401 24.3994 27.3401 24.3594 27.3301C24.3594 27.3301 24.3594 27.3301 24.3494 27.3301C24.2894 27.3301 24.2394 27.3301 24.1794 27.3301C24.1494 27.3301 24.1094 27.3301 24.0794 27.3301C23.9894 27.3301 23.8894 27.3301 23.7994 27.3301C23.7994 27.3301 23.7794 27.3301 23.7694 27.3301C23.6794 27.3301 23.5894 27.3301 23.4994 27.3501C23.4894 27.3501 23.4794 27.3501 23.4594 27.3501C23.4494 27.3501 23.4294 27.3501 23.4194 27.3501C23.2794 27.3601 23.1394 27.3801 23.0094 27.4101C22.9994 27.4101 22.9894 27.4101 22.9794 27.4101C22.8794 27.4301 22.7894 27.4501 22.6994 27.4801C22.6694 27.4801 22.6494 27.5001 22.6194 27.5001C22.5194 27.5301 22.4194 27.5701 22.3194 27.6101L20.5794 28.3501L20.1094 39.9101L21.8494 39.1701C21.9494 39.1301 22.0494 39.0901 22.1494 39.0601C22.1794 39.0601 22.1994 39.0401 22.2294 39.0401C22.3194 39.0101 22.4194 38.9901 22.5094 38.9701C22.5194 38.9701 22.5294 38.9701 22.5494 38.9701C22.6794 38.9401 22.8194 38.9201 22.9594 38.9101C22.9894 38.9101 23.0094 38.9101 23.0394 38.9101C23.1294 38.9101 23.2194 38.9001 23.3094 38.8901C23.3194 38.8901 23.3394 38.8901 23.3494 38.8901C23.4394 38.8901 23.5394 38.8901 23.6294 38.8901C23.6694 38.8901 23.6994 38.8901 23.7394 38.8901C23.7894 38.8901 23.8494 38.8901 23.8994 38.9001C23.9394 38.9001 23.9794 38.9001 24.0294 38.9101C24.0794 38.9101 24.1194 38.9101 24.1694 38.9301C24.2094 38.9301 24.2494 38.9401 24.2894 38.9501C24.3394 38.9501 24.3794 38.9601 24.4294 38.9701C24.4694 38.9701 24.4994 38.9901 24.5394 38.9901C24.5894 39.0001 24.6394 39.0101 24.6894 39.0301C24.7194 39.0301 24.7494 39.0501 24.7794 39.0601C24.8394 39.0801 24.8994 39.0901 24.9594 39.1101C24.9894 39.1101 25.0194 39.1301 25.0394 39.1401C25.1194 39.1701 25.1894 39.2001 25.2594 39.2301C25.2894 39.2401 25.3094 39.2501 25.3394 39.2601C25.3894 39.2801 25.4394 39.3101 25.4894 39.3401C25.5094 39.3501 25.5394 39.3601 25.5594 39.3801C25.6294 39.4201 25.6994 39.4601 25.7694 39.5101C26.2094 39.8201 26.4194 40.1801 26.3994 40.5401L26.8694 28.9801C26.8794 28.6301 26.6794 28.2601 26.2394 27.9601L26.2194 27.9301Z" fill="#77A200" stroke="black" stroke-linecap="round" stroke-linejoin="round"/>
<path d="M41.9284 32.0498C41.9284 32.0498 41.9284 32.0998 41.9184 32.1198C41.9184 32.1498 41.8984 32.1798 41.8884 32.2098C41.8884 32.2298 41.8784 32.2498 41.8684 32.2698C41.8584 32.2998 41.8384 32.3298 41.8184 32.3598C41.8084 32.3798 41.7984 32.3998 41.7784 32.4198C41.7584 32.4498 41.7384 32.4698 41.7184 32.4898C41.6984 32.5098 41.6784 32.5398 41.6584 32.5598C41.6384 32.5798 41.6184 32.5898 41.6084 32.6098C41.5784 32.6398 41.5384 32.6798 41.4984 32.7098C41.4584 32.7398 41.4184 32.7698 41.3784 32.7998C41.3684 32.7998 41.3584 32.8198 41.3484 32.8198C41.2884 32.8598 41.2284 32.8898 41.1684 32.9298C41.0884 32.9698 41.0084 33.0098 40.9284 33.0498C40.8284 33.0898 40.7284 33.1298 40.6284 33.1598C40.5984 33.1598 40.5784 33.1798 40.5484 33.1798C40.4584 33.2098 40.3584 33.2298 40.2584 33.2498C40.2484 33.2498 40.2384 33.2498 40.2184 33.2498C40.0884 33.2798 39.9484 33.2998 39.8084 33.3098C39.7784 33.3098 39.7584 33.3098 39.7284 33.3098C39.6384 33.3098 39.5484 33.3198 39.4584 33.3298C39.4484 33.3298 39.4384 33.3298 39.4284 33.3298C39.3384 33.3298 39.2384 33.3298 39.1484 33.3298C39.1084 33.3298 39.0784 33.3298 39.0384 33.3298C38.9884 33.3298 38.9284 33.3298 38.8784 33.3298C38.8384 33.3298 38.7884 33.3298 38.7484 33.3198C38.7084 33.3198 38.6584 33.3198 38.6184 33.2998C38.5784 33.2998 38.5284 33.2898 38.4884 33.2798C38.4484 33.2798 38.3984 33.2698 38.3584 33.2598C38.3184 33.2598 38.2884 33.2398 38.2484 33.2398C38.1984 33.2298 38.1484 33.2198 38.0984 33.2098C38.0684 33.2098 38.0384 33.1898 38.0084 33.1798C37.9484 33.1598 37.8884 33.1498 37.8284 33.1298C37.7984 33.1198 37.7684 33.1098 37.7384 33.0998C37.6684 33.0698 37.5884 33.0398 37.5184 33.0098C37.4984 32.9998 37.4684 32.9898 37.4384 32.9798C37.3884 32.9598 37.3384 32.9298 37.2884 32.8998C37.2684 32.8898 37.2384 32.8698 37.2184 32.8598C37.1484 32.8198 37.0784 32.7798 37.0084 32.7298L35.6184 31.7598L35.1484 43.3198L36.5384 44.2898C36.6084 44.3398 36.6784 44.3798 36.7484 44.4198C36.7684 44.4298 36.7984 44.4498 36.8284 44.4598C36.8784 44.4898 36.9284 44.5098 36.9784 44.5398C36.9784 44.5398 36.9984 44.5398 37.0084 44.5498C37.0084 44.5498 37.0384 44.5598 37.0584 44.5698C37.1284 44.5998 37.2084 44.6298 37.2784 44.6598C37.2984 44.6598 37.3084 44.6698 37.3284 44.6798C37.3384 44.6798 37.3584 44.6798 37.3684 44.6898C37.4284 44.7098 37.4884 44.7298 37.5484 44.7398C37.5684 44.7398 37.5884 44.7498 37.6184 44.7598C37.6184 44.7598 37.6284 44.7598 37.6384 44.7598C37.6884 44.7698 37.7384 44.7798 37.7984 44.7998C37.8284 44.7998 37.8584 44.8098 37.8884 44.8198H37.8984C37.9484 44.8198 37.9884 44.8398 38.0384 44.8398C38.0784 44.8398 38.1084 44.8498 38.1484 44.8598C38.1484 44.8598 38.1484 44.8598 38.1584 44.8598C38.2084 44.8598 38.2484 44.8698 38.2984 44.8798C38.3384 44.8798 38.3684 44.8798 38.4084 44.8898C38.4084 44.8898 38.4084 44.8898 38.4184 44.8898C38.4784 44.8898 38.5284 44.8898 38.5884 44.8998C38.6184 44.8998 38.6484 44.8998 38.6784 44.8998C38.7684 44.8998 38.8684 44.8998 38.9584 44.8998C38.9584 44.8998 38.9784 44.8998 38.9884 44.8998C39.0784 44.8998 39.1684 44.8998 39.2684 44.8798C39.2784 44.8798 39.2884 44.8798 39.2984 44.8798C39.3084 44.8798 39.3284 44.8798 39.3384 44.8798C39.4784 44.8698 39.6184 44.8498 39.7484 44.8198C39.7584 44.8198 39.7684 44.8198 39.7784 44.8198C39.8784 44.7998 39.9684 44.7798 40.0684 44.7498C40.0984 44.7498 40.1184 44.7298 40.1484 44.7298C40.2484 44.6998 40.3484 44.6598 40.4484 44.6198C40.5384 44.5798 40.6184 44.5398 40.6884 44.4998C40.6884 44.4998 40.6884 44.4998 40.6984 44.4998C40.7584 44.4698 40.8184 44.4298 40.8684 44.3998C40.8784 44.3998 40.8884 44.3798 40.8984 44.3698C40.9284 44.3498 40.9684 44.3198 40.9984 44.2998C40.9984 44.2998 41.0084 44.2898 41.0184 44.2798C41.0584 44.2498 41.0884 44.2098 41.1284 44.1798C41.1384 44.1698 41.1584 44.1498 41.1684 44.1398C41.1684 44.1398 41.1684 44.1398 41.1684 44.1298C41.1884 44.1098 41.2084 44.0798 41.2284 44.0598C41.2484 44.0398 41.2584 44.0198 41.2784 43.9998C41.2784 43.9998 41.2784 43.9998 41.2784 43.9898C41.2884 43.9698 41.2984 43.9498 41.3184 43.9298C41.3284 43.9098 41.3484 43.8798 41.3584 43.8598C41.3584 43.8598 41.3584 43.8498 41.3584 43.8398C41.3584 43.8198 41.3784 43.7998 41.3784 43.7798C41.3784 43.7598 41.3984 43.7398 41.4084 43.7198C41.4084 43.7198 41.4084 43.6998 41.4084 43.6898C41.4084 43.6698 41.4184 43.6498 41.4184 43.6198C41.4184 43.5998 41.4184 43.5798 41.4284 43.5598C41.4284 43.5398 41.4284 43.5198 41.4284 43.4998C41.5884 39.6498 41.7384 35.7898 41.8984 31.9398C41.8984 31.9798 41.8984 32.0198 41.8784 32.0498H41.9284Z" fill="#77A200" stroke="black" stroke-linecap="round" stroke-linejoin="round"/>
<path d="M29.2991 34.4503L28.8291 46.0103L23.6191 42.3803L24.0991 30.8203L29.2991 34.4503Z" fill="#77A200" stroke="black" stroke-linecap="round" stroke-linejoin="round"/>
<path d="M35.6301 31.7695L35.1601 43.3195L28.8301 46.0095L29.3001 34.4495L35.6301 31.7695Z" fill="#77A200" stroke="black" stroke-linecap="round" stroke-linejoin="round"/>
<path d="M20.6391 18.8808C21.8291 18.3808 23.5791 18.5208 24.5591 19.2008L25.9891 20.2008L32.2291 17.5508L37.4291 21.1908L35.8391 21.8608C34.5891 22.3908 34.4191 23.3508 35.3991 24.0308C36.3791 24.7108 38.1291 24.8508 39.3191 24.3508L40.9691 23.6508L46.1791 27.2908L46.2691 27.2508L39.9391 29.9408L41.3291 30.9108C42.3091 31.5908 42.1391 32.5508 40.9491 33.0608C39.7591 33.5708 38.0091 33.4208 37.0291 32.7408L35.6391 31.7708L29.3091 34.4608L24.1091 30.8308L25.8491 30.0908C27.0391 29.5908 27.2091 28.6208 26.2291 27.9408C25.2491 27.2608 23.4991 27.1108 22.3091 27.6208L20.5691 28.3608L15.3691 24.7208L21.6991 22.0308L21.6291 21.9808L20.2691 21.0308C19.2891 20.3508 19.4591 19.3908 20.6491 18.8808H20.6391Z" fill="#77A200" stroke="black" stroke-linecap="round" stroke-linejoin="round"/>
</g>
<defs>
<clipPath id="clip0_93_11195">
<rect width="64" height="64" fill="white"/>
</clipPath>
</defs>
</svg>
