<svg width="64" height="64" viewBox="0 0 64 64" fill="none" xmlns="http://www.w3.org/2000/svg">
<g clip-path="url(#clip0_93_11021)">
<path d="M38.54 48.7195L36.25 47.3895C44.23 42.6095 50.66 31.4095 50.68 22.1895L52.97 23.5195C52.95 32.7395 46.52 43.9495 38.54 48.7195Z" fill="#079EDE" stroke="black" stroke-linecap="round" stroke-linejoin="round"/>
<path d="M52.9697 23.5096L50.6797 22.1796C51.4397 21.7396 52.1997 21.2996 52.9797 20.8496L55.2697 22.1796C54.4797 22.6296 53.7197 23.0696 52.9697 23.5096Z" fill="#B69751"/>
<mask id="mask0_93_11021" style="mask-type:luminance" maskUnits="userSpaceOnUse" x="50" y="20" width="6" height="4">
<path d="M52.9697 23.5096L50.6797 22.1796C51.4397 21.7396 52.1997 21.2996 52.9797 20.8496L55.2697 22.1796C54.4797 22.6296 53.7197 23.0696 52.9697 23.5096Z" fill="white"/>
</mask>
<g mask="url(#mask0_93_11021)">
<path d="M52.9697 23.5096L50.6797 22.1796C51.4397 21.7396 52.1997 21.2996 52.9797 20.8496L55.2697 22.1796C54.4797 22.6296 53.7197 23.0696 52.9697 23.5096Z" fill="white" stroke="black" stroke-linecap="round" stroke-linejoin="round"/>
</g>
<path d="M52.9697 23.5096L50.6797 22.1796C51.4397 21.7396 52.1997 21.2996 52.9797 20.8496L55.2697 22.1796C54.4797 22.6296 53.7197 23.0696 52.9697 23.5096Z" stroke="black" stroke-linecap="round" stroke-linejoin="round"/>
<path d="M35.2002 51.9187L32.9102 50.5887L36.2502 45.4688L38.5302 46.7987L35.2002 51.9187Z" fill="#079EDE" stroke="black" stroke-linecap="round" stroke-linejoin="round"/>
<path d="M55.2731 22.1797C55.4031 22.2697 55.4931 22.2897 55.6531 22.3897C55.4331 32.9897 47.6631 45.9197 38.5431 51.3497V53.1797L35.5831 52.1297L35.2031 51.9197L38.5331 46.7997L38.9131 47.0097L38.5431 48.7197C46.5231 43.9397 52.9531 32.7397 52.9731 23.5197C53.7331 23.0797 54.4931 22.6397 55.2731 22.1897V22.1797Z" fill="#079EDE" stroke="black" stroke-linecap="round" stroke-linejoin="round"/>
<path d="M27.7705 12.8594L25.4905 11.5294L25.4805 9.60938L27.7705 10.9294V12.8594Z" fill="#079EDE" stroke="black" stroke-linecap="round" stroke-linejoin="round"/>
<path d="M27.7527 6.46867L25.4727 5.13867L28.8227 6.39867L31.1127 7.72867L27.7527 6.46867Z" fill="#079EDE" stroke="black" stroke-linecap="round" stroke-linejoin="round"/>
<path d="M27.7627 8.28867L25.4727 6.96867V5.13867L27.7527 6.46867L27.7627 8.28867Z" fill="#079EDE" stroke="black" stroke-linecap="round" stroke-linejoin="round"/>
<path d="M11.0322 37.4688L8.74219 36.1388C8.76219 25.4587 16.2222 12.4688 25.4722 6.96875L27.7622 8.29875C18.5122 13.8088 11.0622 26.7888 11.0322 37.4688Z" fill="#079EDE" stroke="black" stroke-linecap="round" stroke-linejoin="round"/>
<path d="M27.7534 6.46875L31.1034 7.72875L28.1734 12.9488L27.7634 12.8587V10.9387C19.7734 15.7188 13.3434 26.9188 13.3234 36.1488C12.6734 36.5188 11.4334 37.5688 11.4334 37.5688C11.4334 37.5688 11.1734 37.5088 11.0234 37.4788C11.0434 26.7987 18.5034 13.8088 27.7534 8.30875V6.47875V6.46875Z" fill="#079EDE" stroke="black" stroke-linecap="round" stroke-linejoin="round"/>
<path d="M54.0517 13.6699L51.7617 12.3399L53.3517 11.4199L55.6417 12.7499L54.0517 13.6699Z" fill="white" stroke="black" stroke-linecap="round" stroke-linejoin="round"/>
<path d="M50.083 15.9599L47.793 14.6299L49.463 13.6699L51.743 14.9999L50.083 15.9599Z" fill="white" stroke="black" stroke-linecap="round" stroke-linejoin="round"/>
<path d="M52.873 18.1989L50.583 16.8689L47.793 14.6289L50.083 15.9589L52.873 18.1989Z" fill="white" stroke="black" stroke-linecap="round" stroke-linejoin="round"/>
<path d="M51.7423 14.9993L49.4523 13.6693C49.3723 9.1893 47.7423 6.0293 45.1523 4.5293L47.4423 5.8593C50.0323 7.3693 51.6623 10.5193 51.7423 14.9993Z" fill="white" stroke="black" stroke-linecap="round" stroke-linejoin="round"/>
<path d="M37.0322 4.16911L34.7422 2.83911C39.4422 0.159114 43.7022 -0.0708861 46.7822 1.71911L49.0722 3.04911C45.9922 1.25911 41.7322 1.48911 37.0322 4.16911Z" fill="white" stroke="black" stroke-linecap="round" stroke-linejoin="round"/>
<path d="M37.0439 6.81984L34.7539 5.48984C34.7539 4.61984 34.7539 3.74984 34.7539 2.83984L37.0439 4.16984C37.0439 5.06984 37.0439 5.94984 37.0439 6.81984Z" fill="white"/>
<mask id="mask1_93_11021" style="mask-type:luminance" maskUnits="userSpaceOnUse" x="34" y="2" width="4" height="5">
<path d="M37.0439 6.81984L34.7539 5.48984C34.7539 4.61984 34.7539 3.74984 34.7539 2.83984L37.0439 4.16984C37.0439 5.06984 37.0439 5.94984 37.0439 6.81984Z" fill="white"/>
</mask>
<g mask="url(#mask1_93_11021)">
<path d="M37.0439 6.81984L34.7539 5.48984C34.7539 4.61984 34.7539 3.74984 34.7539 2.83984L37.0439 4.16984C37.0439 5.06984 37.0439 5.94984 37.0439 6.81984Z" fill="white" stroke="black" stroke-linecap="round" stroke-linejoin="round"/>
</g>
<path d="M37.0439 6.81984L34.7539 5.48984C34.7539 4.61984 34.7539 3.74984 34.7539 2.83984L37.0439 4.16984C37.0439 5.06984 37.0439 5.94984 37.0439 6.81984Z" stroke="black" stroke-linecap="round" stroke-linejoin="round"/>
<path d="M55.643 12.7492L54.433 13.4492C54.243 9.08915 52.753 5.85916 50.383 4.01916C47.263 1.25916 42.453 1.07916 37.043 4.16916C37.043 5.06916 37.043 5.94916 37.043 6.81916C37.163 6.93916 37.273 7.03916 37.453 7.17915C45.293 2.91915 51.573 6.03916 51.743 14.9992L50.073 15.9592L53.273 18.5592L55.623 12.7492H55.643Z" fill="white" stroke="black" stroke-linecap="round" stroke-linejoin="round"/>
<path d="M18.833 54.6201L16.543 53.2901C19.203 54.8401 22.883 54.6401 26.943 52.3301L29.233 53.6601C25.173 55.9701 21.503 56.1701 18.833 54.6201Z" fill="white" stroke="black" stroke-linecap="round" stroke-linejoin="round"/>
<path d="M17.1997 57.4185L14.9097 56.0885C11.9097 54.3385 10.0197 50.6785 9.92969 45.4785L12.2197 46.8085C12.3097 52.0085 14.1997 55.6785 17.1997 57.4185Z" fill="white" stroke="black" stroke-linecap="round" stroke-linejoin="round"/>
<path d="M10.6316 47.7195L8.35156 46.3895L11.1216 40.9395L13.4116 42.2695L10.6316 47.7195Z" fill="white" stroke="black" stroke-linecap="round" stroke-linejoin="round"/>
<path d="M13.4106 42.2695L13.8306 42.5695L16.2006 44.5095L14.5306 45.4795C14.7106 54.5595 21.2306 58.2195 29.2406 53.6595C29.3106 53.6995 29.6606 53.9595 29.6606 53.9595C29.6606 53.9595 29.2406 55.4595 29.2506 56.3095C19.9806 61.5995 12.4106 57.3595 12.2306 46.8195L11.0606 48.0295L10.6406 47.7295L13.4106 42.2795V42.2695Z" fill="white" stroke="black" stroke-linecap="round" stroke-linejoin="round"/>
<path d="M31.1112 29.7596C34.7453 29.7596 37.6912 26.8136 37.6912 23.1796C37.6912 19.5456 34.7453 16.5996 31.1112 16.5996C27.4772 16.5996 24.5312 19.5456 24.5312 23.1796C24.5312 26.8136 27.4772 29.7596 31.1112 29.7596Z" fill="#079EDE" stroke="black" stroke-linecap="round" stroke-linejoin="round"/>
<path d="M27.3531 34.3387C27.3531 36.9387 25.2531 39.0387 22.6531 39.0387C20.0531 39.0387 17.9531 36.9387 17.9531 34.3387C17.9531 31.7387 20.0531 29.6387 22.6531 29.6387C25.2531 29.6387 27.3531 31.7387 27.3531 34.3387Z" fill="white" stroke="black" stroke-linecap="round" stroke-linejoin="round"/>
<path d="M34.7117 41.0992C37.0313 41.0992 38.9117 39.2188 38.9117 36.8992C38.9117 34.5796 37.0313 32.6992 34.7117 32.6992C32.3921 32.6992 30.5117 34.5796 30.5117 36.8992C30.5117 39.2188 32.3921 41.0992 34.7117 41.0992Z" fill="#079EDE" stroke="black" stroke-linecap="round" stroke-linejoin="round"/>
<path d="M28.883 45.2794C28.883 46.6194 27.803 47.6994 26.463 47.6994C25.123 47.6994 24.043 46.6194 24.043 45.2794C24.043 43.9394 25.123 42.8594 26.463 42.8594C27.803 42.8594 28.883 43.9394 28.883 45.2794Z" fill="#079EDE" stroke="black" stroke-linecap="round" stroke-linejoin="round"/>
<path d="M44.433 31.0788C46.0291 31.0788 47.323 29.7849 47.323 28.1888C47.323 26.5927 46.0291 25.2988 44.433 25.2988C42.8369 25.2988 41.543 26.5927 41.543 28.1888C41.543 29.7849 42.8369 31.0788 44.433 31.0788Z" fill="white" stroke="black" stroke-linecap="round" stroke-linejoin="round"/>
<path d="M45.7516 13.6687C45.7516 15.8488 43.9816 17.6188 41.8016 17.6188C39.6216 17.6188 37.8516 15.8488 37.8516 13.6687C37.8516 11.4887 39.6216 9.71875 41.8016 9.71875C43.9816 9.71875 45.7516 11.4887 45.7516 13.6687Z" fill="white" stroke="black" stroke-linecap="round" stroke-linejoin="round"/>
</g>
<defs>
<clipPath id="clip0_93_11021">
<rect width="64" height="64" fill="white"/>
</clipPath>
</defs>
</svg>
