<svg width="62" height="64" viewBox="0 0 62 64" fill="none" xmlns="http://www.w3.org/2000/svg">
<g clip-path="url(#clip0_43_9084)">
<path d="M25.7909 9.58014C39.1474 17.6101 50.8236 41.8701 50.8236 43.9001C50.8236 45.9201 38.8017 55.9401 25.6852 48.0601C12.3287 40.0301 0.652513 15.7701 0.662115 13.7401C0.662115 11.7201 12.684 1.70014 25.8005 9.58014H25.7909Z" fill="white" stroke="black" stroke-linecap="round" stroke-linejoin="round"/>
<path d="M33.627 16.7817C26.7423 12.6417 21.1443 15.9617 21.125 24.2017C21.1058 32.4417 26.6655 42.4717 33.5502 46.6117C40.4349 50.7517 46.033 47.4317 46.0522 39.1917C46.0714 30.9517 40.5117 20.9217 33.627 16.7817Z" fill="#878787" stroke="black" stroke-linecap="round" stroke-linejoin="round"/>
<path d="M33.6089 24.6917C30.373 22.7417 27.7421 24.3117 27.7324 28.1817C27.7228 32.0517 30.3346 36.7717 33.5705 38.7117C36.8065 40.6617 39.4374 39.0917 39.447 35.2217C39.4566 31.3517 36.8449 26.6317 33.6089 24.6917Z" fill="black" stroke="black" stroke-miterlimit="10"/>
<path d="M37.0239 25.1515C35.6508 24.3215 34.5369 24.9915 34.5273 26.6315C34.5273 28.2715 35.6316 30.2815 37.0047 31.1015C38.3778 31.9315 39.4916 31.2615 39.5012 29.6215C39.5012 27.9815 38.397 25.9715 37.0239 25.1515Z" fill="white" stroke="black" stroke-linecap="round" stroke-linejoin="round"/>
<path d="M25.7909 9.58014C12.6744 1.70014 0.662109 11.7201 0.662109 13.7401C0.662109 13.9101 0.748528 14.2301 0.902162 14.6901C5.03108 11.4301 10.0631 14.22 19.6844 20C31.9271 27.36 46.7523 41.7301 48.4711 46.7401C49.9786 45.5501 50.8332 44.4501 50.8332 43.9101C50.8332 41.8901 39.157 17.6201 25.8005 9.59014L25.7909 9.58014Z" fill="white" stroke="black" stroke-linecap="round" stroke-linejoin="round"/>
<path d="M25.6852 42.0204C15.1709 35.7004 5.70322 19.3204 2.15044 11.6504C1.19023 12.5404 0.662109 13.3204 0.662109 13.7404C0.662109 15.7604 12.3383 40.0304 25.6948 48.0604C38.8113 55.9504 50.8236 45.9304 50.8332 43.9004C50.8332 43.4704 50.3051 42.0304 49.3449 39.9504C45.7345 43.3004 36.0651 48.2504 25.6948 42.0204H25.6852Z" fill="white" stroke="black" stroke-linecap="round" stroke-linejoin="round"/>
<path d="M60.7909 37.84C60.7909 37.84 60.7909 37.81 60.7909 37.8C60.7909 37.79 60.7909 37.77 60.7909 37.76C60.7909 37.75 60.7909 37.73 60.7909 37.71C60.7909 37.69 60.7909 37.68 60.7909 37.66C60.7909 37.65 60.7909 37.63 60.7909 37.62C60.7909 37.6 60.7909 37.58 60.7813 37.56C60.7813 37.54 60.7717 37.52 60.7621 37.5C60.7621 37.49 60.7621 37.47 60.7525 37.46C60.7525 37.46 60.7525 37.45 60.7525 37.44C60.7429 37.39 60.7237 37.34 60.7045 37.28C60.7045 37.28 60.7045 37.28 60.7045 37.27C60.7045 37.24 60.6853 37.21 60.6757 37.19C60.6661 37.15 60.6565 37.12 60.6373 37.08C60.6373 37.08 60.6373 37.06 60.6373 37.05C60.6277 37.02 60.6181 36.98 60.5989 36.95C60.5893 36.91 60.5797 36.88 60.5605 36.84C60.5605 36.82 60.5509 36.81 60.5413 36.79C60.5413 36.78 60.5317 36.76 60.5221 36.75C60.4933 36.68 60.4741 36.61 60.4453 36.53C60.4453 36.53 60.4453 36.51 60.4356 36.5C60.4356 36.48 60.4164 36.45 60.4068 36.42C60.378 36.35 60.3492 36.28 60.3204 36.21C60.3108 36.18 60.2916 36.14 60.282 36.11C60.2724 36.08 60.2628 36.06 60.2532 36.03C60.234 35.99 60.2148 35.95 60.2052 35.91C60.186 35.87 60.1764 35.83 60.1572 35.79C60.1284 35.71 60.09 35.63 60.0612 35.55C60.042 35.51 60.0324 35.48 60.0132 35.44C60.0132 35.44 60.0132 35.42 60.0036 35.42C59.9844 35.38 59.9747 35.34 59.9555 35.31C59.9171 35.22 59.8787 35.12 59.8307 35.03C59.8019 34.97 59.7827 34.92 59.7539 34.86C59.7155 34.77 59.6771 34.68 59.6291 34.59C59.6195 34.57 59.6099 34.54 59.6003 34.52C59.5715 34.45 59.5331 34.37 59.5042 34.3C59.4946 34.28 59.485 34.25 59.4754 34.23C59.4178 34.1 59.3506 33.96 59.293 33.83C59.2738 33.79 59.2642 33.76 59.245 33.72C59.197 33.61 59.1394 33.5 59.0914 33.39C59.0721 33.35 59.0529 33.31 59.0337 33.27C59.0241 33.24 59.0049 33.22 58.9953 33.19C58.9569 33.12 58.9281 33.04 58.8897 32.97C58.8609 32.91 58.8321 32.84 58.7937 32.78C58.7457 32.68 58.6881 32.57 58.6401 32.46C58.6112 32.4 58.5824 32.34 58.5536 32.29C58.4864 32.14 58.4096 32 58.3328 31.85C58.3232 31.83 58.3136 31.8 58.2944 31.78C58.208 31.61 58.1311 31.45 58.0351 31.28C58.0351 31.28 58.0351 31.26 58.0255 31.26C58.0159 31.23 57.9967 31.2 57.9871 31.18C57.9199 31.04 57.8431 30.9 57.7663 30.76C57.7375 30.71 57.7086 30.65 57.6798 30.6C57.6126 30.47 57.5454 30.34 57.4686 30.2C57.4494 30.15 57.4206 30.11 57.4014 30.06C57.3054 29.89 57.2189 29.71 57.1229 29.53C57.1037 29.5 57.0845 29.46 57.0653 29.43C56.9885 29.28 56.9021 29.13 56.8253 28.98C56.7964 28.92 56.7676 28.87 56.7292 28.81C56.6524 28.67 56.5756 28.53 56.4988 28.38C56.47 28.33 56.4508 28.29 56.422 28.24C56.3259 28.07 56.2299 27.89 56.1339 27.72C56.1339 27.71 56.1243 27.7 56.1147 27.69C55.9899 27.46 55.8554 27.23 55.721 27C55.6922 26.96 55.673 26.91 55.6442 26.87C55.5386 26.68 55.4233 26.49 55.3177 26.3C55.2697 26.22 55.2217 26.13 55.1737 26.05C55.0873 25.89 54.9912 25.74 54.8952 25.58C54.8376 25.49 54.78 25.39 54.732 25.3C54.6456 25.15 54.5495 25 54.4631 24.85C54.4055 24.75 54.3479 24.66 54.2903 24.56C54.1943 24.41 54.1078 24.25 54.0118 24.1C53.9542 24.01 53.8966 23.91 53.839 23.82C53.7334 23.65 53.6373 23.49 53.5317 23.32C53.4837 23.24 53.4261 23.16 53.3781 23.08C53.2245 22.83 53.0708 22.59 52.9076 22.34C52.7443 22.09 52.5907 21.84 52.4275 21.59C52.4179 21.57 52.4083 21.56 52.3987 21.54C52.3603 21.49 52.3315 21.43 52.293 21.38C52.1682 21.19 52.0434 20.99 51.909 20.8C51.8514 20.71 51.7841 20.62 51.7265 20.52C51.6113 20.34 51.4865 20.16 51.3712 19.99C51.3136 19.9 51.2464 19.81 51.1888 19.71C51.0544 19.51 50.9199 19.31 50.7759 19.11C50.7279 19.04 50.6895 18.98 50.6415 18.91C50.459 18.65 50.2766 18.38 50.0846 18.12C50.0846 18.11 50.0654 18.1 50.0558 18.08C50.0366 18.05 50.0077 18.02 49.9885 17.99C49.7869 17.71 49.5853 17.42 49.374 17.14C49.326 17.07 49.2684 17 49.2204 16.93C48.9899 16.62 48.7595 16.31 48.529 16C48.5194 15.98 48.5002 15.96 48.4906 15.95C48.4522 15.9 48.4042 15.84 48.3658 15.79C48.2217 15.6 48.0777 15.41 47.9241 15.22C47.8569 15.13 47.7897 15.04 47.7128 14.95C47.5688 14.77 47.4248 14.58 47.2807 14.4C47.2327 14.34 47.1943 14.29 47.1463 14.23C47.1271 14.2 47.0983 14.18 47.0791 14.15C46.9639 14 46.839 13.86 46.7238 13.71C46.6566 13.62 46.5798 13.53 46.5126 13.45C46.3685 13.28 46.2341 13.11 46.0901 12.94C46.0421 12.88 45.9941 12.83 45.946 12.77C45.946 12.77 45.9364 12.76 45.9268 12.75C45.754 12.55 45.5812 12.34 45.4083 12.14C45.3891 12.12 45.3795 12.1 45.3603 12.08C45.1683 11.86 44.9762 11.64 44.7842 11.42C44.7842 11.42 44.7842 11.42 44.7746 11.41C44.6978 11.32 44.6114 11.23 44.5345 11.15C44.4289 11.03 44.3233 10.91 44.2177 10.8C44.1312 10.71 44.0448 10.61 43.9584 10.52C43.8528 10.41 43.7472 10.29 43.6415 10.18C43.6415 10.18 43.6319 10.17 43.6223 10.16C43.4879 10.01 43.3439 9.86999 43.1998 9.71999C43.1614 9.67999 43.1134 9.62999 43.075 9.58999C42.8926 9.39999 42.7005 9.20999 42.5181 9.01999C42.5181 9.01999 42.5181 9.01999 42.5085 9.01999C42.4701 8.97999 42.4317 8.93999 42.3837 8.89999C42.2396 8.74999 42.086 8.60999 41.942 8.45999C41.8747 8.38999 41.8075 8.32999 41.7307 8.25999C41.6251 8.15999 41.5291 8.05999 41.4234 7.96999C41.4042 7.94999 41.385 7.92999 41.3658 7.91999C41.2986 7.85999 41.241 7.79999 41.1738 7.73999C41.049 7.62999 40.9337 7.51999 40.8089 7.39999C40.7321 7.32999 40.6649 7.26999 40.5881 7.20999C40.5208 7.14999 40.4632 7.09999 40.396 7.03999C40.3384 6.98999 40.2808 6.93999 40.2328 6.88999C40.1656 6.82999 40.0984 6.76999 40.0311 6.71999C39.9063 6.60999 39.7719 6.49999 39.6375 6.38999C39.5798 6.33999 39.5222 6.28999 39.4646 6.24999C39.4454 6.22999 39.4262 6.21999 39.407 6.19999C39.2438 6.06999 39.0805 5.93999 38.9269 5.80999C38.8885 5.77999 38.8597 5.75999 38.8213 5.72999C38.7156 5.63999 38.6004 5.55999 38.4948 5.46999C38.4564 5.43999 38.4084 5.40999 38.37 5.36999C38.3124 5.32999 38.2644 5.28999 38.2067 5.24999C38.0627 5.13999 37.9091 5.02999 37.7554 4.91999C37.717 4.88999 37.6786 4.85999 37.6402 4.83999C37.6306 4.82999 37.6114 4.81999 37.6018 4.80999C37.4386 4.68999 37.2753 4.57999 37.1025 4.45999C37.0641 4.42999 37.0161 4.39999 36.9777 4.37999C36.92 4.33999 36.8528 4.29999 36.7952 4.25999C36.6896 4.18999 36.5744 4.11999 36.4688 4.04999C36.4495 4.03999 36.4303 4.02999 36.4111 4.00999C36.2671 3.91999 36.1327 3.82999 35.9886 3.73999C35.931 3.69999 35.8638 3.65999 35.8062 3.62999C35.6334 3.52999 35.4605 3.42999 35.2877 3.32999C35.2685 3.31999 35.2493 3.29999 35.2205 3.28999C35.1821 3.26999 35.1533 3.24999 35.1149 3.22999C35.0572 3.19999 34.99 3.15999 34.9324 3.12999C34.8652 3.08999 34.798 3.05999 34.7308 3.01999C34.6732 2.98999 34.6059 2.95999 34.5483 2.91999C34.5195 2.90999 34.4907 2.88999 34.4619 2.87999C34.4235 2.85999 34.3851 2.83999 34.3467 2.81999C34.2891 2.78999 34.2219 2.75999 34.1642 2.72999C34.097 2.69999 34.0298 2.66999 33.9626 2.62999C33.905 2.59999 33.8378 2.56999 33.7802 2.53999C33.7514 2.52999 33.7321 2.51999 33.7033 2.49999C33.6649 2.47999 33.6265 2.46999 33.5977 2.44999C33.5209 2.41999 33.4537 2.37999 33.3769 2.34999C33.3193 2.31999 33.252 2.29999 33.1944 2.26999C33.1176 2.23999 33.0504 2.20999 32.9736 2.17999C32.9448 2.16999 32.916 2.14999 32.8776 2.13999C32.8488 2.12999 32.8199 2.11999 32.7911 2.09999C32.7143 2.06999 32.6471 2.03999 32.5703 2.00999C32.5127 1.98999 32.4551 1.95999 32.3878 1.93999C32.311 1.90999 32.2438 1.87999 32.167 1.85999C32.1286 1.84999 32.0902 1.82999 32.0518 1.81999C32.0326 1.81999 32.0134 1.80999 31.9942 1.79999C31.8981 1.75999 31.7925 1.72999 31.6965 1.69999C31.6581 1.68999 31.6101 1.66999 31.5717 1.65999C31.4276 1.60999 31.2932 1.56999 31.1492 1.51999C31.1396 1.51999 31.1204 1.51999 31.1108 1.50999C30.9859 1.46999 30.8611 1.42999 30.7363 1.39999C30.6883 1.38999 30.6403 1.36999 30.5923 1.35999C30.4962 1.32999 30.4002 1.30999 30.3042 1.27999C30.2754 1.27999 30.2562 1.26999 30.2274 1.25999C30.2082 1.25999 30.1794 1.24999 30.1602 1.23999C30.0257 1.20999 29.8913 1.16999 29.7569 1.13999C29.7281 1.13999 29.7089 1.12999 29.6801 1.11999C29.5264 1.07999 29.3728 1.04999 29.2192 1.01999C29.2095 1.01999 29.1903 1.01999 29.1807 1.01999C29.1519 1.01999 29.1327 1.01999 29.1039 1.00999C28.9695 0.979991 28.8351 0.959991 28.7006 0.939991C28.6622 0.939991 28.6334 0.929991 28.595 0.919991C28.4318 0.889991 28.2781 0.869991 28.1245 0.849991C28.1149 0.849991 28.1053 0.849991 28.0861 0.849991C28.0669 0.849991 28.0477 0.849991 28.0285 0.849991C27.8268 0.819991 27.6348 0.799991 27.4428 0.779991C27.4428 0.779991 27.4332 0.779991 27.4236 0.779991C27.2315 0.759991 27.0395 0.739991 26.8378 0.729991C26.8186 0.729991 26.809 0.729991 26.7898 0.729991C26.7898 0.729991 26.7802 0.729991 26.7706 0.729991C26.5402 0.709991 26.3097 0.699991 26.0793 0.689991C26.0697 0.689991 26.0505 0.689991 26.0408 0.689991C25.8104 0.689991 25.5703 0.679991 25.3399 0.689991C25.3399 0.689991 25.3399 0.689991 25.3303 0.689991C25.1959 0.689991 25.0614 0.689991 24.9366 0.689991C24.8982 0.689991 24.8598 0.689991 24.8214 0.689991C24.7254 0.689991 24.6293 0.689991 24.5429 0.699991C24.4949 0.699991 24.4565 0.699991 24.4085 0.699991C24.3221 0.699991 24.226 0.709991 24.1396 0.719991C24.1012 0.719991 24.0532 0.719991 24.0148 0.719991C23.8996 0.719991 23.7747 0.739991 23.6595 0.749991C23.6499 0.749991 23.6403 0.749991 23.6307 0.749991C23.4675 0.769991 23.3138 0.779991 23.1506 0.799991C23.1218 0.799991 23.0834 0.799991 23.0546 0.809991C22.901 0.829991 22.7473 0.849991 22.5937 0.869991C22.5649 0.869991 22.5457 0.869991 22.5169 0.879991C22.3728 0.899991 22.2288 0.929991 22.0944 0.949991C22.0752 0.949991 22.0464 0.949991 22.0272 0.959991C21.8735 0.989991 21.7295 1.01999 21.5759 1.04999C21.5567 1.04999 21.5471 1.04999 21.5279 1.04999C21.5182 1.04999 21.5086 1.04999 21.499 1.04999C21.259 1.09999 21.0189 1.14999 20.7885 1.20999C20.7885 1.20999 20.7693 1.20999 20.7597 1.20999C20.5196 1.26999 20.2892 1.32999 20.0491 1.39999C20.0299 1.39999 20.0107 1.40999 19.9915 1.41999C19.7707 1.47999 19.5498 1.54999 19.329 1.61999C19.3194 1.61999 19.3002 1.61999 19.2906 1.62999C19.0697 1.69999 18.8489 1.77999 18.628 1.85999C18.628 1.85999 18.6184 1.85999 18.6088 1.85999C18.5992 1.85999 18.58 1.85999 18.5704 1.86999C18.4168 1.92999 18.2535 1.98999 18.0999 2.04999C18.0999 2.04999 18.0807 2.04999 18.0711 2.05999C17.9175 2.11999 17.7638 2.17999 17.6102 2.24999C17.6102 2.24999 17.591 2.24999 17.5814 2.25999C17.4277 2.31999 17.2837 2.38999 17.1397 2.44999C17.1205 2.44999 17.1013 2.46999 17.0821 2.47999C16.938 2.53999 16.8036 2.60999 16.6692 2.66999C16.65 2.67999 16.6212 2.68999 16.602 2.69999C16.4675 2.75999 16.3331 2.82999 16.2083 2.89999C16.1891 2.90999 16.1603 2.91999 16.1411 2.92999C16.0066 2.99999 15.8818 3.05999 15.757 3.12999C15.7378 3.13999 15.7186 3.14999 15.6994 3.15999C15.5745 3.22999 15.4401 3.29999 15.3249 3.36999C15.3153 3.36999 15.2961 3.37999 15.2865 3.38999C15.1616 3.45999 15.0272 3.53999 14.9024 3.61999L4.92578 9.65999C5.05061 9.57999 5.17544 9.50999 5.30987 9.42999C5.31947 9.42999 5.33867 9.41999 5.34827 9.40999C5.4731 9.33999 5.59793 9.26999 5.73236 9.19999C5.75156 9.18999 5.77077 9.17999 5.78997 9.16999C5.9148 9.09999 6.03963 9.02999 6.17406 8.96999C6.19326 8.95999 6.22207 8.94999 6.24127 8.93999C6.3757 8.86999 6.50053 8.80999 6.63496 8.73999C6.65416 8.72999 6.68297 8.71999 6.70217 8.70999C6.8366 8.63999 6.98064 8.57999 7.11506 8.51999C7.13427 8.51999 7.15347 8.49999 7.17268 8.49999C7.31671 8.42999 7.47034 8.36999 7.61438 8.30999C7.61438 8.30999 7.63358 8.30999 7.64318 8.29999C7.79682 8.23999 7.95045 8.16999 8.10408 8.10999C8.10408 8.10999 8.12329 8.10999 8.13289 8.09999C8.28652 8.03999 8.44016 7.97999 8.60339 7.91999C8.6226 7.91999 8.6418 7.90999 8.66101 7.89999C8.88186 7.81999 9.1027 7.73999 9.32355 7.66999C9.33316 7.66999 9.35236 7.66999 9.36196 7.65999C9.58281 7.58999 9.80366 7.51999 10.0245 7.45999C10.0437 7.45999 10.0629 7.44999 10.0821 7.43999C10.3126 7.36999 10.5526 7.30999 10.7927 7.24999H10.8119C11.0423 7.18999 11.2824 7.13999 11.5224 7.08999C11.5512 7.08999 11.5801 7.07999 11.5993 7.06999C11.7529 7.03999 11.8969 7.00999 12.0506 6.97999C12.0698 6.97999 12.089 6.97999 12.1178 6.96999C12.2618 6.94999 12.3962 6.91999 12.5403 6.89999C12.5691 6.89999 12.5883 6.89999 12.6171 6.88999C12.7707 6.86999 12.9243 6.84999 13.078 6.82999C13.1068 6.82999 13.1452 6.82999 13.174 6.81999C13.3372 6.79999 13.4909 6.77999 13.6541 6.76999C13.6637 6.76999 13.6733 6.76999 13.6829 6.76999C13.7981 6.75999 13.9134 6.74999 14.0382 6.73999C14.0766 6.73999 14.1246 6.73999 14.163 6.73999C14.2494 6.73999 14.3455 6.72999 14.4319 6.71999C14.4799 6.71999 14.5183 6.71999 14.5663 6.71999C14.6623 6.71999 14.7584 6.71999 14.8448 6.70999C14.8832 6.70999 14.9216 6.70999 14.96 6.70999C15.0944 6.70999 15.2193 6.70999 15.3537 6.70999C15.3537 6.70999 15.3633 6.70999 15.3729 6.70999C15.6033 6.70999 15.8338 6.70999 16.0738 6.70999C16.0834 6.70999 16.1027 6.70999 16.1123 6.70999C16.3427 6.70999 16.5732 6.72999 16.8036 6.74999C16.8228 6.74999 16.842 6.74999 16.8708 6.74999C17.0629 6.75999 17.2549 6.77999 17.4566 6.79999C17.4566 6.79999 17.4662 6.79999 17.4758 6.79999C17.6678 6.81999 17.8694 6.84999 18.0615 6.86999C18.0903 6.86999 18.1191 6.86999 18.1479 6.87999C18.3015 6.89999 18.4648 6.92999 18.6184 6.94999C18.6472 6.94999 18.6856 6.95999 18.7144 6.96999C18.8489 6.98999 18.9833 7.01999 19.1177 7.03999C19.1561 7.03999 19.1945 7.04999 19.2329 7.05999C19.3866 7.08999 19.5402 7.11999 19.6938 7.15999C19.7227 7.15999 19.7419 7.16999 19.7707 7.17999C19.9051 7.20999 20.0395 7.23999 20.174 7.27999C20.222 7.28999 20.27 7.29999 20.318 7.31999C20.414 7.34999 20.51 7.36999 20.606 7.39999C20.6541 7.40999 20.7021 7.42999 20.7501 7.43999C20.8749 7.47999 20.9997 7.50999 21.1246 7.54999C21.1438 7.54999 21.1534 7.54999 21.1726 7.55999C21.3166 7.59999 21.451 7.64999 21.5951 7.69999C21.6335 7.70999 21.6815 7.72999 21.7199 7.73999C21.8159 7.76999 21.9215 7.80999 22.0176 7.84999C22.0752 7.86999 22.1328 7.88999 22.1904 7.90999C22.2672 7.93999 22.3344 7.95999 22.4112 7.98999C22.4689 8.00999 22.5265 8.03999 22.5937 8.05999C22.6705 8.08999 22.7377 8.11999 22.8145 8.14999C22.8721 8.16999 22.9298 8.19999 22.997 8.21999C23.0738 8.24999 23.141 8.27999 23.2178 8.30999C23.2754 8.33999 23.3427 8.35999 23.4003 8.38999C23.4771 8.41999 23.5443 8.45999 23.6211 8.48999C23.6787 8.51999 23.7459 8.54999 23.8036 8.57999C23.8612 8.60999 23.9284 8.63999 23.986 8.66999C24.0532 8.69999 24.1204 8.72999 24.1876 8.76999C24.2549 8.79999 24.3125 8.82999 24.3797 8.85999C24.4469 8.88999 24.5141 8.92999 24.5813 8.95999C24.6389 8.98999 24.7062 9.01999 24.7638 9.05999C24.831 9.09999 24.8982 9.12999 24.9654 9.16999C25.023 9.19999 25.0902 9.23999 25.1479 9.26999C25.2055 9.29999 25.2631 9.32999 25.3207 9.35999C25.4935 9.45999 25.6664 9.55999 25.8392 9.65999C26.0408 9.77999 26.2521 9.90999 26.4537 10.04C26.4729 10.05 26.4921 10.07 26.5114 10.08C26.6842 10.19 26.8474 10.3 27.0203 10.41C27.0587 10.44 27.1067 10.47 27.1451 10.49C27.3275 10.61 27.5004 10.74 27.6828 10.87C27.7212 10.9 27.7596 10.93 27.798 10.95C27.9517 11.06 28.0957 11.17 28.2493 11.28C28.3069 11.32 28.355 11.36 28.4126 11.4C28.5662 11.52 28.7198 11.63 28.8639 11.75C28.9023 11.78 28.9311 11.8 28.9695 11.83C29.1519 11.97 29.3344 12.12 29.5168 12.27C29.5744 12.32 29.632 12.37 29.6897 12.41C29.8241 12.52 29.9489 12.63 30.0737 12.74C30.141 12.8 30.2082 12.86 30.2754 12.91C30.3906 13.01 30.5154 13.12 30.6307 13.23C30.7075 13.29 30.7747 13.36 30.8515 13.42C30.9763 13.53 31.0916 13.64 31.2164 13.76C31.2836 13.82 31.3508 13.88 31.4084 13.94C31.5333 14.05 31.6485 14.17 31.7733 14.29C31.8405 14.36 31.9077 14.42 31.9846 14.49C32.1286 14.63 32.2822 14.78 32.4263 14.92C32.4647 14.96 32.5127 15 32.5511 15.04C32.7431 15.23 32.9352 15.42 33.1176 15.62C33.156 15.66 33.204 15.71 33.2424 15.75C33.3865 15.9 33.5305 16.05 33.6745 16.21C33.7802 16.32 33.8858 16.44 33.9914 16.55C34.0778 16.64 34.1642 16.74 34.2507 16.83C34.3563 16.95 34.4619 17.06 34.5675 17.18C34.654 17.27 34.7308 17.37 34.8172 17.46C35.0092 17.68 35.2013 17.9 35.3933 18.12C35.4029 18.13 35.4221 18.15 35.4317 18.16C35.6142 18.37 35.787 18.57 35.9598 18.78C36.0079 18.84 36.0655 18.9 36.1135 18.96C36.2575 19.13 36.4015 19.3 36.536 19.47C36.6032 19.56 36.68 19.64 36.7472 19.73C36.8624 19.88 36.9873 20.02 37.1025 20.17C37.1697 20.25 37.2369 20.33 37.2945 20.42C37.4386 20.6 37.5826 20.79 37.7266 20.97C37.7938 21.06 37.8611 21.15 37.9379 21.24C38.0819 21.43 38.2355 21.62 38.3796 21.81C38.4372 21.88 38.4852 21.95 38.5428 22.03C38.7733 22.34 39.0037 22.65 39.2342 22.96C39.2822 23.03 39.3398 23.1 39.3878 23.17C39.599 23.45 39.8007 23.74 40.0023 24.02C40.0311 24.06 40.0599 24.1 40.0888 24.15C40.2712 24.41 40.4632 24.68 40.6457 24.94C40.6937 25 40.7321 25.07 40.7801 25.13C40.9145 25.33 41.0586 25.53 41.193 25.73C41.2602 25.82 41.3178 25.91 41.3754 26.01C41.5003 26.19 41.6155 26.37 41.7307 26.54C41.7883 26.63 41.8555 26.72 41.9132 26.82C42.038 27.01 42.1724 27.21 42.2972 27.4C42.3452 27.47 42.3933 27.54 42.4413 27.61C42.6045 27.86 42.7677 28.11 42.9214 28.36C42.9214 28.36 42.9214 28.37 42.931 28.38C43.0846 28.63 43.2382 28.87 43.3919 29.11C43.4399 29.19 43.4975 29.27 43.5455 29.36C43.6511 29.53 43.7568 29.69 43.8528 29.86C43.9104 29.95 43.968 30.05 44.0256 30.14C44.1216 30.29 44.2081 30.45 44.3041 30.6C44.3617 30.7 44.4193 30.79 44.4769 30.89C44.5633 31.04 44.6594 31.19 44.7458 31.34C44.8034 31.43 44.861 31.53 44.909 31.62C45.005 31.78 45.0915 31.93 45.1875 32.09C45.2355 32.17 45.2835 32.26 45.3315 32.34C45.4467 32.53 45.5524 32.72 45.658 32.91C45.6868 32.95 45.706 33 45.7348 33.04C45.8692 33.27 45.9941 33.5 46.1285 33.73C46.2341 33.92 46.3397 34.1 46.4358 34.28C46.4646 34.33 46.4838 34.37 46.5126 34.42C46.5894 34.56 46.6662 34.7 46.743 34.84C46.7718 34.9 46.8102 34.96 46.839 35.01C46.9159 35.16 47.0023 35.3 47.0791 35.45C47.0983 35.49 47.1175 35.52 47.1367 35.56C47.2327 35.74 47.3288 35.91 47.4152 36.09C47.444 36.14 47.4632 36.18 47.4824 36.23C47.5496 36.36 47.6264 36.5 47.6936 36.63C47.7224 36.68 47.7512 36.73 47.7705 36.79C47.8473 36.93 47.9145 37.08 47.9913 37.22C48.0009 37.25 48.0201 37.28 48.0297 37.3C48.1161 37.48 48.2121 37.65 48.2986 37.83C48.3082 37.85 48.3178 37.87 48.3274 37.89C48.4042 38.04 48.481 38.19 48.5482 38.34C48.577 38.4 48.6058 38.45 48.6346 38.51C48.6923 38.62 48.7403 38.73 48.7883 38.83C48.8171 38.9 48.8459 38.96 48.8843 39.02C48.9323 39.12 48.9803 39.22 49.0283 39.31C49.0475 39.35 49.0667 39.39 49.0859 39.43C49.1339 39.54 49.1916 39.65 49.2396 39.76C49.2588 39.8 49.278 39.83 49.2876 39.87C49.3548 40.01 49.4124 40.14 49.47 40.27C49.4796 40.29 49.4892 40.32 49.4988 40.34C49.5468 40.44 49.5853 40.54 49.6333 40.63C49.6717 40.72 49.7197 40.81 49.7581 40.9C49.7869 40.96 49.8061 41.02 49.8349 41.07C49.8733 41.17 49.9213 41.26 49.9597 41.35C49.9789 41.4 49.9981 41.44 50.0173 41.49C50.0366 41.53 50.0462 41.56 50.0654 41.6C50.1038 41.68 50.1326 41.76 50.1614 41.84C50.1806 41.88 50.1998 41.92 50.2094 41.96C50.2382 42.03 50.267 42.1 50.2958 42.17C50.3054 42.2 50.3246 42.24 50.3342 42.27C50.363 42.34 50.3918 42.41 50.4206 42.48C50.4206 42.51 50.4398 42.53 50.4494 42.56C50.4782 42.65 50.5071 42.73 50.5359 42.81C50.5359 42.82 50.5455 42.84 50.5551 42.85C50.5743 42.91 50.5935 42.96 50.6127 43.01C50.6223 43.04 50.6415 43.08 50.6511 43.11C50.6703 43.16 50.6799 43.2 50.6991 43.25C50.6991 43.28 50.7183 43.31 50.7279 43.33C50.7471 43.4 50.7663 43.46 50.7855 43.52C50.8047 43.58 50.8143 43.64 50.8239 43.69C50.8335 43.74 50.8431 43.79 50.8527 43.83C50.8527 43.87 50.8527 43.91 50.8527 43.94C50.8527 43.96 50.8527 43.98 50.8527 44.01C50.8527 44.01 50.8527 44.01 50.8527 44.02C50.8527 44.04 50.8527 44.06 50.8431 44.09C50.8431 44.09 50.8431 44.09 50.8431 44.1C50.8431 44.12 50.8335 44.15 50.8239 44.17C50.8239 44.17 50.8239 44.17 50.8239 44.18C50.8239 44.21 50.8047 44.23 50.7951 44.26C50.7855 44.29 50.7663 44.33 50.7471 44.36C50.7471 44.36 50.7471 44.37 50.7375 44.38C50.7183 44.42 50.6991 44.45 50.6799 44.49C50.6799 44.5 50.6703 44.51 50.6607 44.53C50.6415 44.57 50.6127 44.61 50.5935 44.65C50.5935 44.65 50.5935 44.66 50.5839 44.67C50.5551 44.72 50.5167 44.77 50.4782 44.82C50.4782 44.83 50.459 44.85 50.4494 44.86C50.411 44.91 50.3822 44.96 50.3438 45.01C50.3438 45.01 50.3438 45.02 50.3342 45.03C50.2958 45.08 50.2478 45.14 50.1998 45.2C50.1902 45.21 50.1806 45.23 50.1614 45.24C50.1134 45.29 50.0654 45.35 50.0173 45.4C50.0173 45.4 50.0173 45.41 50.0077 45.42C49.9501 45.48 49.9021 45.54 49.8445 45.6C49.8349 45.61 49.8157 45.63 49.7965 45.64C49.7389 45.7 49.6813 45.76 49.6237 45.81C49.6237 45.81 49.6237 45.81 49.6141 45.82C49.5468 45.88 49.4796 45.95 49.4124 46.01C49.3932 46.03 49.3836 46.04 49.3644 46.06C49.2972 46.12 49.23 46.18 49.1628 46.25C49.1628 46.25 49.1628 46.25 49.1532 46.26C49.0763 46.33 48.9995 46.39 48.9227 46.46C48.9035 46.48 48.8843 46.49 48.8651 46.51C48.7883 46.57 48.7115 46.64 48.625 46.7C48.625 46.7 48.625 46.7 48.6154 46.7C48.529 46.77 48.4426 46.83 48.3562 46.9C48.337 46.92 48.3178 46.93 48.289 46.95C48.2025 47.02 48.1161 47.08 48.0201 47.15C47.9241 47.22 47.8281 47.29 47.732 47.35C47.7128 47.37 47.684 47.38 47.6648 47.4C47.5688 47.47 47.4728 47.54 47.3672 47.6C47.2615 47.67 47.1559 47.74 47.0503 47.8C47.0215 47.82 47.0023 47.83 46.9735 47.85C46.8678 47.92 46.7622 47.99 46.647 48.05L56.6236 42.01C56.7388 41.94 56.8445 41.88 56.9501 41.81C56.9789 41.79 57.0077 41.78 57.0269 41.76C57.1325 41.69 57.2381 41.63 57.3342 41.56C57.4302 41.49 57.5358 41.43 57.6318 41.36C57.6606 41.34 57.6798 41.33 57.7086 41.31C57.8047 41.24 57.9007 41.17 57.9967 41.11C57.9967 41.11 57.9967 41.11 58.0063 41.11C58.0927 41.04 58.1888 40.98 58.2752 40.91C58.2944 40.89 58.3232 40.88 58.3424 40.86C58.4288 40.79 58.5152 40.73 58.6016 40.66C58.6016 40.66 58.6016 40.66 58.6112 40.65C58.6881 40.59 58.7649 40.52 58.8417 40.46C58.8609 40.44 58.8801 40.43 58.8993 40.41C58.9761 40.34 59.0529 40.28 59.1298 40.21C59.1298 40.21 59.1298 40.21 59.1394 40.2C59.2066 40.14 59.2738 40.08 59.341 40.02C59.3602 40 59.3794 39.99 59.389 39.97C59.4562 39.91 59.5234 39.84 59.5907 39.78C59.5907 39.78 59.6003 39.78 59.6099 39.77C59.6675 39.71 59.7251 39.65 59.7827 39.6C59.8019 39.58 59.8115 39.57 59.8307 39.55C59.8883 39.49 59.9459 39.43 59.9939 39.37C59.9939 39.37 59.994 39.36 60.0036 39.35C60.0516 39.3 60.0996 39.24 60.1476 39.19C60.1572 39.18 60.1764 39.16 60.186 39.15C60.234 39.09 60.282 39.04 60.3204 38.98C60.3204 38.98 60.3204 38.97 60.33 38.96C60.3684 38.91 60.4068 38.86 60.4356 38.81C60.4356 38.8 60.4549 38.78 60.4645 38.77C60.5029 38.72 60.5317 38.67 60.5701 38.62C60.5701 38.62 60.5701 38.62 60.5701 38.61C60.5989 38.57 60.6181 38.53 60.6373 38.49C60.6373 38.48 60.6469 38.47 60.6565 38.45C60.6757 38.41 60.6949 38.38 60.7141 38.34C60.7141 38.34 60.7141 38.33 60.7141 38.32C60.7333 38.29 60.7429 38.25 60.7621 38.22C60.7621 38.2 60.7717 38.19 60.7813 38.17C60.7813 38.17 60.7813 38.15 60.7813 38.14C60.7813 38.14 60.7813 38.14 60.7813 38.13C60.7813 38.11 60.7813 38.1 60.7909 38.08C60.7909 38.08 60.7909 38.07 60.7909 38.06C60.7909 38.06 60.7909 38.06 60.7909 38.05C60.7909 38.05 60.7909 38.04 60.7909 38.03C60.7909 38.02 60.7909 38 60.7909 37.99C60.7909 37.99 60.7909 37.99 60.7909 37.98V37.96C60.7909 37.95 60.7909 37.93 60.7909 37.92C60.7909 37.92 60.7909 37.9 60.7909 37.88V37.84Z" fill="white" stroke="black" stroke-linecap="round" stroke-linejoin="round"/>
</g>
<defs>
<clipPath id="clip0_43_9084">
<rect width="61.4536" height="64" fill="white"/>
</clipPath>
</defs>
</svg>
