<svg width="64" height="64" viewBox="0 0 64 64" fill="none" xmlns="http://www.w3.org/2000/svg">
<g clip-path="url(#clip0_43_6988)">
<path d="M34.8683 11.5898C34.1283 11.7698 33.2683 13.9898 32.0883 15.7898C31.0783 16.8598 29.5283 18.8198 28.2383 20.8498C28.6183 20.8698 29.4783 21.6298 29.7683 21.7198C31.0883 20.0498 32.8383 18.4398 33.2483 17.5698L34.9683 14.6798L34.8683 11.5898Z" fill="white" stroke="black" stroke-linecap="round" stroke-linejoin="round"/>
<path d="M32.9881 45.4606C33.0481 45.4606 33.1081 45.4606 33.1681 45.4406C33.4681 45.3606 34.8881 44.7806 35.1481 44.5906C35.3881 44.4106 35.4381 44.4106 35.4681 44.4306C35.6581 44.6106 36.0181 44.4606 36.3281 44.3406C36.3781 44.3206 36.4281 44.3006 36.4681 44.2906C36.8081 44.1706 36.8281 43.7506 36.8481 43.4706C36.8681 43.1406 36.7581 42.7606 36.7581 42.7506L36.7381 42.6706L34.5981 41.8906L34.5181 41.9706C34.5181 41.9706 33.8981 42.6006 33.3881 43.2006C32.8881 43.7906 32.5281 44.0306 32.2181 44.2106C31.9681 44.3506 31.8281 44.5406 31.8281 44.7306C31.8281 44.8206 31.8581 44.9906 32.0781 45.1406C32.2481 45.2506 32.6381 45.4706 32.9981 45.4706L32.9881 45.4606Z" fill="black" stroke="black" stroke-linecap="round" stroke-linejoin="round"/>
<path d="M32.9893 45.4598C33.0493 45.4598 33.1093 45.4598 33.1693 45.4398C33.4393 45.3698 34.8793 44.7898 35.1493 44.5898C35.3893 44.4098 35.4393 44.4098 35.4693 44.4298C35.6593 44.6098 36.0193 44.4598 36.3293 44.3398C36.3793 44.3198 36.4293 44.2998 36.4693 44.2898C36.8093 44.1698 36.8393 43.7398 36.8393 43.4198C36.8193 43.2898 36.7593 43.1998 36.6593 43.1598C36.2893 42.9898 35.4193 43.4598 34.1393 44.1998C33.7293 44.4398 33.2093 44.7398 33.0993 44.7498C32.7693 44.7498 32.3693 44.5898 32.2993 44.5098V44.3898L32.1593 44.3598C32.0093 44.3298 31.9493 44.4798 31.9293 44.5498C31.8293 44.7898 31.8793 45.0098 32.0693 45.1298C32.2393 45.2398 32.6293 45.4598 32.9893 45.4598Z" fill="black" stroke="black" stroke-linecap="round" stroke-linejoin="round"/>
<path d="M39.8385 48.1198C40.0085 48.1198 40.2185 48.0698 40.4785 47.9198C40.7785 47.7498 41.6485 46.8798 41.8585 46.6198C41.9385 46.5298 42.0985 46.3298 42.1585 46.3198C42.4585 46.3998 42.6385 46.1898 42.7885 46.0198C42.8185 45.9898 42.8485 45.9498 42.8785 45.9198C43.1285 45.6498 43.1385 45.5798 43.1485 45.1198C43.1485 44.9198 43.1185 44.6398 43.0985 44.4398C43.0685 44.2398 42.9185 44.0898 42.7185 44.0598L40.5885 43.7598L40.5385 43.8898C40.5385 43.8898 40.1285 44.9498 39.6885 45.6398C39.3885 46.0998 39.2085 46.3698 39.0585 46.5798C38.9585 46.7198 38.8785 46.8398 38.7985 46.9698C38.6485 47.2098 38.6685 47.3998 38.7085 47.5198C38.7785 47.7198 38.9585 47.8698 39.2185 47.9598C39.2685 47.9698 39.3085 47.9898 39.3485 48.0098C39.4985 48.0598 39.6485 48.1198 39.8285 48.1198H39.8385Z" fill="black" stroke="black" stroke-linecap="round" stroke-linejoin="round"/>
<path d="M39.8387 48.1191C40.0087 48.1191 40.2187 48.0691 40.4787 47.9191C40.7787 47.7491 41.6487 46.8791 41.8587 46.6191C41.9387 46.5291 42.0987 46.3291 42.1587 46.3191C42.4587 46.3991 42.6387 46.1891 42.7887 46.0191C42.8187 45.9891 42.8487 45.9491 42.8787 45.9191C43.1287 45.6491 43.1387 45.5791 43.1487 45.1191C43.1487 45.0891 43.1487 44.9491 43.1487 44.8791V44.7891C43.0787 44.5991 42.9587 44.5491 42.8887 44.5291C42.5187 44.4591 42.0187 45.0391 41.0487 46.2991C40.6787 46.7691 40.1787 47.4191 40.0287 47.4691C39.6687 47.5491 39.0887 47.3091 39.0187 47.2191C39.0187 47.2291 39.0387 47.2591 39.0287 47.2991L38.7087 47.2091C38.7087 47.2091 38.7087 47.2391 38.6987 47.2591C38.6487 47.5691 38.8587 47.8291 39.2387 47.9591C39.2887 47.9691 39.3287 47.9891 39.3687 48.0091C39.5187 48.0591 39.6687 48.1191 39.8487 48.1191H39.8387Z" fill="black" stroke="black" stroke-linecap="round" stroke-linejoin="round"/>
<path d="M35.8883 43.2409C36.4683 43.2409 36.8283 42.9309 36.8483 42.9109L36.8883 42.8709V42.8109C36.8883 42.8109 37.1683 41.4809 37.2983 39.6209C37.3483 38.9309 37.3183 38.3909 37.2883 37.8709C37.2383 36.9909 37.1883 36.2409 37.5883 35.0409C38.2283 33.1209 38.6583 28.0009 38.6783 27.7809V27.7009L34.3683 23.8809L34.3083 24.1709C34.3083 24.1709 33.8483 26.4509 33.8983 28.8009C33.9183 29.8309 34.0383 31.1109 34.1483 32.3509C34.2883 33.8809 34.4183 35.3209 34.3183 35.8409C34.1383 36.8109 34.3083 41.9409 34.3183 42.1609C34.3183 42.2009 34.4083 42.8209 35.3183 43.1309C35.5283 43.2009 35.7183 43.2309 35.8883 43.2309V43.2409Z" fill="white" stroke="black" stroke-linecap="round" stroke-linejoin="round"/>
<path d="M41.8293 44.91C42.9393 44.91 43.2392 44.17 43.2592 44.14V44.1L43.2693 44.06C43.2693 43.99 42.6993 37.09 42.9293 33.98C43.1593 30.84 42.5493 27.3 42.5493 27.26L42.5292 27.14L37.5693 26.5V26.69C37.5693 26.69 37.5293 28.06 37.7493 29.99C37.8593 30.9 38.2193 32.33 38.5693 33.71C38.9693 35.28 39.3792 36.9 39.3692 37.61C39.3592 38.97 40.3092 44.05 40.3492 44.26C40.3692 44.33 40.5193 44.84 41.7193 44.9C41.7593 44.9 41.7993 44.9 41.8393 44.9L41.8293 44.91Z" fill="white" stroke="black" stroke-linecap="round" stroke-linejoin="round"/>
<path d="M35.0016 26.37C35.0616 26.37 35.1316 26.37 35.1916 26.35C35.6316 26.28 36.0116 25.96 36.3216 25.39C37.0516 24.06 37.0516 23.73 36.9516 23.57C36.9516 23.57 36.9516 23.56 36.9416 23.56L37.3716 11.41L37.2116 11.39C36.8816 11.35 35.1916 11.2 34.7516 11.63C34.3216 12.05 33.5316 13.99 33.8216 17.32C34.1216 20.64 34.1016 21.54 33.9116 22.91C33.8416 23.39 33.7316 23.84 33.6316 24.24C33.4516 24.95 33.3316 25.42 33.5916 25.66C33.8016 25.86 34.3616 26.37 35.0016 26.37Z" fill="white" stroke="black" stroke-linecap="round" stroke-linejoin="round"/>
<path d="M40.8086 12.5C40.8086 12.5 43.2086 13.77 43.5886 14.68C43.9686 15.59 43.0086 20.96 42.7686 22.52C42.5386 24.08 43.1786 27.73 43.0586 27.96C42.9386 28.19 42.0286 28.93 40.1786 28.67C38.0786 28.37 36.6486 27.74 36.1586 26.46C35.6686 25.19 36.0786 20.66 36.0786 20.66L38.7286 16.17L40.7886 12.51L40.8086 12.5Z" fill="white" stroke="black" stroke-linecap="round" stroke-linejoin="round"/>
<path d="M37.7409 13.4999C38.1409 13.4999 38.5309 13.3799 38.8609 13.1599L40.2709 12.1999L40.1909 12.0599C40.1909 12.0599 40.0709 11.8699 39.9609 11.4299C39.8409 10.9899 39.8609 9.79992 39.8609 9.78992V9.62992L37.0509 9.41992L37.2409 11.0799C37.4009 12.4299 36.8709 13.0399 36.8609 13.0499L36.7109 13.2199L36.9209 13.3199C37.1809 13.4399 37.4609 13.4999 37.7509 13.4999H37.7409Z" fill="white" stroke="black" stroke-linecap="round" stroke-linejoin="round"/>
<path d="M40.0616 12.3906L39.6916 14.5606L36.6316 19.7606L36.1016 19.9906L36.2416 14.7106L37.0516 12.9206L37.5116 12.5206L37.6716 12.9706L37.7416 13.5806L40.0616 12.3906Z" fill="#878787" stroke="black" stroke-linecap="round" stroke-linejoin="round"/>
<path d="M37.5888 11.7495C37.5888 11.7495 37.6288 11.7495 37.6388 11.7495C38.5188 11.7295 39.3388 11.2695 39.8388 10.5195C39.9388 10.3695 40.0388 10.2195 40.1188 10.0795C40.6588 9.18945 40.6988 8.10945 40.2288 7.17945L39.8188 6.37945L36.7288 6.18945L36.6788 6.25945C36.6788 6.25945 36.0488 7.11945 35.9088 8.24945C35.6488 10.3395 36.0489 11.4995 37.1089 11.6995C37.2689 11.7295 37.4288 11.7495 37.5988 11.7495H37.5888Z" fill="white" stroke="black" stroke-linecap="round" stroke-linejoin="round"/>
<path d="M37.7096 16.3498L37.0596 15.6598L36.5496 14.9798L36.2096 14.2998C35.6896 13.0598 37.3596 12.2698 37.4096 12.4898L37.5096 13.2998C37.5096 13.2998 37.7096 13.8298 37.8096 14.0698C37.8296 14.1098 38.2196 14.4098 38.2196 14.4098L38.6496 13.3998C38.7996 13.1698 39.0296 13.2798 38.9496 13.5598L38.7396 14.8598C38.7396 14.8598 38.5196 15.4998 38.4996 15.5498L38.4796 15.6098L38.6496 16.0498L37.8896 16.5898L37.6996 16.3498H37.7096Z" fill="white" stroke="black" stroke-linecap="round" stroke-linejoin="round"/>
<path d="M38.3283 17.5203L37.7183 16.6503C37.6483 16.5503 37.6183 16.4203 37.6483 16.3003C37.6983 16.1203 37.7283 15.9803 38.0183 15.6503C38.0983 15.5603 38.1983 15.5103 38.2883 15.4703C38.5183 15.3503 38.7983 15.4203 38.9483 15.6403L39.7983 16.8603L38.3183 17.5303L38.3283 17.5203Z" fill="white" stroke="black" stroke-linecap="round" stroke-linejoin="round"/>
<path d="M43.4012 25.1598C43.6012 25.1598 43.7811 25.0998 43.9411 24.9798C44.4411 24.5998 44.7412 23.6298 44.8812 21.9298C45.0912 19.4198 44.7612 14.7498 43.3412 14.3598C42.7612 14.1998 42.2612 14.3898 41.8812 14.9098C41.5912 15.3098 41.4412 15.8198 41.4712 16.3598C41.5112 17.1498 41.7312 18.2298 41.9012 19.0898C41.9312 19.2498 41.9712 19.4298 42.0012 19.5898C41.4712 18.6498 40.4912 16.9298 39.8112 16.0998C39.3712 15.5598 38.9112 15.7798 38.7112 15.8698C38.4012 16.0098 38.1212 16.3498 37.9912 16.7398C37.9012 17.0298 37.8512 17.4898 38.1512 18.0098C38.1912 18.0798 42.3712 24.9798 43.2112 25.1398C43.2812 25.1498 43.3412 25.1598 43.4012 25.1598Z" fill="white" stroke="black" stroke-linecap="round" stroke-linejoin="round"/>
<path d="M39.5617 10.5709L39.8717 10.4309C39.9217 10.4109 41.2217 9.82094 41.3717 8.42094C41.4517 7.64094 40.8817 7.05094 40.8617 7.03094L40.7917 6.96094L38.7617 7.40094L38.9417 8.21094C39.0117 8.52094 39.3017 8.73094 39.6017 8.74094C39.6717 8.74094 39.7717 8.77094 39.8717 8.82094C39.9217 8.85094 39.9517 8.89094 39.9717 8.95094C40.0517 9.22094 39.8217 9.71094 39.7317 9.86094L39.7117 9.90094L39.5517 10.5509L39.5617 10.5709Z" fill="#878787" stroke="black" stroke-linecap="round" stroke-linejoin="round"/>
<path d="M35.3195 5.20068C35.7195 4.96068 36.4295 4.97068 36.9295 5.23068C36.9295 5.23068 36.9395 5.23068 36.9495 5.23068C37.1995 5.13068 37.4795 5.02068 37.7995 4.94068C38.7595 4.73068 39.7295 4.96068 40.5995 5.61068C40.9995 5.91068 41.2095 6.43068 41.2395 6.80068C41.2595 7.03068 41.2095 7.20068 41.1095 7.31068C40.9795 7.45068 40.5695 7.52068 40.1495 7.56068C39.6595 7.97068 39.1195 8.18068 38.4595 8.18068C37.9295 8.18068 37.3195 8.05068 36.5795 7.80068C35.2695 7.35068 35.0395 6.32068 35.0195 5.75068C35.0195 5.53068 35.1195 5.34068 35.3295 5.21068L35.3195 5.20068Z" fill="#878787" stroke="black" stroke-linecap="round" stroke-linejoin="round"/>
<path d="M5.28156 41.0906C5.52156 41.0906 5.72156 40.8906 5.72156 40.6506V16.5306L6.44156 15.9706C6.63156 15.8206 6.66156 15.5506 6.51156 15.3606C6.36156 15.1706 6.09156 15.1406 5.90156 15.2906L4.85156 16.1106V40.6506C4.85156 40.8906 5.04156 41.0906 5.28156 41.0906Z" fill="black" stroke="black" stroke-linecap="round" stroke-linejoin="round"/>
<path d="M6.38806 14.0398L4.76806 14.3398C4.62806 14.3698 4.49806 14.4398 4.38806 14.5398L3.99806 15.0598C3.82806 15.2798 4.20806 16.5998 4.73806 16.8198C5.25806 16.7698 4.94806 16.4898 4.94806 16.0198C4.94806 16.0198 6.38806 15.7398 6.95806 15.5298L7.98806 15.0098L7.53806 13.7598L6.38806 14.0298V14.0398Z" fill="white" stroke="black" stroke-linecap="round" stroke-linejoin="round"/>
<path d="M15.3814 6.87093C14.8714 9.88093 14.4714 12.6109 13.6614 13.6509C12.1114 14.9109 9.57141 15.1809 6.95141 15.5409C7.14141 15.2109 7.09141 14.2209 6.44141 14.0309C8.07141 13.1209 9.71141 12.1109 11.3414 11.5209C11.4514 9.71093 11.7214 7.83093 12.1114 5.88093C12.7814 3.23093 15.8214 4.53093 15.3714 6.87093H15.3814Z" fill="#878787" stroke="black" stroke-linecap="round" stroke-linejoin="round"/>
<path d="M15.6503 35.6395C15.8303 36.1195 15.8503 36.6995 15.7303 37.3795L14.7903 38.0495H14.4903C13.6703 39.6695 12.6003 40.2195 11.4403 40.4395C10.8903 40.4395 10.4203 40.2495 10.0403 39.8595C9.93031 39.3295 9.93031 38.8895 10.1603 38.6095C10.6903 37.9295 11.6103 37.4895 12.2203 36.0895L12.4503 35.1795L15.4203 34.6895L15.6503 35.6495V35.6395Z" fill="black" stroke="black" stroke-linecap="round" stroke-linejoin="round"/>
<path d="M19.6999 16.5497L15.3299 26.0297C16.4799 27.7297 16.1999 31.9097 15.9899 35.5297C15.5599 36.8897 12.4999 37.4597 12.0799 35.9797C12.4499 32.8497 11.9199 29.6397 11.9199 25.9997C11.8699 21.3697 12.7899 16.9897 14.9599 12.9297L19.6999 16.5497Z" fill="white" stroke="black" stroke-linecap="round" stroke-linejoin="round"/>
<path d="M20.8496 40.5902C21.1896 40.9502 21.7096 41.1202 22.3696 41.1202C23.8496 40.9102 25.0196 40.1002 25.5696 38.1702C26.0296 38.0002 26.3796 37.6002 26.6096 36.9502C26.6096 36.9302 26.6196 36.9102 26.6296 36.8902C26.5596 36.4602 26.4396 36.1102 26.2696 35.8002C26.0996 35.4802 25.8996 35.2202 25.6696 34.9902L25.4196 35.1102L22.9996 36.2702C22.9596 36.5002 22.9096 36.7202 22.8596 36.9102C22.3596 38.6302 21.1596 38.9402 20.8396 39.5602C20.7096 39.8902 20.6996 40.2302 20.8396 40.5902H20.8496Z" fill="black" stroke="black" stroke-linecap="round" stroke-linejoin="round"/>
<path d="M14.9592 13.6895L15.8392 14.8495L16.8792 16.2295L17.2092 16.6595L18.1192 17.8595L18.1892 17.9495C17.9492 19.7795 17.8692 21.4895 17.9992 23.1395C17.9992 23.1695 17.9992 23.1895 17.9992 23.2195C18.1492 25.1595 18.5892 27.0095 19.3892 28.8395C20.8992 31.3995 22.1192 34.4295 22.6192 36.6195C22.6692 36.7295 22.7592 36.8295 22.8692 36.9095C23.4792 37.3495 24.8892 37.4095 25.7092 36.7595C25.9892 36.5295 26.2092 36.2195 26.2892 35.7995C26.3292 35.5895 26.3492 35.3495 26.3092 35.0795C25.9192 31.5795 24.7892 28.4895 22.4092 27.1795C22.6992 25.3595 22.9392 23.5695 23.0892 21.8795C23.2392 20.2195 23.2892 18.6395 23.1992 17.1995C23.3492 16.4395 23.4492 15.6595 23.4692 14.8795C23.4692 14.7695 23.4692 14.6695 23.4692 14.5595C23.4692 14.2695 23.4692 13.9895 23.4592 13.7095C23.4592 13.5595 23.4392 13.4095 23.4292 13.2595C23.4292 13.2395 23.4292 13.2195 23.4292 13.2095C23.3892 12.6495 23.3092 12.0895 23.1992 11.5195C23.1992 11.5195 22.3792 11.6195 21.2792 11.7595C19.5892 11.9695 17.2492 12.2595 16.2592 12.3795C15.9692 12.4195 15.7892 12.4395 15.7892 12.4395L15.2292 12.5095L15.1892 12.6895L14.9992 13.4595L14.9492 13.6695L14.9592 13.6895Z" fill="white" stroke="black" stroke-linecap="round" stroke-linejoin="round"/>
<path d="M11.7914 6.52025C11.8614 8.34025 12.4314 10.0603 13.5014 11.6403C13.8714 12.1903 14.3014 12.7102 14.8014 13.2203C14.8214 13.2403 14.8314 13.2603 14.8514 13.2902C14.9014 13.3503 14.9514 13.4202 15.0014 13.4802C15.8414 14.4402 17.1314 14.9802 18.9314 15.0802C20.8514 15.2302 22.3914 14.6803 23.4314 13.2703C23.3614 12.6803 23.2714 12.0903 23.1814 11.5302C23.0814 10.8902 22.9614 10.2802 22.8114 9.69025C22.4814 8.34025 22.0314 7.16025 21.3414 6.28025C20.5614 5.34025 19.5114 4.63025 17.9714 4.29025C15.7414 1.98025 13.5714 2.14025 12.1114 3.47025C11.8514 4.51025 11.7414 5.53025 11.7814 6.53025L11.7914 6.52025Z" fill="black" stroke="black" stroke-linecap="round" stroke-linejoin="round"/>
<path d="M15.5013 3.46094C15.5513 3.46094 16.3812 4.08094 16.3812 4.08094C17.5912 4.77094 16.2013 8.06094 14.4313 7.23094L12.7812 6.08094L15.5013 3.46094Z" fill="white" stroke="black" stroke-linecap="round" stroke-linejoin="round"/>
<path d="M16.84 5.20929C16.21 7.62929 16 10.0293 16.26 12.3893C16.37 13.3793 16.56 14.3693 16.84 15.3493C16.89 15.9793 16.91 16.9193 16.87 17.8793C16.81 19.4493 16.63 21.1193 16.36 22.8593C16.72 22.9493 17.09 23.0293 17.46 23.0793C17.68 23.1193 17.9 23.1393 18.11 23.1593C18.11 23.1593 18.12 23.1593 18.13 23.1593C18.31 23.1793 18.49 23.1893 18.68 23.1993C18.74 23.1993 18.8 23.1993 18.86 23.1993C18.98 23.1993 19.09 23.1993 19.21 23.1993C19.39 23.1993 19.56 23.1993 19.72 23.1793C20.01 23.1593 20.26 23.1293 20.48 23.0893C20.61 23.0693 20.73 23.0393 20.86 23.0093C21 22.9793 21.13 22.9393 21.24 22.9093C21.48 22.8393 21.7 22.7593 21.92 22.6493C22.35 22.4593 22.75 22.1993 23.1 21.8793C23.25 21.7393 23.39 21.5893 23.52 21.4193C23.56 21.3693 23.6 21.3193 23.63 21.2693C23.66 21.2193 23.7 21.1693 23.73 21.1193C23.77 21.0593 23.81 20.9993 23.83 20.9493C23.93 20.7793 24.02 20.5993 24.09 20.4093C24.04 20.1893 23.99 19.9693 23.94 19.7593C23.79 19.0593 23.68 18.4193 23.61 17.8393C23.61 17.8193 23.61 17.7993 23.61 17.7793C23.59 17.5993 23.57 17.4193 23.55 17.2493C23.55 17.1893 23.54 17.1293 23.54 17.0693C23.53 16.9093 23.51 16.7493 23.5 16.5993C23.49 16.3893 23.48 16.1793 23.47 15.9793C23.46 15.5993 23.46 15.2593 23.46 14.9393V14.8793C23.46 14.4493 23.46 14.0593 23.46 13.7093C23.46 13.5593 23.46 13.4093 23.45 13.2593C23.37 11.0093 23.12 8.85929 22.35 7.34929C21.54 5.74929 20.12 4.86929 18.15 4.36929C17.64 2.40929 16.15 2.06929 14.5 2.48929L15.38 3.44929C16.29 3.83929 16.88 4.21929 16.85 5.19929L16.84 5.20929Z" fill="#878787" stroke="black" stroke-linecap="round" stroke-linejoin="round"/>
<path d="M13.7005 6.30992C13.4705 8.93992 13.8505 11.2699 14.8605 13.2899C15.3205 15.6099 14.6905 18.9199 14.0205 22.2699C12.8805 22.2699 11.9805 21.9599 11.4805 21.1299C12.4805 18.3099 13.2105 15.6099 13.2805 13.1899L11.4805 5.66992L13.7005 6.30992Z" fill="#878787" stroke="black" stroke-linecap="round" stroke-linejoin="round"/>
<path d="M11.7891 6.52031C11.8491 7.99031 12.2291 9.40031 12.9391 10.7103C13.1991 11.2003 13.8991 11.1903 14.1491 10.7103C14.9791 9.06031 15.8091 5.94031 15.5491 5.32031L14.9791 4.82031L11.7991 6.53031L11.7891 6.52031Z" fill="white" stroke="black" stroke-linecap="round" stroke-linejoin="round"/>
<path d="M13.4603 0.660156C14.9403 0.670156 15.7903 1.37016 15.8403 2.92016C15.8003 4.55016 15.7303 6.03016 14.4203 6.91016C13.7803 7.43016 13.3603 7.70016 12.6103 7.66016C11.7103 7.61016 10.7903 5.44016 10.6603 3.88016C10.4403 2.30016 11.7903 1.09016 13.4603 0.660156Z" fill="white" stroke="black" stroke-linecap="round" stroke-linejoin="round"/>
<path d="M10.5381 3.98951C10.8681 4.77951 12.5881 5.15951 14.0181 4.52951L14.1481 5.53951L14.7381 4.97951L15.3281 5.60951L15.5481 5.29951C16.4281 4.01951 16.5181 1.64951 14.6481 0.769512C12.2581 -0.190488 9.77807 2.27951 10.5381 3.97951V3.98951Z" fill="white" stroke="black" stroke-linecap="round" stroke-linejoin="round"/>
<path d="M21.9105 22.6602C21.8105 22.6902 21.5905 22.8002 21.2305 22.9202C21.4705 22.8502 21.6905 22.7702 21.9105 22.6602Z" fill="white" stroke="black" stroke-linecap="round" stroke-linejoin="round"/>
<path d="M19.7092 23.1797C19.5392 23.1897 19.3692 23.1997 19.1992 23.1997C19.3792 23.1997 19.5492 23.1997 19.7092 23.1797Z" fill="white" stroke="black" stroke-linecap="round" stroke-linejoin="round"/>
<path d="M18.6719 23.1895C18.7319 23.1895 18.7919 23.1895 18.8519 23.1895" stroke="black" stroke-linecap="round" stroke-linejoin="round"/>
<path d="M18.1094 23.1504C18.1094 23.1504 18.1194 23.1504 18.1294 23.1504C18.1294 23.1504 18.1194 23.1504 18.1094 23.1504Z" fill="white" stroke="black" stroke-linecap="round" stroke-linejoin="round"/>
<path d="M18.1289 23.1602C18.3089 23.1802 18.4889 23.1902 18.6789 23.2002C18.5089 23.2002 18.3189 23.1802 18.1289 23.1602Z" fill="white" stroke="black" stroke-linecap="round" stroke-linejoin="round"/>
<path d="M19.2016 23.1992C19.0916 23.1992 18.9716 23.1992 18.8516 23.1992C18.9716 23.1992 19.0816 23.1992 19.2016 23.1992Z" fill="white" stroke="black" stroke-linecap="round" stroke-linejoin="round"/>
<path d="M17.4688 23.0801C17.6787 23.1101 17.8988 23.1401 18.1088 23.1601C17.9088 23.1401 17.6887 23.1101 17.4688 23.0801Z" fill="white" stroke="black" stroke-linecap="round" stroke-linejoin="round"/>
<path d="M23.9607 21.8292L23.9207 23.1292L23.7607 24.2792L23.3407 25.0992C23.2607 25.2992 22.7407 25.9992 22.7407 25.9992C22.6507 26.2692 21.8107 26.3892 21.8107 26.3892C21.6607 26.6292 20.3507 26.1292 20.5207 25.8592L21.2007 24.9792C21.2007 24.9792 21.5307 24.2692 21.6507 23.9392C21.6707 23.8892 21.5807 23.2092 21.5807 23.2092L20.1807 23.7792C19.8107 23.8592 19.6907 23.5292 20.0407 23.3292L21.5007 22.2692C21.5007 22.2692 22.3307 21.8692 22.4107 21.8292L22.4907 21.7892L22.7407 21.1992L24.0007 21.4192L23.9607 21.8392V21.8292Z" fill="white" stroke="black" stroke-linecap="round" stroke-linejoin="round"/>
<path d="M22.3516 7.35915C23.6416 9.04915 24.6316 11.4192 25.4316 14.1792C25.4916 16.3892 25.1317 19.2692 24.2917 22.1192C23.9317 22.6692 22.7216 22.5392 21.9216 21.8192C22.1816 19.6692 22.2016 17.2392 22.6316 15.1192C21.5616 14.2892 20.9316 12.0692 19.8816 10.1492C18.4116 8.00915 20.8017 5.70915 22.3516 7.35915Z" fill="#878787" stroke="black" stroke-linecap="round" stroke-linejoin="round"/>
<path d="M60.5302 34.7509L60.5902 34.3709C60.5902 34.3709 61.3402 29.8809 61.6902 28.5409C61.7802 28.1809 61.8302 27.8609 61.8302 27.5409C61.8202 24.3609 60.5102 20.1909 60.5002 20.1509L60.3402 19.6309L58.5602 24.4309L56.9102 30.8209L60.5402 34.7509H60.5302Z" fill="white" stroke="black" stroke-linecap="round" stroke-linejoin="round"/>
<path d="M55.8985 54.7103C55.8985 54.7103 56.2685 55.5103 56.2185 56.5003C56.2085 56.7403 56.0385 56.9503 55.8085 57.0203L55.2385 57.1903C54.9985 57.2603 54.6085 57.0403 54.4385 56.8603L54.1285 56.5403C53.9585 56.3703 53.7385 56.2503 53.4985 56.2003C53.3285 56.1703 53.1585 56.1003 53.0185 56.0003L51.7385 54.9703C51.5285 54.8203 51.4685 54.5303 51.6185 54.3203C51.7385 54.1503 51.9485 53.9803 52.3085 53.9003C53.1285 53.7003 54.3185 54.1803 54.3185 54.1803L55.9085 54.7103H55.8985Z" fill="black" stroke="black" stroke-linecap="round" stroke-linejoin="round"/>
<path d="M60.4385 52.0208C60.4385 52.0208 60.7985 53.6608 60.9585 54.1608C61.0285 54.4008 61.0085 54.6608 60.8985 54.8908C60.8385 55.0208 60.7185 55.1208 60.5785 55.1508L59.6485 55.3608C59.4085 55.4108 59.1685 55.3108 59.0385 55.1008C58.7885 54.7308 58.4785 54.3308 58.1185 54.0308L57.1685 53.2308C57.1685 53.2308 56.7485 52.8408 56.9485 52.2808C57.0485 52.0008 57.5885 51.8808 58.0885 51.8308C58.5985 51.7808 59.0785 51.8008 59.0785 51.8008L60.4385 52.0208Z" fill="black" stroke="black" stroke-linecap="round" stroke-linejoin="round"/>
<path d="M54.9892 55.9301C55.4192 55.9301 55.7692 55.7801 55.9892 55.6501C56.1692 55.5501 56.2892 55.3701 56.3192 55.1601C56.4692 53.9801 56.9292 50.0101 56.7992 48.5901C56.7392 47.9601 56.6292 47.4001 56.5292 46.8601C56.3692 46.0001 56.2292 45.2601 56.3192 44.5001C56.3592 44.1501 56.4192 43.4301 56.4892 42.3501C56.5292 42.5901 56.5792 42.8201 56.6292 42.9701C56.7492 43.3601 56.8192 43.7701 56.8392 44.2001C56.8592 44.9201 56.9692 45.9501 57.3392 46.8101C57.7992 47.8801 58.5492 52.6101 58.6692 53.5001C58.6892 53.6101 58.7392 53.7101 58.8292 53.7801C59.6692 54.3901 60.5092 54.0001 60.8292 53.8001C60.9492 53.7201 61.0292 53.5901 61.0192 53.4401C61.0092 53.1101 60.9892 52.0501 61.0192 49.3201C61.0492 47.0001 60.6992 45.7501 60.4292 44.7501C60.2892 44.2301 60.1592 43.7801 60.0992 43.2601C59.9292 41.7201 60.3992 35.8501 60.4092 35.7901V35.6501L60.2892 35.6001C60.1592 35.5501 57.1892 34.3601 55.8392 35.1401C55.5592 35.3001 55.3592 35.5301 55.2592 35.8301C53.4092 34.4501 52.1592 34.0301 51.5392 34.5901C51.2892 34.8201 51.3292 35.4801 51.4292 36.4701C51.4492 36.6801 51.4692 36.8701 51.4792 37.0301C51.7092 40.6301 52.7892 45.4301 52.8592 45.7401C52.8692 45.9301 52.9692 47.5701 53.3492 48.9601C53.6892 50.2101 53.7292 54.2901 53.7392 55.0901C53.7392 55.3301 53.8792 55.5601 54.0892 55.6801C54.4092 55.8601 54.7192 55.9301 54.9992 55.9301H54.9892Z" fill="#878787" stroke="black" stroke-linecap="round" stroke-linejoin="round"/>
<path d="M54.4395 37.3296C56.2295 37.3296 58.0295 36.9196 59.6395 36.1496L61.0195 35.4496C61.1895 35.3596 61.2895 35.1796 61.2495 34.9896C61.0695 34.0296 60.1695 29.0996 60.4295 26.6496C60.7495 23.6896 60.9395 20.7796 60.2395 19.5396C59.9995 19.1196 59.6895 18.8596 59.3095 18.7596C58.7195 18.6096 58.1995 18.9196 58.1795 18.9396H58.1595L56.5195 20.2796C56.1395 20.1596 54.8195 19.8296 53.3795 20.6196C52.0595 21.3396 52.2495 24.1796 52.4195 26.6796C52.4695 27.4496 52.5195 28.1896 52.5195 28.7896C52.5195 31.2496 50.8095 34.9496 50.7995 34.9796L50.7695 35.0596L50.7995 35.1396C51.1095 35.8796 51.6895 36.4796 52.4095 36.8296L52.5295 36.8896C53.1095 37.1696 53.7695 37.3196 54.4195 37.3196L54.4395 37.3296Z" fill="white" stroke="black" stroke-linecap="round" stroke-linejoin="round"/>
<path d="M55.7919 20.3791C56.8919 20.3791 57.5719 19.8791 57.8519 19.6091C57.8619 19.5991 57.8819 19.5891 57.8919 19.5791C57.9419 19.5391 58.1119 19.3991 57.9819 19.1891C57.6819 18.6991 57.3819 17.7791 57.3019 17.2691L57.0219 15.5291L55.3619 13.7891L53.1319 13.9391L52.8519 15.0491C52.6419 17.3391 53.4319 18.4291 53.4619 18.4791L53.4919 18.5291L54.3819 18.8491L54.4419 20.1591L54.5719 20.1991C55.0319 20.3291 55.4319 20.3891 55.8019 20.3891L55.7919 20.3791Z" fill="white"/>
<path d="M57.8119 19.2891L57.6519 19.3891M55.7919 20.3791C56.8919 20.3791 57.5719 19.8791 57.8519 19.6091C57.8619 19.5991 57.8819 19.5891 57.8919 19.5791C57.9419 19.5391 58.1119 19.3991 57.9819 19.1891C57.6819 18.6991 57.3819 17.7791 57.3019 17.2691L57.0219 15.5291L55.3619 13.7891L53.1319 13.9391L52.8519 15.0491C52.6419 17.3391 53.4319 18.4291 53.4619 18.4791L53.4919 18.5291L54.3819 18.8491L54.4419 20.1591L54.5719 20.1991C55.0319 20.3291 55.4319 20.3891 55.8019 20.3891L55.7919 20.3791Z" stroke="black" stroke-linecap="round" stroke-linejoin="round"/>
<path d="M56.0295 21.3606C57.3495 21.3606 58.3895 20.6906 58.7495 20.1006C58.9495 19.7706 58.9595 19.4606 58.7695 19.2506C58.6595 19.1206 58.5295 19.0806 58.4395 19.0506C58.4095 19.0506 58.3895 19.0306 58.3595 19.0206C58.0295 18.8606 57.6095 18.9406 57.3395 19.2306C57.1795 19.4006 56.7995 19.7106 56.0495 19.8406C55.2395 19.9806 54.9495 19.8906 54.8395 19.8206C54.5895 19.6606 54.2795 19.6606 54.0595 19.8206C53.4795 20.2406 53.3295 20.6206 53.2995 20.7306L53.2695 20.8206L53.3695 20.9806L53.8395 21.0206C54.2195 21.0506 54.5895 21.1106 54.9095 21.2006C55.2895 21.3106 55.6595 21.3506 55.9995 21.3506L56.0295 21.3606Z" fill="#878787" stroke="black" stroke-linecap="round" stroke-linejoin="round"/>
<path d="M47.8882 21.9909L47.2082 21.0909L46.6982 20.2209L46.3882 19.3809C45.9382 17.8509 48.0082 17.1309 48.0482 17.4109V18.3809C48.0482 18.3809 48.2182 19.0409 48.3182 19.3309C48.3382 19.3809 48.7582 19.7909 48.7582 19.7909L49.4082 18.6509C49.6182 18.3909 49.8682 18.5509 49.7482 18.8809L49.3282 20.3909C49.3282 20.3909 48.9782 21.1109 48.9482 21.1809L48.9182 21.2509L49.0682 21.7909L48.0982 22.3209L47.8982 22.0109L47.8882 21.9909Z" fill="white" stroke="black" stroke-linecap="round" stroke-linejoin="round"/>
<path d="M49.8092 30.7502C49.9492 30.7502 50.0892 30.7002 50.2092 30.6202C50.7992 30.1802 51.2992 29.6902 51.6892 29.1602C53.7992 26.2802 54.3392 23.1102 54.3692 22.9302C54.5292 22.2202 54.3992 21.2702 53.8292 20.9102C53.5592 20.7402 53.0992 20.6502 52.4392 21.1702C51.4992 21.9202 50.6192 24.8902 50.1692 26.7002C50.1392 26.0402 50.0692 25.2702 49.9392 24.7202C49.6392 23.4202 49.4492 22.4102 49.3692 21.8002C49.3592 21.6802 49.2892 21.5702 49.1792 21.5102C49.0792 21.4402 48.9492 21.4302 48.8292 21.4702L47.8792 21.7902C47.5792 21.8902 47.3792 22.1802 47.4092 22.5002L48.1392 28.3102C48.1592 28.6002 48.2292 28.9002 48.3392 29.1902C48.5092 29.6202 48.7692 30.0102 49.0992 30.3302L49.2492 30.4702C49.3492 30.6102 49.4992 30.7202 49.6792 30.7502C49.7192 30.7502 49.7592 30.7602 49.7992 30.7602L49.8092 30.7502Z" fill="white" stroke="black" stroke-linecap="round" stroke-linejoin="round"/>
<path d="M55.3196 18.9297C55.5096 19.2697 55.7096 19.6197 55.7996 19.9997C55.9096 20.4397 55.8696 20.8897 55.8596 21.3397C55.8396 22.1097 55.8996 22.8997 56.2296 23.5897C56.2896 23.7097 56.3596 23.8297 56.4796 23.8897C56.5796 23.9397 56.6996 23.9297 56.8096 23.9097C57.2596 23.8497 57.7096 23.6997 58.0696 23.4297C58.4296 23.1597 58.7196 22.7497 58.7796 22.2997C58.8796 21.6097 58.4896 20.9497 58.3096 20.2697C58.1696 19.7297 58.1696 19.1497 58.3096 18.5997C58.5496 17.6797 58.9796 16.8297 59.1596 15.8897C59.3396 14.9497 59.1896 13.7097 58.6796 12.8897C57.4796 10.9597 54.2296 11.2697 53.1196 13.1397C52.3896 14.3697 53.4296 15.4297 53.6396 15.6297C53.7996 15.7797 54.0996 15.6797 54.2996 15.7897C54.4596 15.8797 54.6496 16.0797 54.7496 16.2297C55.0096 16.5997 55.0896 17.0997 54.9896 17.5297C54.9596 17.6797 54.9096 17.8297 54.9096 17.9897C54.9096 18.1697 54.9796 18.3297 55.0596 18.4897C55.1396 18.6497 55.2196 18.7997 55.3096 18.9497L55.3196 18.9297Z" fill="black" stroke="black" stroke-linecap="round" stroke-linejoin="round"/>
<path d="M56.5011 42.3504L56.3711 37.1504" stroke="black" stroke-linecap="round" stroke-linejoin="round"/>
<path d="M27.1707 22.3802C27.5107 21.8402 27.9307 21.3502 28.4607 20.9402L28.4907 20.9102C28.7707 21.0402 29.1307 21.3102 29.4207 21.5002C29.3307 21.7302 29.1507 21.9302 28.9107 22.1202L28.4407 22.6202L28.3207 22.9902C28.1507 23.2002 28.0107 23.1602 27.8807 23.0302L27.9207 23.2702L28.0507 23.8202L28.3407 24.1502C28.4407 24.3202 28.1207 24.5202 27.9707 24.5102C27.9707 24.5102 27.5007 24.4102 27.4107 24.2402L27.1107 23.5002C27.0507 23.1102 27.0607 22.7302 27.1707 22.3702V22.3802Z" fill="white" stroke="black" stroke-linecap="round" stroke-linejoin="round"/>
</g>
<defs>
<clipPath id="clip0_43_6988">
<rect width="64" height="64" fill="white"/>
</clipPath>
</defs>
</svg>
