<svg width="64" height="64" viewBox="0 0 64 64" fill="none" xmlns="http://www.w3.org/2000/svg">
<g clip-path="url(#clip0_43_6550)">
<path d="M56.02 53.2399C56.02 53.2399 56.56 55.0599 55.98 55.7099C55.82 55.8899 55.11 55.9499 54.29 55.7699C53.75 55.6499 53.18 55.3299 52.65 55.2599C51.09 55.0399 50.69 54.3699 50.04 53.5099C48.66 51.6799 51.17 52.2299 52.8 52.7999C54.51 53.4099 56.03 53.2499 56.03 53.2499L56.02 53.2399Z" fill="white" stroke="black" stroke-linecap="round" stroke-linejoin="round"/>
<path d="M55.4609 29.3809C55.3909 32.1509 55.7909 38.7509 56.1209 41.1409C56.6809 45.2109 56.2209 54.0009 56.2209 54.0009C55.2609 54.5809 54.2409 54.9909 53.1409 54.8109C52.1309 54.6409 51.3009 54.2709 50.5609 53.7409L50.7209 44.6609L50.2709 39.2109L50.1309 32.1409L50.4809 29.9009L55.4509 29.3809H55.4609Z" fill="#878787" stroke="black" stroke-linecap="round" stroke-linejoin="round"/>
<path d="M50.0593 56.2302C50.0593 56.2302 50.5993 58.0502 50.0193 58.7002C49.8593 58.8802 49.1493 58.9401 48.3293 58.7601C47.7893 58.6401 47.2193 58.3202 46.6893 58.2502C45.1293 58.0302 44.7293 57.3602 44.0693 56.5002C42.6893 54.6702 45.1993 55.2202 46.8293 55.7902C48.5393 56.4002 50.0593 56.2402 50.0593 56.2402V56.2302Z" fill="white" stroke="black" stroke-linecap="round" stroke-linejoin="round"/>
<path d="M47.1899 57.8007C46.1799 57.6307 45.3499 57.2607 44.6099 56.7307L44.3199 42.2007L43.9199 34.9007L44.7599 31.4707H50.0599C50.0599 31.4707 49.7299 41.0007 50.1599 44.1307C50.7199 48.2007 50.2599 56.9907 50.2599 56.9907C49.2999 57.5707 48.2799 57.9807 47.1799 57.8007H47.1899Z" fill="#878787" stroke="black" stroke-linecap="round" stroke-linejoin="round"/>
<path d="M43.4303 12.5605L40.7203 12.8005L39.6103 13.4905C39.5103 13.5705 38.9903 13.9005 39.0103 14.2505C39.0203 14.4805 39.2503 15.8005 39.6803 15.6405C39.9703 15.5405 42.2003 14.3405 42.2003 14.3405C42.3603 14.2805 42.8803 14.2705 42.9603 14.1705L43.5303 13.5005L43.4503 12.5605H43.4303Z" fill="white" stroke="black" stroke-linecap="round" stroke-linejoin="round"/>
<path d="M44.6208 12.2491C43.4708 12.0891 42.4108 12.8791 42.2508 14.0291C42.0908 15.1691 42.8908 16.2291 44.0408 16.3891L48.1308 16.4791C49.2808 16.6391 50.3408 15.8491 50.5008 14.6991C50.6608 13.5591 49.8608 12.4991 48.7108 12.3391L44.6208 12.2491Z" fill="white" stroke="black" stroke-linecap="round" stroke-linejoin="round"/>
<path d="M43.1897 33.9502C43.0897 32.9102 45.2697 21.3502 44.8897 20.2002C43.2997 15.3502 46.4097 13.0102 47.4697 12.5402C47.4697 12.5402 48.5397 13.7602 50.9297 13.2402C53.3597 12.7102 52.2897 11.2402 52.2897 11.2402C55.4597 11.2802 55.6297 15.4102 55.7197 16.8802C55.7697 17.6202 55.0797 20.2102 55.3797 24.2702C55.4797 25.6202 56.1097 26.2302 56.3897 27.7302C56.7897 29.8502 56.8497 32.7402 56.8697 33.3402C56.1197 34.0002 54.6697 34.4402 51.9497 34.6402C51.6797 34.6602 51.5497 31.5702 51.2797 31.5802C51.1197 31.5802 50.8197 34.7002 50.6597 34.7102C47.6897 34.8302 43.7197 34.6402 43.1797 33.9502H43.1897Z" fill="white" stroke="black" stroke-linecap="round" stroke-linejoin="round"/>
<path d="M51.8492 11.1505C51.8492 12.1705 50.0492 12.4405 48.6792 12.5805C48.3992 12.3305 48.2392 12.0805 48.2392 12.0805L48.1992 10.0405L51.8092 9.73047L51.8792 11.1305C51.8792 11.1305 51.8492 11.1505 51.8492 11.1605V11.1505Z" fill="white" stroke="black" stroke-linecap="round" stroke-linejoin="round"/>
<path d="M52.3292 8.27004C50.6392 10.04 49.9692 10.02 48.2892 8.83004C46.5992 7.64004 45.8992 5.95004 46.2992 3.45004C46.7292 0.790039 49.8992 0.120039 51.9092 1.35004C55.7592 3.70004 54.4292 6.08004 52.3292 8.28004V8.27004Z" fill="white" stroke="black" stroke-linecap="round" stroke-linejoin="round"/>
<path d="M51.5991 6.55912C51.4991 7.30912 51.0591 9.51912 50.5891 9.92912C49.9291 10.4991 48.0491 10.8891 47.1891 10.1991C46.0291 9.27912 46.1891 7.33912 46.1891 4.91912C46.1891 2.49912 47.7491 2.04912 49.0791 3.07912C50.4091 4.10912 51.9191 4.17912 51.5991 6.55912Z" fill="white" stroke="black" stroke-linecap="round" stroke-linejoin="round"/>
<path d="M54.3293 4.11956C54.1793 3.07956 53.2293 1.96956 53.2293 1.96956C53.0493 1.82956 50.3893 -1.19044 46.1993 2.07956C45.3293 2.75956 45.6093 5.12956 45.6093 5.12956C45.6093 5.12956 47.5093 5.31956 47.7393 5.50956C47.9493 5.67956 48.7593 7.00956 49.4393 8.19956C49.5293 8.35956 49.6193 8.51957 49.6993 8.66957C50.0593 9.30957 50.4893 10.6396 52.1693 9.53957C52.2893 9.42957 55.0893 6.52956 54.3293 4.12956V4.11956Z" fill="#878787" stroke="black" stroke-linecap="round" stroke-linejoin="round"/>
<path d="M47.2704 12.9107C47.2704 12.6907 48.0003 11.3107 48.1903 11.4607C48.9003 12.0207 50.9704 11.9007 51.4704 11.6407C51.9204 11.4107 51.8703 10.7207 51.8703 10.7207C51.8703 10.7207 54.7104 13.2007 50.7803 13.9707C49.9904 14.1207 49.1104 14.0707 48.3904 13.7207C47.7804 13.4207 46.7004 13.4707 47.2704 12.9107Z" fill="white" stroke="black" stroke-linecap="round" stroke-linejoin="round"/>
<path d="M52.0993 12.3105C52.2293 12.0305 52.3693 11.7505 52.5193 11.4605C56.2893 5.76045 51.3293 3.93045 51.3193 3.91045C51.2793 3.58045 51.4193 3.34045 51.6293 3.21045C51.7993 3.07045 52.0093 2.96045 52.1993 2.87045C52.2893 2.83045 52.6893 2.35045 53.6393 2.33045C54.9993 2.31045 57.1093 3.07045 57.3793 9.35045C57.4393 10.6105 57.9293 13.7105 57.2893 15.5005C57.0493 15.9005 56.6893 16.2405 56.1993 16.2405C56.0893 16.2405 55.9593 16.2405 55.8393 16.2405C54.1193 15.5805 51.6393 14.7705 51.9793 13.1905C52.0393 12.9105 52.0793 12.6205 52.0993 12.3205V12.3105Z" fill="#878787" stroke="black" stroke-linecap="round" stroke-linejoin="round"/>
<path d="M30.1799 15.3407L37.9299 19.8507C38.2799 20.0607 38.8699 20.0607 39.2199 19.8507L45.0499 16.4807C45.2299 16.3807 45.3199 16.2407 45.3199 16.1007V16.6307C45.3199 16.7707 45.2299 16.9007 45.0499 17.0107L39.2199 20.3807C38.8599 20.5907 38.2799 20.5907 37.9299 20.3807L30.1799 15.8707C29.9999 15.7707 29.9199 15.6307 29.9199 15.5007V14.9707C29.9199 15.1107 30.0099 15.2407 30.1799 15.3407Z" fill="white" stroke="black" stroke-linecap="round" stroke-linejoin="round"/>
<path d="M30.1802 14.59C29.8202 14.8 29.8202 15.13 30.1802 15.34L37.9302 19.85C38.2802 20.06 38.8702 20.06 39.2202 19.85L45.0502 16.48C45.4102 16.27 45.4102 15.94 45.0502 15.73L37.3002 11.22C36.9502 11.01 36.3602 11.01 36.0102 11.22L30.1802 14.59Z" fill="white" stroke="black" stroke-linecap="round" stroke-linejoin="round"/>
<path d="M42.9796 14.0301C43.1496 13.9301 43.3596 13.9801 43.4696 14.1401C43.5696 14.3101 43.5196 14.5201 43.3596 14.6301L41.7096 15.6501C41.5396 15.7501 41.3296 15.7001 41.2196 15.5401C41.1196 15.3701 41.1696 15.1601 41.3296 15.0501L42.9796 14.0301Z" fill="white" stroke="black" stroke-linecap="round" stroke-linejoin="round"/>
<path d="M32.6807 13.2499C32.6207 13.2099 32.5307 13.1599 32.4307 13.0999C32.2507 12.9899 32.2607 12.8099 32.4607 12.6999L33.0807 12.3399C33.2807 12.2299 33.5907 12.2199 33.7707 12.3199C33.8707 12.3799 33.9607 12.4299 34.0207 12.4599L34.3507 12.2699C34.4407 12.2199 34.5807 12.2199 34.6707 12.2699L34.9107 12.4099L35.1507 12.5499C35.2407 12.5999 35.2407 12.6899 35.1507 12.7399L33.1507 13.8999C33.0607 13.9499 32.9207 13.9499 32.8307 13.8999L32.5907 13.7599L32.3507 13.6199C32.2607 13.5699 32.2607 13.4799 32.3507 13.4299L32.6807 13.2399V13.2499Z" fill="white" stroke="black" stroke-linecap="round" stroke-linejoin="round"/>
<path d="M36.9392 20.6001L35.5692 19.8501L34.4292 19.0601L33.5592 18.1801C32.1092 16.5201 33.6992 17.7101 33.8992 17.9501L33.1392 17.0501C32.8992 16.8101 33.0792 16.5201 33.3292 16.7101L34.4392 17.7201L33.2292 15.8501C33.0492 15.5701 33.2292 15.2401 33.5292 15.5301L35.0392 17.2601L34.3892 16.0401L34.0692 15.0401C33.9892 14.6601 34.2992 14.4301 34.4992 14.7601L35.0692 15.9601C35.0692 15.9601 35.6492 16.6901 35.9392 17.0101C35.9892 17.0601 36.7592 17.3301 36.7592 17.3301L36.9092 15.5301C37.0192 15.0901 37.4392 15.1401 37.4592 15.6201L37.7992 17.7501C37.7992 17.7501 37.7792 18.8501 37.7792 18.9501V19.0501L38.2692 19.6401L37.3492 20.8701L36.9292 20.6001H36.9392Z" fill="white" stroke="black" stroke-linecap="round" stroke-linejoin="round"/>
<path d="M36.9903 18.9491C37.8703 18.1991 39.1903 18.3191 39.9403 19.1991L41.0403 20.2291L44.6803 15.1391C45.3703 14.1591 46.7203 13.9191 47.7003 14.6091C48.6703 15.2991 48.9003 16.6491 48.2103 17.6291L43.2603 24.5491C42.7003 25.3391 41.7203 25.6391 40.8503 25.3691C40.7803 25.3491 40.7103 25.3291 40.6303 25.2991C40.6303 25.2991 40.6303 25.2991 40.6203 25.2991C40.2903 25.1791 39.9903 24.9791 39.7503 24.6991L36.7603 21.9091C36.0103 21.0291 36.1103 19.6991 36.9903 18.9591V18.9491Z" fill="white" stroke="black" stroke-linecap="round" stroke-linejoin="round"/>
</g>
<defs>
<clipPath id="clip0_43_6550">
<rect width="64" height="64" fill="white"/>
</clipPath>
</defs>
</svg>
