<svg width="64" height="64" viewBox="0 0 64 64" fill="none" xmlns="http://www.w3.org/2000/svg">
<g clip-path="url(#clip0_43_6491)">
<path d="M13.9414 28.8208C15.6314 28.4608 17.4414 28.2908 19.2914 28.3008C19.2914 27.2908 19.2914 26.2908 19.2914 25.2808C17.4414 25.2608 15.6314 25.4408 13.9414 25.8008C13.9414 26.7108 13.9414 27.9208 13.9414 28.8208Z" fill="white" stroke="black" stroke-linecap="round" stroke-linejoin="round"/>
<path d="M24.2109 26.8208C27.1009 27.3108 29.7409 28.2208 31.9109 29.4808C31.9109 28.4708 31.9109 27.4708 31.9109 26.4608C29.7309 25.1908 27.0909 24.2908 24.2109 23.8008C24.2109 24.7108 24.2109 25.9208 24.2109 26.8208Z" fill="white" stroke="black" stroke-linecap="round" stroke-linejoin="round"/>
<path d="M31.9102 29.4907C31.9802 29.5307 32.0502 29.5707 32.1202 29.6107C32.1202 28.6007 32.1202 27.6007 32.1202 26.5907C32.0502 26.5507 31.9802 26.5107 31.9102 26.4707C31.9102 27.4807 31.9102 28.4807 31.9102 29.4907Z" fill="white" stroke="black" stroke-linecap="round" stroke-linejoin="round"/>
<path d="M15.1699 30.5802C16.4599 30.3202 17.8299 30.1902 19.2399 30.2002C19.2399 29.1902 19.2399 28.1902 19.2399 27.1802C17.8299 27.1702 16.4599 27.3002 15.1699 27.5602C15.1699 28.4702 15.1699 29.6802 15.1699 30.5802Z" fill="white" stroke="black" stroke-linecap="round" stroke-linejoin="round"/>
<path d="M13.9414 25.8008V28.8208L15.1714 30.5808L15.1614 27.5608L13.9414 25.8008Z" fill="white" stroke="black" stroke-linecap="round" stroke-linejoin="round"/>
<path d="M19.3008 28.3012C23.2008 28.3412 26.8508 29.2412 29.5908 30.8312C29.5908 29.8212 29.5908 28.8212 29.5908 27.8112C26.8508 26.2112 23.2008 25.3112 19.3008 25.2812C19.3008 26.2912 19.3008 27.2912 19.3008 28.3012Z" fill="white" stroke="black" stroke-linecap="round" stroke-linejoin="round"/>
<path d="M29.5898 30.8403C29.6398 30.8703 29.6998 30.9003 29.7498 30.9403C29.7498 29.9303 29.7498 28.9303 29.7498 27.9203C29.6998 27.8903 29.6398 27.8603 29.5898 27.8203C29.5898 28.8303 29.5898 29.8303 29.5898 30.8403Z" fill="white" stroke="black" stroke-linecap="round" stroke-linejoin="round"/>
<path d="M19.2305 30.1997C22.2705 30.2297 25.1205 30.9297 27.2605 32.1797C27.2605 31.1697 27.2605 30.1697 27.2605 29.1597C25.1205 27.9097 22.2805 27.2097 19.2305 27.1797C19.2305 28.1897 19.2305 29.1897 19.2305 30.1997Z" fill="white" stroke="black" stroke-linecap="round" stroke-linejoin="round"/>
<path d="M27.2617 32.1802C27.2617 32.1802 27.3417 32.2302 27.3917 32.2602C27.3917 31.2502 27.3917 30.2502 27.3917 29.2402C27.3517 29.2102 27.3117 29.1902 27.2617 29.1602C27.2617 30.1702 27.2617 31.1702 27.2617 32.1802Z" fill="white" stroke="black" stroke-linecap="round" stroke-linejoin="round"/>
<path d="M4.08984 33.9608V36.9808C4.08984 36.9208 4.08984 36.8608 4.09984 36.7908C4.17984 34.5308 5.73984 32.4208 8.48984 30.8308C8.54984 30.8008 8.60984 30.7608 8.66984 30.7308C10.2098 29.8708 11.9998 29.2308 13.9398 28.8208V25.8008C11.9898 26.2108 10.1898 26.8608 8.65984 27.7108C8.59984 27.7408 8.53984 27.7808 8.47984 27.8108C5.71984 29.4008 4.15984 31.5108 4.08984 33.7708C4.08984 33.8308 4.08984 33.8908 4.08984 33.9608Z" fill="white" stroke="black" stroke-linecap="round" stroke-linejoin="round"/>
<path d="M9.96094 29.7012V32.7212L12.5709 33.8712L12.5609 30.8512L9.96094 29.7012Z" fill="#B69751" stroke="black" stroke-linecap="round" stroke-linejoin="round"/>
<path d="M25.0203 33.5804C25.1903 33.6804 25.3503 33.7804 25.5003 33.8904C25.5003 32.8804 25.5003 31.8804 25.5003 30.8704C25.3503 30.7604 25.1903 30.6604 25.0203 30.5604C23.4803 29.6304 21.4003 29.1104 19.1703 29.0904C16.9403 29.0704 14.8303 29.5504 13.2203 30.4504C13.1903 30.4704 13.1503 30.4904 13.1203 30.5104C12.9203 30.6204 12.7403 30.7404 12.5703 30.8604V33.8804C12.7503 33.7604 12.9403 33.6404 13.1303 33.5304C13.1603 33.5104 13.2003 33.4904 13.2303 33.4704C14.8403 32.5704 16.9503 32.0904 19.1803 32.1104C21.4103 32.1304 23.4903 32.6504 25.0303 33.5804H25.0203Z" fill="white" stroke="black" stroke-linecap="round" stroke-linejoin="round"/>
<path d="M32.1213 29.6098C35.3913 31.5798 37.1913 34.1498 37.2013 36.8798V33.8598C37.1813 31.1298 35.3913 28.5598 32.1113 26.5898C32.1113 27.5998 32.1113 28.5998 32.1113 29.6098H32.1213Z" fill="white" stroke="black" stroke-linecap="round" stroke-linejoin="round"/>
<path d="M29.76 30.9302C32.44 32.5402 33.91 34.6502 33.92 36.8802V33.8602C33.9 31.6202 32.43 29.5202 29.75 27.9102C29.75 28.9202 29.75 29.9202 29.75 30.9302H29.76Z" fill="white" stroke="black" stroke-linecap="round" stroke-linejoin="round"/>
<path d="M27.3909 32.2505C29.4809 33.5105 30.6309 35.1505 30.6309 36.8905V33.8705C30.6209 32.1305 29.4709 30.4805 27.3809 29.2305C27.3809 30.2405 27.3809 31.2405 27.3809 32.2505H27.3909Z" fill="white" stroke="black" stroke-linecap="round" stroke-linejoin="round"/>
<path d="M25.5002 33.8911C26.7002 34.7411 27.3502 35.8011 27.3502 36.9111V33.8911C27.3402 32.7811 26.6902 31.7211 25.4902 30.8711C25.4902 31.8811 25.4902 32.8811 25.4902 33.8911H25.5002Z" fill="white" stroke="black" stroke-linecap="round" stroke-linejoin="round"/>
<path d="M24.0709 36.9212V33.9013C24.0609 33.2113 23.6409 32.5512 22.8809 32.0312V35.0513C23.6509 35.5813 24.0709 36.2312 24.0709 36.9212Z" fill="white" stroke="black" stroke-linecap="round" stroke-linejoin="round"/>
<path d="M27.3498 36.9106V33.8906C27.3498 33.8906 27.3498 33.9606 27.3398 34.0006V37.0206C27.3398 37.0206 27.3498 36.9506 27.3498 36.9106Z" fill="white" stroke="black" stroke-linecap="round" stroke-linejoin="round"/>
<path d="M0.871094 34.8701L0.881094 37.8901L4.13109 37.6001L4.12109 34.5801L0.871094 34.8701Z" fill="#B69751" stroke="black" stroke-linecap="round" stroke-linejoin="round"/>
<path d="M0.800781 33.9707V36.9907C0.800781 37.2907 0.830781 37.5907 0.880781 37.8807V34.8607C0.830781 34.5707 0.810781 34.2707 0.800781 33.9707Z" fill="white" stroke="black" stroke-linecap="round" stroke-linejoin="round"/>
<path d="M24.7812 37.39V40.41C24.7812 40.41 24.8612 40.37 24.8912 40.35C26.4212 39.46 27.2812 38.31 27.3512 37.07C27.3512 37.05 27.3512 37.03 27.3512 37.02V34C27.3512 34 27.3412 34.04 27.3412 34.05C27.2712 35.29 26.4112 36.44 24.8812 37.33C24.8512 37.35 24.8112 37.37 24.7812 37.39Z" fill="white" stroke="black" stroke-linecap="round" stroke-linejoin="round"/>
<path d="M18.8301 38.7506V41.7706C21.0701 41.7906 23.1801 41.3106 24.7901 40.4106V37.3906C23.1701 38.2906 21.0601 38.7706 18.8301 38.7506Z" fill="white" stroke="black" stroke-linecap="round" stroke-linejoin="round"/>
<path d="M22.8798 32.0311C23.6698 32.5711 24.0898 33.2511 24.0598 33.9711C24.0298 34.7411 23.5098 35.4511 22.5698 35.9911C22.5498 36.0011 22.5298 36.0111 22.5098 36.0311C21.5398 36.5711 20.2498 36.8711 18.8998 36.8511L18.8398 38.7511C21.0698 38.7711 23.1798 38.2911 24.7898 37.3911C24.8198 37.3711 24.8598 37.3511 24.8898 37.3311C26.4198 36.4411 27.2798 35.2911 27.3498 34.0511C27.3498 34.0311 27.3498 34.0111 27.3498 34.0011C27.3898 32.8511 26.7398 31.7511 25.4998 30.8711L22.8898 32.0311H22.8798Z" fill="white" stroke="black" stroke-linecap="round" stroke-linejoin="round"/>
<path d="M30.6305 36.9009V33.8809C30.6305 33.8809 30.6305 33.9809 30.6205 34.0309C30.6205 34.0409 30.6205 34.0609 30.6205 34.1009C30.5305 35.8309 29.3305 37.4409 27.2005 38.6809C27.1505 38.7109 27.1105 38.7309 27.0605 38.7609V41.7809C27.1205 41.7509 27.1605 41.7309 27.2105 41.7009C29.3405 40.4609 30.5405 38.8509 30.6305 37.1209C30.6305 37.0709 30.6305 37.0609 30.6305 37.0509C30.6305 37.0009 30.6305 36.9509 30.6305 36.9009Z" fill="white" stroke="black" stroke-linecap="round" stroke-linejoin="round"/>
<path d="M33.9198 36.9106V33.8906C33.9198 33.9506 33.9198 34.0206 33.9098 34.0806C33.9098 34.1606 33.9098 34.2406 33.8998 34.3206C33.7198 36.4706 32.1898 38.4706 29.5198 40.0206C29.4598 40.0506 29.3998 40.0906 29.3398 40.1206V43.1406C29.4098 43.1106 29.4698 43.0706 29.5298 43.0406C32.1898 41.4906 33.7298 39.4906 33.9098 37.3406C33.9098 37.2606 33.9198 37.1806 33.9198 37.1006C33.9198 37.0406 33.9198 36.9706 33.9198 36.9106Z" fill="white" stroke="black" stroke-linecap="round" stroke-linejoin="round"/>
<path d="M10.7912 29.1605C10.4912 29.3305 10.2112 29.5105 9.95117 29.7005L12.5612 30.8505C12.7312 30.7305 12.9212 30.6105 13.1112 30.5005C13.1412 30.4805 13.1812 30.4605 13.2112 30.4405C14.8212 29.5405 16.9312 29.0605 19.1612 29.0805C21.3912 29.1005 23.4712 29.6205 25.0112 30.5505C25.1812 30.6505 25.3412 30.7505 25.4912 30.8605C26.7312 31.7405 27.3812 32.8405 27.3412 33.9905C27.3412 34.0105 27.3412 34.0305 27.3412 34.0405C27.2712 35.2805 26.4112 36.4305 24.9012 37.3105C24.8512 37.3405 24.8112 37.3605 24.7812 37.3805C23.1712 38.2805 21.0612 38.7605 18.8312 38.7405L18.7712 40.6405C21.8812 40.6705 24.8212 40.0005 27.0612 38.7505C27.1112 38.7205 27.1512 38.7005 27.2012 38.6705C29.3312 37.4305 30.5312 35.8205 30.6212 34.0905C30.6212 34.0405 30.6212 34.0305 30.6212 34.0205C30.6812 32.2205 29.5312 30.5205 27.3812 29.2305C27.3412 29.2005 27.3012 29.1805 27.2512 29.1505C25.1112 27.9005 22.2712 27.2005 19.2212 27.1705C17.8112 27.1605 16.4412 27.2905 15.1512 27.5505C13.5912 27.8705 12.1512 28.3805 10.9312 29.0605C10.8812 29.0905 10.8312 29.1105 10.7912 29.1405V29.1605Z" fill="#B69751" stroke="black" stroke-linecap="round" stroke-linejoin="round"/>
<path d="M18.7715 40.6498V43.6698C21.8815 43.6998 24.8315 43.0298 27.0715 41.7798V38.7598C24.8215 40.0098 21.8815 40.6798 18.7715 40.6498Z" fill="white" stroke="black" stroke-linecap="round" stroke-linejoin="round"/>
<path d="M37.2013 36.9712V33.9512C37.2013 34.0312 37.2013 34.1212 37.1913 34.2012C37.0513 36.9012 35.1713 39.4212 31.8313 41.3612C31.7613 41.4012 31.6813 41.4412 31.6113 41.4812V44.5012C31.6913 44.4612 31.7713 44.4212 31.8413 44.3812C35.1713 42.4412 37.0613 39.9212 37.2013 37.2212C37.2013 37.1412 37.2013 37.0512 37.2013 36.9712Z" fill="white" stroke="black" stroke-linecap="round" stroke-linejoin="round"/>
<path d="M18.7012 42.5511V45.5711C22.6912 45.6111 26.4612 44.7511 29.3412 43.1411V40.1211C26.4612 41.7211 22.6912 42.5911 18.7012 42.5511Z" fill="white" stroke="black" stroke-linecap="round" stroke-linejoin="round"/>
<path d="M6.17002 26.4701C2.80002 28.4101 0.900019 30.9901 0.810019 33.7501C0.800019 34.1301 0.810019 34.5001 0.870019 34.8701L4.13002 34.5801C4.10002 34.3101 4.09002 34.0501 4.09002 33.7801C4.17002 31.5201 5.73002 29.4101 8.48002 27.8201C8.54002 27.7901 8.60002 27.7501 8.66002 27.7201C10.2 26.8601 11.99 26.2201 13.93 25.8101C15.62 25.4501 17.43 25.2801 19.28 25.2901C23.18 25.3301 26.83 26.2301 29.57 27.8201C29.62 27.8501 29.68 27.8801 29.73 27.9201C32.49 29.5801 33.97 31.7601 33.89 34.0701C33.89 34.1801 33.89 34.2501 33.87 34.3301C33.69 36.4801 32.16 38.4801 29.52 40.0101C29.43 40.0601 29.37 40.1001 29.31 40.1301C26.44 41.7301 22.66 42.6001 18.68 42.5601L18.62 44.4601C23.48 44.5101 28.08 43.4501 31.59 41.5001C31.66 41.4601 31.74 41.4201 31.81 41.3801C35.14 39.4401 37.03 36.9201 37.17 34.2201C37.27 31.2901 35.47 28.6301 32.1 26.6001C32.03 26.5601 31.96 26.5201 31.89 26.4801C29.71 25.2101 27.07 24.3101 24.19 23.8201C22.64 23.5601 21.01 23.4101 19.34 23.4001C14.48 23.3501 9.88002 24.4101 6.37002 26.3601C6.30002 26.4001 6.22002 26.4401 6.15002 26.4901L6.17002 26.4701Z" fill="#B69751" stroke="black" stroke-linecap="round" stroke-linejoin="round"/>
<path d="M13.9414 25.801L15.1614 27.571C16.4514 27.311 17.8214 27.181 19.2314 27.191C22.2714 27.221 25.1214 27.921 27.2614 29.171C27.3014 29.191 27.3414 29.221 27.3914 29.251C29.5414 30.541 30.6914 32.251 30.6314 34.041C30.5414 35.841 29.3314 37.451 27.2314 38.671C27.1614 38.711 27.1114 38.741 27.0614 38.761C24.8214 40.011 21.8814 40.681 18.7714 40.651L18.7114 42.551C22.6914 42.591 26.4714 41.731 29.3414 40.121C29.4014 40.091 29.4614 40.051 29.5214 40.021C32.1814 38.471 33.7214 36.471 33.9014 34.321C33.9014 34.241 33.9114 34.161 33.9114 34.081C33.9914 31.751 32.5114 29.561 29.7514 27.901C29.7014 27.871 29.6414 27.841 29.5914 27.801C26.8514 26.201 23.2014 25.301 19.3014 25.271C17.4514 25.251 15.6414 25.431 13.9514 25.791L13.9414 25.801Z" fill="white" stroke="black" stroke-linecap="round" stroke-linejoin="round"/>
<path d="M18.6406 44.4502V47.4702C23.5106 47.5202 28.1106 46.4602 31.6206 44.5102V41.4902C28.1106 43.4502 23.5006 44.5002 18.6406 44.4502Z" fill="white" stroke="black" stroke-linecap="round" stroke-linejoin="round"/>
<path d="M25.1703 21.9905L24.2003 23.8105C27.0903 24.3005 29.7303 25.2105 31.9003 26.4705C31.9703 26.5105 32.0403 26.5505 32.1103 26.5905C35.4803 28.6105 37.2803 31.2805 37.1803 34.0905C37.0303 36.9105 35.1503 39.4305 31.8603 41.3405C31.7503 41.4005 31.6803 41.4505 31.6003 41.4905C28.1003 43.4505 23.4903 44.5005 18.6303 44.4505L18.5703 46.3505C24.6303 46.4105 30.1503 45.0105 34.1303 42.7105C37.9503 40.5105 40.3503 37.4805 40.4603 34.1205C40.6503 28.4105 34.1703 23.5305 25.1603 21.9805L25.1703 21.9905Z" fill="white" stroke="black" stroke-linecap="round" stroke-linejoin="round"/>
<path d="M40.4801 36.8696V33.8496C40.4801 33.9396 40.4801 34.0296 40.4701 34.1196C40.3601 37.4796 37.9501 40.5096 34.1401 42.7096C30.1601 45.0096 24.6301 46.4096 18.5801 46.3496V49.3696C24.6501 49.4296 30.1701 48.0296 34.1501 45.7296C37.9701 43.5296 40.3701 40.4996 40.4801 37.1396C40.4801 37.0496 40.4801 36.9596 40.4801 36.8696Z" fill="white" stroke="black" stroke-linecap="round" stroke-linejoin="round"/>
<path d="M56.02 53.2399C56.02 53.2399 56.56 55.0599 55.98 55.7099C55.82 55.8899 55.11 55.9499 54.29 55.7699C53.75 55.6499 53.18 55.3299 52.65 55.2599C51.09 55.0399 50.69 54.3699 50.04 53.5099C48.66 51.6799 51.17 52.2299 52.8 52.7999C54.51 53.4099 56.03 53.2499 56.03 53.2499L56.02 53.2399Z" fill="white" stroke="black" stroke-linecap="round" stroke-linejoin="round"/>
<path d="M55.4609 29.3809C55.3909 32.1509 55.7909 38.7509 56.1209 41.1409C56.6809 45.2109 56.2209 54.0009 56.2209 54.0009C55.2609 54.5809 54.2409 54.9909 53.1409 54.8109C52.1309 54.6409 51.3009 54.2709 50.5609 53.7409L50.7209 44.6609L50.2709 39.2109L50.1309 32.1409L50.4809 29.9009L55.4509 29.3809H55.4609Z" fill="#B69751" stroke="black" stroke-linecap="round" stroke-linejoin="round"/>
<path d="M50.0593 56.2302C50.0593 56.2302 50.5993 58.0502 50.0193 58.7002C49.8593 58.8802 49.1493 58.9401 48.3293 58.7601C47.7893 58.6401 47.2193 58.3202 46.6893 58.2502C45.1293 58.0302 44.7293 57.3602 44.0693 56.5002C42.6893 54.6702 45.1993 55.2202 46.8293 55.7902C48.5393 56.4002 50.0593 56.2402 50.0593 56.2402V56.2302Z" fill="white" stroke="black" stroke-linecap="round" stroke-linejoin="round"/>
<path d="M47.1899 57.8007C46.1799 57.6307 45.3499 57.2607 44.6099 56.7307L44.3199 42.2007L43.9199 34.9007L44.7599 31.4707H50.0599C50.0599 31.4707 49.7299 41.0007 50.1599 44.1307C50.7199 48.2007 50.2599 56.9907 50.2599 56.9907C49.2999 57.5707 48.2799 57.9807 47.1799 57.8007H47.1899Z" fill="#B69751" stroke="black" stroke-linecap="round" stroke-linejoin="round"/>
<path d="M43.4303 12.5605L40.7203 12.8005L39.6103 13.4905C39.5103 13.5705 38.9903 13.9005 39.0103 14.2505C39.0203 14.4805 39.2503 15.8005 39.6803 15.6405C39.9703 15.5405 42.2003 14.3405 42.2003 14.3405C42.3603 14.2805 42.8803 14.2705 42.9603 14.1705L43.5303 13.5005L43.4503 12.5605H43.4303Z" fill="white" stroke="black" stroke-linecap="round" stroke-linejoin="round"/>
<path d="M44.6208 12.2491C43.4708 12.0891 42.4108 12.8791 42.2508 14.0291C42.0908 15.1691 42.8908 16.2291 44.0408 16.3891L48.1308 16.4791C49.2808 16.6391 50.3408 15.8491 50.5008 14.6991C50.6608 13.5591 49.8608 12.4991 48.7108 12.3391L44.6208 12.2491Z" fill="white" stroke="black" stroke-linecap="round" stroke-linejoin="round"/>
<path d="M43.1897 33.9502C43.0897 32.9102 45.2697 21.3502 44.8897 20.2002C43.2997 15.3502 46.4097 13.0102 47.4697 12.5402C47.4697 12.5402 48.5397 13.7602 50.9297 13.2402C53.3597 12.7102 52.2897 11.2402 52.2897 11.2402C55.4597 11.2802 55.6297 15.4102 55.7197 16.8802C55.7697 17.6202 55.0797 20.2102 55.3797 24.2702C55.4797 25.6202 56.1097 26.2302 56.3897 27.7302C56.7897 29.8502 56.8497 32.7402 56.8697 33.3402C56.1197 34.0002 54.6697 34.4402 51.9497 34.6402C51.6797 34.6602 51.5497 31.5702 51.2797 31.5802C51.1197 31.5802 50.8197 34.7002 50.6597 34.7102C47.6897 34.8302 43.7197 34.6402 43.1797 33.9502H43.1897Z" fill="white" stroke="black" stroke-linecap="round" stroke-linejoin="round"/>
<path d="M51.8492 11.1505C51.8492 12.1705 50.0492 12.4405 48.6792 12.5805C48.3992 12.3305 48.2392 12.0805 48.2392 12.0805L48.1992 10.0405L51.8092 9.73047L51.8792 11.1305C51.8792 11.1305 51.8492 11.1505 51.8492 11.1605V11.1505Z" fill="white" stroke="black" stroke-linecap="round" stroke-linejoin="round"/>
<path d="M52.3292 8.27004C50.6392 10.04 49.9692 10.02 48.2892 8.83004C46.5992 7.64004 45.8992 5.95004 46.2992 3.45004C46.7292 0.790039 49.8992 0.120039 51.9092 1.35004C55.7592 3.70004 54.4292 6.08004 52.3292 8.28004V8.27004Z" fill="white" stroke="black" stroke-linecap="round" stroke-linejoin="round"/>
<path d="M51.5991 6.55912C51.4991 7.30912 51.0591 9.51912 50.5891 9.92912C49.9291 10.4991 48.0491 10.8891 47.1891 10.1991C46.0291 9.27912 46.1891 7.33912 46.1891 4.91912C46.1891 2.49912 47.7491 2.04912 49.0791 3.07912C50.4091 4.10912 51.9191 4.17912 51.5991 6.55912Z" fill="white" stroke="black" stroke-linecap="round" stroke-linejoin="round"/>
<path d="M54.3293 4.11956C54.1793 3.07956 53.2293 1.96956 53.2293 1.96956C53.0493 1.82956 50.3893 -1.19044 46.1993 2.07956C45.3293 2.75956 45.6093 5.12956 45.6093 5.12956C45.6093 5.12956 47.5093 5.31956 47.7393 5.50956C47.9493 5.67956 48.7593 7.00956 49.4393 8.19956C49.5293 8.35956 49.6193 8.51957 49.6993 8.66957C50.0593 9.30957 50.4893 10.6396 52.1693 9.53957C52.2893 9.42957 55.0893 6.52956 54.3293 4.12956V4.11956Z" fill="#B69751" stroke="black" stroke-linecap="round" stroke-linejoin="round"/>
<path d="M47.2704 12.9107C47.2704 12.6907 48.0003 11.3107 48.1903 11.4607C48.9003 12.0207 50.9704 11.9007 51.4704 11.6407C51.9204 11.4107 51.8703 10.7207 51.8703 10.7207C51.8703 10.7207 54.7104 13.2007 50.7803 13.9707C49.9904 14.1207 49.1104 14.0707 48.3904 13.7207C47.7804 13.4207 46.7004 13.4707 47.2704 12.9107Z" fill="white" stroke="black" stroke-linecap="round" stroke-linejoin="round"/>
<path d="M52.0993 12.3105C52.2293 12.0305 52.3693 11.7505 52.5193 11.4605C56.2893 5.76045 51.3293 3.93045 51.3193 3.91045C51.2793 3.58045 51.4193 3.34045 51.6293 3.21045C51.7993 3.07045 52.0093 2.96045 52.1993 2.87045C52.2893 2.83045 52.6893 2.35045 53.6393 2.33045C54.9993 2.31045 57.1093 3.07045 57.3793 9.35045C57.4393 10.6105 57.9293 13.7105 57.2893 15.5005C57.0493 15.9005 56.6893 16.2405 56.1993 16.2405C56.0893 16.2405 55.9593 16.2405 55.8393 16.2405C54.1193 15.5805 51.6393 14.7705 51.9793 13.1905C52.0393 12.9105 52.0793 12.6205 52.0993 12.3205V12.3105Z" fill="#B69751" stroke="black" stroke-linecap="round" stroke-linejoin="round"/>
<path d="M30.1799 15.3407L37.9299 19.8507C38.2799 20.0607 38.8699 20.0607 39.2199 19.8507L45.0499 16.4807C45.2299 16.3807 45.3199 16.2407 45.3199 16.1007V16.6307C45.3199 16.7707 45.2299 16.9007 45.0499 17.0107L39.2199 20.3807C38.8599 20.5907 38.2799 20.5907 37.9299 20.3807L30.1799 15.8707C29.9999 15.7707 29.9199 15.6307 29.9199 15.5007V14.9707C29.9199 15.1107 30.0099 15.2407 30.1799 15.3407Z" fill="white" stroke="black" stroke-linecap="round" stroke-linejoin="round"/>
<path d="M30.1802 14.59C29.8202 14.8 29.8202 15.13 30.1802 15.34L37.9302 19.85C38.2802 20.06 38.8702 20.06 39.2202 19.85L45.0502 16.48C45.4102 16.27 45.4102 15.94 45.0502 15.73L37.3002 11.22C36.9502 11.01 36.3602 11.01 36.0102 11.22L30.1802 14.59Z" fill="white" stroke="black" stroke-linecap="round" stroke-linejoin="round"/>
<path d="M42.9796 14.0301C43.1496 13.9301 43.3596 13.9801 43.4696 14.1401C43.5696 14.3101 43.5196 14.5201 43.3596 14.6301L41.7096 15.6501C41.5396 15.7501 41.3296 15.7001 41.2196 15.5401C41.1196 15.3701 41.1696 15.1601 41.3296 15.0501L42.9796 14.0301Z" fill="white" stroke="black" stroke-linecap="round" stroke-linejoin="round"/>
<path d="M32.6807 13.2499C32.6207 13.2099 32.5307 13.1599 32.4307 13.0999C32.2507 12.9899 32.2607 12.8099 32.4607 12.6999L33.0807 12.3399C33.2807 12.2299 33.5907 12.2199 33.7707 12.3199C33.8707 12.3799 33.9607 12.4299 34.0207 12.4599L34.3507 12.2699C34.4407 12.2199 34.5807 12.2199 34.6707 12.2699L34.9107 12.4099L35.1507 12.5499C35.2407 12.5999 35.2407 12.6899 35.1507 12.7399L33.1507 13.8999C33.0607 13.9499 32.9207 13.9499 32.8307 13.8999L32.5907 13.7599L32.3507 13.6199C32.2607 13.5699 32.2607 13.4799 32.3507 13.4299L32.6807 13.2399V13.2499Z" fill="white" stroke="black" stroke-linecap="round" stroke-linejoin="round"/>
<path d="M36.9392 20.6001L35.5692 19.8501L34.4292 19.0601L33.5592 18.1801C32.1092 16.5201 33.6992 17.7101 33.8992 17.9501L33.1392 17.0501C32.8992 16.8101 33.0792 16.5201 33.3292 16.7101L34.4392 17.7201L33.2292 15.8501C33.0492 15.5701 33.2292 15.2401 33.5292 15.5301L35.0392 17.2601L34.3892 16.0401L34.0692 15.0401C33.9892 14.6601 34.2992 14.4301 34.4992 14.7601L35.0692 15.9601C35.0692 15.9601 35.6492 16.6901 35.9392 17.0101C35.9892 17.0601 36.7592 17.3301 36.7592 17.3301L36.9092 15.5301C37.0192 15.0901 37.4392 15.1401 37.4592 15.6201L37.7992 17.7501C37.7992 17.7501 37.7792 18.8501 37.7792 18.9501V19.0501L38.2692 19.6401L37.3492 20.8701L36.9292 20.6001H36.9392Z" fill="white" stroke="black" stroke-linecap="round" stroke-linejoin="round"/>
<path d="M36.9903 18.9491C37.8703 18.1991 39.1903 18.3191 39.9403 19.1991L41.0403 20.2291L44.6803 15.1391C45.3703 14.1591 46.7203 13.9191 47.7003 14.6091C48.6703 15.2991 48.9003 16.6491 48.2103 17.6291L43.2603 24.5491C42.7003 25.3391 41.7203 25.6391 40.8503 25.3691C40.7803 25.3491 40.7103 25.3291 40.6303 25.2991C40.6303 25.2991 40.6303 25.2991 40.6203 25.2991C40.2903 25.1791 39.9903 24.9791 39.7503 24.6991L36.7603 21.9091C36.0103 21.0291 36.1103 19.6991 36.9903 18.9591V18.9491Z" fill="white" stroke="black" stroke-linecap="round" stroke-linejoin="round"/>
</g>
<defs>
<clipPath id="clip0_43_6491">
<rect width="64" height="64" fill="white"/>
</clipPath>
</defs>
</svg>
