<svg width="64" height="64" viewBox="0 0 64 64" fill="none" xmlns="http://www.w3.org/2000/svg">
<path d="M20.8598 9.44873C21.6198 10.7087 24.0298 14.7787 24.4698 15.6187C25.1098 16.8387 22.5698 19.4687 20.7898 16.3187C19.0198 13.1687 17.6098 11.3087 17.4298 10.9787C16.3998 9.12873 19.8098 7.71873 20.8598 9.44873Z" fill="white" stroke="black" stroke-linecap="round" stroke-linejoin="round"/>
<path d="M14.8409 47.7396C14.8409 47.9996 14.9209 49.3496 15.1609 50.0196C15.4009 50.6896 15.4609 52.8096 13.8709 52.9096C12.2809 53.0096 11.9609 51.6196 11.9609 50.7696C11.9609 49.9196 12.1309 48.6696 12.1309 47.8696C12.1309 47.0696 13.1009 46.8496 13.5709 46.8496C14.0409 46.8496 14.8509 47.2796 14.8509 47.7396H14.8409Z" fill="white" stroke="black" stroke-linecap="round" stroke-linejoin="round"/>
<path d="M20.6906 44.2012C20.6906 44.2012 21.2906 45.0612 22.3506 45.9012C23.4106 46.7412 23.5706 47.3812 22.8706 47.7812C22.1006 48.2212 21.4006 48.0212 20.1906 47.3212C18.9706 46.6212 18.9206 46.4312 18.8706 46.3712C18.8206 46.3112 18.7806 46.2812 18.7206 46.3112C18.6306 46.3512 18.5206 46.3512 18.4306 46.3012L17.5806 45.8112C17.4606 45.7412 17.3906 45.6212 17.3906 45.4812V44.1512C17.3906 43.5312 19.7206 42.8012 20.7006 44.2012H20.6906Z" fill="white" stroke="black" stroke-linecap="round" stroke-linejoin="round"/>
<path d="M21.1802 24.8694C21.1802 24.8694 21.4402 33.9194 21.2202 35.8494C20.8102 39.4394 20.9202 43.9194 20.9202 44.4294C20.9202 44.6994 20.7302 45.0394 19.1802 45.0694C18.5902 45.0794 17.3202 44.7394 17.3202 44.2094C17.3202 43.6794 16.8502 37.2994 17.1302 35.4194C17.1302 35.4194 16.3502 30.6794 15.8002 25.4394C15.2702 20.3194 21.0102 21.8894 21.1902 24.8694H21.1802Z" fill="#878787" stroke="black" stroke-linecap="round" stroke-linejoin="round"/>
<path d="M17.0483 27.6095C17.0483 27.6095 16.5883 35.2095 16.1583 37.0995C15.3783 40.5795 15.3083 46.7895 15.3083 47.2895C15.3083 47.7895 15.0283 48.4295 13.4783 48.4595C12.8883 48.4695 11.7083 48.1095 11.7083 47.5795C11.7083 47.0495 11.5983 38.2995 11.8683 36.4195C11.8683 36.4195 11.7083 33.5495 11.3183 28.1595C10.9383 23.0295 16.8583 24.6195 17.0483 27.5995V27.6095Z" fill="#878787" stroke="black" stroke-linecap="round" stroke-linejoin="round"/>
<path d="M20.4112 8.96011C19.5212 8.16011 17.8512 7.70011 16.8212 8.31011C16.2112 8.67011 15.3612 9.15011 14.5412 9.62011C13.3012 10.3401 11.5712 11.3201 11.0112 11.6501C10.4612 11.9701 10.5112 13.9901 11.0112 16.9001C11.2712 18.3801 11.7312 21.5701 11.6212 23.0601L11.2712 26.4801C11.2712 27.0501 10.7812 28.3701 14.2912 28.7501C15.4612 28.8801 21.2212 26.5001 21.2112 25.1701C21.1812 21.5201 21.4812 9.93011 20.4012 8.96011H20.4112Z" fill="white" stroke="black" stroke-linecap="round" stroke-linejoin="round"/>
<path d="M17.2886 10.8892L17.8386 10.4492L17.9786 11.8292C17.9786 11.8292 19.4086 15.4692 20.0586 23.4492L19.0986 24.9192L17.8786 23.9392C18.2486 18.6692 17.4286 12.1492 17.4286 12.1492L16.5586 11.0892C16.7986 11.0292 17.2886 10.8992 17.2886 10.8992V10.8892Z" fill="black" stroke="black" stroke-miterlimit="10"/>
<path d="M14.2715 8.30956C14.2815 8.70956 14.1615 9.60956 13.9215 9.91956C13.6615 10.2596 15.6515 11.5896 17.2915 10.8996C17.8415 10.6696 17.5015 8.84956 16.4515 8.16956C16.4515 8.16956 15.5315 7.42956 14.9915 7.65956C14.9915 7.65956 14.2615 7.88956 14.2715 8.31956V8.30956Z" fill="white" stroke="black" stroke-linecap="round" stroke-linejoin="round"/>
<path d="M14.0595 9.66016C14.0595 9.66016 14.9995 11.0202 17.2895 10.9002C17.2895 10.9002 17.0595 11.5502 17.0195 12.7002C17.0195 12.7002 13.9995 11.6802 13.5195 10.2102C13.5195 10.2102 13.9595 9.80016 14.0595 9.66016Z" fill="white" stroke="black" stroke-linecap="round" stroke-linejoin="round"/>
<path d="M17.2894 10.9005C17.2894 10.9005 18.2994 11.5305 18.6794 12.0505C18.6794 12.0505 18.6794 9.55047 16.9794 8.23047L16.3594 8.27047C16.3594 8.27047 17.6394 9.43047 17.2894 10.9105V10.9005Z" fill="white" stroke="black" stroke-linecap="round" stroke-linejoin="round"/>
<path d="M18.2411 1.86098C19.0411 2.40098 19.4211 3.39098 19.4111 3.88098L19.1411 7.35098C18.9511 8.83098 18.5111 10.001 17.1511 9.96098C17.1511 9.96098 13.5711 9.68098 13.0011 6.75098L12.6811 5.20098C12.1511 1.92098 14.1311 0.890982 15.9611 1.05098C17.4211 1.18098 18.2311 1.87098 18.2311 1.87098L18.2411 1.86098Z" fill="white" stroke="black" stroke-linecap="round" stroke-linejoin="round"/>
<path d="M19.3112 2.74097C18.8412 0.98097 16.3912 0.55097 15.4012 0.57097C14.5212 0.59097 11.8212 1.17097 12.4012 5.11097C12.8612 8.27097 14.2912 8.91097 14.8112 9.20097C14.8412 9.22097 14.8612 9.18097 14.8412 9.16097C14.5312 8.80097 13.4012 7.29097 13.7412 6.80097C14.0012 6.42097 14.2612 6.56097 14.4212 6.71097C14.5112 6.79097 14.5712 6.89097 14.6212 7.00097L14.8512 7.51097C14.8512 7.51097 14.9212 7.53097 14.9212 7.50097V6.36097C14.9212 6.11097 15.1012 5.88097 15.3412 5.82097C15.4312 5.80097 15.5312 5.77097 15.6212 5.75097C15.5812 6.06097 15.4312 6.47097 15.4012 6.53097C17.6812 5.76097 18.6312 5.42097 19.0312 5.23097C19.2912 5.11097 19.3712 4.89097 19.4112 4.73097C19.6012 3.98097 19.4412 3.27097 19.3112 2.74097Z" fill="#878787" stroke="black" stroke-linecap="round" stroke-linejoin="round"/>
<path d="M24.9105 18.0594L23.6005 18.0094L25.1905 17.7294C25.4105 17.6494 25.3005 17.4294 25.0605 17.4794L23.6805 17.5894C23.9005 17.5694 25.9205 16.6894 24.3405 16.8994L22.6905 17.1294C22.6905 17.1294 22.6405 17.0194 22.5405 16.7994C22.3805 16.4294 22.3205 16.2394 22.3605 15.8594C22.4005 15.4794 21.9905 15.6194 21.9505 15.7194C21.8905 15.8694 21.6205 16.7194 21.6005 17.0194C21.5805 17.3194 21.4005 17.3894 21.2305 17.5194C20.7205 17.8994 20.9205 18.4494 21.1805 18.8194C21.4405 19.1994 22.0805 19.4994 22.3505 19.2894C22.5105 19.1694 24.9005 18.7794 24.6405 18.6794L24.2705 18.6294L23.6505 18.5694L24.9905 18.3794C25.2905 18.3194 25.1605 18.0794 24.9205 18.0694L24.9105 18.0594Z" fill="white" stroke="black" stroke-linecap="round" stroke-linejoin="round"/>
<path d="M12.9808 13.9108C13.6108 14.9808 15.0708 17.9908 15.4108 18.1608C15.7508 18.3308 19.9308 16.7108 20.7508 16.5608C21.5708 16.4108 22.2408 19.4108 21.6408 19.6108C20.1008 20.1408 16.3608 22.1308 14.7508 21.6908C13.1408 21.2408 10.5208 17.0608 10.1108 16.2908C8.71084 13.6408 9.74084 12.3708 10.9608 11.6608C11.6008 11.2908 12.9808 13.9108 12.9808 13.9108Z" fill="white" stroke="black" stroke-linecap="round" stroke-linejoin="round"/>
<path d="M19.7116 10.8396C19.6016 10.7996 18.9316 10.1596 18.4316 9.71961C18.3016 9.61961 18.2016 9.65961 18.1316 9.79961L18.3616 10.2096L18.0116 9.83961C17.8016 9.77961 17.6616 9.83961 17.5816 10.0096L17.9316 10.5496L17.4516 10.0696C17.2816 10.0296 17.1716 10.0896 17.1416 10.2396L17.5516 10.7296C17.5016 10.6696 17.2416 10.4996 16.9716 10.3496C16.7516 10.3396 16.6416 10.4396 16.6016 10.5996L17.4616 11.5596C17.4616 11.5596 17.1616 11.0696 16.8316 11.2596C16.6216 11.3796 17.3416 11.9396 17.4116 12.0096C17.6716 12.2696 18.0216 12.9296 18.2816 12.7796C18.5416 12.6196 18.7016 12.7296 18.9016 12.7896C19.5116 12.9796 19.8416 12.5096 19.9916 12.0796C20.1516 11.6496 20.0216 10.9596 19.7016 10.8496L19.7116 10.8396Z" fill="white" stroke="black" stroke-linecap="round" stroke-linejoin="round"/>
<path d="M20.3197 10.6698C21.4097 11.6598 23.8997 14.8598 24.4697 15.6098C25.3297 16.7298 23.2897 19.1498 21.7697 17.5798C19.4097 15.1598 18.2397 13.3298 17.9697 13.0598C16.8697 11.9398 19.3697 9.79981 20.3097 10.6598L20.3197 10.6698Z" fill="white" stroke="black" stroke-linecap="round" stroke-linejoin="round"/>
<path d="M32.929 53.3007C32.929 53.3007 31.489 52.9507 31.199 53.4607C30.919 53.9507 32.859 55.7707 34.629 55.5007C34.829 55.4707 35.009 55.3507 35.109 55.1807C35.309 54.8507 35.439 54.2207 34.519 53.3207L33.469 53.9107L32.929 53.3007Z" fill="white" stroke="black" stroke-linecap="round" stroke-linejoin="round"/>
<path d="M33.5591 53.3105C33.4791 53.3105 32.4191 53.1305 32.1891 53.3105C31.9591 53.4905 32.0491 54.0105 32.8191 54.3405C33.5891 54.6705 34.4791 54.7405 34.7091 54.5905C34.9491 54.4405 34.9291 53.6905 34.6191 52.9805C34.3091 52.2705 33.5591 53.3105 33.5591 53.3105Z" fill="white" stroke="black" stroke-linecap="round" stroke-linejoin="round"/>
<path d="M25.9993 57.3002H25.9793C25.8193 57.2802 24.1893 57.1402 24.3693 57.9802C24.5493 58.8202 27.2293 59.0802 28.4693 58.7002C28.5793 58.6702 28.6693 58.5802 28.7093 58.4702C28.8093 58.1802 28.9293 57.6002 28.2593 57.5702C27.4093 57.5402 26.1393 57.3202 26.0093 57.3002H25.9993Z" fill="white" stroke="black" stroke-linecap="round" stroke-linejoin="round"/>
<path d="M26.9104 56.5312V56.7113C26.9104 56.7113 26.5604 57.3013 25.9904 57.3013C25.4204 57.3013 24.9604 57.3613 25.0504 57.7113C25.1404 58.0513 26.9204 58.6613 28.2504 58.2812C28.7904 58.1313 28.7004 57.3813 28.4004 56.5413H26.9204L26.9104 56.5312Z" fill="white" stroke="black" stroke-linecap="round" stroke-linejoin="round"/>
<path d="M35.2983 25.7305C35.4683 25.9605 36.0583 26.6105 36.6883 27.5605C37.2783 28.4605 35.1783 30.3305 34.1883 31.0905L33.4883 29.8305C33.7183 29.5305 34.6783 28.2405 34.7983 28.0505C34.8683 27.9505 34.8683 27.7805 34.4583 27.2305C34.3283 27.0505 34.1283 26.7605 34.0383 26.6605L35.2983 25.7405V25.7305Z" fill="white" stroke="black" stroke-linecap="round" stroke-linejoin="round"/>
<path d="M34.4092 32.5801L34.7992 44.8101C34.7992 44.8101 35.1892 48.9301 34.7992 53.4101C34.7992 53.4101 34.0792 53.9701 33.4992 53.4101L30.9492 36.6001V32.9801L34.4092 32.5801Z" fill="#878787" stroke="black" stroke-linecap="round" stroke-linejoin="round"/>
<path d="M33.0985 29.3203C33.0985 29.3203 34.4385 30.8203 34.5585 32.3303C34.6785 33.8303 34.5185 35.6503 32.0185 36.2903C32.0185 36.2903 31.5685 37.5503 29.7885 46.9403C29.7885 46.9403 29.8385 51.6403 28.5685 56.8503C28.5685 56.8503 27.3685 57.6403 26.7685 56.7703C26.7685 56.7703 25.2185 31.8103 28.9485 29.4803L33.0985 29.3203Z" fill="#878787" stroke="black" stroke-linecap="round" stroke-linejoin="round"/>
<path d="M26.5513 26.7689C26.5113 26.8289 26.2013 28.2589 26.1613 28.4389C26.1213 28.6189 25.2613 28.4289 24.3013 27.3889C23.3513 26.3589 22.2013 24.8589 21.0013 25.0289C21.0013 25.0289 20.7813 25.2789 21.1713 25.6089C21.1713 25.6089 20.3113 25.5689 19.7213 25.2989C19.1313 25.0289 20.0413 26.7389 21.9213 26.5189C21.9213 26.5189 23.9113 30.2389 26.3113 30.8289C26.4313 30.8589 26.5613 30.8589 26.6813 30.8289C26.9413 30.7489 27.4113 30.5689 27.5713 30.2189C27.7913 29.7089 28.7613 27.5289 28.7613 27.5289L26.5513 26.7789V26.7689Z" fill="white" stroke="black" stroke-linecap="round" stroke-linejoin="round"/>
<path d="M33.2092 29.3888C33.0692 29.5488 32.4092 30.2288 31.2192 30.2088C30.9192 30.2088 30.6092 30.1689 30.3092 30.1189C29.5892 29.9789 29.0592 29.7389 28.8792 29.6488L28.9992 27.9389C28.9992 27.8889 28.9692 27.8389 28.9192 27.8189L26.4492 26.9189C26.5092 26.6889 26.6792 26.0988 27.0392 25.4588C27.4692 24.7088 28.2592 23.7188 29.5992 23.2988C29.7992 23.2388 30.0092 23.1889 30.2192 23.1489C30.2192 23.1489 30.2192 23.1489 30.2292 23.1489C30.2292 23.1489 30.8492 22.9789 31.6692 22.9789C31.6692 22.9789 31.6792 22.9789 31.6892 22.9789C31.7092 22.9789 33.4092 22.7688 34.1292 23.5488C34.1492 23.5688 34.1592 23.5889 34.1792 23.5989C34.7892 24.3389 35.2892 25.3189 35.4392 25.6189L33.9592 26.7088C33.4992 26.1688 33.3592 26.1789 33.3192 26.1889C33.1992 26.2089 33.1692 26.3088 33.1592 26.7988C33.1592 27.0588 33.1592 27.4188 33.1592 27.8788C33.1692 28.5388 33.1992 29.2088 33.2092 29.3888Z" fill="white" stroke="black" stroke-linecap="round" stroke-linejoin="round"/>
<path d="M29.9084 22.1397L29.9484 23.0797C29.9484 23.0797 30.1484 23.3997 31.1084 23.2697C31.1084 23.2697 31.7284 23.1897 31.8184 22.9397C31.9084 22.6897 31.8684 21.9297 31.8684 21.9297L29.8984 22.1397H29.9084Z" fill="white" stroke="black" stroke-linecap="round" stroke-linejoin="round"/>
<path d="M27.4099 17.1289C27.4099 17.1289 26.7499 20.5389 28.7999 21.6189C30.8399 22.6989 32.1399 17.9589 32.1399 17.9589L27.4199 17.1389L27.4099 17.1289Z" fill="white" stroke="black" stroke-linecap="round" stroke-linejoin="round"/>
<path d="M27.5117 17.2695L31.9817 18.0495C31.8017 18.6295 31.0117 21.0495 29.8317 21.5695C29.5117 21.7095 29.1917 21.6895 28.8517 21.5195" fill="white"/>
<path d="M27.5117 17.2695L31.9817 18.0495C31.8017 18.6295 31.0117 21.0495 29.8317 21.5695C29.5117 21.7095 29.1917 21.6895 28.8517 21.5195" stroke="black" stroke-linecap="round" stroke-linejoin="round"/>
<path d="M27.8214 17.7508C27.8214 17.7508 24.4614 15.8208 28.4414 14.1308C32.4214 12.4408 34.9914 15.4708 35.4214 16.5608C35.8414 17.6508 37.2314 20.5308 35.7114 21.4808C34.1914 22.4308 29.5814 23.0308 28.5214 22.0808C28.5214 22.0808 27.8914 21.0608 28.9814 20.2508C30.0714 19.4408 30.2114 18.7308 29.4414 18.5208C29.4414 18.5208 29.1814 18.5108 28.9814 18.7408C28.7814 18.9708 28.4714 18.8908 28.4514 18.6608C28.4314 18.4308 28.4914 18.0408 27.8214 17.7408V17.7508Z" fill="black" stroke="black" stroke-miterlimit="10"/>
</svg>
